<?xml version="1.0" encoding="UTF-8" standalone="no"?>
<svg
   xmlns="http://www.w3.org/2000/svg"
   xmlns:xlink="http://www.w3.org/1999/xlink"
   version="1.1"
   width="382.73935"
   height="449.65619"
   viewBox="0 0 382.73935 449.65619"
   style="background:#000;">
  <defs>
    <symbol
       viewBox="0 0 382.73935 449.65619"
       preserveAspectRatio="xMidYMid meet"
       id="9thLegion">
      <style>
        .leaf {fill: #ffff00;}
      </style>
      <use
         x="39"
         y="0"
         width="343.77853"
         height="449.65619"
         xlink:href="EagleOutline.svg#eagle" />
      <path
         d="m 50.313652,56.856386 c 0,0 -7.84109,15.296647 -9.14794,16.571359 -1.306859,1.912078 -1.960261,1.912078 -3.920541,1.274713 -1.960279,-1.274713 -8.49451,-4.461503 -8.49451,-4.461503 0,0 5.88082,24.857025 5.88082,26.769112 0.653411,1.912068 -1.30685,3.824163 -3.92055,1.912068 C 30.057501,98.284779 18.9493,86.17495 18.9493,86.17495 c 0,0 -2.6137,5.73624 -3.26713,7.010962 -0.65342,1.274703 -1.30684,1.912068 -2.61369,1.274703 C 11.108209,93.823259 0.653428,91.91119 0.653428,91.91119 c 0,0 3.920532,12.10983 4.573961,14.02191 0.653412,1.27472 1.30685,2.54944 -1.30685,3.82417 L -9.9999999e-7,111.03199 c 0,0 21.56298199999999,18.48342 22.21641199999999,19.1208 1.30685,1.2747 1.960279,1.2747 1.30685,4.4615 -1.30685,3.18681 -1.96028,7.01097 -1.96028,7.01097 0,0 20.256151,-4.46153 22.216422,-4.46153 1.960279,0 3.920549,0.63737 3.920549,2.54944 0,1.91209 -1.306849,23.58232 -1.306849,23.58232 l 6.534249,0 c 0,0 -1.30685,-21.03287 -1.30685,-23.58232 0,-1.91207 1.960271,-2.54944 3.920541,-2.54944 1.960279,0.63737 22.216412,4.46153 22.216412,4.46153 0,0 -1.306832,-4.46153 -1.96028,-7.01097 -1.306831,-3.1868 0,-3.82416 1.306869,-4.4615 0.653411,-0.63738 22.216417,-19.1208 22.216417,-19.1208 l -3.92054,-1.27472 c -1.96026,-1.27473 -1.30684,-2.54945 -1.30684,-3.82417 0.65342,-1.27471 4.57397,-14.02191 4.57397,-14.02191 0,0 -10.4548,1.912069 -12.41507,2.549425 -1.306856,0.637365 -1.960276,-0.637356 -2.613706,-1.274703 -0.65342,-1.274722 -3.26712,-7.010962 -3.26712,-7.010962 0,0 -11.108202,12.747185 -11.761622,12.747185 -1.960279,1.274735 -4.573979,0 -3.920559,-1.912068 0,-1.912087 5.880829,-26.769112 5.880829,-26.769112 0,0 -6.534249,3.824164 -8.49452,4.461503 -1.30685,1.27473 -2.6137,1.27473 -3.92054,-1.274713 0,-1.912086 -7.841091,-16.571359 -7.841091,-16.571359 z"
         class="leaf" />
    </symbol>
  </defs>
  <g>
    <use
       x="0"
       y="0"
       width="382.25894"
       height="449.65619"
       xlink:href="#9thLegion" />
  </g>
</svg>
