<?xml version="1.0" encoding="UTF-8" standalone="no"?>
<svg
   xmlns="http://www.w3.org/2000/svg"
   xmlns:xlink="http://www.w3.org/1999/xlink"
   version="1.1"
   width="561.96838"
   height="619.51477"
   style="background-color:#000;">
  <defs>
    <symbol
       viewBox="0 0 561.9683 619.51477"
       preserveAspectRatio="xMidYMid meet"
       id="9thLegionText">
      <style>
        .NinthLegionName, .NinthLegionSlogan {fill: #fff;}
      </style>
      <use
         x="79.584175"
         y="84.103264"
         width="382.73935"
         height="449.65619"
         xlink:href="9thLegion.svg#9thLegion" />
      <path
         d="m 501.19414,168.40531 40.52986,-20.95932 6.33354,12.24743 -23.84363,21.65091 31.40673,-7.02589 6.34777,12.27505 -40.52984,20.95932 -3.93167,-7.60279 31.90411,-16.49868 -36.06443,8.45355 -4.07465,-7.87928 27.75794,-24.51618 -31.90402,16.49868 z m -10.7846,-14.33372 37.34191,-26.22103 5.29434,7.5397 -37.34191,26.22102 z m -17.63815,-43.99743 6.60919,6.11798 c -1.88943,2.40287 -2.81293,4.68945 -2.77065,6.85977 0.0422,2.1703 0.99423,4.30188 2.85618,6.39478 1.97223,2.21688 3.92721,3.47012 5.86503,3.7597 1.93783,0.28954 3.5346,-0.12425 4.79035,-1.24136 0.80613,-0.71718 1.28183,-1.56388 1.42701,-2.5401 0.14522,-0.97624 -0.0973,-2.23965 -0.7266,-3.79024 -0.43808,-1.0544 -1.57633,-3.33282 -3.41466,-6.83526 -2.36779,-4.50338 -3.54707,-8.09223 -3.53777,-10.76661 0.0141,-3.76165 1.36968,-6.84236 4.06713,-9.242141 1.73635,-1.544644 3.79812,-2.497109 6.18553,-2.857382 2.38718,-0.36024 4.80021,0.03418 7.23897,1.183428 2.43877,1.149231 4.82358,3.033825 7.15438,5.653785 3.80647,4.27879 5.73371,8.3339 5.78187,12.16533 0.0482,3.83144 -1.44535,7.19437 -4.48044,10.08882 l -6.42576,-6.61432 c 1.48975,-1.85302 2.18735,-3.60533 2.09277,-5.25695 -0.0951,-1.65161 -1.00385,-3.44634 -2.72777,-5.3842 -1.77921,-1.99985 -3.58299,-3.20016 -5.41143,-3.60092 -1.17527,-0.2597 -2.20476,0.003 -3.08842,0.78961 -0.80615,0.71719 -1.19266,1.67198 -1.15942,2.86439 0.0435,1.51636 1.15976,4.30054 3.34818,8.35253 2.18827,4.05198 3.57372,7.25606 4.1563,9.61226 0.58247,2.35618 0.54463,4.63939 -0.11396,6.84963 -0.65823,2.21021 -2.06482,4.27385 -4.21962,6.19091 -1.95346,1.73773 -4.26546,2.82255 -6.93611,3.25446 -2.67077,0.43186 -5.3035,0.0245 -7.89825,-1.22193 -2.59478,-1.24653 -5.20929,-3.35031 -7.8434,-6.31132 -3.83406,-4.3098 -5.78258,-8.50577 -5.84543,-12.58791 -0.0622,-4.08215 1.61264,-8.0444 5.02636,-11.88674 z m -39.12582,-13.42982 28.71153,-34.980924 7.12123,5.844981 -23.83412,29.038495 17.70699,14.533468 -4.87727,5.94243 z m -15.28699,-9.946423 24.9854,-38.179656 7.70887,5.044816 -24.9854,38.179655 z m -47.0253,-24.377226 19.61653,-41.196493 12.44889,5.927791 -5.90608,31.660625 20.77165,-24.582075 12.47698,5.94116 -19.61658,41.196493 -7.72782,-3.679774 15.44165,-32.428896 -23.61914,28.535014 -8.00887,-3.813582 7.29231,-36.309383 -15.44167,32.428894 z m -61.8518,-14.736826 8.48789,-44.832083 8.8074,1.667468 12.68046,33.412925 5.66829,-29.939009 8.40982,1.592198 -8.48791,44.832085 -9.0826,-1.719584 -12.53842,-32.657449 -5.53509,29.235647 z M 258.04026,23.77229 c 0.0212,-4.647852 0.73397,-8.545576 2.13852,-11.693213 1.04801,-2.319187 2.47363,-4.398068 4.27689,-6.236646 1.80318,-1.838495 3.77543,-3.199024 5.91668,-4.081578 2.84813,-1.1905 6.12926,-1.777336 9.84345,-1.760501 6.72277,0.03056 12.09259,2.140372 16.10943,6.329302 4.01675,4.189024 6.00832,9.997656 5.97458,17.42593 -0.0335,7.366069 -2.06204,13.120108 -6.08556,17.262165 -4.02357,4.142069 -9.38637,6.197865 -16.08844,6.167403 -6.78509,-0.03089 -12.17048,-2.125109 -16.15631,-6.282827 -3.98585,-4.157716 -5.96226,-9.86771 -5.92924,-17.130035 z m 9.49428,-0.268101 c -0.0237,5.166631 1.15181,9.088507 3.52589,11.765641 2.37403,2.677157 5.39738,4.024085 9.07008,4.040767 3.67261,0.01668 6.6925,-1.292381 9.05959,-3.927234 2.36707,-2.634842 3.56262,-6.597812 3.58671,-11.888936 0.0237,-5.228835 -1.10494,-9.134933 -3.38602,-11.718319 -2.28116,-2.583315 -5.32031,-3.883624 -9.11742,-3.900918 -3.79716,-0.01715 -6.86362,1.270893 -9.19937,3.864347 -2.33579,2.593525 -3.51561,6.515072 -3.53946,11.764652 z m -25.56988,25.473676 -5.65891,-45.276227 9.14173,-1.142594 5.65892,45.276216 z m -31.68101,-10.787776 -1.91776,-7.444711 19.22962,-4.953593 4.53433,17.602046 c -1.4029,2.289828 -3.7003,4.579749 -6.89221,6.869741 -3.19202,2.290016 -6.60649,3.903468 -10.24339,4.840354 -4.62157,1.190513 -8.9001,1.258827 -12.83561,0.204909 -3.93551,-1.05391 -7.23187,-3.161702 -9.88904,-6.32337 -2.65717,-3.161641 -4.53183,-6.86235 -5.62403,-11.102139 -1.18533,-4.601426 -1.27418,-8.938932 -0.26657,-13.012556 1.00766,-4.073541 3.12427,-7.54358 6.34985,-10.410116 2.45536,-2.196619 5.79285,-3.838465 10.01252,-4.925502 5.48559,-1.413055 10.06687,-1.366511 13.74394,0.139625 3.67702,1.506228 6.4804,4.174902 8.41016,8.006026 l -8.43429,3.940427 c -1.18193,-2.009616 -2.79369,-3.421083 -4.83519,-4.234419 -2.04151,-0.813252 -4.34827,-0.888626 -6.92025,-0.226112 -3.8982,1.004214 -6.6793,3.038395 -8.34334,6.102553 -1.66407,3.064229 -1.86978,7.027646 -0.61712,11.890286 1.35097,5.244471 3.52963,8.877582 6.536,10.899359 3.00635,2.021798 6.39831,2.546131 10.17594,1.573002 1.86868,-0.481371 3.64798,-1.330761 5.33782,-2.548165 1.6898,-1.21738 3.07324,-2.521908 4.1504,-3.913606 l -1.44416,-5.606131 z m -55.38676,38.779141 -18.95736,-41.503937 30.77406,-14.056396 3.20698,7.021125 -22.39402,10.228715 4.2027,9.201076 20.83689,-9.517484 3.19406,6.992815 -20.83688,9.517495 5.15961,11.296084 23.18672,-10.590785 3.19403,6.992825 z M 122.2492,97.862675 97.292139,60.111383 l 7.685261,-5.08067 20.71745,31.33825 19.10934,-12.633015 4.23961,6.413052 z m -46.415052,43.939345 -33.177393,-31.32445 6.32472,-6.69884 13.058221,12.32892 12.393027,-13.12611 -13.05822,-12.328935 6.32472,-6.698844 33.177377,31.324449 -6.324705,6.69884 -14.506625,-13.69643 -12.393027,13.12611 14.506624,13.69643 z m -16.501532,23.58875 -31.409654,-21.22672 -7.580974,11.21773 -6.395395,-4.32203 20.303074,-30.04288 6.395393,4.32202 -7.563549,11.19194 31.409652,21.22672 z m -32.014649,37.15896 2.861999,-8.02195 c 1.639589,0.56645 3.023135,0.63924 4.150632,0.21839 1.127497,-0.42081 2.004271,-1.27506 2.630296,-2.56266 0.789344,-1.62348 0.714298,-3.36732 -0.225126,-5.23148 -0.939425,-1.86413 -3.683299,-4.098 -8.231624,-6.70164 1.333582,3.09406 1.279058,6.1246 -0.16353,9.09168 -1.569609,3.22836 -4.169348,5.40788 -7.799252,6.53859 -3.629869,1.13073 -7.441525,0.72529 -11.434982,-1.21634 -4.16137,-2.02323 -6.914584,-4.89038 -8.259676,-8.60142 -1.345023,-3.711 -1.087578,-7.47925 0.772333,-11.30479 2.023278,-4.16134 5.293133,-6.79377 9.809536,-7.89724 4.516451,-1.10339 10.460209,0.13678 17.83127,3.72054 7.501699,3.64734 12.237425,7.66872 14.207217,12.06415 1.969778,4.39549 1.870461,8.82319 -0.297953,13.28313 -1.560549,3.2097 -3.675416,5.38849 -6.344618,6.53638 -2.669194,1.14788 -5.838039,1.17609 -9.506522,0.0847 z m -8.531173,-26.1587 c -2.537872,-1.23387 -4.790132,-1.60792 -6.756785,-1.1221 -1.966595,0.48587 -3.321896,1.49389 -4.065894,3.02405 -0.707662,1.45558 -0.721314,2.94287 -0.04102,4.46188 0.680418,1.51903 2.326881,2.91365 4.939389,4.18384 2.649868,1.28837 4.849306,1.7117 6.598329,1.27003 1.749047,-0.44165 3.00462,-1.44625 3.766745,-3.01377 0.734904,-1.51152 0.75699,-3.07546 0.06626,-4.69184 -0.690744,-1.61632 -2.193093,-2.98701 -4.507063,-4.11209 z"
         class="NinthLegionName" />
      <path
         d="m 518.259,495.40064 2.74279,-4.65569 c 1.64988,0.80072 3.10839,1.05016 4.37528,0.74823 1.26702,-0.30181 2.39506,-1.13215 3.38436,-2.49091 1.04778,-1.43936 1.53288,-2.74551 1.45521,-3.91853 -0.0776,-1.17305 -0.52419,-2.05626 -1.33949,-2.64988 -0.52338,-0.38098 -1.08047,-0.55167 -1.67137,-0.51221 -0.59083,0.0399 -1.30063,0.34281 -2.12922,0.90988 -0.56227,0.39155 -1.75268,1.34983 -3.57126,2.87473 -2.33773,1.96319 -4.29117,3.11273 -5.86021,3.44884 -2.20709,0.47214 -4.18628,0.0705 -5.93755,-1.20428 -1.12732,-0.8207 -1.94898,-1.90775 -2.46507,-3.26136 -0.51596,-1.3536 -0.59279,-2.81856 -0.23049,-4.39513 0.36231,-1.57635 1.16269,-3.2152 2.40105,-4.91615 2.02241,-2.77794 4.1536,-4.42559 6.39359,-4.94308 2.2401,-0.51738 4.40242,-0.0717 6.48674,1.33844 l -3.05717,4.61179 c -1.27653,-0.63674 -2.39293,-0.82201 -3.34911,-0.55568 -0.95616,0.26633 -1.89223,1.02863 -2.80823,2.28673 -0.94524,1.29838 -1.41856,2.50913 -1.42008,3.63224 0,0.72212 0.28359,1.29214 0.85736,1.70979 0.52338,0.38099 1.13249,0.48567 1.82727,0.31388 0.88344,-0.21919 2.37308,-1.22893 4.46915,-3.02931 2.09609,-1.80038 3.79765,-3.02168 5.1045,-3.66407 1.30694,-0.64238 2.65033,-0.91175 4.03025,-0.80814 1.37967,0.1034 2.76923,0.66482 4.16817,1.68324 1.26819,0.92327 2.19944,2.14026 2.79366,3.6508 0.59422,1.51066 0.69161,3.10604 0.29217,4.78635 -0.39943,1.68042 -1.29897,3.48174 -2.69851,5.40418 -2.03709,2.79812 -4.24818,4.4762 -6.63334,5.03423 -2.38519,0.55813 -4.92195,0.0822 -7.61045,-1.42893 z m -30.58002,7.23441 3.62563,-4.17252 11.19253,9.72565 c 1.77616,1.54343 2.97221,2.49209 3.58828,2.84596 1.00093,0.55649 2.04944,0.7212 3.14551,0.49435 1.09598,-0.22687 2.15036,-0.92293 3.16289,-2.08832 1.0289,-1.18407 1.56272,-2.28711 1.60137,-3.30906 0.0388,-1.02193 -0.24142,-1.90034 -0.83998,-2.63494 -0.59866,-0.73461 -1.71555,-1.81235 -3.35074,-3.23327 l -11.43205,-9.93395 3.62565,-4.17251 10.85417,9.43172 c 2.48092,2.15587 4.13551,3.79164 4.96397,4.90724 0.82824,1.11569 1.33152,2.28274 1.50962,3.50136 0.17809,1.21861 0.0352,2.51711 -0.42844,3.89538 -0.46382,1.37827 -1.40613,2.88505 -2.82692,4.52025 -1.71497,1.97342 -3.24327,3.27192 -4.58498,3.89551 -1.34185,0.62358 -2.63414,0.91493 -3.87695,0.87416 -1.2427,-0.0411 -2.34513,-0.31425 -3.30729,-0.82046 -1.4209,-0.75635 -3.28719,-2.13897 -5.59905,-4.14787 z m -2.25128,40.20735 -18.84511,-19.85873 6.00098,-5.69458 16.45805,10.12674 -9.29218,-16.92693 6.01462,-5.7075 18.845,19.85873 -3.72517,3.53496 -14.83436,-15.63229 10.89246,19.37307 -3.86073,3.6636 -18.76277,-11.90443 14.83438,15.63227 z m -8.37206,6.68963 -17.44569,-21.09849 4.26004,-3.5225 17.44569,21.09862 z m -38.09048,-5.5918 8.16318,-5.95255 c 1.8409,-1.34221 3.34689,-2.22471 4.51802,-2.64729 1.57635,-0.56389 3.18313,-0.69548 4.82007,-0.3945 1.63697,0.30088 3.21212,0.98202 4.72561,2.04321 1.5135,1.06131 3.02569,2.62813 4.53684,4.70036 1.32763,1.8207 2.24561,3.55503 2.75382,5.20282 0.62031,2.013 0.78054,3.8915 0.48072,5.6356 -0.22448,1.31929 -0.84149,2.67065 -1.85122,4.05398 -0.75846,1.03077 -1.9625,2.14752 -3.61228,3.35053 l -8.4047,6.12854 z m 7.19516,0.48532 10.68369,14.65158 3.33468,-2.4316 c 1.24738,-0.90964 2.09628,-1.63649 2.54693,-2.18075 0.59221,-0.70924 0.96956,-1.4543 1.13192,-2.2353 0.16248,-0.78101 0.0329,-1.777 -0.38746,-2.98786 -0.4207,-1.21085 -1.25455,-2.67136 -2.5016,-4.38152 -1.24693,-1.71014 -2.35511,-2.91278 -3.32443,-3.60814 -0.96921,-0.69535 -1.91257,-1.10147 -2.82984,-1.2185 -0.9173,-0.11748 -1.85948,0.0388 -2.82644,0.46628 -0.72639,0.3139 -1.99985,1.13473 -3.82066,2.46237 z m 6.54337,23.36116 -5.1496,3.10496 -5.25804,-4.0911 -9.3717,5.65076 1.27609,6.49228 -5.02166,3.02792 -5.00487,-28.95107 5.00569,-3.01828 z m -14.30877,-4.02028 -8.47626,-6.75189 2.07927,10.60909 z m -20.24168,12.3922 5.5618,-0.82459 c 0.5727,3.04544 0.3186,5.63914 -0.76222,7.78103 -1.0809,2.14177 -2.94144,3.85732 -5.58162,5.14654 -3.26672,1.59515 -6.49658,1.79026 -9.68958,0.58527 -3.19303,-1.20487 -5.73459,-3.74264 -7.62468,-7.61348 -1.99938,-4.0945 -2.49495,-7.79077 -1.48672,-11.08864 1.00819,-3.29789 3.23516,-5.7881 6.68083,-7.47065 3.00942,-1.46944 5.88809,-1.7736 8.63617,-0.91257 1.63223,0.50537 3.20871,1.60594 4.72952,3.30175 l -4.34322,3.57549 c -0.91364,-1.13332 -2.0122,-1.84384 -3.29567,-2.13156 -1.28349,-0.28758 -2.5853,-0.10925 -3.90542,0.53548 -1.82352,0.89039 -2.98348,2.26724 -3.47982,4.13071 -0.49643,1.86334 -0.0292,4.2605 1.40223,7.19162 1.51865,3.11002 3.15962,5.05208 4.92297,5.82592 1.76332,0.77382 3.53998,0.72366 5.32997,-0.15038 1.32008,-0.6446 2.25073,-1.61852 2.79196,-2.92194 0.5412,-1.30332 0.57904,-2.95672 0.11349,-4.96 z m -31.22366,24.57802 -9.60128,-25.63826 5.17659,-1.93866 9.60133,25.63838 z m -28.10054,-0.24837 4.98399,-2.08795 c 0.8424,1.62908 1.86141,2.70191 3.05703,3.21846 1.19563,0.51643 2.59631,0.52655 4.2021,0.0307 1.70087,-0.52571 2.8713,-1.2817 3.5112,-2.26781 0.63992,-0.98625 0.81093,-1.96109 0.51313,-2.92454 -0.19121,-0.61851 -0.53526,-1.0888 -1.03225,-1.41082 -0.497,-0.322 -1.24709,-0.50387 -2.25035,-0.54557 -0.68469,-0.0222 -2.21184,0.0317 -4.58146,0.16531 -3.04781,0.17327 -5.30077,-0.0753 -6.75881,-0.74506 -2.05065,-0.9429 -3.39584,-2.44911 -4.0356,-4.51874 -0.41178,-1.33221 -0.41926,-2.69486 -0.0226,-4.08804 0.39682,-1.3932 1.21217,-2.61276 2.44603,-3.6588 1.23386,-1.04604 2.8559,-1.87967 4.86607,-2.50102 3.28287,-1.01478 5.97639,-1.05896 8.08058,-0.13274 2.10414,0.92645 3.56921,2.57797 4.3952,4.95493 l -5.20947,1.86439 c -0.64148,-1.27418 -1.42491,-2.09078 -2.3503,-2.44979 -0.92542,-0.3589 -2.13153,-0.30861 -3.61833,0.15097 -1.53438,0.47426 -2.6383,1.1608 -3.31174,2.05964 -0.43402,0.57729 -0.54622,1.20488 -0.3367,1.88284 0.1912,0.61855 0.61651,1.06696 1.27589,1.34526 0.83893,0.35314 2.63672,0.43585 5.39344,0.24836 2.75673,-0.18749 4.85082,-0.14744 6.2823,0.12018 1.43143,0.26774 2.66881,0.85607 3.7121,1.76501 1.04328,0.90892 1.82044,2.19004 2.33152,3.84345 0.46327,1.49868 0.48081,3.03085 0.0526,4.59661 -0.42821,1.56578 -1.30518,2.90223 -2.63097,4.00912 -1.32578,1.107 -3.12461,2.0116 -5.39645,2.71389 -3.30665,1.02219 -6.08239,1.04287 -8.32711,0.0622 -2.24476,-0.9806 -3.99181,-2.88059 -5.24123,-5.69998 z m -6.51422,10.61886 -6.54097,-26.58419 5.36759,-1.3207 6.54104,26.58418 z m -18.01518,3.70741 -14.59889,-25.14236 5.8947,-1.08962 10.49598,18.66513 2.90945,-21.14314 5.76614,-1.06588 -4.66448,28.70318 z m -17.57357,2.55224 -3.39751,-27.16547 5.48499,-0.68598 3.39747,27.1655 z m -29.12112,-25.17503 10.0831,-0.63462 c 2.27378,-0.14308 4.01803,-0.0787 5.23278,0.19455 1.63256,0.37134 3.05834,1.12369 4.27732,2.2569 1.21896,1.13332 2.18159,2.55412 2.88789,4.26227 0.70624,1.70828 1.13994,3.84217 1.30106,6.4017 0.14155,2.24901 -0.0158,4.20494 -0.47267,5.86775 -0.55829,2.03109 -1.43242,3.70155 -2.62235,5.01143 -0.89808,0.99211 -2.14458,1.80026 -3.73939,2.42453 -1.19348,0.46183 -2.80902,0.75691 -4.84676,0.88522 l -10.38124,0.6533 z m 5.80773,4.27497 1.13905,18.09735 4.11895,-0.25927 c 1.54071,-0.0974 2.64731,-0.25399 3.31973,-0.47086 0.88055,-0.27995 1.5991,-0.7057 2.15569,-1.27711 0.55653,-0.57143 0.98269,-1.48082 1.27842,-2.72811 0.2957,-1.24742 0.37713,-2.92723 0.24417,-5.03951 -0.13296,-2.11229 -0.4214,-3.72201 -0.86531,-4.82924 -0.44394,-1.10724 -1.02132,-1.95662 -1.73214,-2.54814 -0.71086,-0.59139 -1.58897,-0.96649 -2.63432,-1.12521 -0.78132,-0.12547 -2.29647,-0.11749 -4.54541,0.0247 z m -27.82578,15.31581 0.18901,-5.24418 10.30172,0.37123 -0.18901,5.24418 z m -35.80696,-5.35802 5.40049,0.18527 c 0.0847,1.8321 0.56232,3.23256 1.43283,4.2013 0.87047,0.96885 2.13882,1.56318 3.80512,1.7831 1.76499,0.23296 3.14423,0.0352 4.13761,-0.59362 0.99338,-0.62864 1.55608,-1.44276 1.68802,-2.44251 0.0847,-0.64192 -0.0316,-1.21287 -0.34845,-1.7131 -0.31699,-0.5001 -0.92257,-0.97883 -1.81658,-1.43584 -0.61254,-0.30684 -2.02302,-0.89481 -4.23147,-1.76395 -2.84151,-1.11593 -4.78465,-2.28286 -5.82945,-3.50065 -1.4692,-1.71343 -2.06207,-3.64385 -1.77863,-5.7915 0.18244,-1.38237 0.74497,-2.62367 1.68753,-3.72364 0.94259,-1.09996 2.19293,-1.86733 3.75096,-2.30222 1.55801,-0.4348 3.38,-0.51457 5.46591,-0.23931 3.4066,0.44971 5.87228,1.53474 7.39701,3.25547 1.52468,1.72071 2.16572,3.83334 1.92312,6.33802 l -5.51196,-0.4825 c -0.0505,-1.42572 -0.42106,-2.4949 -1.11187,-3.20778 -0.6908,-0.71274 -1.80762,-1.17091 -3.35044,-1.3745 -1.59225,-0.21017 -2.88203,-0.0483 -3.86937,0.48765 -0.63551,0.34317 -0.99968,0.86643 -1.09251,1.56999 -0.0847,0.6418 0.11431,1.22685 0.59716,1.75527 0.61461,0.67128 2.21342,1.49763 4.79643,2.47894 2.58292,0.9813 4.46873,1.8926 5.65748,2.73386 1.18869,0.84138 2.0671,1.89283 2.63523,3.15444 0.56808,1.26172 0.73894,2.75043 0.51254,4.46612 -0.20528,1.55507 -0.82947,2.95459 -1.87261,4.19822 -1.04323,1.24366 -2.39832,2.0915 -4.06531,2.54334 -1.66705,0.45182 -3.67929,0.52219 -6.03676,0.21099 -3.43128,-0.45278 -5.96179,-1.59363 -7.59155,-3.42242 -1.62974,-1.82868 -2.42324,-4.28484 -2.38048,-7.36844 z m -21.00182,-23.38746 5.39909,1.18549 -3.17998,14.48273 c -0.50462,2.29827 -0.7648,3.8026 -0.78054,4.51289 -0.009,1.14518 0.34808,2.14457 1.072,2.99819 0.72391,0.85361 1.83981,1.44592 3.34769,1.77699 1.53215,0.33646 2.7561,0.27701 3.6719,-0.17834 0.91574,-0.45546 1.55274,-1.12169 1.91111,-1.99903 0.35829,-0.87735 0.76977,-2.37389 1.23435,-4.48971 l 3.24805,-14.79277 5.39911,1.18548 -3.08384,14.0449 c -0.70489,3.21025 -1.3488,5.44611 -1.93163,6.7075 -0.58291,1.26137 -1.36661,2.26194 -2.35115,3.00171 -0.98463,0.73975 -2.19296,1.23612 -3.62504,1.48881 -1.43213,0.25281 -3.20612,0.14685 -5.32196,-0.31766 -2.55363,-0.56073 -4.42538,-1.28077 -5.61525,-2.1602 -1.18987,-0.87946 -2.06442,-1.87451 -2.62354,-2.98516 -0.55921,-1.11066 -0.8469,-2.20944 -0.86315,-3.29647 -0.0161,-1.6096 0.30403,-3.91008 0.96089,-6.90146 z m -36.38682,17.30461 8.38454,-26.06154 7.87533,2.53357 -0.99056,19.29871 10.39478,-16.27315 7.89314,2.53933 -8.38453,26.06165 -4.88877,-1.57282 6.60007,-20.51509 -11.7733,18.85076 -5.06653,-1.63002 1.44467,-22.17367 -6.60009,20.5151 z m -2.718,-0.99764 -5.52291,-2.37826 0.26412,-6.65708 -10.05102,-4.32828 -4.53499,4.81782 -5.3857,-2.31917 20.62185,-20.92733 5.36857,2.31189 z m -5.06383,-13.9736 0.55338,-10.82267 -7.41416,7.8683 z m -32.88827,-3.75205 10.67773,-20.08371 -7.17276,-3.81349 2.17411,-4.08924 19.20983,10.21309 -2.17415,4.08933 -7.15626,-3.80468 -10.67774,20.0837 z m -23.51812,-24.67034 4.81609,2.45049 c -0.69757,1.69619 -0.85663,3.16727 -0.47721,4.41313 0.3794,1.246 1.2777,2.32069 2.6949,3.22434 1.50114,0.95711 2.83471,1.36077 4.00076,1.21087 1.16599,-0.14978 2.02005,-0.64989 2.56221,-1.50023 0.34804,-0.54592 0.48413,-1.11252 0.40824,-1.6998 -0.0759,-0.58726 -0.42235,-1.277 -1.03945,-2.06917 -0.42543,-0.53688 -1.45522,-1.66597 -3.08937,-3.38717 -2.10355,-2.21226 -3.3714,-4.09111 -3.80354,-5.63641 -0.60731,-2.17373 -0.32866,-4.17394 0.83595,-6.00052 0.74962,-1.17573 1.78401,-2.06281 3.10321,-2.66137 1.31915,-0.59845 2.77664,-0.7655 4.37247,-0.50105 1.5958,0.26443 3.28075,0.96226 5.05485,2.09337 2.89734,1.84735 4.67325,3.87295 5.32783,6.07674 0.65454,2.20392 0.34255,4.38962 -0.93597,6.55699 l -4.79144,-2.76711 c 0.55683,-1.31343 0.67288,-2.43898 0.34811,-3.37705 -0.32481,-0.93784 -1.1433,-1.82517 -2.45548,-2.66186 -1.35422,-0.86335 -2.59182,-1.26115 -3.71286,-1.19348 -0.72096,0.0423 -1.27221,0.3628 -1.65369,0.96111 -0.34807,0.54592 -0.41496,1.16022 -0.20069,1.84313 0.27327,0.86828 1.37296,2.29285 3.29911,4.27402 1.92612,1.98105 3.25006,3.60403 3.97179,4.86882 0.7217,1.2649 1.07337,2.58914 1.05501,3.97268 -0.0184,1.38357 -0.49279,2.80495 -1.42309,4.26416 -0.84335,1.32259 -2.00058,2.32715 -3.47163,3.01334 -1.4711,0.68621 -3.0575,0.8818 -4.75928,0.5867 -1.70178,-0.2951 -3.55516,-1.08186 -5.56019,-2.36029 -2.91835,-1.86063 -4.72957,-3.9641 -5.43363,-6.3103 -0.7041,-2.34616 -0.3851,-4.90757 0.95699,-7.68408 z m -20.744326,-4.53434 16.794326,-21.62084 4.36544,3.39095 -16.794323,21.62081 z m -8.205719,-6.72161 17.527046,-21.03116 4.246389,3.53882 -17.527045,21.03118 z m -0.614182,-13.83837 2.730563,4.915 c -2.648715,1.60851 -5.16569,2.28427 -7.550958,2.02698 -2.385292,-0.25727 -4.64615,-1.39449 -6.782573,-3.41149 -2.643393,-2.49561 -3.963511,-5.44986 -3.960338,-8.86266 0.0035,-3.41277 1.483306,-6.68528 4.440477,-9.81751 3.128069,-3.31328 6.412947,-5.07888 9.854626,-5.29669 3.441644,-0.21779 6.556588,0.98942 9.34487,3.62178 2.435137,2.29907 3.733674,4.8862 3.895641,7.76141 0.101852,1.70567 -0.373019,3.56878 -1.424555,5.58944 l -4.876079,-2.80577 c 0.738934,-1.25421 1.017019,-2.53261 0.834293,-3.83524 -0.182775,-1.30251 -0.808283,-2.45813 -1.876465,-3.46658 -1.475625,-1.39319 -3.172827,-1.99386 -5.09162,-1.80214 -1.918827,0.19162 -3.99785,1.47343 -6.237068,3.8451 -2.375987,2.51676 -3.615595,4.73642 -3.718825,6.65933 -0.103263,1.92291 0.569342,3.56808 2.017782,4.93556 1.068205,1.00855 2.307555,1.5365 3.718049,1.58409 1.410458,0.0469 2.971185,-0.4994 4.68218,-1.64061 z M 48.528121,495.25193 c 2.09351,-1.84244 4.126103,-3.07561 6.097785,-3.69954 1.457991,-0.45382 2.958614,-0.64261 4.501884,-0.56626 1.543223,0.0765 2.939372,0.41916 4.188437,1.02818 1.668855,0.80333 3.239415,2.04157 4.711691,3.71447 2.664811,3.02815 3.857827,6.27776 3.579025,9.74869 -0.278862,3.47103 -2.091229,6.67881 -5.437093,9.62319 -3.31789,2.91984 -6.707456,4.30246 -10.168717,4.14775 -3.461311,-0.15471 -6.520253,-1.74152 -9.176863,-4.76027 -2.68954,-3.05623 -3.895725,-6.30654 -3.618568,-9.75126 0.277146,-3.44463 2.051274,-6.60622 5.322419,-9.48495 z m 3.903056,4.15242 c -2.327186,2.04804 -3.618332,4.13788 -3.873438,6.26954 -0.25512,2.13167 0.345212,4.02462 1.80103,5.67894 1.455781,1.65425 3.246252,2.48742 5.371409,2.49951 2.125132,0.0118 4.37933,-1.03051 6.762601,-3.12778 2.355181,-2.07267 3.657829,-4.13539 3.90792,-6.188 0.250042,-2.05259 -0.377497,-3.93403 -1.88261,-5.6444 -1.50517,-1.71039 -3.304803,-2.5728 -5.398898,-2.58737 -2.094131,-0.0141 -4.323469,1.01866 -6.688014,3.09956 z m -22.210939,-21.29197 3.604917,4.02543 c -1.263433,1.32941 -1.943404,2.64354 -2.039903,3.94238 -0.09658,1.29886 0.352639,2.62568 1.347478,3.98032 1.053778,1.43488 2.151343,2.29321 3.292715,2.57491 1.141338,0.28172 2.118413,0.12408 2.931242,-0.47286 0.521774,-0.3832 0.85343,-0.86227 0.994957,-1.43724 0.14148,-0.57506 0.06768,-1.34338 -0.221425,-2.30494 -0.202581,-0.65448 -0.754711,-2.07938 -1.656389,-4.27472 -1.161825,-2.82303 -1.664956,-5.03318 -1.5094,-6.6302 0.219345,-2.24631 1.202025,-4.01064 2.948076,-5.2928 1.123857,-0.82529 2.408951,-1.27864 3.855277,-1.35995 1.44629,-0.081 2.865641,0.28971 4.258032,1.11301 1.392356,0.8233 2.711226,2.08291 3.956637,3.77873 2.033841,2.76959 2.957687,5.30008 2.771518,7.59153 -0.186228,2.29155 -1.267028,4.21669 -3.242409,5.77553 l -3.467559,-4.31174 c 0.993863,-1.02337 1.508894,-2.03098 1.545064,-3.02297 0.03606,-0.99189 -0.406384,-2.11499 -1.327493,-3.36933 -0.950643,-1.29449 -1.960838,-2.11263 -3.030596,-2.45461 -0.687548,-0.2211 -1.317297,-0.12159 -1.889245,0.29839 -0.521821,0.38323 -0.806251,0.93187 -0.853266,1.64602 -0.05897,0.90833 0.451532,2.63411 1.53151,5.17742 1.079941,2.54332 1.727829,4.53507 1.943674,5.97524 0.215786,1.4402 0.06509,2.80202 -0.452048,4.08546 -0.517193,1.28336 -1.473193,2.43724 -2.867982,3.46155 -1.264383,0.92843 -2.706385,1.44677 -4.326016,1.55508 -1.619652,0.10808 -3.169526,-0.2829 -4.649612,-1.17303 -1.480112,-0.89028 -2.923912,-2.29366 -4.3314,-4.21024 -2.048618,-2.78967 -2.977198,-5.40547 -2.785742,-7.8475 0.191445,-2.44218 1.41457,-4.71503 3.669388,-6.81887 z"
         class="NinthLegionSlogan" />
    </symbol>
  </defs>
  <use
     id="use45"
     x="0"
     y="0"
     width="561.9683"
     height="619.51477"
     xlink:href="#9thLegionText" />
</svg>
