<?xml version="1.0" encoding="UTF-8" standalone="no"?>
<svg
   xmlns="http://www.w3.org/2000/svg"
   xmlns:xlink="http://www.w3.org/1999/xlink"
   version="1.1"
   width="343.77854"
   height="449.33553"
   viewBox="0 0 343.77854 449.33553">
  <defs>
    <symbol
       viewBox="0 0 343.77854 449.33553"
       preserveAspectRatio="xMidYMid meet"
       id="eagle">
      <style>
        .base{fill: #dadada;}
        .borders{fill: #333333;}
        .shading{fill: #c6c6c6;}
        .globe{fill: #b3b3b3}
      </style>
      <path
          d="M 214.53125 -0.16015625 C 219.5146 14.34741 220.52679 31.773021 220.21875 42.439453 C 219.33822 39.549645 218.44152 38.908439 215.69727 34.048828 C 213.99061 39.220491 212.88713 46.422309 212.42188 49.798828 C 206.26247 44.415995 203.68086 41.623762 197.07617 36.757812 C 191.53097 32.144084 183.12247 28.043383 176.7793 24.931641 C 177.71983 30.556609 177.8996 32.169232 179.08789 36.080078 C 163.95193 27.413101 148.1707 21.653582 132.05469 18.818359 C 149.87814 40.66772 156.19979 48.115363 164.65625 68.433594 C 159.32654 65.337348 156.73067 64.301751 150.3125 62.121094 C 168.99864 97.113424 176.72467 118.51384 183.78125 148.74609 C 181.35653 157.23966 180.86404 167.14566 183.75 174.77734 C 184.246 176.65853 184.83446 178.365 185.44531 179.9082 C 179.6127 172.28431 174.68721 163.57269 173.8125 156.24023 L 173.8125 156.20898 L 173.8125 156.17773 C 172.79943 149.28882 172.50866 145.53268 171.32227 140.85352 C 170.46202 137.46067 170.72587 132.17448 166.91211 128.15625 C 163.09836 124.13802 150.87013 119.73869 143.53125 119.45898 C 141.08496 119.36578 138.66081 119.43458 136.3125 119.61523 C 126.97076 120.33382 122.27673 121.47292 119.5 122.95898 C 117.22162 124.17833 116.29985 125.55305 116.1875 126.77148 C 116.0901 127.83857 116.68584 128.45839 116.65625 129.11523 C 115.72964 129.07303 113.95826 128.54288 112.375 128.83398 C 109.85951 129.29647 107.16754 130.74217 104.9375 133.24023 C 98.2193 135.0146 93.1049 140.10816 91.65625 146.49023 C 90.16765 153.04833 92.64757 160.8308 97.40625 166.61523 L 98.46875 167.89648 L 99.09375 166.36523 C 101.43079 160.68957 105.875 159.80273 105.875 159.80273 L 105.9375 159.80273 L 105.96875 159.80273 C 105.96875 159.80273 107.52367 159.29629 109.40625 159.14648 C 111.28883 158.99667 113.38587 159.26824 114.5 160.36523 C 115.86052 161.70482 116.31263 163.20519 116.90625 166.08398 C 117.49987 168.96277 117.53493 173.2297 116.5625 179.77148 C 114.36153 191.95437 111.83126 200.19386 101.9375 205.52148 C 101.9375 205.52148 101.96835 205.52141 101.96875 205.52148 L 101.96875 205.55273 C 101.96875 205.55273 102.14398 205.55173 102.15625 205.55273 C 102.7063 205.63956 109.40874 206.73179 117.91992 201.50195 C 114.10393 227.55423 116.03547 247.11045 123.125 264.46484 C 129.02841 278.91573 136.45013 293.01609 149 306.93359 C 146.87169 312.68437 143.42732 317.87201 139.09766 322.19141 C 135.66464 315.08514 131.10446 308.62959 125.66797 303.0293 C 126.36949 300.77996 126.77765 298.18868 126.37891 295.58398 C 125.68289 291.03738 123.55564 286.22709 118.61328 283.97461 C 118.31732 283.2002 116.68192 281.93216 115.81445 281.16016 C 114.51868 280.00706 112.96161 278.17641 109.17578 276.9375 C 105.38996 275.6986 100.76841 271.2033 96.150391 268.17969 C 93.807771 267.29631 93.11841 266.58922 90.1875 266.42969 C 87.25659 266.27016 85.074419 267.19494 84.130859 268.04883 C 82.543179 269.01807 81.709434 270.02437 79.146484 270.13867 C 76.583524 270.25296 65.105176 270.10228 58.472656 268.63281 C 54.677526 267.79196 53.14105 267.51616 50.90625 267.99023 C 48.67145 268.4643 45.46947 269.47214 44.21875 271.67773 C 36.79307 275.71479 33.93113 279.62939 33.125 283.45898 C 32.607573 285.91707 32.888851 288.90762 34.400391 291.94531 C 13.750896 304.88071 0 327.81623 0 353.96484 C 0 394.35952 32.79282 427.15234 73.1875 427.15234 C 105.71084 427.15234 133.27149 405.88742 142.7832 376.51953 C 151.25795 375.17533 162.23153 371.07693 171.21875 359.80859 C 174.64955 370.25788 178.75724 378.93858 181.4375 390.65234 L 183.34375 387.30859 C 183.31565 387.55837 183.3417 388.58785 183.3125 388.83984 C 182.29889 397.69788 180.75593 407.90093 178.90625 412.77734 C 178.70574 413.30595 178.44742 413.75158 178.125 414.15234 C 174.07058 414.36717 169.21844 411.32477 164.75 407.71484 C 160.25984 404.08737 156.28697 400.03824 153.125 398.52734 C 152.50803 398.23253 152.06612 398.39705 151.65625 398.55859 C 151.53419 398.60669 151.40389 398.71484 151.28125 398.77734 C 133.91075 398.38553 124 417.93359 124 417.93359 C 127.00906 417.44927 135.92969 413.00276 138.8125 412.05859 C 138.8035 412.08039 138.78945 412.09889 138.78125 412.12109 C 123.29108 422.27742 122.5 440.21484 122.5 440.21484 C 125.60931 438.49147 131.57217 431.74305 132.25 431.43359 C 132.92783 431.12412 133.40292 430.67055 133.96875 430.83984 C 134.53457 431.00914 134.683 430.90964 134.46875 431.37109 C 131.63386 435.56245 131.70481 436.00055 129.59375 439.96484 C 128.01497 442.57267 127.33726 445.40127 127.09375 448.37109 C 130.22717 446.56008 133.3736 444.93405 136.0625 443.80859 C 138.04764 442.98793 140.18559 442.25514 142.09375 441.87109 C 143.878 441.51198 145.38099 441.54111 146.375 441.90234 C 147.83311 444.52413 151.2291 446.06416 153.1875 445.80859 C 156.32035 445.31298 159.74364 443.74527 164.625 440.52734 C 165.43775 439.97959 170.49065 438.05608 171.625 437.27734 C 173.69084 436.37525 177.96326 436.6178 182.6875 435.18359 C 187.41174 433.74938 190.46996 434.3261 196.53125 438.33984 C 199.07243 439.63875 202.14606 441.24887 203.6875 441.27734 C 205.22894 441.30584 208.80505 440.30917 211.4375 440.24609 C 214.06995 440.18299 219.14 442.1037 222 445.43359 C 224.26221 448.13249 224.15625 449.49609 224.15625 449.49609 C 227.24564 446.15072 227.86142 439.46033 227.6875 437.52734 C 227.34705 434.22009 226.38826 430.74308 224.21875 427.80859 C 222.13333 424.98785 219.86759 422.22388 215.21875 421.18359 C 213.63522 419.62659 212.85354 418.77316 211.28125 418.18359 C 207.36173 416.95237 202.94731 417.12379 199.1875 416.93359 C 196.38845 416.47884 195.44866 416.37988 195.71875 413.83984 C 196.60951 407.7119 197.8179 401.06017 199 395.30859 C 200.50974 388.01964 199.98103 383.7384 200.6875 380.49609 C 201.16955 382.7941 204.27089 391.04854 204.59375 393.30859 C 205.06772 387.77298 221.0833 370.00894 221.53125 367.77734 C 221.9792 365.54574 222.27444 352.64608 222.4375 349.80859 C 223.98152 349.47438 225.44646 350.52041 226.875 351.58984 C 238.10653 369.64095 250.57937 385.11364 263.375 400.58984 C 267.79339 405.48863 271.69956 407.18005 275.40625 407.37109 C 283.10761 406.84757 290.76109 405.45191 297.59375 402.43359 C 300.44558 401.15837 302.28399 398.58989 302.46875 396.68359 C 302.65351 394.77729 302.98954 393.30139 302 391.43359 C 301.01046 389.56579 298.93291 386.53311 297.625 384.49609 C 284.01719 365.84626 270.07896 346.18106 257.65625 327.74609 C 258.37325 328.06383 259.12006 328.265 259.875 328.46484 L 260.03125 327.33984 C 260.03125 327.33984 260.43402 322.70562 258.15625 316.71484 C 260.21452 318.31503 266.60267 322.60648 269.8457 323.58789 C 270.18995 318.27685 267.5155 312.05231 266.9707 308.25586 C 277.41494 312.5394 285.97104 313.51857 289.23828 312.79883 C 287.87454 306.10737 284.87751 299.14769 283.18555 295.01562 C 281.49359 290.88355 280.84672 289.26646 278.88672 286.67578 C 287.60398 290.37839 296.09787 289.55769 305.41797 288.41992 C 303.21119 281.68746 299.31181 276.11767 295.875 270.55859 C 294.57726 268.49497 293.00405 266.27811 291.21875 263.99609 C 304.98698 264.89537 316.88217 263.44952 322.86133 254.32617 C 313.74353 244.03883 310.2666 241.06267 300.15234 234.75586 C 310.85505 232.89579 326.09138 230.47204 331.375 220.74609 C 329.21653 217.18086 322.41615 210.08885 314.375 205.24609 C 321.22285 201.96267 342.6718 188.26278 343.7793 178.0332 C 340.73115 173.58257 333.2284 170.1936 324.39844 170.02344 C 344.67318 149.54535 342.00536 124.3387 338.47656 112.04102 C 331.99497 118.5087 328.2459 121.13724 322.99414 125.79492 C 329.89273 114.98099 327.82197 77.855812 323.82812 71.857422 C 320.89137 77.627392 318.91886 81.209356 316.11719 85.353516 C 316.91505 71.482669 313.69168 58.389401 307.33398 46.361328 C 304.97198 53.441171 300.6434 58.732249 298.21289 63.701172 C 296.93055 48.812431 290.24192 34.961002 282.33008 25.140625 C 280.28915 35.559058 279.57831 37.601668 278.25 47.246094 C 271.5343 29.634142 264.05156 19.84605 249.375 8.6835938 C 249.20928 19.166133 249.7324 25.349268 249 34.089844 C 244.51791 16.399219 230.85414 5.4126668 214.53125 -0.16015625 z M 50.857422 281.13867 C 48.89349 282.46918 47.474969 284.10117 46.457031 285.87109 C 44.694971 286.56331 42.95803 287.30507 41.265625 288.12695 C 42.612927 286.2827 44.230881 284.68705 45.78125 283.42773 C 45.84145 283.58377 46.26655 283.34433 46.90625 283.24023 C 48.129286 282.57316 49.623425 281.80913 50.857422 281.13867 z M 93.251953 283.61719 C 93.718745 283.69782 94.20312 283.83677 94.775391 284.05078 C 94.272386 283.89558 93.75952 283.76176 93.251953 283.61719 z M 145.75 410.46484 C 145.759 410.52684 145.77065 410.59003 145.78125 410.65234 C 145.57578 410.62214 145.37455 410.61584 145.15625 410.58984 C 145.36217 410.55624 145.54257 410.49524 145.75 410.46484 z "
          class="base" />
    </symbol>
  </defs>
  <g>
    <use
         x="0"
         y="0"
         width="343.77854"
         height="449.33553"
         xlink:href="#eagle" />
  </g>
</svg>
