<?xml version="1.0" encoding="UTF-8" standalone="no"?>
<!-- Created with Inkscape (http://www.inkscape.org/) -->

<svg
   xmlns:osb="http://www.openswatchbook.org/uri/2009/osb"
   xmlns:dc="http://purl.org/dc/elements/1.1/"
   xmlns:cc="http://creativecommons.org/ns#"
   xmlns:rdf="http://www.w3.org/1999/02/22-rdf-syntax-ns#"
   xmlns:svg="http://www.w3.org/2000/svg"
   xmlns="http://www.w3.org/2000/svg"
   xmlns:sodipodi="http://sodipodi.sourceforge.net/DTD/sodipodi-0.dtd"
   xmlns:inkscape="http://www.inkscape.org/namespaces/inkscape"
   width="343.77853"
   height="450.03125"
   id="svg2"
   version="1.1"
   inkscape:version="0.48.4 r9939"
   sodipodi:docname="Eagle.svg">
  <defs
     id="defs4">
    <linearGradient
       id="linearGradient5271"
       osb:paint="solid"
       gradientTransform="translate(-78.25,-25.625)">
      <stop
         style="stop-color:#c6c6c6;stop-opacity:1;"
         offset="0"
         id="stop5273" />
    </linearGradient>
    <linearGradient
       id="linearGradient3942"
       osb:paint="solid">
      <stop
         style="stop-color:#b3b3b3;stop-opacity:1;"
         offset="0"
         id="stop3944" />
    </linearGradient>
    <linearGradient
       id="linearGradient3930"
       osb:paint="solid"
       gradientTransform="matrix(0.8445191,0,0,1.2083873,625.6871,1982.0044)">
      <stop
         style="stop-color:#333333;stop-opacity:1;"
         offset="0"
         id="stop3932" />
    </linearGradient>
    <linearGradient
       id="linearGradient3922"
       osb:paint="solid"
       gradientTransform="translate(-42.603183,-31.289474)">
      <stop
         id="stop5255"
         offset="1"
         style="stop-color:#dadada;stop-opacity:1;" />
    </linearGradient>
  </defs>
  <sodipodi:namedview
     id="base"
     pagecolor="#ffffff"
     bordercolor="#666666"
     borderopacity="1.0"
     inkscape:pageopacity="0.0"
     inkscape:pageshadow="2"
     inkscape:zoom="7.0217346"
     inkscape:cx="15.570858"
     inkscape:cy="172.7308"
     inkscape:document-units="px"
     inkscape:current-layer="layer1"
     showgrid="false"
     showguides="false"
     inkscape:guide-bbox="true"
     inkscape:window-width="1680"
     inkscape:window-height="998"
     inkscape:window-x="-8"
     inkscape:window-y="-8"
     inkscape:window-maximized="1"
     inkscape:snap-to-guides="false"
     fit-margin-top="0"
     fit-margin-left="0"
     fit-margin-right="0"
     fit-margin-bottom="0">
    <sodipodi:guide
       orientation="1,0"
       position="160.67857,267.82157"
       id="guide2998" />
  </sodipodi:namedview>
  <metadata
     id="metadata7">
    <rdf:RDF>
      <cc:Work
         rdf:about="">
        <dc:format>image/svg+xml</dc:format>
        <dc:type
           rdf:resource="http://purl.org/dc/dcmitype/StillImage" />
        <dc:title />
      </cc:Work>
    </rdf:RDF>
  </metadata>
  <g
     inkscape:label="Eagle"
     inkscape:groupmode="layer"
     id="layer1"
     transform="translate(-220.75,-298.7239)"
     style="display:inline">
    <path
       style="fill:url(#linearGradient3922);fill-opacity:1;stroke:none"
       d="m 295.125,27.34375 c 0,0 9.10847,15.61002 4.125,57.8125 -0.26983,-7.45299 -1.60916,-15.29175 -5.40625,-21.90625 -0.93403,8.45717 -1.91886,16.1005 -2.90625,23.09375 -2.49523,-17.15557 -33.0625,-32 -33.0625,-32 0.7414,5.93122 5.24003,18.1254 5.34375,18.40625 -8.13396,-11.58167 -21.28441,-19.24343 -45.09375,-23.40625 0,0 20.85245,19.23662 36.78125,63.5625 -5.6044,-9.98016 -13.16406,-18.67187 -23.28125,-22.8125 0,0 21,28.25001 33.5,83.75 l 0.25,-0.5625 c -7.67468,19.04652 -1.03993,31.36179 2.09375,37.8125 -8.26722,-8.21972 -15.42308,-18.61599 -16.40625,-28.96875 -2.02918,-13.79846 -2.48214,-20.01786 -9.625,-27.875 -7.14285,-7.85715 -17.49554,-8.55804 -26.78125,-7.84375 -9.28572,0.71428 -13.89884,1.8601 -16.4375,3.21875 -4.22299,2.26007 -2.40625,4.375 -2.40625,4.375 0.35713,1.96428 0.15625,1.96875 0.15625,1.96875 0,0 -8.74554,-1.16964 -11.15625,4.8125 -14.55523,1.01466 -17.46987,19.91344 -8.375,30.96875 2.5,-6.07143 7.5,-7.125 7.5,-7.125 0,0 6.56769,-2.0747 9.5,0.8125 2.90178,2.85715 4.96429,7.03572 3,20.25 -3.92857,26.42857 -15.696,25.49594 -15.696,25.49594 0,0 8.38998,0.74861 16.946,-7.15219 -8.11711,50.05464 4.31714,75.88638 32.875,107.40625 -4.29498,13.72125 -19.5,22.96875 -19.5,22.96875 l -3.53125,47.03125 c 0,0 26.30732,1.3171 43.28125,-21.53125 3.63069,11.10677 7.27457,21.66748 10.125,34.125 0.59318,-5.43721 1.55511,-9.47264 2.5,-12.40625 -0.6046,7.46247 -2.56702,28.77613 -5.78125,37.25 -0.38432,1.01322 -0.95677,1.83657 -1.71875,2.46875 l 0.125,-0.4375 c -9.16592,0.5585 -19.95022,-13.05194 -25.53125,-15.71875 -0.26686,-0.12752 -0.83686,0.0821 -1.53125,0.5625 l -0.1875,-0.21875 c -16.625,-0.375 -26.5,18 -26.5,18 0,0 9.375,-7 21.5,-8.5 l 0.53125,-0.0937 c 0.0309,0.82775 0.1943,1.67815 0.46875,2.5625 -2.34161,-0.47641 -7.4375,-0.95749 -7.4375,1.03125 0,0.0746 0.0269,0.14504 0.0312,0.21875 l -0.21875,-0.0937 c -15.125,9.875 -16.625,27.125 -16.625,27.125 0,0 7.24372,-9.57192 12.99155,-12.53581 5.74784,-2.96389 7.77585,-6.54877 14.62587,-6.13208 0,0 9.55936,2.95044 16.55936,0.95044 0,0 -3.67678,1.84245 -16.80178,-0.0326 0,0 -6.75,0.875 -6,2.5 0.0109,0.022 0.0205,0.0406 0.0312,0.0625 l -0.28125,-0.0625 c -14.875,12.75 -15.625,21.75 -15.625,21.75 0,0 13.375,-7.875 18.625,-5.5 l 0.40625,-0.46875 c -0.0123,0.11885 -0.018,0.22299 -0.0312,0.34375 -0.5,4 13.125,2.875 12.125,-3.75 l -0.0625,-0.2813 c 0.20439,0.43915 0.50162,0.81331 0.9375,1.03125 1.5,0.75 5.92077,-5.69257 14.25,-6.375 2.12156,-0.17382 0.125,-4 0.125,-4 4.33509,6.01171 9.02328,5.39461 10.4375,4.6875 1.41421,-0.70711 3.716,-1.22871 2.125,-3.96875 9.72272,0.53033 5.97184,5.43126 10.875,7.9375 4.81938,2.46341 9.77407,2.32381 10,0.46875 0.046,-0.3776 0.13068,-0.8054 0.21875,-1.21875 l 0.71875,0.84375 c 15.375,4.625 16.625,13.625 16.625,13.625 0,0 6.875,-23.625 -12.125,-27.375 l -0.15625,0 c 0.23707,-2.66444 -7.21974,-3.89257 -8.375,-3.5625 -1.23744,0.35355 -11.8652,0.34896 -12.21875,-2.65625 -0.35356,-3.0052 8.0625,-41.1875 8.0625,-41.1875 l -1.40625,-0.96875 c 0.0458,-2.99967 -0.28156,-6.56991 -1.5,-10.53125 1.6564,4.65295 3.69091,11.65905 5,20.90625 0,0 6.20987,-6.08671 7.09375,-8.03125 0,0 1.16329,-10.85311 -1.2598,-19.81174 0,0 3.04289,5.84575 3.60355,18.56174 L 297,394.53125 c 0,0 -1.42586,-14.66729 -0.71875,-21.03125 5.22226,-2.06162 10.46875,2.9375 10.46875,2.9375 0,0 34.77712,48.60061 39.25,52 6.25,4.75 32.18881,-0.44327 33.75,-6.25 1.42258,-5.29117 -31.83792,-48.47505 -49.40625,-72 4.13882,1.78437 6.59375,2.46875 6.59375,2.46875 0,0 0.7025,-5.48071 -2.65625,-12.375 l 0,-0.1875 c 0.99518,0.51534 1.95652,1.01387 2.8125,1.4375 0.0232,0.0348 0.15625,0.25 0.15625,0.25 l -0.0937,-0.21875 c 3.75746,1.85743 6.09375,2.84375 6.09375,2.84375 0,0 0.34804,-4.77636 -3.1875,-13.96875 l -0.0937,-0.0312 C 339.89115,329.49919 339.75136,328.35518 339.5,327 l 0.1875,0.0625 c 14.84925,8.13172 23.71875,8.875 23.71875,8.875 0,0 0.51152,-10.29507 -12.125,-27.59375 l 0.28125,0 c 18.03122,4.94974 28.65625,3.1875 28.65625,3.1875 0,0 -2.40538,-10.42884 -12.78125,-22.96875 23.61178,2.44015 30.8125,-6.71875 30.8125,-6.71875 0,0 -9.85653,-14.3907 -29,-25 l 0.0312,-0.0312 c 30.05208,2.47482 39.2188,-10.3438 39.2188,-10.3438 0,0 -8.64397,-10.04803 -24.78125,-15.875 l 0.0312,-0.0312 c 36.76952,-16.26346 38.88115,-26.15625 36.40625,-26.15625 -1.6391,0 -5.26143,-6.1899 -27.40625,-4.9375 28.75002,-24 22.875,-58.375 22.875,-58.375 0,0 -6.65618,6.94027 -19.96875,18.375 15.51797,-22.26528 6.96875,-57.625 6.96875,-57.625 0,0 -5.09711,12.32319 -16.875,29.4375 12.75,-29.75 -1.375,-56.4375 -1.375,-56.4375 0,0 -3.94518,13.54254 -13.34375,32.4375 6.5634,-37.531 -10.2812,-53.12505 -10.2812,-53.12505 0,0 1.03671,9.50403 -7.5625,31.96875 1.29814,-30.58571 -23.8125,-49.28125 -23.8125,-49.28125 0,0 2.78836,11.32457 -0.5625,34.90625 C 325.03287,37.78748 295.125,27.34375 295.125,27.34375 z m 100.1875,132.4375 c -0.11025,0.0945 -0.20135,0.18613 -0.3125,0.28125 l -0.125,-0.15625 z"
       id="path3032"
       inkscape:connector-curvature="0"
       sodipodi:nodetypes="cccccccccccccssscccccssccccccccscccccccccsccccccccccccccccsscscsccccccssccccccccccsscccccccccccccccccccccccscccccccccccccccc"
       transform="translate(142.5,273.0989)" />
    <path
       style="fill:url(#linearGradient5271);stroke:none"
       d="m 302.5625,88.78125 -10,38.03125 -13.71875,46.5 0.0625,0 -0.15625,0.34375 -2.8125,20.6875 5,13.15625 2.53125,17.53125 -7.53125,14.09375 -12.21875,10.65625 1.25,5.625 c 7.2038,-10.02268 13.64611,-5.11114 21.34375,-23.90625 9.54826,-23.31371 -0.0256,-31.85586 -2.53125,-40.3125 -1.22072,-4.11992 0.61104,-9.6653 2.625,-16.71875 l 1.0625,0.15625 2,6.21875 3.75,4.1875 -1.09375,6.21875 4.65625,1.3125 -0.90625,8 2.65625,5.96875 -0.65625,16.59375 -1.3125,10.4375 -5.3125,5.3125 -0.6875,12.15625 -8.1875,-0.4375 -2,7.3125 -8.1875,-1.09375 -4.4375,5.96875 -5.28125,1.40625 0.625,6.875 31.9375,39.46875 c 0,0 -1.875,-5.64633 -1.875,-10.03125 0,-4.38493 -21.97804,-20.08752 -2.875,-37.90625 19.10305,-17.81872 19.67121,-43.98497 21.0625,-57.3125 1.39129,-13.32753 -15.14666,-38.3631 -14.40625,-52.59375 0.74041,-14.23065 13.76843,-44.4873 5.625,-63.90625 z m 23.0625,18.90625 c -6.84811,4.60942 -6.53125,6 -6.53125,6 l 3.25,23.0625 6.25,-2.3125 c 1.77646,-8.96474 2.15672,-20.86693 -2.96875,-26.75 z m 13.875,18.65625 c -5.86469,1.49702 -7.0625,2.90625 -7.0625,2.90625 -2.06464,-5.10436 1.37525,5.06785 2.6875,9.34375 l -8.4375,22.84375 11.5625,-7.59375 c 0.51443,-2.26143 4.67849,-21.35623 1.25,-27.5 z m -1.25,27.5 c -0.0328,0.14427 -0.0937,0.4375 -0.0937,0.4375 l 0.625,-0.75 -0.53125,0.3125 z m 0.53125,-0.3125 6.25,-2.78125 0.125,-0.59375 -6.375,3.375 z m 6.25,-2.78125 -4.875,20.71875 9.0625,5 -17.21875,19.75 17.21875,1.25 -15.96875,20.96875 4.25,1.78125 c 4.59048,1.93746 11.68856,-7.8393 12.59375,-12.96875 l -2.90625,0.78125 c 0,0 8.9723,-8.10515 7.40625,-16.875 L 342.5,195.59375 c 0,0 11.56015,-14.19155 12.53125,-23.40625 l -9.96875,0.90625 c 0,0 6.63317,-11.29998 5.96875,-25.03125 l -6,2.6875 z M 232.96875,159 c 11.05496,24.8336 -5.65625,29.15625 -5.65625,29.15625 1.03122,1.63146 -1.73602,0.0978 -3.1875,0.21875 0,0 -3.08286,-1.54899 -3.96875,2.4375 C 219.27036,194.799 233,213.40625 233,213.40625 c 0,0 -4.44022,-9.86814 -4.21875,-12.96875 0.33464,-2.93837 4.193,-2.53372 5.59375,-1.25 1.40075,1.28372 9.45315,9.66321 15.15625,13.71875 0,0 -10.40315,-14.03077 -9.40625,-15.3125 0,0 6.55246,5.11606 15.875,5.75 -8.12329,-5.91715 -11.36455,-27.93944 -13.75,-34.3125 C 239.86454,162.65818 232.96875,159 232.96875,159 z m -32.78125,15.625 -13.09375,0.1875 -8.1875,8.1875 c 8.41014,-4.73006 11.55101,-6.6078 24.84375,-4.59375 l -3.5625,-3.78125 z m 5,9.375 c -0.53138,-0.002 -1.05862,0.12508 -1.5625,0.46875 -2.68738,1.83289 -4.79887,5.19914 -3.75,17.03125 3.99249,-6.12787 6.64578,-13.88546 8.375,-14.40625 1.40499,-0.42314 -0.75987,-3.08538 -3.0625,-3.09375 z m 48.125,27.40625 -0.96875,10.90625 -15.09375,-10 -1.4375,13.1875 -8.6875,-12 -5.5,17.78125 -5.40625,-13.6875 -9.4375,15.875 -1.40625,-15.375 1.40625,15.9375 -0.28125,7.125 c 0,0 7.40073,-3.68915 12.8125,-8.53125 0,0 3.70085,6.27051 5.125,7.125 l 5.40625,-12.53125 9.5625,12.375 c 0,0 2.8361,-11.96111 4.6875,-13.8125 l 15.96875,10.25 9.3125,-13.8125 c 0,0 -7.07324,-5.12664 -6.21875,-9.96875 l -9.84375,-0.84375 z m 90.375,11.84375 c -0.39236,0.17833 3.07241,2.25637 7.40625,4.28125 L 352.9375,227.25 353,227.21875 c -6.36683,-3.10108 -9.00733,-4.10745 -9.3125,-3.96875 z m 9.25,4 -16.875,11.28125 c 4.37089,2.78216 17.64694,0.91548 21.3125,-11.9375 l -4.4375,0.65625 z m -15.40625,12.5625 c -1.58827,-0.0526 0.59496,2.17117 10.125,8.09375 L 327.375,248 l 20.65625,22.875 c -10.76225,-22.15335 -0.3893,-9.80878 12.46875,-18.59375 -7.18197,-5.98906 -20.32163,-12.381 -22.96875,-12.46875 z m -15.875,30 c 5.01026,5.05112 20.29165,29.23263 15.875,18.59375 -3.31715,-7.80283 -0.82285,-11.34277 16.71875,-11.6875 -7.68689,-6.27608 -7.19884,-7.06845 -8.78125,-6.90625 l -23.8125,0 z m -6.5625,14.71875 5,14.71875 -7.5,-1.5625 -11.28125,-6.25 3.375,7.53125 c 0,0 13.19363,7.72862 19.84375,6.90625 l 1.3125,-6.90625 c -2.50567,-9.08305 13.6875,-5.03125 13.6875,-5.03125 l -0.75,-1.53125 c -7.68399,-3.09275 -15.78693,-5.33198 -23.6875,-7.875 z M 233.875,334.4375 c 1.375,21.5 9,53.1875 9,53.1875 l 8.375,-6.1875 -8.5,-26.875 -5.125,-17.875 -3.75,-2.25 z m 58.0625,8.125 c 3.67363,6.34535 8.50418,11.97525 14.40625,16.65625 0.004,0.009 -0.004,0.0222 0,0.0312 6.72772,16.26702 29.40625,36.3125 29.40625,36.3125 L 317.96875,366.4687 c 6.95152,3.32698 13.8626,4.74495 23.8125,6.5625 -0.58881,-7.43942 -10.09375,-14.9375 -10.09375,-14.9375 l -5,6.40625 -9.375,-2.84375 -17.65625,-11.40625 -7.71875,-7.6875 z m -35.3125,0.15625 c 16.0929,24.7802 28.78125,24.1875 28.78125,24.1875 0,0 -5.2679,-6.97184 -3.84375,-7.96875 L 256.625,342.71875 z m 15.125,64.21875 c -2,4.75 -0.35532,9.18084 -5.625,26.78125 -5.26968,17.60041 10.03125,11.59375 10.03125,11.59375 0,0 -3.26935,-2.98388 -3.21875,-6.5 0.14194,-9.86152 3.90388,-28.21638 5.5625,-29.875 2.25,-2.25 -6.75,-2 -6.75,-2 z m -46.8125,24.9375 c 0,0 -11.8125,2.3125 -20.125,9.3125 l 1.6875,-0.125 18.125,-6.0625 0.3125,-3.125 z m 1.125,2.53125 c -1.10015,0.0957 -0.59375,2.03125 -0.59375,2.03125 l 8.5,3 11.65625,3.28125 c 0,0 5.47395,1.31954 2.46875,-0.625 -3.0052,-1.94455 -18.95283,-7.7759 -21.78125,-7.6875 -0.0884,-0.0111 -0.17666,-0.006 -0.25,0 z m -7.25,11.90625 c 0,0 -10.0625,4.75 -16.5,16.5625 l 5.875,-5.5 9.625,-5.0625 1,-6 z m 32.78125,1.84375 c -1.79352,-0.0128 0.15625,3.28125 -5.46875,7.03125 -6,4 -12.625,4.25 -12.625,4.25 0,0 -2.84835,-3.75334 -4.875,-4.75 -2.02665,-0.99666 -2.625,4 -2.625,4 l -1,8.25 4.75,3 7,-2.5 8.75,-5.25 11,-1.25 8,-3.75 10,4 c 0,0 7.25,3 10.5,3.25 2.4375,0.1875 3.60156,-3.5625 4.5625,-6.1875 l -1.125,4.71875 10.46875,3.96875 4.71875,4.3125 c 1.94979,-9.03402 -12.5413,-14.01545 -13.53125,-14.34375 -0.17124,0.3742 -0.32132,0.82551 -0.5,1.3125 l 0.3125,-1.375 c 0,0 0.15291,0.051 0.1875,0.0625 0.13017,-0.28443 0.27344,-0.53281 0.40625,-0.71875 1.25,-1.75 0.5,-4.375 -3.375,-4.875 -4.06659,-0.52472 -3.125,1.625 -6.125,4.375 -3,2.75 -3,-1.5 -6.5,-4 -3.5,-2.5 -10.5,-0.25 -15.5,-0.25 -5,0 -4.5,-2.75 -7,-3.25 -0.15625,-0.0312 -0.28668,-0.0304 -0.40625,-0.0312 z M 224.4375,461.5 c 0,0 -13,3.8125 -17.875,9.4375 l 0.375,1 17.5625,-6 -0.0625,-4.4375 z"
       id="path3061"
       transform="translate(142.5,273.0989)"
       inkscape:connector-curvature="0" />
    <path
       transform="translate(142.5,273.0989)"
       d="m 222.85715,379.76328 c 0,39.44891 -31.97966,71.42857 -71.42858,71.42857 C 111.97966,451.19185 80,419.21219 80,379.76328 c 0,-39.44892 31.97966,-71.42858 71.42857,-71.42858 39.44892,0 71.42858,31.97966 71.42858,71.42858 z"
       sodipodi:ry="71.428574"
       sodipodi:rx="71.428574"
       sodipodi:cy="379.76328"
       sodipodi:cx="151.42857"
       id="path4276"
       style="fill:url(#linearGradient3942);fill-opacity:1;stroke:none"
       sodipodi:type="arc" />
    <path
       style="font-size:medium;font-style:normal;font-variant:normal;font-weight:normal;font-stretch:normal;text-indent:0;text-align:start;text-decoration:none;line-height:normal;letter-spacing:normal;word-spacing:normal;text-transform:none;direction:ltr;block-progression:tb;writing-mode:lr-tb;text-anchor:start;baseline-shift:baseline;color:#000000;fill:url(#linearGradient3930);fill-opacity:1;stroke:none;stroke-width:2;marker:none;visibility:visible;overflow:visible;enable-background:accumulate;font-family:Sans;-inkscape-font-specification:Sans"
       d="m 364.28125,418.34375 c -2.44629,-0.0932 -4.87044,-0.0244 -7.21875,0.15625 -9.34174,0.71859 -14.03577,1.85769 -16.8125,3.34375 -2.27838,1.21935 -3.20015,2.59407 -3.3125,3.8125 -0.0974,1.06709 0.49834,1.68691 0.46875,2.34375 -0.92661,-0.0422 -2.69799,-0.57235 -4.28125,-0.28125 -2.51549,0.46249 -5.20746,1.90819 -7.4375,4.40625 -6.7182,1.77437 -11.8326,6.86793 -13.28125,13.25 -1.4886,6.5581 0.99132,14.34057 5.75,20.125 l 1.0625,1.28125 0.625,-1.53125 c 2.33704,-5.67566 6.78125,-6.5625 6.78125,-6.5625 l 0.0625,0 0.0312,0 c 0,0 1.55492,-0.50644 3.4375,-0.65625 1.88258,-0.14981 3.97962,0.12176 5.09375,1.21875 1.36052,1.33959 1.81263,2.83996 2.40625,5.71875 0.59362,2.87879 0.62868,7.14572 -0.34375,13.6875 -2.20097,12.18289 -4.73119,20.42238 -14.62495,25.75 0,0 0.0308,-7e-5 0.0312,0 l 0,0.0312 c 0,0 0.17523,-0.001 0.1875,0 0.62335,0.0984 9.14493,1.50024 19.25,-6.48667 2.30874,-1.8248 2.86429,-2.07141 3.92325,-2.68192 -0.23644,6.54012 -0.37831,10.71006 -0.47357,17.36811 0,0 4.70608,-2.38629 7.26907,-6.23077 2.00787,-3.0118 3.958,-4.05225 5.72189,-9.77919 1.51102,5.97079 5.02897,11.04336 7.59061,14.21669 0.0971,-3.58483 0.6974,-14.821 3.30752,-19.90289 4.29404,6.29142 8.22997,13.79919 11.47373,19.09039 0,0 -1.61899,-12.38467 -0.0312,-21.96875 5.96968,5.45038 11.10824,9.60421 17.71875,11.95711 -1.79949,-5.66217 -2.3331,-8.53794 -1.93398,-14.16307 6.31237,2.38993 11.42051,2.31378 17.42954,2.15771 -8.67708,-8.90819 -18.32977,-22.33088 -19.58931,-32.88925 l 0,-0.0312 0,-0.0312 c -1.01307,-6.88891 -1.30289,-10.64499 -2.48928,-15.32415 -0.86025,-3.39285 -0.598,-8.67906 -4.41176,-12.69729 -3.81375,-4.01823 -16.04133,-8.4176 -23.38021,-8.69731 z m -0.0937,1.96875 c 6.99148,0.256 13.87038,2.07616 19,7.71875 3.4907,3.83976 5.30226,7.17377 6.53125,11.3125 1.22485,4.12478 1.86491,9.09551 2.875,15.96875 l -0.0312,0 c 1.03086,10.85496 6.39997,21.20905 14.87868,29.56028 -7.95009,-0.53324 -13.79362,-4.76415 -21.92103,-8.56434 2.14254,2.77761 4.00476,4.56319 6.72715,6.15176 -0.35528,2.93449 0.82555,8.2873 1.51202,11.53385 -7.8921,-3.17094 -8.87341,-6.23571 -21.25942,-19.49405 2.17292,5.69991 5.03362,7.37614 5.17412,12.99686 0.14051,5.62072 -0.3939,8.19127 -0.54744,9.26887 -1.2473,-1.39114 -5.00503,-11.23104 -11.15392,-18.99321 3.61343,10.8748 -1.83623,14.39898 -1.82414,23.81641 -2.30594,-3.91579 -3.52707,-5.51208 -4.45316,-16.78385 -1.76129,7.99844 -7.73581,16.00606 -10.15609,19.63648 0.0218,-2.24091 -0.38923,-8.10005 -0.66659,-12.27237 -0.27736,-4.17231 -0.0942,-10.04316 -1.56033,-15.13794 -0.52233,1.49618 -0.42108,3.76723 -0.96875,6.84375 -1.46314,5.67535 -3.26999,8.67146 -6.08525,10.92006 -2.19184,1.39299 -3.40285,1.9745 -4.90717,1.96875 0.86228,-1.49416 2.36355,-2.31162 4.55492,-16.70136 2.19137,-14.38974 -1.32458,-21.26025 3.0527,-25.01294 3.23267,-2.67415 8.57681,-2.43333 8.7286,-2.89331 0.15179,-0.45998 -0.98086,-1.89125 -3.34375,-3.6875 -1.64116,-1.24759 -3.236,-3.15365 -3.6875,-4.1875 -1.18535,-2.71425 -1.70276,-6.14318 -2.40625,-8.78125 -0.63253,-2.07755 -2.60669,-4.43644 -3.4375,-5.5 0.38742,0.36806 0.51572,0.52613 1.21875,1.125 0.82366,0.70164 1.34512,1.62835 2.29197,2.6348 0.94685,1.00645 3.09921,6.36629 5.02053,7.4902 2.93479,1.73756 5.66357,0.72575 7.4062,-0.8437 1.49354,-1.35804 2.43954,-5.27659 4.1361,-6.34743 1.69657,-1.07084 8.3456,-1.28212 10.08996,-1.22395 -2.93438,-1.92464 -10.41574,-2.31835 -14.53856,-2.33487 -2.54899,-0.19607 -4.55432,0.55219 -6.09375,1.125 -1.53943,0.57281 -2.48721,0.88495 -3.3125,0.53125 -1.0387,-0.44516 -2.54567,-1.56321 -3.71875,-2.5625 -1.09813,-0.93544 -1.80473,-1.64918 -1.90625,-1.75 -0.78434,-0.73241 -0.61017,-1.505 -0.49995,-2 0.11022,-0.495 0.33664,-1.20928 2.28125,-2.25 2.30059,-1.23124 6.80155,-2.38378 16.03125,-3.09375 2.29455,-0.1765 4.63826,-0.27283 6.96875,-0.1875 z m -29.15625,9.8125 c 0.60745,0.4215 3.8849,2.74802 4.71875,5.875 0.72509,2.71909 0.34024,6.75971 3.09375,9.09375 1.118,3.004 -4.97788,1.8357 -6.5625,1.75 -2.30842,-2.84776 -2.03884,-4.25849 -2.75184,-6.12056 -0.23462,-0.83848 -0.45164,-1.40203 0.44161,-1.31602 1.38641,1.22947 2.81542,1.51872 2.41567,-0.0483 -0.39975,-1.56698 -2.89398,-2.23243 -4.83481,-2.10799 -0.59411,-1.18807 -1.64873,-1.97858 -2.98928,-3.53217 1.14623,-2.15486 3.30925,-3.10871 5.4375,-3.5 0.39362,-0.0724 0.66158,-0.0567 1.03125,-0.0937 z m 17.12231,5.94059 c -0.68373,-0.0672 -1.39589,-0.40989 -1.66049,-1.69156 1.31878,-0.40739 2.52491,-0.45499 3.47947,-0.2806 0.43932,0.12031 0.23305,0.95727 -0.2577,1.54412 -0.49075,0.58686 -0.87755,0.49526 -1.56128,0.42804 z m -2.93481,1.46566 c 0.70863,0.9986 2.43769,1.59004 3.53125,1.25 1.09356,-0.34004 2.56218,-0.69351 1.45312,0.40625 -2.07838,1.42374 -4.0692,0.94653 -5.70307,0 -1.22571,-0.717 -2.10305,-2.30033 -1.84651,-3.22465 1.0182,-1.73044 1.85658,0.5698 2.56521,1.5684 z M 327,434.96875 c 2.18362,2.50531 2.61124,5.98643 3.27145,7.71063 0.66021,1.7242 1.91452,1.84578 3.6348,4.22687 -1.7792,0.0703 -3.56052,0.28059 -5.25,0.84375 -7.32495,2.44165 -9.79844,10.14828 -10.59375,13.9375 -2.96512,-4.91673 -3.98635,-10.84122 -2.84375,-15.875 1.31329,-5.78575 5.203,-10.20284 11.78125,-10.84375 z m 40.57751,1.37316 c 0,0 -7.66369,1.07836 -10.67126,4.90809 -1.50378,1.91487 -3.05171,4.92393 -3.1348,7.68122 -0.0831,2.75729 2.19768,5.65412 3.57491,7.23391 1.37722,1.57979 3.63795,0.0376 2.38388,-1.40089 -1.25408,-1.43852 -2.78796,-3.38374 -2.72136,-5.59374 0.0666,-2.21 0.13277,-4.98062 1.45987,-6.6705 1.79953,-3.37102 4.79378,-3.89246 9.10876,-6.15809 z m 10.28908,22.22844 c -0.10493,-1.25891 0.98537,-3.1246 0.16466,-5.7891 -0.59846,2.45369 -2.17734,4.5423 -3.4375,5.65625 -4.17762,3.86731 -3.42643,1.59638 -2.42586,-3.399 -2.27786,2.51166 -2.64356,5.73342 -7.57202,5.52621 -2.21551,-0.33992 -5.90837,-2.12721 -5.90837,-2.12721 2.77888,3.46763 10.53354,4.97407 12.80844,5.07639 2.2749,0.10232 6.18942,1.15817 10.83583,-5.00848 4.64642,-6.16665 -0.43686,-16.89271 -0.71844,-15.37276 1.8743,12.85332 -2.49276,15.32659 -3.74674,15.4377 z M 336.15625,448.875 c 2.3643,0.12141 4.72429,0.55846 6.8125,1.09375 1.69787,0.43523 1.77187,1.15907 2.96875,1.59375 -2.78644,0.58802 -2.70521,1.41844 -4.70672,2.62148 -2.00151,1.20304 -5.02366,1.54879 -6.51203,1.19102 -1.48837,-0.35777 -3.66916,-0.34382 -5.14553,-0.22628 -3.27919,0.89857 -7.1999,3.36108 -8.97942,5.22628 1.04814,-3.6574 3.33264,-8.92338 8.71875,-10.71875 2.11514,-0.70505 4.47945,-0.90266 6.84375,-0.78125 z"
       id="path3002"
       inkscape:connector-curvature="0"
       sodipodi:nodetypes="cssccscsccccccssscccccsccscccccccccccszcccssccccccczccccczcccczczssccszcczccsssczsscccscccczccccczcczzzzccczczscscccszzsccccccccczzcccczzccsccc" />
    <path
       style="font-size:medium;font-style:normal;font-variant:normal;font-weight:normal;font-stretch:normal;text-indent:0;text-align:start;text-decoration:none;line-height:normal;letter-spacing:normal;word-spacing:normal;text-transform:none;direction:ltr;block-progression:tb;writing-mode:lr-tb;text-anchor:start;baseline-shift:baseline;color:#000000;fill:url(#linearGradient3930);fill-opacity:1;stroke:none;stroke-width:2.5;marker:none;visibility:visible;display:inline;overflow:visible;enable-background:accumulate;font-family:Sans;-inkscape-font-specification:Sans"
       d="m 73.25,281.90625 c -14.33464,0 -27.24928,8.26871 -36.5,21.4375 -1.287361,1.83261 -2.482443,3.76621 -3.625,5.78125 -4.01434,1.94575 -7.747678,4.17729 -11.15625,6.65625 C 8.7852,325.36928 0.5,338.73866 0.5,353.5625 l 0.03125,0 c -0.006066,0.1654 -0.03125,0.33383 -0.03125,0.5 l 2.5,0 0.5,0 c 0,0.37086 -0.19309,0.63361 -0.28125,0.71875 -0.0882,0.0851 -0.1108,0.0858 -0.0625,0.0625 0.0966,-0.0466 0.41431,-0.17852 0.84375,-0.28125 0.85887,-0.20546 2.21678,-0.41862 4,-0.625 3.285041,-0.38019 8.110743,-0.70186 13.875,-1 -0.0084,0.54227 -0.03125,1.07989 -0.03125,1.625 0,8.07409 0.94158,15.83316 2.65625,23.09375 -4.118502,0.8168 -7.574015,1.72229 -10.15625,2.75 -1.66351,0.66205 -2.9847,1.37798 -3.96875,2.1875 -0.49202,0.40476 -0.88755,0.82602 -1.21875,1.375 -0.33119,0.54898 -0.59375,1.26204 -0.59375,2.0625 l 2.09375,0 c 0,0.0581 -0.01125,0.049 0.09375,-0.125 0.10495,-0.17397 0.29739,-0.45478 0.65625,-0.75 0.71774,-0.59043 1.93119,-1.21938 3.5,-1.84375 2.520744,-1.00323 6.054828,-1.95038 10.3125,-2.78125 2.173561,8.05257 5.333525,15.4197 9.28125,21.8125 -1.921323,0.58694 -3.608139,1.21242 -4.96875,1.90625 -1.22577,0.62506 -2.20983,1.32677 -2.9375,2.09375 C 25.86608,407.11074 25.375,408.00407 25.375,409 l 2.03125,0 c 0,-0.36952 0.16237,-0.76069 0.65625,-1.28125 0.49387,-0.52056 1.28058,-1.09817 2.375,-1.65625 1.324959,-0.67565 3.111409,-1.32895 5.1875,-1.9375 0.368196,0.55811 0.744495,1.11459 1.125,1.65625 9.25072,13.16879 22.16536,21.46875 36.5,21.46875 14.33464,0 27.24928,-8.29996 36.5,-21.46875 0.2652,-0.37752 0.52201,-0.77071 0.78125,-1.15625 1.36256,0.45754 2.57305,0.94887 3.53125,1.4375 1.09442,0.55808 1.88113,1.13569 2.375,1.65625 0.49388,0.52056 0.65625,0.91173 0.65625,1.28125 l 2.03125,0 c 0,-0.99593 -0.49108,-1.88926 -1.21875,-2.65625 -0.72767,-0.76698 -1.71173,-1.46869 -2.9375,-2.09375 -0.94855,-0.4837 -2.08737,-0.9434 -3.3125,-1.375 4.12011,-6.5411 7.42097,-14.12082 9.65625,-22.4375 4.45256,0.85139 8.14496,1.83822 10.75,2.875 1.56881,0.62437 2.78226,1.25332 3.5,1.84375 0.35886,0.29522 0.55129,0.57603 0.65625,0.75 0.10495,0.17396 0.0937,0.18313 0.0937,0.125 l 2.09375,0 c 0,-0.80046 -0.26256,-1.51352 -0.59375,-2.0625 -0.3312,-0.54898 -0.72673,-0.97024 -1.21875,-1.375 -0.98405,-0.80952 -2.30524,-1.52545 -3.96875,-2.1875 -2.67031,-1.06277 -6.2857,-2.00622 -10.59375,-2.84375 1.70025,-7.23317 2.625,-14.96134 2.625,-23 0,-0.56607 -0.0222,-1.1245 -0.0312,-1.6875 6.26317,0.3112 11.38538,0.65863 14.875,1.0625 1.78322,0.20638 3.14113,0.41954 4,0.625 0.42944,0.10273 0.74716,0.23469 0.84375,0.28125 0.0483,0.0233 0.0257,0.0226 -0.0625,-0.0625 C 144.19305,354.69615 144,354.43336 144,354.0625 l 2,0 0.21517,-0.12461 c 0,-0.49167 0.0278,-0.73344 -0.18392,-0.93789 -0.0183,-0.0176 -0.0446,-0.015 -0.0625,-0.0312 -0.22012,-14.58451 -8.43197,-27.72893 -21.4375,-37.1875 -3.40857,-2.47896 -7.14191,-4.7105 -11.15625,-6.65625 -1.14256,-2.01504 -2.33764,-3.94864 -3.625,-5.78125 -9.25072,-13.16879 -22.16536,-21.4375 -36.5,-21.4375 z m 1.0625,3 c 2.835096,0.34401 5.629683,2.02226 8.3125,5.0625 2.498778,2.83168 4.863012,6.81773 6.9375,11.6875 -4.883295,-0.81758 -9.953808,-1.253 -15.15625,-1.3125 z m -2.5,0.0312 0.09375,15.40625 c -5.136537,0.0683 -10.144348,0.50478 -14.96875,1.3125 2.074488,-4.86977 4.438722,-8.85582 6.9375,-11.6875 2.566588,-2.90853 5.229652,-4.58922 7.9375,-5.03125 z m -6.71875,0.4375 c -1.070631,0.83067 -2.106001,1.81816 -3.09375,2.9375 -3.01904,3.42126 -5.678392,8.17306 -7.96875,13.90625 -5.986974,1.19604 -11.668427,2.91178 -16.9375,5.125 0.556233,-0.87576 1.132948,-1.72858 1.71875,-2.5625 7.056984,-10.04592 16.15533,-16.96618 26.28125,-19.40625 z m 16.3125,0 c 10.12592,2.44007 19.22427,9.36033 26.28125,19.40625 0.5858,0.83392 1.16252,1.68674 1.71875,2.5625 -5.26907,-2.21322 -10.950526,-3.92896 -16.9375,-5.125 -2.290358,-5.73319 -4.94971,-10.48499 -7.96875,-13.90625 -0.987749,-1.11934 -2.023119,-2.10683 -3.09375,-2.9375 z m -9.5,17.46875 0.125,20.46875 c -7.536674,0.0516 -14.783634,0.59127 -21.59375,1.53125 1.30683,-7.50881 3.103914,-14.28136 5.25,-20.03125 0.05173,-0.13859 0.1041,-0.26885 0.15625,-0.40625 5.150125,-0.9529 10.524157,-1.48659 16.0625,-1.5625 z m 2.5,0 c 5.604696,0.0661 11.041543,0.5988 16.25,1.5625 0.05215,0.1374 0.104524,0.26766 0.15625,0.40625 2.146086,5.74989 3.94317,12.52244 5.25,20.03125 -6.791319,-0.93739 -14.016928,-1.47711 -21.53125,-1.53125 z m -21.4375,2.125 c -2.118203,5.90233 -3.859359,12.73794 -5.125,20.25 -7.473588,1.16493 -14.353825,2.83408 -20.4375,4.90625 1.799942,-6.93164 4.330759,-13.34109 7.46875,-19.03125 5.535502,-2.62002 11.613888,-4.70948 18.09375,-6.125 z m 40.5625,0 c 6.47986,1.41552 12.55825,3.50498 18.09375,6.125 3.13799,5.69016 5.66881,12.09961 7.46875,19.03125 -6.08367,-2.07217 -12.96391,-3.74132 -20.4375,-4.90625 -1.265641,-7.51206 -3.006797,-14.34767 -5.125,-20.25 z M 31.0625,313 c -2.730692,5.53324 -4.938868,11.62203 -6.5,18.125 -0.79411,0.30008 -1.581692,0.62308 -2.34375,0.9375 -6.57309,2.71197 -11.93771,5.93673 -15.71875,9.625 -0.8499374,0.82908 -1.5966384,1.68397 -2.28125,2.5625 2.6211983,-10.17847 9.431128,-19.31923 19.21875,-26.4375 2.380193,-1.73105 4.918582,-3.34023 7.625,-4.8125 z m 84.375,0 c 2.70642,1.47227 5.24481,3.08145 7.625,4.8125 9.78762,7.11827 16.59755,16.25903 19.21875,26.4375 -0.68461,-0.87853 -1.43131,-1.73342 -2.28125,-2.5625 -3.78104,-3.68827 -9.14566,-6.91303 -15.71875,-9.625 -0.76206,-0.31442 -1.54964,-0.63742 -2.34375,-0.9375 -1.56113,-6.50297 -3.76931,-12.59176 -6.5,-18.125 z m -43.40625,12.8125 0.125,23.5 c -8.494942,0.009 -16.574459,0.10689 -24.09375,0.25 0.205124,-7.79751 0.895271,-15.24509 1.96875,-22.125 6.909281,-0.99059 14.300845,-1.57087 22,-1.625 z m 2.5,0 c 7.676686,0.0567 15.046939,0.63709 21.9375,1.625 1.072048,6.87074 1.762635,14.30757 1.96875,22.09375 -7.453374,-0.13571 -15.399366,-0.21347 -23.78125,-0.21875 z m -27.09375,2 c -1.028821,6.81482 -1.679243,14.12172 -1.875,21.78125 -7.891322,0.16694 -14.993635,0.4011 -21.125,0.6875 0.253001,-5.99406 1.011395,-11.78923 2.25,-17.28125 6.066241,-2.18267 13.079915,-3.94732 20.75,-5.1875 z m 51.625,0 c 7.67008,1.24018 14.68376,3.00483 20.75,5.1875 1.23646,5.48249 1.99561,11.26705 2.25,17.25 -6.17769,-0.27844 -13.24748,-0.49647 -21.125,-0.65625 -0.19576,-7.65953 -0.84618,-14.96643 -1.875,-21.78125 z m -75.125,6.25 c -1.082936,5.23285 -1.77595,10.69603 -2,16.34375 -5.919228,0.30484 -10.784531,0.66505 -14.21875,1.0625 -1.83488,0.21236 -3.26649,0.43727 -4.3125,0.6875 -0.080071,0.0192 -0.1428772,0.0432 -0.21875,0.0625 0.5002683,-3.0144 2.1902741,-5.94824 5.0625,-8.75 3.45516,-3.37039 8.54038,-6.46727 14.90625,-9.09375 0.255267,-0.10532 0.521968,-0.20875 0.78125,-0.3125 z m 98.625,0 c 0.25928,0.10375 0.52598,0.20718 0.78125,0.3125 6.36587,2.62648 11.45109,5.72336 14.90625,9.09375 2.80246,2.73371 4.48513,5.59397 5.03125,8.53125 -0.95071,-0.18779 -2.06331,-0.36497 -3.5,-0.53125 -3.63267,-0.42042 -8.82402,-0.80945 -15.21875,-1.125 -0.22655,-5.62566 -0.92105,-11.06767 -2,-16.28125 z m -50.40625,17.75 0.125,22 c -8.198938,0.0258 -16.015989,0.31607 -23.1875,0.8125 C 48.388941,368.26495 48,361.53752 48,354.5625 c 0,-0.83968 0.02033,-1.66749 0.03125,-2.5 7.518901,-0.14417 15.622694,-0.24048 24.125,-0.25 z m 2.5,0 c 8.390045,0.005 16.358364,0.082 23.8125,0.21875 0.01119,0.84282 0.03125,1.68107 0.03125,2.53125 0,6.96376 -0.391126,13.68024 -1.09375,20.03125 -7.011581,-0.4743 -14.636769,-0.75477 -22.625,-0.78125 z m -29.125,0.28125 C 45.52091,352.91263 45.5,353.73681 45.5,354.5625 c 0,7.03446 0.386511,13.82146 1.09375,20.25 -6.856011,0.53398 -13.081185,1.26511 -18.375,2.15625 -0.436448,0.0735 -0.826002,0.14342 -1.25,0.21875 -1.689985,-7.09861 -2.625,-14.70275 -2.625,-22.625 0,-0.58789 0.02118,-1.16559 0.03125,-1.75 6.124068,-0.28802 13.235242,-0.54998 21.15625,-0.71875 z m 55.4375,0 c 7.90964,0.16157 14.98254,0.37608 21.15625,0.65625 0.0108,0.60514 0.0312,1.20362 0.0312,1.8125 0,7.89769 -0.91377,15.48272 -2.59375,22.5625 -0.27928,-0.0487 -0.52795,-0.10835 -0.8125,-0.15625 -5.42063,-0.91249 -11.79844,-1.65052 -18.84375,-2.1875 C 100.6113,368.36185 101,361.58565 101,354.5625 c 0,-0.82569 -0.0209,-1.64987 -0.0312,-2.46875 z m -28.6875,24.6875 0.125,21.34375 c -0.0526,-4e-5 -0.103612,0 -0.15625,0 -6.531889,0 -12.734173,0.28953 -18.375,0.8125 -1.903195,-6.28237 -3.424272,-13.49713 -4.4375,-21.34375 7.071497,-0.48832 14.769812,-0.78652 22.84375,-0.8125 z m 2.5,0 c 7.865484,0.0266 15.368355,0.31466 22.28125,0.78125 -1.024779,7.94796 -2.563644,15.25301 -4.5,21.59375 -5.39276,-0.56649 -11.343578,-0.92424 -17.65625,-1 z m 24.78125,0.9375 c 7.10998,0.54044 13.54243,1.30531 18.96875,2.21875 0.0994,0.0167 0.18249,0.0457 0.28125,0.0625 -2.24146,8.23912 -5.52579,15.71931 -9.625,22.09375 -1.32516,-0.38044 -2.73209,-0.72837 -4.28125,-1.0625 -2.90861,-0.62734 -6.234344,-1.15601 -9.8125,-1.59375 1.938494,-6.44117 3.45325,-13.76558 4.46875,-21.71875 z m -52.625,0.0625 c 1.003991,7.83973 2.503856,15.06581 4.40625,21.4375 -4.335635,0.47228 -8.323655,1.07349 -11.75,1.8125 -0.897738,0.19363 -1.73884,0.41586 -2.5625,0.625 -3.959896,-6.26277 -7.153955,-13.56578 -9.34375,-21.59375 0.257903,-0.0449 0.487457,-0.0808 0.75,-0.125 5.299194,-0.89204 11.581926,-1.61878 18.5,-2.15625 z M 72.25,400.125 c 0.05286,0 0.103437,-4e-5 0.15625,0 l 0.125,24.125 c -2.955079,-0.24229 -5.864021,-1.92952 -8.65625,-5.09375 -3.02093,-3.4234 -5.82614,-8.48584 -8.1875,-14.8125 -0.411492,-1.10249 -0.803497,-2.26127 -1.1875,-3.4375 5.449451,-0.49548 11.448445,-0.78125 17.75,-0.78125 z m 2.65625,0.0312 c 6.082428,0.0756 11.829549,0.40024 17.03125,0.9375 -0.364951,1.10989 -0.735451,2.2063 -1.125,3.25 -2.36136,6.32666 -5.16657,11.3891 -8.1875,14.8125 -2.460038,2.78778 -5.002347,4.44594 -7.59375,4.96875 z m -22.96875,1 c 0.446985,1.39479 0.920498,2.76105 1.40625,4.0625 2.4342,6.52181 5.33635,11.83155 8.65625,15.59375 1.004558,1.13839 2.066061,2.12927 3.15625,2.96875 -10.149307,-2.43564 -19.273221,-9.37229 -26.34375,-19.4375 -0.205873,-0.29307 -0.391478,-0.60794 -0.59375,-0.90625 0.603795,-0.1471 1.200334,-0.29873 1.84375,-0.4375 3.436381,-0.74118 7.45933,-1.36959 11.875,-1.84375 z m 42.53125,0.21875 c 3.667502,0.44175 7.03209,0.9916 9.96875,1.625 1.27191,0.27433 2.4507,0.56997 3.5625,0.875 -0.10608,0.15382 -0.20545,0.31635 -0.3125,0.46875 -7.07053,10.06521 -16.194443,17.00186 -26.34375,19.4375 1.090189,-0.83948 2.151692,-1.83036 3.15625,-2.96875 3.3199,-3.7622 6.22205,-9.07194 8.65625,-15.59375 0.459672,-1.23157 0.887492,-2.52845 1.3125,-3.84375 z"
       id="path4307"
       inkscape:connector-curvature="0"
       sodipodi:nodetypes="sscsccccccssscscsscccccsccssccsscssscssccssccscccccsscscsscscccccscsscsccccccsccsccsccsccsccccsccccscccccccccccccccsscsccscssccccccccccccccccccccccccsccssccsscscccccsccccsccccscscsccccscscscccsccccccccccccsccccsccccsccsscsccsscccsscscsccscccssc"
       transform="translate(220.75,298.7239)" />
    <path
       style="font-size:medium;font-style:normal;font-variant:normal;font-weight:normal;font-stretch:normal;text-indent:0;text-align:start;text-decoration:none;line-height:normal;letter-spacing:normal;word-spacing:normal;text-transform:none;direction:ltr;block-progression:tb;writing-mode:lr-tb;text-anchor:start;baseline-shift:baseline;color:#000000;fill:url(#linearGradient3930);fill-opacity:1;stroke:none;stroke-width:2;marker:none;visibility:visible;display:inline;overflow:visible;enable-background:accumulate;font-family:Sans;-inkscape-font-specification:Sans"
       d="m 292.78125,25.625 c 4.98335,14.507567 5.99646,31.933915 5.68842,42.600347 -0.88053,-2.889808 -1.77904,-3.531789 -4.52329,-8.3914 -1.70666,5.171663 -2.80971,12.372876 -3.27496,15.749395 -6.1594,-5.382833 -8.7409,-8.174499 -15.34559,-13.040449 -5.5452,-4.613729 -13.95401,-8.714083 -20.29718,-11.825825 0.94053,5.624968 1.12161,7.236678 2.3099,11.147524 -15.13596,-8.666977 -30.91785,-14.424738 -47.03386,-17.259961 17.82345,21.849361 24.1451,29.295888 32.60156,49.614119 -5.32971,-3.096246 -7.92558,-4.131843 -14.34375,-6.3125 18.68614,34.99233 26.41217,56.39275 33.46875,86.625 -2.42472,8.49357 -2.91716,18.39957 -0.0312,26.03125 0.98489,3.73544 2.33417,6.79279 3.5,9.21875 1.16583,2.42596 1.23193,4.4256 1.375,5.28125 0.40606,2.4285 0.49333,5.48396 0.1875,8.71875 -0.30583,3.23479 -1.69093,5.20082 -4.78125,7.4375 -6.80968,4.92864 -10.69874,11.29392 -10.71875,17.90625 -0.0119,3.91691 2.79885,8.83186 4.875,12.8125 1.46836,2.86397 0.0649,1.1242 4.23575,8.66069 4.1709,7.53649 14.22731,21.83374 21.59467,30.85172 7.36737,9.01797 17.16907,18.45644 26.69195,25.53845 -0.15734,3.13131 1.49568,6.05052 2.47763,9.13664 0.53671,1.68681 0.68799,1.89925 1.125,3 -0.56833,-0.38794 -1.16709,-0.80823 -1.75,-1.21875 -0.0168,-0.0118 -0.0145,-0.0506 -0.0312,-0.0625 l -0.0312,0 c -7.23034,-5.09852 -15.43005,-11.74312 -24.375,-20.90625 6.23124,10.84309 17.97022,20.3299 21.625,23.90625 3.65478,3.57635 5.29097,6.3886 6.0625,10.5625 -1.71799,-0.82633 -2.84322,-1.51275 -6.40625,-3.75 -5.30985,-3.33409 -11.18576,-8.48024 -14.28125,-13.71875 0.46895,3.73163 11.16254,13.54637 13.40625,14.96875 3.70396,2.33329 8.98087,5.37328 13.09191,6.83211 -0.5175,-2.30366 -1.30209,-4.26146 -1.71875,-5.71431 -0.41666,-1.45286 -1.21636,-3.16705 -1.87316,-4.3678 5.55189,4.14062 9.93781,10.49072 11.46875,17 -11.46837,-1.74626 -23.03547,-10.85375 -37.90625,-23.4375 15.04642,17.95843 31.86447,28.59375 47.53125,28.59375 -2.0404,-7.29627 -7.74114,-13.31634 -7.3125,-13.65625 0.42864,-0.33991 2.40964,1.85838 4.875,5.0625 2.46536,3.20412 25.93552,36.50704 39.09375,56.1875 -1.22036,3.6603 -5.08057,5.19471 -6.71875,3.40625 -1.63818,-1.78846 -15.71598,-19.37022 -31.46875,-46.5 0,0 -0.44217,-0.11733 -1.0939,0.16032 -0.65174,0.27764 -0.62485,0.83968 -0.62485,0.83968 15.44421,26.59836 28.58143,43.6297 28.6875,45.46875 0.10607,1.83905 -4.29414,3.26697 -5.59375,2.25 -1.29961,-1.01697 -30.1679,-41.45167 -41.75,-57.15625 4.07452,10.99064 36.51914,55.92037 37.125,57.5625 0.60585,1.64212 -3.33212,1.28885 -5.1875,0.78125 -1.85538,-0.50759 -3.55086,-2.32058 -5.625,-4.96875 -11.25399,-13.69806 -23.7192,-29.73411 -32.90625,-42.03125 -5.72476,-7.55045 -23.09363,-31.9142 -34.25,-44.78125 8.10738,14.73863 9.99059,16.44343 15.3125,27.25 -3.82633,-3.39839 -16.64274,-17.97899 -18.78125,-20.6875 1.69764,5.0837 4.04083,7.30726 6.34375,12.3125 -3.19754,-2.94757 -7.58964,-8.72825 -12.125,-12.625 7.3497,11.44483 8.4269,13.14062 14.65625,20.125 -10.18902,-6.48134 -15.78582,-8.47639 -28.8125,-26.03125 3.73516,10.64991 12.65227,20.08686 42.71875,43.28125 -0.42428,0.83988 0.86218,13.40529 0.96875,19.28125 -0.0192,1.78217 -3.9375,5.5 -3.9375,5.5 -0.76096,-7.04256 -2.1269,-13.48405 -5.75,-19.78125 2.30162,8.50954 2.24662,13.58738 1.59375,22.875 -1.93524,2.09701 -3.04455,2.46441 -4.84375,4.28125 -2.82853,-8.97404 -3.92976,-18.34433 -9.78125,-25.125 1.95751,7.00424 5.18723,14.58269 3.15625,21.4375 -3.75107,-4.74936 -8.89233,-11.47153 -15.125,-13.46875 1.26353,2.17214 3.64047,4.2461 4.375,6.40625 -2.85673,4.5058 -2.62234,5.87207 -4.5625,10.09375 -7.01038,-27.74323 -17.99565,-45.37778 -22.71875,-86.46875 -0.38543,6.05591 -0.17904,11.86217 -0.40625,14.71875 -10.33438,-8.14624 -25.70383,-29.01656 -32.09375,-44.3125 -7.24356,-17.73143 -9.84855,-37.71814 -5.375,-65.28125 0.051,0.0492 -2.48287,-0.30308 -2.75,-0.375 -4.51173,27.79833 -2.71265,48.29149 4.6875,66.40625 5.90341,14.45089 13.32513,28.55125 25.875,42.46875 -3.20882,8.67035 -9.39596,16.07383 -17.125,21.125 -1.2436,15.83873 -2.40414,31.68731 -3.59375,47.53125 l -0.0625,1 1.03125,0.0625 c 0,0 24.67415,4.84054 41.96875,-16.84375 3.4308,10.44929 7.53849,19.12999 10.21875,30.84375 l 1.90625,-3.34375 c -0.0281,0.24978 -0.002,1.27926 -0.0312,1.53125 -1.01361,8.85804 -2.55657,19.06109 -4.40625,23.9375 -0.20051,0.52861 -0.45883,0.97424 -0.78125,1.375 -4.05442,0.21483 -8.90656,-2.82757 -13.375,-6.4375 -4.49016,-3.62747 -8.46303,-7.6766 -11.625,-9.1875 -0.61697,-0.29481 -1.05888,-0.13034 -1.46875,0.0312 -0.12206,0.0481 -0.25236,0.15625 -0.375,0.21875 -17.3705,-0.39181 -27.28125,19.15625 -27.28125,19.15625 3.00906,-0.48432 11.92969,-4.93083 14.8125,-5.875 -0.009,0.0218 -0.023,0.0403 -0.0312,0.0625 C 201.54133,448.06253 200.75,466 200.75,466 c 3.10931,-1.72337 9.07217,-8.47179 9.75,-8.78125 0.67783,-0.30947 1.15292,-0.76304 1.71875,-0.59375 0.56582,0.1693 0.71425,0.0698 0.5,0.53125 -2.83489,4.19136 -2.76394,4.62946 -4.875,8.59375 -1.57878,2.60783 -2.25649,5.43643 -2.5,8.40625 3.13342,-1.81101 6.27985,-3.43704 8.96875,-4.5625 1.98514,-0.82066 4.12309,-1.55345 6.03125,-1.9375 1.78425,-0.35911 3.28724,-0.33003 4.28125,0.0312 1.45811,2.62179 4.8541,4.16182 6.8125,3.90625 3.13285,-0.49561 6.55614,-2.06332 11.4375,-5.28125 0.81275,-0.54775 5.86565,-2.47126 7,-3.25 2.06584,-0.90209 6.33826,-0.65954 11.0625,-2.09375 4.72424,-1.43421 7.78246,-0.85749 13.84375,3.15625 2.54118,1.29891 5.61481,2.90903 7.15625,2.9375 1.54144,0.0285 5.11755,-0.96817 7.75,-1.03125 2.63245,-0.0631 7.7025,1.85761 10.5625,5.1875 2.26221,2.6989 2.15625,4.0625 2.15625,4.0625 3.08939,-3.34537 3.70517,-10.03576 3.53125,-11.96875 -0.34045,-3.30725 -1.29924,-6.78426 -3.46875,-9.71875 -2.08542,-2.82074 -4.35116,-5.58471 -9,-6.625 -1.58353,-1.557 -2.36521,-2.41043 -3.9375,-3 -3.91952,-1.23122 -8.33394,-1.0598 -12.09375,-1.25 -2.79905,-0.45475 -3.73884,-0.55371 -3.46875,-3.09375 0.89076,-6.12794 2.09915,-12.77967 3.28125,-18.53125 1.50974,-7.28895 0.98103,-11.57019 1.6875,-14.8125 0.48205,2.29801 3.58339,10.55245 3.90625,12.8125 0.47397,-5.53561 16.48955,-23.29965 16.9375,-25.53125 0.44795,-2.2316 0.74319,-15.13126 0.90625,-17.96875 1.54402,-0.33421 3.00896,0.71182 4.4375,1.78125 11.23153,18.05111 23.70437,33.5238 36.5,49 4.41839,4.89879 8.32456,6.59021 12.03125,6.78125 7.70136,-0.52352 15.35484,-1.91918 22.1875,-4.9375 2.85183,-1.27522 4.69024,-3.8437 4.875,-5.75 0.18476,-1.9063 0.52079,-3.3822 -0.46875,-5.25 -0.98954,-1.8678 -3.06709,-4.90048 -4.375,-6.9375 -13.60781,-18.64983 -27.54604,-38.31503 -39.96875,-56.75 0.717,0.31774 1.46381,0.51891 2.21875,0.71875 l 0.15625,-1.125 c 0,0 0.40277,-4.63422 -1.875,-10.625 2.05827,1.60019 8.44653,5.89159 11.68956,6.873 0.34425,-5.31104 -2.32987,-11.53619 -2.87467,-15.33264 10.44424,4.28354 19.00069,5.26274 22.26793,4.543 -1.36374,-6.69146 -4.3615,-13.64994 -6.05346,-17.78201 -1.69196,-4.13208 -2.33864,-5.74955 -4.29864,-8.34023 8.71726,3.70261 17.21062,2.88182 26.53072,1.74405 -2.20678,-6.73246 -6.10593,-12.30244 -9.54274,-17.86152 -1.29774,-2.06362 -2.87095,-4.28048 -4.65625,-6.5625 13.76823,0.89928 25.66361,-0.54531 31.64277,-9.66866 -9.1178,-10.28734 -12.59577,-13.26396 -22.71003,-19.57077 10.70271,-1.86007 25.93989,-4.28462 31.22351,-14.01057 -2.15847,-3.56523 -8.95885,-10.65724 -17,-15.5 6.84785,-3.28342 28.29608,-16.98383 29.40358,-27.21341 -3.04815,-4.45063 -10.54961,-7.83823 -19.37957,-8.00839 20.27474,-20.47809 17.60679,-45.6859 14.07799,-57.98358 -6.48159,6.46768 -10.23173,9.09607 -15.48349,13.75375 6.89859,-10.81393 4.82769,-47.9387 0.83385,-53.93709 -2.93676,5.76997 -4.90888,9.35164 -7.71055,13.4958 0.79786,-13.870847 -2.42603,-26.963534 -8.78373,-38.991607 -2.362,7.079843 -6.68877,12.370631 -9.11928,17.339554 -1.28234,-14.888741 -7.97158,-28.739402 -15.88342,-38.559779 -2.04093,10.418433 -2.75207,12.460326 -4.08038,22.104752 -6.7157,-17.611952 -14.19844,-27.400043 -28.875,-38.5625 -0.16572,10.48254 0.3574,16.665674 -0.375,25.40625 C 322.76786,42.184225 309.10414,31.197823 292.78125,25.625 z m 4.15625,3.8125 c 5.55378,2.34585 30.4382,19.075478 28.92494,38.733915 -1.51326,19.658437 -1.42895,23.537914 -6.22856,39.240355 -3.72349,2.57781 -5.32044,4.22789 -9.00812,8 -0.46286,-12.65134 -1.98766,-25.711357 -7.46431,-31.84743 0.5596,-17.829452 0.56652,-37.462903 -6.22395,-54.12684 z M 333.5,44.84375 c 3.52376,5.00457 23.23759,25.123434 16.4375,44.375 -6.80009,19.25157 -10.63522,24.6804 -19.45895,41.31158 -2.29663,1.88151 -3.33925,1.77843 -6.16605,3.62592 -0.22543,-8.84674 0.11286,-18.77372 -1.90625,-25.78125 1.48004,-8.623864 2.51879,-10.717139 5.08814,-23.585498 C 329.6318,74.084414 334.23092,52.784978 333.5,44.84375 z m -109.5573,8.106155 c 24.33489,5.90504 31.77281,11.775585 39.15105,24.987595 7.70033,13.78877 10.72364,24.65114 15.53125,49.40625 -3.12953,10.4703 -4.90899,17.08598 -8.03125,23.71875 C 255.00578,99.765661 244.78574,80.092241 223.9427,52.949905 z m 35.2448,3.393845 c 2.16903,1.1146 7.28086,3.82601 13.625,8.5 7.81746,5.75944 14.58391,13.64124 15.8197,21.625 -2.761,19.51581 -5.56044,24.56849 -8.5697,35.5 -1.62478,-24.342616 -12.30474,-37.605056 -18.4062,-56.34375 -0.93184,-3.134752 -1.87293,-6.366185 -2.4688,-9.28125 z m 102.534,1.672753 c 9.59123,14.865184 12.53705,35.399961 5.4942,48.776947 -7.04285,13.37699 -12.81521,26.25945 -24.92965,41.64229 -0.688,0.199 -3.55969,1.94444 -10.92085,6.54726 3.26412,-8.52921 5.37654,-16.79113 5.66605,-25.1705 -1.27376,-0.0476 -1.74568,0.25482 -3.09375,0.75 11.81366,-23.055 26.54768,-47.476636 27.784,-72.545997 z M 294.625,66.71875 c 6.79615,23.530062 0.0161,50.29761 -5.46875,69.125 -3.84077,13.0233 -9.28941,28.76556 -14.0625,43.96875 -5.19497,16.54697 2.58867,23.99826 4.5,31.84375 1.91133,7.84549 0.5768,20.67921 -4.34375,24.96875 -4.92055,4.28954 -9.66108,5.55768 -12.03125,9.5625 -1.74845,3.10835 -2.11717,6.81237 -2.15625,11.5 -0.0267,3.2047 -0.10749,4.21891 -0.28125,5.71875 -2.38206,-4.57169 -5.34265,-8.0448 -5.41789,-14.3223 -0.0752,-6.2775 4.24537,-8.95606 10.85539,-13.7402 3.61952,-2.6197 5.00371,-7.65335 5.34375,-11.25 0.24039,-9.36111 -4.0125,-16.46772 -6.15625,-24.0625 -1.87371,-7.10651 -2.00369,-16.22703 3.65625,-28.53125 7.88409,-17.13933 16.29443,-31.08387 23.875,-84.71875 0.73236,-6.256989 0.99422,-14.353864 1.6875,-20.0625 z m 89.75,14.663492 c 2.51414,5.50677 9.54504,23.266378 -1.11433,48.642148 -7.36053,13.1253 -18.57852,26.23033 -33.72523,40.51753 -2.80786,0.17748 -4.58842,0.61337 -7.20503,0.99105 2.26688,-6.77833 4.30117,-15.94755 4.13453,-23.33366 15.04076,-20.18254 23.39966,-37.02116 37.91006,-66.817068 z m -83.09559,12.784416 c 3.03308,6.827252 5.94142,12.554362 5.6152,23.479022 -4.32622,4.29966 -7.72687,7.74182 -14.43138,17.7396 4.77664,-15.01693 7.12657,-29.70763 8.81618,-41.218622 z M 235.59375,95.5 c 6.70622,2.688961 15.75182,10.73508 24.22238,36.8223 5.43734,16.17493 8.44111,25.24613 8.49632,25.77145 -1.65893,3.24632 -2.80943,4.76212 -3.6875,8.59375 -6.23214,-25.98042 -24.03571,-63.31148 -29.0312,-71.1875 z m 164.88567,12.78163 c 4.08718,6.35447 3.47246,42.09758 -8.69834,52.41627 -17.12224,14.51663 -25.97733,19.75136 -42.7632,31.66572 -3.48244,0.35409 -6.61877,0.21397 -8.93499,0.0586 2.03743,-3.04778 9.51274,-14.96976 10.48854,-17.03585 0.9758,-2.06609 1.22963,-3.76621 2.43423,-4.69119 7.15261,-5.4923 26.23261,-25.93543 33.49434,-38.94522 5.35755,-8.3532 10.19874,-16.86691 13.97942,-23.46833 z m -82.08205,7.48874 c 1.59237,6.19691 5.84777,18.0458 -4.7454,27.49019 -10.59318,9.4444 -18.18706,18.66852 -25.23413,30.5092 -1.90155,-2.74386 -4.60137,-2.20945 -7.09651,-2.15272 2.19443,-6.99781 3.53922,-12.92607 5.58487,-19.58579 9.22466,-16.44391 20.31545,-31.88136 31.49117,-36.26088 z M 332.6875,136 c -0.86838,4.2463 -1.63914,13.62528 -5.92678,21.4349 -8.80032,5.9999 -20.62047,17.2235 -33.29197,32.1901 -0.10616,-1.23364 0.84345,-2.5317 0.59375,-4.40625 -0.83774,-2.69202 -2.29058,-4.20922 -3.5625,-5.46875 13.47305,-23.90042 23.62369,-32.36627 31.8125,-37.75 3.64948,-2.13636 6.36838,-3.9338 10.375,-6 z m 56.48999,61.79875 c -10.92783,0.62768 -29.59741,4.06089 -43.05761,9.25687 1.72247,-3.09215 5.42274,-10.08886 7.2518,-14.03722 7.34469,-3.27573 49.39849,-36.82006 59.9337,-46.83469 -0.64615,24.38391 -6.18312,39.89806 -24.12789,51.61504 z m -47.8427,-41.7311 c 0.54411,7.1808 -1.95121,14.51807 -6.32355,18.18769 -9.69148,3.28089 -22.31335,11.05984 -37.69874,24.90091 0.10583,-1.32676 0.098,-2.56541 -0.1875,-3.65625 -0.27047,-1.03337 -0.78945,-1.94716 -1.46875,-2.71875 12.53007,-16.65954 24.25521,-24.06345 32.91578,-29.91273 4.18723,-3.07541 9.70976,-6.66594 12.76276,-6.80087 z m -55.44815,19.70288 c 1.28775,0.85224 1.93242,1.04412 0.81603,3.03087 -2.37698,0.6827 -4.89122,0.93734 -6.17602,1.5183 -0.44336,-1.82469 -0.79219,-3.92529 1.0072,-4.68674 1.97039,-0.77933 3.06505,-0.71467 4.35279,0.13757 z m 60.67643,-0.66039 c -4.71555,9.11969 -10.87668,16.77532 -16.41507,19.56636 -7.09161,3.57378 -17.23213,4.34577 -29.77281,11.94831 0.033,-1.95317 -0.72379,-2.59983 -2.0625,-3.75099 24.35985,-22.61995 45.68038,-27.33357 48.25038,-27.76368 z m -57.05235,8.21124 c 3.47472,0.83969 3.17953,3.66739 0.77053,4.99112 -2.409,1.32373 -8.32456,1.12444 -11.07767,1.56786 0.0728,-2.04794 -2.10279,-4.17562 1.31602,-5.77589 3.41881,-1.60026 5.5164,-1.62278 8.99112,-0.78309 z m 2.64553,10.61612 c 5.0878,2.69319 4.19278,3.20861 1.68755,6.59375 -3.75,-1.54495 -6.75868,-2.22167 -14.28125,-1.375 -0.77199,-2.15648 -1.75616,-3.25433 0.15625,-5.3125 3.1581,-1.74136 9.3664,-1.40685 12.43745,0.0937 z m 53.47662,5.27888 c -4.17249,8.63469 -8.9663,13.55196 -13.99037,17.07136 -8.14417,-2.72182 -17.20834,-4.29493 -32.80001,-4.91323 12.34681,-6.44643 34.31359,-14.91268 46.79038,-12.15813 z m 70.18459,6.83125 c -3.50965,5.64138 -24.37004,23.34302 -34.06898,21.72562 -12.99055,-2.81016 -24.01896,-3.405 -30.63402,-3.1445 -5.20285,-3.72913 -9.46263,-5.70674 -13.73641,-6.68589 2.65419,-3.04588 3.56105,-4.63523 6.55145,-7.0324 18.97093,-6.09398 40.85765,-9.96294 51.83118,-9.25903 10.97352,0.70392 14.54314,0.98449 20.05678,4.3962 z M 292.625,203.3437 c 5.64842,1.35595 6.52143,5.71225 1.59375,8.3125 -2.72969,-1.99524 -4.25769,-3.00352 -11.17586,-4.84375 -0.64473,-1.464 -1.09674,-2.9117 -1.73039,-4.4375 2.93592,-0.23283 5.66408,-0.3872 11.3125,0.96875 z m -8.87224,8.14205 c 7.02804,2.73672 11.00638,6.65224 11.90349,9.95175 -2.68391,2.31692 -5.91568,0.13715 -11.59451,-3.19102 0.2018,-2.29622 0.3744,-3.35925 -0.30898,-6.76073 z m 51.60436,10.99675 c 7.77036,3.20179 10.8136,6.27418 11.14612,6.5961 -4.43836,2.65182 -7.89887,6.74525 -15.71278,4.47231 -7.81391,-2.27295 -18.28862,-8.27981 -31.44666,-10.70716 0.6847,-2.66934 1.61487,-3.86177 0.125,-6.3125 11.77188,-1.48167 24.99757,1.16273 35.88832,5.95125 z m -51.05978,0.43984 c 4.05073,2.02717 10.42642,7.66218 9.51516,11.70266 -4.94668,1.01585 -6.83225,0.33737 -10.8125,-3.84375 0.71996,-3.03802 1.09981,-6.13919 1.29734,-7.85891 z m 55.03324,24.25536 c -5.31843,0.20547 -8.41776,-0.56183 -13.0118,-0.89277 -7.55981,-6.76691 -12.5273,-10.40933 -25.01615,-17.12619 8.43696,0.51838 16.21677,3.47859 22.73323,6.98145 7.93632,4.26608 13.23532,9.34432 15.29472,11.03751 z m 66.63817,-0.7715 c -0.59844,0.73248 -4.19464,2.76575 -9.125,5.125 -5.86658,2.80725 -18.61462,5.50721 -29.87576,1.68934 -11.26114,-3.81787 -20.54852,-8.21256 -28.40549,-15.00184 7.23483,-2.20457 8.75547,-4.78419 13.80288,-8.04971 2.97722,-1.92617 4.60147,-2.34183 7.19351,-2.451 2.59203,-0.10918 11.19582,0.91338 22.47073,5.15826 6.92448,2.60699 17.05236,7.00163 23.93913,13.52995 z m -66.82364,21.98351 c -5.86493,0.3112 -16.21556,-0.75625 -17.61381,-2.04601 -1.39825,-1.28976 -17.40792,-20.40748 -25,-26.71875 1.21344,-1.14262 2.64045,-2.34443 3.3125,-4.125 5.9884,1.6123 15.7683,7.35534 22.31143,13.43942 8.77181,8.1564 15.20315,14.69474 16.98988,19.45034 z M 281.55622,233.5098 c 5.62689,4.59986 6.90448,9.823 7.31878,14.45895 -1.4607,1.51095 -4.18254,0.70238 -6.37278,-0.4902 -1.17472,-3.83816 -1.81873,-5.47081 -3.93972,-8.3848 1.27437,-2.02918 2.45349,-3.50476 2.99372,-5.58395 z m -4.57767,7.72542 c 1.62671,3.14413 3.07672,8.59285 2.8652,13.20228 -1.83652,0.23443 -3.11295,-0.46944 -6.4375,-1.125 0.57333,-3.70711 -0.28464,-5.66759 -2.09375,-8.625 2.56427,-1.04608 3.95967,-2.24474 5.66605,-3.45228 z M 293.5,242.875 c 15.79598,12.97493 22.96344,22.71267 28.21523,30.65089 4.44873,6.72437 6.75462,10.89789 5.44914,10.85539 -8.70769,-0.28351 -9.75319,-3.22719 -15.75261,-10.73804 -5.99941,-7.51085 -9.17613,-15.00071 -19.16636,-24.29857 1.10157,-1.21986 1.10948,-1.41959 1.0671,-3.15717 -0.0235,-0.96497 -0.90203,-2.05242 -1.25,-3.09375 0.3157,-0.17266 0.81967,-0.38885 1.4375,-0.21875 z m -24.84375,5.46875 c 2.3333,6.13548 -0.70609,11.51512 -3.09375,13.15625 -0.44986,-3.85056 -0.64042,-7.26642 3.09375,-13.15625 z m 126.06082,32.43934 c -2.07448,4.12334 -23.40354,6.7323 -29.63925,2.39292 -6.31641,-4.33308 -12.33628,-11.16826 -16.24733,-12.72024 -3.91105,-1.55198 -11.1574,-12.79046 -16.67424,-19.23702 7.97251,-0.0392 13.84467,-0.63814 18.51739,0.31472 20.9769,4.93856 44.0734,22.59416 44.04343,29.24962 z M 288.53125,252.8125 c 17.75191,16.18993 31.15613,41.55842 28.875,44.6875 -4.15734,-1.0865 -13.55044,-3.74656 -16.0625,-9.15625 -2.51206,-5.40969 -14.11961,-24.88656 -18.71875,-30.15625 1.27637,-3.5696 2.66785,-4.88155 5.90625,-5.375 z m -9.91881,7.41422 c 5.79625,8.45224 10.35961,13.47664 14.04487,20.42628 5.5057,10.38262 10.92131,22.14732 11.70084,32.04262 -7.30057,-1.71416 -25.57222,-19.60176 -35.60847,-39.0334 -0.78144,-2.72498 -2.91871,-8.52241 -1.78093,-9.31847 1.72306,-1.04966 3.42621,-1.84934 4.65625,-3.9303 0.0607,-0.10274 0.0668,-0.23873 0.125,-0.34375 2.20206,0.45554 5.19692,0.5342 6.86244,0.15702 z m 69.90441,13.81249 c 2.85784,1.73618 14.40625,12.85911 20.1394,20.49204 5.73315,7.63293 7.29997,12.23832 8.29474,15.18934 -2.70565,0.0665 -15.55892,3.40893 -24.86575,-5.62354 -18.79322,-16.67423 -21.6268,-24.34536 -25.89769,-31.84705 9.95963,0.27648 19.47146,0.053 22.3293,1.78921 z m -29.0481,12.49204 c 2.84671,1.45585 5.039,2.59472 8.01834,3.0773 2.7288,0.442 4.08272,0.004 6.51291,1.26645 2.43019,1.26252 19.17664,23.44497 23.10409,31.96339 1.57238,3.82811 2.97492,5.55483 3.81472,9.82154 -6.80823,-1.69396 -15.29593,-4.10428 -17.31579,-5.59054 -2.01985,-1.48627 -4.79205,-8.06 -6.40296,-11.27726 -1.61091,-3.21726 -4.24113,-9.0091 -9.30729,-15.43674 -5.06616,-6.42764 -5.75566,-8.54242 -8.42402,-13.82414 z m -14.19394,10.12484 c 5.17405,2.51798 11.75066,4.15999 17.41293,5.10407 0.53352,-0.43189 0.44792,-1.92232 0.85147,-1.96554 0.40355,-0.0432 5.81642,8.7214 8.89849,14.25758 3.08207,5.53618 5.61812,12.27809 6.52569,16.26219 -8.55202,-3.52382 -19.66201,-10.54029 -21.98042,-12.61011 -2.31841,-2.06981 -6.53625,-6.55957 -7.57627,-9.14221 -1.9091,-4.74079 -2.01519,-7.46116 -4.13189,-11.90598 z m -9.24356,16.18766 c 1.86726,0.73241 9.27876,5.55862 14.15625,7.84375 l 0,-3.71875 c 2.18498,2.68455 4.57147,6.32903 4.78125,8.9375 -7.38326,-4.30317 -16.33549,-10.75 -18.9375,-13.0625 z m 20.09597,9.97671 c 1.98882,1.05077 3.63535,1.58448 4.53753,2.40051 0.95544,1.33857 1.28489,4.40691 1.16177,6.56174 -1.4514,-0.76514 -2.06214,-1.1589 -3.39363,-2.59051 -1.29451,-2.22869 -2.12854,-4.68086 -2.30567,-6.37174 z m 7.98928,4.28217 c 2.37382,1.44372 3.29615,1.99314 5.20987,3.0969 0.94145,1.63409 1.55975,2.73186 2.59428,5.53546 -2.21132,-0.62342 -3.32012,-1.33289 -4.88718,-3.18007 -1.56705,-1.84718 -2.24497,-3.25568 -2.91697,-5.45229 z m -12.2415,0.61612 c 2.3811,1.71063 4.74596,3.34168 7.03125,4.8125 1.21444,6.28149 1.49294,7.58641 4.125,10.96875 -3.75136,-1.36607 -5.42748,-2.27777 -7.40625,-3.9375 -2.45337,-3.21748 -3.48611,-7.30593 -3.75,-11.84375 z m 20.25,3.90625 c 2.13897,0.73933 4.04908,2.02897 4.80806,2.93122 0.75898,0.90225 1.60656,3.32462 1.44194,5.85003 -2.69604,-2.29576 -5.04925,-5.58665 -6.25,-8.78125 z m -9.8125,4.40625 c 4.97749,2.80567 7.02569,4.07125 10.28125,6.1875 2.16288,4.51518 3.07778,5.84657 3,7.28125 -0.86155,-0.24977 -3.30971,-1.85486 -5.375,-3.03125 -2.06529,-1.17639 -4.8183,-2.98949 -7.90625,-10.4375 z m -91.84375,0.375 c 3.7246,2.35372 4.80311,3.75192 7.4375,6.375 2.81552,14.42261 6.29801,25.66596 9.84375,36.53125 -8.88172,8.58012 -18.29574,13.70443 -20.4375,9.0625 -0.76676,-1.26693 5.86849,-4.17812 9.34375,-10.40625 -4.75149,5.26311 -8.42497,6.42967 -12.9375,9.75 -0.81971,-0.23451 -1.9841,-1.53987 -3.96875,-2.53125 0,0 10.71631,-4.75947 13.0625,-8.40625 -5.16163,2.22788 -14.83172,6.22951 -15.09375,5.71875 -0.32399,-0.63154 -0.69368,-1.41256 -1.09375,-2.375 -0.40007,-0.96244 -3.625,-23.6875 -3.625,-23.6875 1.18516,-0.7332 12.67735,-7.23625 17.46875,-20.03125 z M 267.25,400 c 2.50187,2.19142 4.71617,7.39806 7.4375,12.75 -1.11892,10.38828 -4.84138,27.27677 -4.6875,29.46875 0.15388,2.19198 1.37824,1.99944 2.5,2.53125 6.41574,1.58694 13.6765,0.3348 17.75,2.90625 0.45884,0.24451 0.78397,1.47263 -0.28125,3.71875 -1.06522,2.24612 -2.544,6.23121 -3.21875,8.375 -0.67475,2.14379 -2.77323,2.27319 -4.03125,2.25 -1.25802,-0.0232 -2.65572,-0.0794 -5.625,-1.625 -2.96928,-1.54559 -3.7883,-3.81596 -6.84375,-5.375 -2.63666,-1.31187 -3.82594,-1.92262 -6.625,-2.0625 l 0.9375,1.59375 c 0.33822,0.58249 0.41213,0.96627 0.40625,1.15625 -0.006,0.18998 -0.0432,0.25909 -0.1875,0.40625 -0.28856,0.29433 -1.09479,0.62552 -1.90625,1.03125 -0.41642,0.20821 -1.78328,0.53882 -3.4375,0.0937 -1.63316,-0.43935 -5.03658,-3.20257 -7.0625,-4.28125 0.31637,1.57297 0.83487,2.98199 0.1875,3.4375 -0.64737,0.45551 -7.66351,2.19683 -10.0625,3.84375 -1.2243,0.84097 -3.15131,2.50142 -3.625,2.46875 -0.47369,-0.0327 -0.69255,-1.91029 -1.3125,-3.28125 -0.93244,1.31653 0.33776,4.53863 -2.125,6.71875 -0.93959,0.81116 -2.39725,1.40773 -3.875,1.6875 -1.47775,0.27977 -3.00159,0.25568 -3.96875,-0.0312 -0.48358,-0.14349 -0.76304,-0.36749 -0.9375,-0.5 -0.70347,-0.53434 -1.05944,-1.05572 -1.03125,-1.28125 0.73284,-6.60917 1.07587,-10.48304 -2.90625,-14.375 0.0392,-0.0313 0.15569,-0.73106 0.75,-1.125 0.59432,-0.39395 1.12119,-0.61296 1.875,-0.8125 1.46168,-0.38691 2.96684,-0.58099 3.0625,-0.59375 6.50945,0.91242 10.76215,0.74335 13.375,0.3125 1.32149,-0.21791 2.23656,-0.50601 2.84375,-0.75 0.41261,-0.1658 0.50514,-0.25053 0.65625,-0.34375 0.0713,-0.044 0.3125,-0.15625 0.3125,-0.15625 l -0.65625,-0.5 c -5.42964,1.25693 -11.61641,0.45346 -14.625,-1.0625 -3.0086,-1.51595 -5.88801,-2.51766 -9.25,0.0937 -0.12165,-1.87096 -1.00469,-3.49174 -1.5,-5.1875 -0.38865,-1.30127 -0.78125,-2.16156 -0.78125,-2.9375 0.0202,-0.0226 0.12119,-0.11301 0.3125,-0.1875 0.38261,-0.14897 1.1111,-0.2358 1.90625,-0.25 1.59029,-0.0284 3.54355,0.24644 4.46875,0.46875 0.55003,0.13216 2.85172,0.97432 5.75,1.9375 2.89828,0.96318 6.51548,2.07603 10.1875,2.84375 3.67202,0.76772 7.38606,1.19655 10.5625,0.75 3.17644,-0.44655 5.94165,-1.88877 7.0625,-4.84375 2.03941,-5.37664 3.51192,-15.52949 4.53125,-24.4375 1.19126,-5.93121 1.91504,-12.23571 3.6875,-14.84375 z m 109.1875,16.5 c 1.27467,1.90765 2.95134,3.97535 0.78125,6 -2.1701,2.02464 -19.76469,6.19978 -24.75,5.53125 -4.98531,-0.66853 -7.29089,-1.79962 -8.65625,-3.4375 -0.27076,-0.3248 -0.70238,-0.88481 -1,-1.25 5.01803,2.24798 9.1715,2.67796 14.78125,1.34375 5.60975,-1.33422 11.75606,-1.82488 15.53125,-4.15625 1.92914,-1.19134 2.82497,-2.69298 3.3125,-4.03125 z m -145.78125,9.71875 c 2.43369,1.21629 6.55848,5.17983 11.09375,8.84375 3.64443,2.94423 7.62656,5.655 11.65625,6.53125 -0.57461,0.18328 -1.03062,0.46576 -1.71875,0.5625 -2.77512,0.39013 -6.32376,-0.008 -9.875,-0.75 -3.55124,-0.74247 -7.1074,-1.83035 -9.96875,-2.78125 -2.78414,-0.92524 -4.71263,-1.64154 -5.75,-1.90625 -0.74969,-3.05337 0.16758,-5.73996 1.53125,-7.6875 0.72226,-1.03151 1.55308,-1.85502 2.21875,-2.34375 0.33284,-0.24437 0.63724,-0.39963 0.8125,-0.46875 z m -3.6875,0.625 c -0.33132,0.37178 -0.65644,0.58523 -0.96875,1.03125 -1.16356,1.66175 -2.0644,3.87953 -2.15625,6.375 -8.37943,1.19772 -14.14584,4.11825 -17.75,6.25 3.51522,-4.76679 10.79818,-12.62657 20.875,-13.65625 z M 224,436.25 c 0.009,0.062 0.0206,0.12519 0.0312,0.1875 -0.20547,-0.0302 -0.4067,-0.0365 -0.625,-0.0625 0.20592,-0.0336 0.38632,-0.0946 0.59375,-0.125 z m -6.78125,4.03125 c 0.17435,0.5857 0.26296,1.22812 0.4375,1.8125 0.63215,2.57136 0.22118,4.07179 0.0937,6.625 -7.84532,5.22756 -12.2666,9.48685 -14.84375,12.96875 1.32554,-5.36059 4.83331,-14.71993 14.3125,-21.40625 z m 76,10 c 4.11835,0.96346 5.84428,2.0914 7.625,4.5 3.51114,5.25297 4.25357,9.47794 2.625,14.65625 -3.28184,-6.83799 -11.31468,-7.10731 -12.28125,-8.875 -0.96657,-1.76769 1.12255,-6.66801 2.03125,-10.28125 z m -71.25,1.8125 c 2.82182,4.67297 1.79577,7.02941 1.3125,12.4375 -1.05499,0.60761 -1.68241,0.82188 -3.34375,1.15625 -2.10936,0.42454 -4.31594,1.21128 -6.375,2.0625 -3.02546,1.25073 -4.36583,2.05852 -5.5625,2.71875 0.30195,-0.94653 0.74195,-2.12301 1.625,-3.78125 1.90034,-3.56857 5.57236,-8.62882 12.34375,-14.59375 z"
       transform="translate(142.5,273.0989)"
       id="path3076"
       inkscape:connector-curvature="0"
       sodipodi:nodetypes="ccccccccccccsssssczzcscccccscsccczcccczzcsczcsscsscccccccccccccccccccccccccscccccccccscssccccccccccccsccccsccscccscccccccscccccsscccccccczcccccccccccccccccccccczccccczcccsccccccccscccczcccccccszzcsczscccccccccccccccccccccscczsccczccccccccccccccccccccscczccczcsccczzczzcccccccccccccczcczccczccccczcsccccccccsccczcszscccccscccccccccccccszccccccccczccccczccczcccssczcccczcczczzzcccczczscccccccccccccczccccccccccccczccccscccccsccccsccsccccsscsscccsccccsssssscccssscssccscscscssccsscccccsscccccccssccssccccccccacccccsccccscsccc" />
    <path
       style="fill:url(#linearGradient3922);fill-opacity:1;stroke:none"
       d="M 130.80178,311.63388 C 91.734127,319.94239 81.25,365.9375 81.25,365.9375 c 2,3 5.25,7.5 8.5,7.5 3.25,0 8.75,-1.75 8.75,0.25 0,2 0.44495,2.67508 -2.75,8 -1.5,2.5 2.625,3.625 4.25,4.25 2.00723,0.77201 4.125,1 5.125,2 1,1 1.375,4.5 0.625,7 -0.75,2.5 5.75,1 6.25,2.5 0.5,1.5 -0.81565,6.57888 -7.875,9.25 -2.24883,0.85091 2.625,3.75 1.625,6.75 -1,3 -4.89277,9.88388 -8.142767,13.13388 14.051117,12.80664 26.566917,25.84398 54.215987,24.89093 -0.003,-0.61063 0.14808,-6.78294 -0.0732,-8.77481 -0.25,-2.25 1.75,-7 3,-8.5 1.25,-1.5 6,-3 9.5,-3.25 3.5,-0.25 5.25,-4.25 4.5,-6.25 -0.75,-2 -2.75,-3.75 -4.75,-4.25 -2,-0.5 -6,0 -7.5,0 -1.5,0 -2.5,-3.25 -4.75,-3.75 -1.72567,-0.38348 -4.5,0.5 -6.5,0 -2,-0.5 -3,-3.25 -4.25,-4.5 -1.25,-1.25 2.25,-5.75 -1.25,-10 -3.5,-4.25 -10,-4.25 -11.75,-5.25 -1.75,-1 -6.75,0 -6.75,0 0,0 -2.75,-1.75 -3.75,-3.5 -1,-1.75 -2,-2.25 -3.25,-3.75 -1.25,-1.5 0.25,-4 -0.75,-4.75 -1,-0.75 -2.25001,0 -4,-1.5 -1.75,-1.5 -1,-4.75 -1,-4.75 0.75,-4.25 9.75,-3 9.75,-3 3,5 2,9.75 2,9.75 7,-5.5 8,-16 8,-16 5.75,-0.25 16.75,-9.75 16.75,-9.75 0,0 -3,-2.5 -4,-5 -1,-2.5 5,-7.25 5,-10.75 0,-3.5 -4,-4.25 -6,-4.25 -2,0 -8,8 -9,4.5 -1,-3.5 -3,-6 -0.5,-7 2.5,-1 5,1 5,1 0,0 4.25,-0.75 6.25,-2.75 2,-2 -1.75,-5.75 -3.75,-6.25 -2,-0.5 3,-3.5 -1.5,-9 z M 193.25,321.1875 c -9,1 -8.63051,4.85249 -11,4.75 -5.07843,-0.21967 -7.27237,-3.66881 -9.40625,-3.90625 -1.59096,-0.17703 -7.71875,8.25 -7.21875,9.5 0.5,1.25 0.375,2.65625 1.875,3.15625 1.5,0.5 5.5,-3 5.5,-3 0,0 5.05561,4.35302 -3.25,8.25 -3.4507,1.61906 3.0625,4.59375 2.5625,5.84375 -0.5,1.25 2.11588,5.24994 -5.0625,9.65625 -0.58634,0.35991 1,6.75 2.25,7 1.25,0.25 5.03835,-3.58779 6.6875,-2.5625 1.73299,1.07741 2.5625,2.125 4.3125,1.625 1.75,-0.5 -0.53129,-8.67122 2.25,-10.5625 6.25,-4.25 7.75,1 9,3 1.25,2 5.5,0.5 6.25,-0.75 0.75,-1.25 1.25,-5.25 4.25,-5 3,0.25 11.65793,2.05806 13.65793,1.05806 l -0.44638,-0.37316 C 210.1383,336.85172 201.08393,328.22491 193.25,321.1875 z m 22.12316,27.6849 c 1.81572,-0.90676 -0.61972,2.51966 -0.40441,3.03385 -0.0578,0.10079 1.72488,-0.51313 1.84635,-0.49913 l -0.73483,-1.91605 z m 1.36336,2.50352 C 207.84916,350.44774 204,354.40625 204,354.40625 c 0,0 -3.54658,6.02236 -6.375,6.90625 -2.05269,0.64146 -5.30453,-4.4375 -6.71875,-4.4375 -1.41421,0 -6.72065,12.00977 -19.4375,13.09375 -4.91295,0.41878 0.90013,11.83394 3.375,12.1875 2.21359,0.31622 -5.14093,12.55637 -2.3125,15.03125 2.82842,2.47487 13.07414,0.35723 13.78125,2.125 0.70711,1.76776 3.91177,4.60171 7.09375,3.1875 3.18198,-1.41422 5.59181,-2.96441 7.59375,-1.0625 2.5459,2.41869 2.98651,10.60111 1.21875,14.84375 -1.76777,4.24264 -3.76592,12.26533 -0.9375,15.09375 24.57887,-27.4898 24.7347,-57.83909 15.45527,-79.99908 z M 160.25,340.1875 c -1.5,0.25 2,9.5 -3.5,11 0,0 -0.5,4.25 4.5,1.25 5,-3 2,-4.50001 2.75,-6 0.75,-1.5 -2.25,-6.5 -3.75,-6.25 z"
       id="path4401"
       inkscape:connector-curvature="0"
       sodipodi:nodetypes="ccsssssssssccssssssssssscsssscccccssssscsscccsssscssssssssssccccccccccsssssssssccscsss"
       transform="translate(142.5,273.0989)"
       sodipodi:insensitive="true" />
    <path
       style="fill:url(#linearGradient5271);stroke:none"
       d="M 44.125 288.3125 C 44.125 288.3125 42.44699 291.85022 42.65625 295.34375 C 42.86551 298.83728 42.1546 303.17512 46.59375 311.15625 C 48.75426 305.0383 49.4863 302.65724 53.96875 298.25 C 57.22109 295.05222 60.65793 295.56864 63.09375 295.40625 L 44.125 288.3125 z M 41.09375 291.3125 L 34.40625 294.71875 L 38.53125 300 L 41.09375 291.3125 z M 119.03125 295.71875 L 104.1875 297.40625 C 103.16728 302.3512 114.01247 302.83301 114.65625 300.65625 C 116.19235 300.38572 117.79506 301.47099 119.40625 305.21875 C 121.52223 310.14068 122.09375 310.84375 122.09375 310.84375 C 122.09375 310.84375 123.40075 307.88501 123.78125 305.03125 L 119.03125 295.71875 z "
       transform="translate(220.75,298.7239)"
       id="path5298" />
    <path
       style="font-size:medium;font-style:normal;font-variant:normal;font-weight:normal;font-stretch:normal;text-indent:0;text-align:start;text-decoration:none;line-height:normal;letter-spacing:normal;word-spacing:normal;text-transform:none;direction:ltr;block-progression:tb;writing-mode:lr-tb;text-anchor:start;baseline-shift:baseline;color:#000000;fill:url(#linearGradient3930);fill-opacity:1;stroke:none;stroke-width:3.5;marker:none;visibility:visible;display:inline;overflow:visible;enable-background:accumulate;font-family:Sans;-inkscape-font-specification:Sans"
       d="m 293.9375,579.69265 c -40.39468,0 -73.1875,32.76157 -73.1875,73.15625 0,40.39468 32.79282,73.1875 73.1875,73.1875 40.39468,0 73.15625,-32.79282 73.15625,-73.1875 0,-40.39468 -32.76157,-73.15625 -73.15625,-73.15625 z m 0,3.5 c 38.50314,0 69.65625,31.15311 69.65625,69.65625 0,38.50314 -31.15311,69.6875 -69.65625,69.6875 -38.50314,0 -69.6875,-31.18436 -69.6875,-69.6875 0,-38.50314 31.18436,-69.65625 69.6875,-69.65625 z"
       inkscape:connector-curvature="0"
       id="path26" />
    <path
       style="font-size:medium;font-style:normal;font-variant:normal;font-weight:normal;font-stretch:normal;text-indent:0;text-align:start;text-decoration:none;line-height:normal;letter-spacing:normal;word-spacing:normal;text-transform:none;direction:ltr;block-progression:tb;writing-mode:lr-tb;text-anchor:start;baseline-shift:baseline;color:#000000;fill:url(#linearGradient3930);fill-opacity:1;stroke:none;stroke-width:2;marker:none;visibility:visible;display:inline;overflow:visible;enable-background:accumulate;font-family:Sans;-inkscape-font-specification:Sans"
       d="M 53.25 284.59375 L 51.53125 285.65625 L 57.40625 295.09375 L 57.4375 295.15625 L 57.46875 295.21875 C 59.54738 297.7593 59.3495 299.35081 58.96875 300.65625 C 58.77837 301.30897 58.51164 301.84195 58.34375 302.46875 C 58.25975 302.78215 58.158 303.20665 58.375 303.6875 C 58.59205 304.16835 59.08831 304.42833 59.5 304.53125 C 60.072 304.67425 61.5062 305.67493 62.3125 306.75 C 62.71565 307.28753 62.99865 307.81598 63.0625 308.21875 C 63.1264 308.62152 63.0605 308.84597 62.78125 309.125 C 61.98749 309.91876 60.55272 310.58659 59.3125 311 C 58.26217 311.35011 57.64882 311.45325 57.40625 311.5 C 56.79427 311.04307 54.60383 309.56472 51.875 310.65625 C 51.07391 310.97669 50.43777 311.55678 50.1875 312.28125 C 49.93723 313.00572 50.03881 313.69106 50.21875 314.375 C 50.57872 315.74289 51.31235 317.2026 51.78125 318.84375 C 51.95636 319.45662 52.3478 320.0526 52.9375 320.3125 C 53.5272 320.5724 54.12294 320.45745 54.625 320.28125 C 55.62911 319.92874 56.53563 319.20989 57.5 318.40625 C 58.46437 317.60261 59.46081 316.69506 60.28125 316.03125 C 60.69147 315.69934 61.05789 315.45074 61.34375 315.28125 C 61.62961 315.11176 61.83333 315.0625 61.75 315.0625 C 62.625 315.0625 64.02716 315.26358 65.0625 315.78125 C 66.09784 316.29892 66.75 316.94345 66.75 318.3125 C 66.75 319.49107 65.44231 321.55573 64.0625 323.5 C 63.3726 324.47213 62.69415 325.4154 62.21875 326.375 C 61.74335 327.3346 61.39388 328.39095 61.8125 329.4375 C 62.67402 331.59131 64.26686 333.1432 65.21875 334 C 64.58517 334.53666 62.89564 336.00088 59.96875 338.03125 C 56.54982 340.40294 52.32223 342.71017 49.96875 342.8125 L 49.09375 342.875 L 49 343.71875 C 49 343.71875 48.08466 351.97794 43.09375 357.375 C 43.08475 355.37828 42.73269 352.71073 40.84375 349.5625 L 40.625 349.15625 L 40.125 349.09375 C 40.125 349.09375 37.80295 348.73631 35.3125 348.96875 C 34.06728 349.08497 32.75522 349.33417 31.625 349.90625 C 30.5144 350.4684 29.55064 351.47426 29.28125 352.84375 C 29.27625 352.86795 29.2543 352.88185 29.25 352.90625 L 29.28125 352.90625 C 29.26905 352.95965 29.05914 353.79884 29.09375 354.90625 C 29.12945 356.04797 29.39421 357.56557 30.59375 358.59375 C 31.6206 359.47391 32.63955 359.73869 33.375 359.84375 C 34.085935 359.94531 34.411917 359.98019 34.625 360.125 C 34.627189 360.14585 34.62143 360.15242 34.625 360.21875 C 34.6369 360.4399 34.57965 360.84455 34.53125 361.3125 C 34.43445 362.2484 34.2929 363.60773 35.21875 364.71875 C 36.5667 366.33629 37.47677 366.7406 38.375 368.3125 C 38.99967 369.40567 40.017 370.307 40.875 371 C 41.733 371.693 42.46875 372.15625 42.46875 372.15625 L 42.8125 372.375 L 43.1875 372.3125 C 43.1875 372.3125 44.40824 372.05701 45.8125 371.9375 C 47.21676 371.81799 48.85587 371.9623 49.25 372.1875 C 49.91903 372.5698 50.70095 372.72731 51.625 372.9375 C 52.54905 373.14769 53.5914 373.37218 54.6875 373.6875 C 56.8797 374.31813 59.16187 375.32825 60.71875 377.21875 C 62.25466 379.08379 62.23131 380.83922 61.96875 382.53125 C 61.83747 383.37726 61.64198 384.18453 61.53125 384.9375 C 61.47585 385.31399 61.4511 385.69561 61.5 386.09375 C 61.5488 386.49189 61.68644 386.93644 62.03125 387.28125 C 62.49126 387.74126 63.07925 388.71807 63.78125 389.6875 C 64.48325 390.65693 65.36955 391.68614 66.75 392.03125 C 67.99 392.34125 69.26809 392.23645 70.4375 392.125 C 71.60691 392.0136 72.68795 391.93066 73.28125 392.0625 C 73.98898 392.21977 74.6685 392.92116 75.375 393.78125 C 75.72825 394.2113 76.07177 394.63747 76.5 395.03125 C 76.92823 395.42503 77.51389 395.8125 78.25 395.8125 C 79.11111 395.8125 80.43641 395.68619 81.84375 395.625 C 83.25109 395.5638 84.72827 395.5883 85.5 395.78125 C 87.11955 396.18614 88.95038 397.80519 89.5625 399.4375 C 89.77076 399.99285 89.65 401.27774 89 402.34375 C 88.34999 403.40976 87.32126 404.21366 85.9375 404.3125 C 84.0778 404.44534 81.95489 404.91087 80.09375 405.53125 C 78.23261 406.15163 76.63761 406.83487 75.71875 407.9375 C 74.92933 408.8848 74.15273 410.45778 73.5 412.1875 C 72.84727 413.91722 72.33415 415.69484 72.5 417.1875 C 72.60519 418.13417 72.56565 420.32556 72.46875 422.1875 C 72.37175 424.04944 72.25 425.625 72.25 425.625 L 74.21875 425.78125 C 74.21875 425.78125 74.37007 424.17564 74.46875 422.28125 C 74.56745 420.38686 74.64486 418.27208 74.5 416.96875 C 74.4158 416.21141 74.77773 414.48903 75.375 412.90625 C 75.97227 411.32347 76.82067 409.77145 77.28125 409.21875 C 77.61239 408.82138 79.01739 408.00462 80.71875 407.4375 C 82.42011 406.87038 84.4222 406.42966 86.0625 406.3125 C 88.17874 406.16134 89.77501 404.87149 90.6875 403.375 C 91.59999 401.87851 91.97924 400.1634 91.4375 398.71875 C 90.54962 396.35106 88.38045 394.43886 86 393.84375 C 84.77173 393.53668 83.24891 393.56119 81.78125 393.625 C 80.31359 393.6888 78.88889 393.8125 78.25 393.8125 C 78.2361 393.8125 78.12646 393.7937 77.875 393.5625 C 77.62354 393.33128 77.303 392.94495 76.9375 392.5 C 76.2065 391.61009 75.26102 390.43648 73.71875 390.09375 C 72.58638 389.84211 71.39917 390.0156 70.25 390.125 C 69.10083 390.23447 68.01 390.2837 67.25 390.09375 C 66.63045 389.93886 66.01675 389.37432 65.40625 388.53125 C 64.79575 387.68818 64.25874 386.66499 63.46875 385.875 C 63.50105 385.9073 63.48145 385.94755 63.46875 385.84375 C 63.45605 385.73994 63.4578 385.50633 63.5 385.21875 C 63.5846 384.6436 63.81878 383.81024 63.96875 382.84375 C 64.26869 380.91078 64.24534 378.32246 62.28125 375.9375 C 60.33813 373.578 57.6203 372.46312 55.25 371.78125 C 54.06485 371.44032 52.95877 371.20387 52.0625 371 C 51.16623 370.79613 50.45597 370.58645 50.25 370.46875 C 48.89413 369.69397 47.15824 369.80701 45.625 369.9375 C 44.3469 370.04627 43.61655 370.21803 43.28125 370.28125 C 43.10613 370.16628 42.75456 369.94599 42.125 369.4375 C 41.358 368.818 40.50033 367.96933 40.125 367.3125 C 39.02323 365.3844 37.9333 364.81996 36.78125 363.4375 C 36.4571 363.04852 36.44057 362.40785 36.53125 361.53125 C 36.57655 361.09295 36.65222 360.63042 36.625 360.125 C 36.5978 359.61958 36.40308 358.95075 35.84375 358.53125 C 35.05575 357.94025 34.26455 357.95744 33.6875 357.875 C 33.11045 357.7926 32.62939 357.68234 31.90625 357.0625 C 31.35579 356.59068 31.12057 355.70203 31.09375 354.84375 C 31.06695 353.98547 31.21875 353.28125 31.21875 353.28125 L 31.25 353.25 C 31.37656 352.53283 31.76303 352.07635 32.53125 351.6875 C 33.29947 351.29865 34.40148 351.07128 35.5 350.96875 C 37.43038 350.78858 38.90938 351.0102 39.34375 351.0625 C 41.81156 355.55259 41.03125 359.625 41.03125 359.625 L 40.46875 362.3125 L 42.625 360.59375 C 49.28955 355.35732 50.64441 346.54294 50.875 344.65625 C 54.10512 344.18594 57.8513 341.93677 61.09375 339.6875 C 64.61232 337.24669 67.40625 334.84375 67.40625 334.84375 L 68.28125 334.0625 L 67.375 333.3125 C 67.375 333.3125 64.51675 330.76061 63.6875 328.6875 C 63.6061 328.48405 63.6316 328.02478 64 327.28125 C 64.36835 326.53772 65.0024 325.62161 65.6875 324.65625 C 67.05769 322.72552 68.75 320.63393 68.75 318.3125 C 68.75 316.18155 67.40216 314.73233 65.9375 314 C 64.47284 313.26767 62.875 313.0625 61.75 313.0625 C 61.16667 313.0625 60.74148 313.30816 60.3125 313.5625 C 59.88352 313.81684 59.44915 314.13659 59 314.5 C 58.10169 315.22681 57.16063 316.11614 56.25 316.875 C 55.33937 317.63386 54.43339 318.24313 53.96875 318.40625 C 53.85259 318.44705 53.783441 318.43551 53.75 318.4375 C 53.738396 318.4108 53.74306 318.39769 53.71875 318.3125 C 53.18765 316.45365 52.42128 314.88211 52.15625 313.875 C 52.02374 313.37144 52.01585 313.07241 52.0625 312.9375 C 52.1091 312.80259 52.17609 312.67956 52.625 312.5 C 54.48467 311.75613 56.625 313.34375 56.625 313.34375 L 56.96875 313.625 L 57.4375 313.5625 C 57.4375 313.5625 58.55272 313.36784 59.9375 312.90625 C 61.32228 312.44466 63.01251 311.73749 64.21875 310.53125 C 64.93972 309.81028 65.17052 308.78473 65.03125 307.90625 C 64.89198 307.02777 64.47185 306.24372 63.9375 305.53125 C 62.96422 304.23354 61.67405 303.23168 60.375 302.78125 C 60.48306 302.47594 60.69021 301.95945 60.90625 301.21875 C 61.39505 299.54285 61.43479 296.95096 59.09375 294.03125 L 59.03125 293.9375 L 53.25 284.59375 z M 114.875 294.5625 C 110.23342 295.07823 107.8294 296.41681 106.375 297.59375 C 105.6478 298.18222 105.16395 298.71001 104.8125 299 C 104.46105 299.28999 104.35452 299.32648 104.03125 299.3125 C 101.71175 299.21217 100.10424 298.41 98.71875 297.53125 C 97.33326 296.6525 96.24632 295.5797 94.6875 295.40625 C 94.02031 295.33205 93.65213 295.63365 93.25 295.90625 C 92.84787 296.17885 92.45348 296.51775 92.03125 296.9375 C 91.18679 297.777 90.26147 298.88051 89.40625 300.03125 C 88.55103 301.18199 87.74837 302.38313 87.1875 303.40625 C 86.90707 303.91781 86.68357 304.37764 86.53125 304.8125 C 86.37893 305.24736 86.20376 305.61877 86.46875 306.28125 C 86.6592 306.75738 86.72536 307.40076 87 308.125 C 87.27464 308.84924 87.91169 309.68931 88.9375 310.03125 C 89.77103 310.30909 90.47543 310.01835 91.15625 309.71875 C 91.83707 309.41919 92.50114 309.0206 93.125 308.59375 C 93.94144 308.03513 94.22151 307.77257 94.625 307.4375 C 94.89298 307.80934 95.16973 308.31471 95.25 308.875 C 95.3303 309.43529 95.244 310.04615 94.6875 310.8125 C 94.13123 311.57885 93.03877 312.47899 91.0625 313.40625 C 90.52317 313.6593 90.10697 313.9787 89.8125 314.4375 C 89.51803 314.8963 89.42662 315.5 89.53125 315.96875 C 89.74051 316.90625 90.35788 317.50032 90.96875 318.09375 C 91.57962 318.68718 92.25624 319.23077 92.6875 319.65625 C 92.872482 319.83875 92.968842 319.97419 93.03125 320.0625 C 92.87039 320.67706 93.00991 321.16949 93.0625 321.6875 C 93.1232 322.2855 93.18974 322.91344 93.0625 323.625 C 92.80802 325.04812 91.8967 326.86457 88.46875 328.96875 C 88.10818 329.19008 88.02674 329.46575 87.96875 329.65625 C 87.91075 329.84675 87.8826 329.99992 87.875 330.15625 C 87.8596 330.4689 87.8899 330.79363 87.9375 331.15625 C 88.0327 331.8815 88.21714 332.74681 88.46875 333.625 C 88.72036 334.50319 89.04882 335.39973 89.40625 336.125 C 89.58497 336.48763 89.76415 336.80327 90 337.09375 C 90.23585 337.38423 90.52453 337.70491 91.0625 337.8125 C 91.95272 337.99054 92.45116 337.5889 93.0625 337.25 C 93.67384 336.9111 94.33416 336.48146 94.96875 336.09375 C 95.60334 335.70604 96.21311 335.38431 96.6875 335.21875 C 97.16189 335.05319 97.37732 335.07576 97.40625 335.09375 C 98.21008 335.5935 98.83858 336.15375 99.625 336.5625 C 100.41142 336.97125 101.43874 337.1559 102.53125 336.84375 C 103.12349 336.67454 103.48153 336.18466 103.65625 335.75 C 103.83097 335.31534 103.89525 334.85847 103.9375 334.375 C 104.022 333.40807 104.0019 332.27747 104 331.125 C 103.998 329.97253 104.008 328.81971 104.1875 327.90625 C 104.36723 326.99279 104.69662 326.40505 105.0625 326.15625 C 106.53046 325.15804 107.63934 324.77576 108.4375 324.71875 C 109.23566 324.66175 109.75085 324.85781 110.25 325.25 C 111.2483 326.03438 111.9181 327.66272 112.65625 328.84375 C 113.13351 329.60736 113.91144 330.05836 114.6875 330.21875 C 115.46356 330.37914 116.27536 330.31825 117.03125 330.15625 C 117.78714 329.99427 118.50944 329.71034 119.125 329.375 C 119.74056 329.03966 120.23727 328.68788 120.59375 328.09375 C 121.16042 327.14929 121.39475 325.9379 121.90625 324.96875 C 122.162 324.48417 122.47248 324.10595 122.78125 323.875 C 123.09002 323.64405 123.37847 323.51852 123.90625 323.5625 C 125.29402 323.67815 128.18152 324.19092 130.9375 324.53125 C 132.31549 324.70142 133.66951 324.81794 134.84375 324.84375 C 136.01799 324.86955 136.99109 324.86385 137.84375 324.4375 L 136.9375 322.65625 C 136.79016 322.72995 135.96121 322.86694 134.90625 322.84375 C 133.85129 322.82055 132.53178 322.69725 131.1875 322.53125 C 128.49894 322.19925 125.70598 321.69685 124.09375 321.5625 C 123.12153 321.4815 122.21467 321.79345 121.5625 322.28125 C 120.91033 322.76905 120.49425 323.39083 120.15625 324.03125 C 119.48025 325.3121 119.08958 326.75696 118.90625 327.0625 C 118.88775 327.0934 118.58757 327.39003 118.15625 327.625 C 117.72493 327.85997 117.15036 328.06823 116.59375 328.1875 C 116.03714 328.30677 115.48957 328.3318 115.09375 328.25 C 114.69793 328.1682 114.49149 328.01764 114.34375 327.78125 C 113.8319 326.96228 113.1267 324.96562 111.5 323.6875 C 110.68665 323.04844 109.56122 322.62732 108.28125 322.71875 C 107.00128 322.81015 105.59454 323.37321 103.9375 324.5 C 102.91273 325.19684 102.47946 326.33381 102.25 327.5 C 102.02054 328.66619 101.99801 329.93575 102 331.125 C 102.002 332.31425 102.004 333.4226 101.9375 334.1875 C 101.9078 334.52684 101.8569 334.7696 101.8125 334.90625 C 101.29906 335.0215 101.00559 335.01155 100.5625 334.78125 C 100.06342 334.52185 99.39791 333.98391 98.46875 333.40625 C 97.67311 332.91159 96.77006 333.0546 96.03125 333.3125 C 95.29244 333.57035 94.61239 333.99392 93.9375 334.40625 C 93.26261 334.81858 92.59582 335.22167 92.09375 335.5 C 91.75271 335.68906 91.511221 335.74655 91.46875 335.78125 C 91.385322 335.66241 91.307907 335.46307 91.1875 335.21875 C 90.91426 334.66431 90.63419 333.88932 90.40625 333.09375 C 90.17831 332.29818 89.98264 331.48818 89.90625 330.90625 C 89.87895 330.69823 89.8785 330.56324 89.875 330.4375 C 93.32804 328.21247 94.68782 325.92054 95.03125 324 C 95.20938 323.00385 95.1277 322.11051 95.0625 321.46875 C 94.9973 320.82699 95.0555 320.39351 95 320.53125 C 95.22685 319.96412 95.0149 319.42827 94.8125 319.09375 C 94.61011 318.75923 94.36433 318.51696 94.09375 318.25 C 93.55259 317.71608 92.89813 317.16444 92.375 316.65625 C 91.85187 316.14806 91.52548 315.64541 91.5 315.53125 C 91.5201 315.50405 91.62908 315.36346 91.9375 315.21875 C 94.11403 314.19752 95.48075 313.11461 96.3125 311.96875 C 97.14425 310.82289 97.36418 309.60884 97.21875 308.59375 C 96.92789 306.56357 95.40625 305.3125 95.40625 305.3125 L 94.75 304.75 L 94.09375 305.3125 C 94.09375 305.3125 93.12729 306.1662 92 306.9375 C 91.43636 307.32315 90.8348 307.69019 90.34375 307.90625 C 89.8527 308.12231 89.47897 308.09716 89.5625 308.125 C 89.08831 307.96694 89.03342 307.82402 88.875 307.40625 C 88.73499 307.03703 88.60812 306.41373 88.375 305.75 C 88.37496 305.7212 88.3912 305.60103 88.4375 305.46875 C 88.5302 305.20419 88.69 304.79524 88.9375 304.34375 C 89.4325 303.44077 90.18981 302.30889 91 301.21875 C 91.81019 300.12861 92.70335 299.07359 93.4375 298.34375 C 93.80458 297.97883 94.14008 297.6905 94.375 297.53125 C 94.463095 297.47153 94.519751 297.45112 94.5625 297.4375 C 95.156152 297.5592 96.207909 298.30014 97.65625 299.21875 C 99.17218 300.18023 101.20982 301.19316 103.96875 301.3125 C 104.83022 301.3498 105.56681 300.96603 106.09375 300.53125 C 106.62069 300.09647 107.05464 299.61184 107.65625 299.125 C 108.85948 298.15132 110.76658 297.04677 115.125 296.5625 L 114.875 294.5625 z M 82.1875 313.5625 C 82.077428 313.56258 81.963938 313.57372 81.84375 313.59375 C 81.48785 313.65305 81.14651 313.90585 80.96875 314.15625 C 80.79099 314.40665 80.70271 314.62188 80.65625 314.84375 C 80.56335 315.28748 80.57715 315.72581 80.59375 316.21875 C 80.62705 317.20463 80.75 318.39397 80.75 319.59375 C 80.75 320.79353 80.62797 321.97127 80.25 322.84375 C 79.87203 323.71623 79.34732 324.29448 78.25 324.59375 L 77.59375 324.78125 L 77.5 325.46875 C 77.5 325.46875 77.22761 326.75828 78.0625 327.90625 C 78.47994 328.48023 79.29431 328.93927 80.21875 328.90625 C 81.14319 328.87325 82.16698 328.48731 83.5 327.6875 C 84.81936 326.89589 85.70079 326.17968 86.25 325.4375 C 86.79921 324.69532 86.99073 323.87829 86.96875 323.21875 C 86.94675 322.55921 86.76823 322.04814 86.6875 321.71875 C 86.6068 321.38936 86.61775 321.3581 86.65625 321.28125 C 87.06239 320.46897 86.88836 319.69361 86.65625 318.90625 C 86.42414 318.11889 86.02136 317.29602 85.5625 316.53125 C 85.10364 315.76648 84.57561 315.04753 84 314.5 C 83.496341 314.02091 82.958007 313.56196 82.1875 313.5625 z M 82.59375 315.9375 C 82.62005 315.96 82.5978 315.94255 82.625 315.96875 C 83.01033 316.33528 83.49011 316.92102 83.875 317.5625 C 84.25989 318.20398 84.55242 318.90454 84.71875 319.46875 C 84.88508 320.03296 84.81265 320.43728 84.84375 320.375 C 84.50718 321.04814 84.63537 321.75127 84.75 322.21875 C 84.86458 322.68623 84.95948 323.00329 84.96875 323.28125 C 84.97775 323.55921 84.94295 323.8203 84.625 324.25 C 84.30702 324.6797 83.68064 325.26036 82.5 325.96875 C 81.33302 326.66894 80.54431 326.89239 80.15625 326.90625 C 79.76819 326.92015 79.77006 326.83225 79.6875 326.71875 C 79.58711 326.58072 79.58531 326.35202 79.5625 326.09375 C 80.72143 325.53085 81.61159 324.6971 82.0625 323.65625 C 82.62203 322.36467 82.75 320.92522 82.75 319.59375 C 82.75 318.26228 82.62297 317.02193 82.59375 316.15625 C 82.58975 316.0519 82.59363 316.02948 82.59375 315.9375 z M 135.3125 325.09375 C 134.29797 325.08838 133.35154 325.1544 132.5 325.25 C 130.79692 325.44121 129.40437 325.81523 128.3125 326.21875 C 126.12876 327.02579 125.03125 328.09375 125.03125 328.09375 L 124.9375 328.1875 L 124.875 328.28125 C 124.875 328.28125 124.03862 329.7549 122.84375 331.3125 C 121.64888 332.8701 120.00525 334.4339 119.09375 334.71875 C 119.00965 334.74505 118.6899 334.71975 118.1875 334.40625 C 117.6851 334.09261 117.07587 333.57741 116.46875 333 C 115.86163 332.42259 115.27136 331.78744 114.6875 331.28125 C 114.10364 330.77506 113.60623 330.28125 112.65625 330.28125 C 112.21438 330.28125 111.95529 330.44261 111.75 330.59375 C 111.54471 330.74489 111.39524 330.90301 111.21875 331.09375 C 110.86577 331.47524 110.48015 331.95912 110.03125 332.53125 C 109.13345 333.6755 107.96785 335.16907 106.46875 336.6875 C 103.47055 339.72435 99.18409 342.82728 93.125 343.34375 C 92.31089 343.41315 91.57829 343.75479 91.09375 344.3125 C 90.60921 344.87021 90.41152 345.57364 90.34375 346.28125 C 90.2082 347.69647 90.58241 349.28253 91.1875 350.84375 C 91.79259 352.40497 92.62558 353.915 93.5 355.125 C 93.93721 355.73 94.38142 356.27155 94.84375 356.6875 C 95.17696 356.98728 95.59341 357.1226 96 357.28125 C 95.99999 357.46081 95.9279 357.86391 95.78125 358.40625 C 95.47221 359.5491 94.85738 361.18832 94.25 362.90625 C 93.64262 364.62418 93.05746 366.44282 92.78125 368.0625 C 92.64315 368.87234 92.56206 369.61866 92.65625 370.34375 C 92.75045 371.06884 93.03714 371.79812 93.625 372.3125 C 94.61071 373.175 95.95062 373.49968 97.40625 373.6875 C 98.86188 373.87532 100.45634 373.90625 101.96875 373.90625 C 103.48116 373.90625 104.91452 373.88695 105.9375 373.96875 C 106.44899 374.00965 106.87325 374.0839 107.09375 374.15625 C 107.204 374.19245 107.25204 374.22649 107.25 374.21875 C 107.75767 375.35925 108.78007 376.5187 110.1875 377.34375 C 111.66254 378.20843 113.63236 378.63909 115.5625 377.78125 C 117.19137 377.0573 118.55409 376.34138 119.625 376.0625 C 120.69591 375.78362 121.30549 375.81207 122.0625 376.53125 C 122.94871 377.37318 123.76606 379.87304 123.96875 382.625 C 124.17144 385.37696 123.84671 388.39913 123.0625 390.28125 C 122.16653 392.43158 121.01972 395.46201 120.4375 398.40625 C 119.85528 401.35049 119.70977 404.33477 121.5625 406.1875 L 123 404.78125 C 122.02431 403.80556 121.84034 401.51623 122.375 398.8125 C 122.90966 396.10877 124.03445 393.15481 124.90625 391.0625 C 125.8898 388.70198 126.19024 385.47607 125.96875 382.46875 C 125.74726 379.46143 125.09719 376.67051 123.4375 375.09375 C 122.19257 373.91102 120.55881 373.75162 119.125 374.125 C 117.69119 374.49838 116.30311 375.27848 114.75 375.96875 C 113.49816 376.52512 112.27572 376.26292 111.1875 375.625 C 110.09928 374.98708 109.22976 373.88689 109 373.3125 C 108.74406 372.67265 108.20536 372.40967 107.71875 372.25 C 107.23214 372.09033 106.68712 372.01622 106.09375 371.96875 C 104.90702 371.87385 103.46155 371.90625 101.96875 371.90625 C 100.47595 371.90625 98.94066 371.88445 97.65625 371.71875 C 96.37184 371.55302 95.366 371.18743 94.9375 370.8125 C 94.81825 370.70816 94.71067 370.5127 94.65625 370.09375 C 94.60185 369.6748 94.6323 369.09641 94.75 368.40625 C 94.98539 367.02594 95.55886 365.28344 96.15625 363.59375 C 96.75364 361.90406 97.36248 360.25498 97.71875 358.9375 C 97.89688 358.27876 98.02617 357.70546 98 357.125 C 97.9869 356.83477 97.9265 356.51366 97.71875 356.1875 C 97.511 355.86134 97.09967 355.61692 96.71875 355.5625 C 96.75555 355.5675 96.4967 355.4657 96.1875 355.1875 C 95.8783 354.90932 95.50251 354.49113 95.125 353.96875 C 94.36999 352.92399 93.60186 351.51663 93.0625 350.125 C 92.52314 348.73337 92.23053 347.3246 92.3125 346.46875 C 92.3535 346.04083 92.49586 345.77364 92.625 345.625 C 92.75414 345.47636 92.89837 345.37905 93.3125 345.34375 C 99.97026 344.77624 104.7145 341.32664 107.90625 338.09375 C 109.50212 336.4773 110.69996 334.9204 111.59375 333.78125 C 112.04065 333.21167 112.42948 332.74761 112.6875 332.46875 C 112.7359 332.41645 112.74235 332.4129 112.78125 332.375 C 112.76605 332.4127 112.9727 332.4637 113.375 332.8125 C 113.86253 333.23518 114.45485 333.82987 115.09375 334.4375 C 115.73265 335.04513 116.3964 335.67014 117.125 336.125 C 117.8536 336.57986 118.74529 336.91944 119.6875 336.625 C 121.60442 336.02596 123.1575 334.19982 124.4375 332.53125 C 125.65189 330.94821 126.41285 329.61583 126.5 329.46875 C 126.5196 329.44845 127.1455 328.77911 129 328.09375 C 130.88212 327.39818 133.91899 326.79835 138.375 327.3125 L 138.59375 325.3125 C 137.40965 325.17588 136.32703 325.09912 135.3125 325.09375 z M 3.84375 339.78125 L 2.15625 340.875 C 3.16692 342.391 4.51066 344.32139 6.0625 345.90625 C 7.61434 347.49111 9.41346 348.8125 11.5 348.8125 C 13.30449 348.8125 15.48254 348.36697 17.1875 348.1875 C 18.03998 348.0978 18.77358 348.08349 19.125 348.15625 C 19.2245 348.17685 19.2226 348.1751 19.25 348.1875 C 19.259 349.156 19.327 349.68449 19.09375 350.5625 C 18.84823 351.48653 18.2336 352.93359 16.65625 355.5625 C 16.16019 356.38926 16.05191 357.34406 16.375 358.09375 C 16.69809 358.84344 17.29075 359.35498 17.90625 359.75 C 19.13725 360.54005 20.67073 360.96711 21.40625 361.25 C 22.48906 361.66646 23.54413 361.9223 24.40625 362.1875 C 25.26837 362.4527 25.87896 362.75396 26.15625 363.03125 C 26.28797 363.16297 26.73004 364.14981 26.84375 365.34375 C 26.95746 366.53769 26.85615 367.94821 26.53125 369.03125 C 26.38434 369.52096 26.41184 370.1027 26.65625 370.5625 C 26.90066 371.0223 27.30762 371.29476 27.6875 371.46875 C 28.44726 371.81673 29.23718 371.87277 30.0625 371.9375 C 30.88782 372.0022 31.7146 372.0322 32.28125 372.125 C 32.53301 372.1662 32.71483 372.2107 32.8125 372.25 C 32.8413 372.39975 32.8714 372.77101 32.75 373.3125 C 32.61442 373.9175 32.32633 374.66765 31.8125 375.46875 C 30.78484 377.07095 28.88395 378.8564 25.53125 380.125 C 25.10634 380.28578 24.66518 380.57925 24.4375 381.03125 C 24.20982 381.48325 24.23984 381.9797 24.34375 382.34375 C 24.55148 383.07185 24.97146 383.58835 25.375 384.1875 C 25.77854 384.78665 26.2101 385.42821 26.4375 386 C 26.6649 386.57179 26.72016 387.02702 26.5625 387.5 C 25.65612 390.21913 21.66368 397.58632 18.65625 400.59375 L 20.0625 402.03125 C 23.55507 398.53868 27.34388 391.40587 28.4375 388.125 C 28.77984 387.09798 28.61616 386.09213 28.28125 385.25 C 27.94634 384.40787 27.47131 383.70073 27.0625 383.09375 C 26.69527 382.54851 26.46122 382.10779 26.375 381.90625 C 29.96797 380.50531 32.25223 378.50787 33.5 376.5625 C 34.135 375.57249 34.49642 374.60264 34.6875 373.75 C 34.87858 372.89736 34.90764 372.16042 34.6875 371.5 C 34.51432 370.98046 34.1175 370.67615 33.75 370.5 C 33.3825 370.32385 33.00964 370.21923 32.625 370.15625 C 31.85571 370.03028 31.01843 369.99777 30.25 369.9375 C 29.48157 369.8772 28.76368 369.77702 28.5 369.65625 C 28.474646 369.64463 28.484621 369.63386 28.46875 369.625 C 28.472924 369.61232 28.46266 369.61404 28.46875 369.59375 C 28.89384 368.17679 28.98004 366.58731 28.84375 365.15625 C 28.70746 363.72519 28.46203 362.49328 27.59375 361.625 C 26.87104 360.90229 25.91732 360.57305 24.96875 360.28125 C 24.02018 359.98945 23.01817 359.73055 22.09375 359.375 C 21.20427 359.03289 19.86275 358.6162 19 358.0625 C 18.56863 357.78565 18.29801 357.4964 18.21875 357.3125 C 18.13945 357.1286 18.08981 357.01699 18.34375 356.59375 C 19.96135 353.89774 20.70051 352.33849 21.03125 351.09375 C 21.36199 349.84901 21.25 348.98834 21.25 348.0625 C 21.25 347.58333 21.03647 347.06962 20.6875 346.75 C 20.33853 346.43038 19.92194 346.29958 19.53125 346.21875 C 18.74986 346.05708 17.92877 346.08968 17 346.1875 C 15.14246 346.38303 12.94551 346.8125 11.5 346.8125 C 10.33654 346.8125 8.88566 345.91514 7.5 344.5 C 6.11434 343.08486 4.83308 341.26525 3.84375 339.78125 z "
       id="path4353"
       transform="translate(220.75,298.7239)" />
    <path
       sodipodi:nodetypes="cccsccccccccccccccccccccscscscscccccccccccccccsccccscc"
       inkscape:connector-curvature="0"
       id="path4195"
       d="m 310.49963,566.72233 c -1.89732,0.0112 -3.80804,0.4375 -4.96875,1.375 -1.56538,1.5302 -3.48305,1.88865 -5.1875,2.71875 -13.25824,-0.25254 -15.47956,-0.11448 -22.15625,-1.59375 -7.43283,-1.64681 -11.22749,0.0291 -11.65625,1.0625 -0.0536,0.12918 -0.12938,0.38058 -0.1875,0.71875 -15.28585,8.20605 -13.08937,13.4802 -8.625,24.625 0.032,-0.0891 0.0646,-0.18922 0.0937,-0.28125 0.0658,0.16427 0.12065,0.30188 0.1875,0.46875 0,0 -0.0536,-0.36505 -0.0625,-0.875 0.62797,-2.34804 0.64535,-5.51932 3,-8.96875 0.46557,-0.68122 1.03831,-1.36208 1.65625,-2.0625 1.01421,-1.05521 2.2869,-2.12164 3.90625,-3.1875 0.0319,0.006 0.0627,-0.004 0.0937,0 0.0485,0.0796 0.0979,0.15039 0.15625,0.1875 2.00756,0.4015 2.39232,-3.27647 11.15625,-3.96875 -0.11238,0.0355 -0.23804,0.0817 -0.34375,0.125 -2.74115,1.12138 -3.13865,2.23891 -2.90625,2.875 -9.59288,4.38733 -11.08201,14.66485 -8.3125,24.15625 0,0 0.0496,-0.16204 0.0937,-0.3125 0.0737,0.22959 0.15625,0.5 0.15625,0.5 0,0 2.16964,-8.74553 11.8125,-14.28125 0.0437,0.0626 0.10376,0.13101 0.15625,0.21875 0.24745,1.52082 0.86422,2.76379 3.15625,3.8125 3.54747,0.8347 5.67354,0.76523 7.0625,-0.75 1.38896,-1.51523 3.28373,-3.64178 1.65625,-7.59375 2.67857,1.07143 7.89433,-1.34057 9.03125,-1.21875 4.375,0.46876 1.27475,-5.1517 2.65625,-4.21875 0.17464,0.151 0.37963,0.33252 0.65625,0.625 0.11811,0.12488 0.26519,0.23848 0.40625,0.34375 1.82553,1.67303 6.02011,1.32075 8.46875,0.0625 1.90595,-0.97938 -1.87819,-5.15854 5.5,0.34375 0.39152,0.22813 0.73657,0.4375 1.0625,0.6875 5.18818,4.27018 1.82759,11.24478 4.59375,12.875 0.16756,0.14475 0.36341,0.25398 0.59375,0.34375 0.0734,0.0582 0.14281,0.13559 0.21875,0.1875 2.47123,2.00537 6.42344,0.41024 9.5,-2.75 0.88308,0.16856 1.74582,0.60344 2.5625,1.1875 4.41984,3.38341 7.625,11.53125 7.625,11.53125 0.0285,-0.0472 0.0657,-0.10732 0.0937,-0.15625 0.0223,0.0552 0.15625,0.375 0.15625,0.375 2.51528,-4.16593 3.45028,-15.26083 -3.1875,-20.65625 -0.0399,-0.0344 -0.0846,-0.0598 -0.125,-0.0937 -0.15711,-0.12434 -0.30328,-0.25711 -0.46875,-0.375 -0.68906,-0.52049 -1.46436,-0.98511 -2.3125,-1.375 -0.26734,-1.01588 -1.26793,-2.13776 -2.5,-3.0625 -1.13657,-0.90728 -2.55579,-1.65457 -3.8125,-1.96875 -2.74257,-0.68564 -8.02856,-3.62624 -9.71875,-4.8125 -0.93928,-0.70447 -2.14828,-2.23734 -3.5,-3.625 -0.18647,-0.19699 -0.36876,-0.40415 -0.5625,-0.59375 -0.0721,-0.068 -0.14571,-0.1213 -0.21875,-0.1875 -0.53041,-0.50181 -1.10714,-0.95536 -1.6875,-1.3125 -1.16071,-0.71429 -3.07143,-1.13616 -4.96875,-1.125 z"
       style="fill:url(#linearGradient3922);stroke:none" />
    <path
       id="path5281"
       style="fill:url(#linearGradient5271);stroke:none"
       d="m 134.13583,310.16138 c 5.23654,5.43794 5.16027,4.3613 7.60453,4.19077 4.33021,-0.30211 1.66726,-4.71454 6.05647,-4.06564 4.3892,0.6489 5.47249,-0.52794 7.08374,-1.33356 1.61124,-0.80562 0.60421,-3.42389 2.21545,-3.8267 1.61124,-0.40281 5.28279,1.40984 7.45199,1.40984 4.02811,0 3.86336,-3.92234 6.07881,-3.11672 2.21546,0.80562 4.75975,3.32437 9.28192,5.23147 4.52217,1.9071 7.54994,4.651 6.63563,8.56959 -0.58307,2.49893 2.64911,2.67619 4.23666,3.96789 -3.45054,1.33044 -6.49531,2.87002 -6.49531,2.87002 l -4.43091,-2.21546 -1.81265,-8.66042 -2.41686,-4.22951 -4.43092,-1.61124 -5.23653,3.42389 -5.03513,-1.61124 -5.63934,3.82669 -5.63935,1.00703 -1.20843,4.83372 -5.23653,2.61827 -6.04216,-1.40984 -2.81967,-3.02107 z m 67.14928,22.11126 c -0.0951,-7.8954 -8.18077,-15.0298 -8.18077,-15.0298 l -2.18788,3.42451 4.66114,3.61476 3.90013,5.32702 z m -77.14661,-2.09276 c -0.3805,-10.74916 9.60766,-13.88829 9.60766,-13.88829 l 0.3805,3.13913 -7.32465,5.42215 z m -8.5794,-9.88142 c -2.42149,-9.55145 8.34071,-15.33613 8.34071,-15.33613 l 0.26905,2.95961 -4.17035,3.49771 -2.95961,4.70846 z"
       transform="translate(142.5,273.0989)"
       inkscape:connector-curvature="0" />
    <path
       style="font-size:medium;font-style:normal;font-variant:normal;font-weight:normal;font-stretch:normal;text-indent:0;text-align:start;text-decoration:none;line-height:normal;letter-spacing:normal;word-spacing:normal;text-transform:none;direction:ltr;block-progression:tb;writing-mode:lr-tb;text-anchor:start;baseline-shift:baseline;color:#000000;fill:url(#linearGradient3930);fill-opacity:1;stroke:none;stroke-width:1.5;marker:none;visibility:visible;display:inline;overflow:visible;enable-background:accumulate;font-family:Sans;-inkscape-font-specification:Sans"
       d="m 310.9375,565.31434 c -2.93091,-0.15953 -5.11266,0.76575 -6.05622,1.61964 -1.58768,0.96924 -2.42096,1.97501 -4.98391,2.08931 -2.56296,0.11429 -14.04166,-0.0359 -20.67418,-1.50537 -3.79513,-0.84085 -5.33214,-1.11699 -7.56694,-0.64292 -2.2348,0.47407 -5.43678,1.48191 -6.6875,3.6875 -7.42568,4.03706 -10.28762,7.95166 -11.09375,11.78125 -0.80613,3.82959 0.3111,8.94794 5.03125,13.5312 -0.15462,-5.68938 3.93599,-10.56604 7.625,-13.5625 0.0602,0.15604 0.48529,-0.0835 1.12499,-0.1876 1.99458,-1.08789 4.80965,-2.46844 5.81657,-3.20175 -7.2054,3.5585 -8.58268,10.60053 -8.81656,15.88925 -0.23889,5.40197 1.4375,9.90625 1.4375,9.90625 l 0.84375,2.3125 c 1.65434,-7.63952 3.95545,-10.02908 9.04566,-13.27512 0.74701,-0.3192 1.23774,-1.19857 1.38074,-0.90572 0.51715,1.05893 2.47529,1.53468 4.25447,2.15005 1.77919,0.61537 3.40684,0.58491 4.69413,0.46819 1.28729,-0.11672 2.39923,-0.60598 3.21875,-1.5 0.69894,-0.76248 1.0149,-1.19725 2.35892,-3.08081 1.34401,-1.88355 1.81611,-2.98536 4.01613,-4.54419 0.90991,-0.23086 1.76263,-0.50035 2.4375,-0.6875 0.67487,-0.18715 1.25412,-0.24621 1.21875,-0.25 0.71011,0.0761 1.30584,0.0195 1.8125,-0.1875 1.99429,-1.9324 4.04768,-1.88891 5.875,-1.9375 2.3783,-0.0182 3.53124,-0.74268 5.23353,-0.85853 1.7023,-0.11586 2.38857,0.24603 4.82741,1.20861 2.43884,0.96257 3.58035,3.54188 3.78271,6.24357 0.10118,1.35084 0.077,2.6611 0.28125,3.8125 0.18844,1.06226 0.72248,2.04792 1.93556,2.88264 1.21307,0.83472 2.74595,1.15539 4.28324,0.86731 1.63213,-0.30585 3.28478,-1.20035 4.8125,-2.4375 4.06436,-0.95993 10.17665,10.55712 11.1875,12.75 l 0.8125,-1.28125 c 1.57754,-2.61281 3.44072,-7.30693 2.72227,-12 -0.69602,-4.5466 -2.82372,-9.35644 -7.76608,-11.60892 -0.29596,-0.77441 -1.93025,-2.04272 -2.79772,-2.81472 -1.29577,-1.1531 -2.8538,-2.98466 -6.63963,-4.22357 -3.78582,-1.2389 -8.4071,-5.73451 -13.02512,-8.75812 -2.34262,-0.88338 -3.03156,-1.58915 -5.96247,-1.74868 z m 0,2.56066 c 1.7885,-0.0105 3.60556,0.37987 4.5625,0.96875 2.34608,1.44968 3.60017,3.92229 5.65625,5.5 4.06537,3.65382 10.03653,4.25909 13.83395,7.57767 1.11581,0.99295 2.0408,1.83739 1.9473,2.35983 l 0,0.0312 0,0.0312 c -0.33933,3.58107 -2.70475,7.26171 -5.46875,9.5 -2.20957,1.69765 -4.4201,2.69963 -6.39656,1.28741 -2.33622,-1.6711 -1.38714,-3.52549 -1.47844,-5.47486 -0.2125,-2.83704 -1.75507,-6.0191 -4.71987,-7.99572 -2.96481,-1.97662 -4.28299,-2.15456 -5.44937,-2.84131 -2.52199,-1.38952 -0.37819,1.22499 -2.77074,2.37638 -0.58793,0.37169 -1.93089,0.57121 -3.43497,0.58565 -1.50408,0.0144 -2.61014,-0.42682 -3.46875,-1.03125 -0.85861,-0.60443 -1.6066,-1.23194 -2.55714,-0.98392 -0.28317,0.32322 0.69455,2.64217 -0.53564,3.64553 -1.23019,1.00336 -3.33328,1.10764 -5.12592,1.48544 -2.4438,0.60396 -4.08738,0.47213 -6.28135,-0.397 l 0.6875,1.625 c 0.75652,1.83705 0.6646,3.13339 0.28125,4.1875 -0.99714,1.34044 -2.91202,2.52462 -4.90625,2.84375 -1.99423,0.31913 -5.31006,-0.53506 -6.47666,-2.34462 -0.57909,-0.99068 -0.52195,-3.41468 -1.15993,-5.61651 -0.58996,-2.03609 -1.65582,-3.99555 -2.15978,-4.77902 1.38902,-2.35694 6.10727,-2.22539 8.18561,-2.617 3.66724,-0.70205 7.32435,-1.70762 8.48258,-2.25876 1.15822,-0.55114 8.30775,-1.8751 14.28448,-6.47779 0.93593,-0.75595 2.68025,-1.17698 4.46875,-1.1875 z m -37.25,1.78125 c 1.35981,0.0565 2.9624,0.25327 4.78125,0.65625 5.94054,1.31617 10.70771,1.27491 16.73851,1.97319 -4.46408,1.81164 -6.54218,2.86031 -11.23851,3.83931 -1.78406,0.12271 -3.18699,0.16402 -4.46875,0.3125 -4.70065,0.21751 -7.7119,1.0841 -9.40625,2.09375 -0.97011,0.57808 -1.62838,1.13869 -2.09375,1.46875 -0.34093,0.24181 -0.43668,0.21608 -0.59911,0.0732 -0.16243,-0.14286 -0.20708,-0.39832 -0.24464,-0.82322 -0.0774,-0.87574 -0.0764,-2.04258 -0.0312,-3.21875 0.0451,-1.17617 0.14333,-2.39283 0.25,-3.34375 0.0533,-0.47546 0.10181,-0.8707 0.15625,-1.1875 0.0544,-0.3168 0.12887,-0.57183 0.125,-0.5625 -0.0156,0.0375 0.14875,-0.23774 0.59375,-0.46875 0.445,-0.23101 1.1256,-0.46488 2.03125,-0.625 0.90565,-0.16012 2.04644,-0.244 3.40625,-0.1875 z m -7.84375,3.125 c -0.1991,2.50723 -0.40876,5.10442 -0.0625,7.4375 -4.71747,3.68831 -6.87376,7.5796 -7.78125,10.59375 -0.2123,0.70513 -0.1823,1.1517 -0.28125,1.75 -1.47442,-3.89485 -2.50057,-7.18066 -1.90625,-9.875 0.69973,-3.17222 3.5443,-6.22914 10.03125,-9.90625 z m 7.34651,8.14108 c 0.24466,1.85154 2.34529,5.91807 2.52459,10.62133 -6.78112,3.98184 -7.46053,5.7679 -8.72021,8.75107 -0.1637,-1.44039 -0.37479,-1.35045 -0.0429,-5.33134 0.33189,-3.98089 -0.28628,-10.72567 6.23852,-14.04106 z m 66.00612,4.34284 c 3.81843,2.12217 4.85928,5.53036 5.45987,9.45358 0.55613,3.6328 -0.11537,7.06591 -1.0625,9.4375 -1.75064,-4.38583 -4.74391,-8.84907 -8.55806,-11.10447 1.90075,-2.20247 3.75463,-4.90147 4.16069,-7.78661 z"
       id="path3018"
       inkscape:connector-curvature="0"
       sodipodi:nodetypes="zczszczccccscccccsszcsccczzsscscccscszczcccccccccccccczczcccczcscczccccscccsczcccccssccccscscccczcccccc" />
  </g>
</svg>
