<?xml version="1.0" encoding="UTF-8" standalone="no"?>
<?xml-stylesheet type="text/css" href="colors.css" ?>
<svg
   xmlns="http://www.w3.org/2000/svg"
   version="1.1"
   width="343.55722"
   height="449.36673"
   viewBox="0 0 343.77854 449.33553">
  <g
     id="eagle"
     style="display:inline">
    <path
       d="m 216.875,1.5584094 c 0,0 9.10847,15.6100196 4.125,57.8124996 -0.26983,-7.45299 -1.60916,-15.29175 -5.40625,-21.90625 -0.93403,8.45717 -1.91886,16.1005 -2.90625,23.09375 -2.49523,-17.15557 -33.0625,-32 -33.0625,-32 0.7414,5.93122 5.24003,18.1254 5.34375,18.40625 -8.13396,-11.58167 -21.28441,-19.24343 -45.09375,-23.40625 0,0 20.85245,19.23662 36.78125,63.5625 -5.6044,-9.98016 -12.92554,-17.479282 -23.04273,-21.619912 0,0 19.09186,27.534457 33.26148,82.557413 l 0.25,-0.5625 c -7.67468,19.04652 -1.03993,31.36179 2.09375,37.8125 -8.26722,-8.21972 -15.42308,-18.61599 -16.40625,-28.96875 -2.02918,-13.79846 -2.48214,-20.01786 -9.625,-27.875 -7.14285,-7.85715 -17.49554,-8.55804 -26.78125,-7.84375 -9.28572,0.71428 -13.89884,1.8601 -16.4375,3.21875 -4.22299,2.26007 -2.40625,4.375 -2.40625,4.375 0.35713,1.96428 0.15625,1.96875 0.15625,1.96875 0,0 -8.74554,-1.16964 -11.15625,4.8125 -14.55523,1.01466 -17.46987,19.91344 -8.375,30.96875 2.5,-6.07143 7.5,-7.125 7.5,-7.125 0,0 6.56769,-2.0747 9.5,0.8125 2.90178,2.85715 4.96429,7.03572 3,20.25 -3.92857,26.42857 -15.696,25.49594 -15.696,25.49594 0,0 8.38998,0.74861 16.946,-7.15219 -8.11711,50.05464 4.31714,75.88638 32.875,107.40625 -4.29498,13.72125 -19.5,22.96875 -19.5,22.96875 l -3.53125,47.03125 c 0,0 26.30732,1.3171 43.28125,-21.53125 3.63069,11.10677 7.27457,21.66748 10.125,34.125 0.59318,-5.43721 1.55511,-9.47264 2.5,-12.40625 -0.6046,7.46247 -2.56702,28.77613 -5.78125,37.25 -0.38432,1.01322 -0.95677,1.83657 -1.71875,2.46875 l 0.125,-0.4375 c -9.16592,0.5585 -19.95022,-13.05194 -25.53125,-15.71875 -0.26686,-0.12752 -0.83686,0.0821 -1.53125,0.5625 l -0.1875,-0.21875 c -16.625,-0.375 -25.95186,17.7681 -25.95186,17.7681 0,0 8.82686,-6.7681 20.95186,-8.2681 l 0.53125,-0.0937 c 0.0309,0.82775 0.1943,1.67815 0.46875,2.5625 -2.34161,-0.47641 -7.4375,-0.95749 -7.4375,1.03125 0,0.0746 0.0269,0.14504 0.0312,0.21875 l -0.21875,-0.0937 c -15.125,9.875 -16.11903,26.82985 -16.11903,26.82985 0,0 6.73775,-9.27677 12.48558,-12.24066 5.74784,-2.96389 7.77585,-6.54877 14.62587,-6.13208 0,0 9.55936,2.95044 16.55936,0.95044 0,0 -3.67678,1.84245 -16.80178,-0.0326 0,0 -6.75,0.875 -6,2.5 0.0109,0.022 0.0205,0.0406 0.0312,0.0625 l -0.28125,-0.0625 c -14.875,12.75 -15.625,21.75 -15.625,21.75 0,0 13.375,-7.875 18.625,-5.5 l 0.40625,-0.46875 c -0.0123,0.11885 -0.018,0.22299 -0.0312,0.34375 -0.5,4 13.125,2.875 12.125,-3.75 l -0.0625,-0.2813 c 0.20439,0.43915 0.50162,0.81331 0.9375,1.03125 1.5,0.75 5.92077,-5.69257 14.25,-6.375 2.12156,-0.17382 0.125,-4 0.125,-4 4.33509,6.01171 9.02328,5.39461 10.4375,4.6875 1.41421,-0.70711 3.716,-1.22871 2.125,-3.96875 9.72272,0.53033 5.97184,5.43126 10.875,7.9375 4.81938,2.46341 9.77407,2.32381 10,0.46875 0.046,-0.3776 0.13068,-0.8054 0.21875,-1.21875 l 0.71875,0.84375 c 15.375,4.625 14.80814,7.82654 15.78171,12.65522 2.70231,-7.29357 7.71829,-22.65522 -11.28171,-26.40522 l -0.15625,0 c 0.23707,-2.66444 -7.21974,-3.89257 -8.375,-3.5625 -1.23744,0.35355 -11.8652,0.34896 -12.21875,-2.65625 -0.35356,-3.0052 8.0625,-41.1875 8.0625,-41.1875 l -1.40625,-0.96875 c 0.0458,-2.99967 -0.28156,-6.56991 -1.5,-10.53125 1.6564,4.65295 3.69091,11.65905 5,20.90625 0,0 6.20987,-6.08671 7.09375,-8.03125 0,0 1.16329,-10.85311 -1.2598,-19.81174 0,0 3.04289,5.84575 3.60355,18.56174 l 6.8438,-6.46875 c 0,0 -1.42586,-14.66729 -0.71875,-21.03125 5.22226,-2.06162 10.46875,2.9375 10.46875,2.9375 0,0 34.77712,48.60061 39.25,52 6.25,4.75 32.18881,-0.44327 33.75,-6.25 1.42258,-5.29117 -31.83792,-48.47505 -49.40625,-72 4.13882,1.78437 6.59375,2.46875 6.59375,2.46875 0,0 0.7025,-5.48071 -2.65625,-12.375 l 0,-0.1875 c 0.99518,0.51534 1.95652,1.01387 2.8125,1.4375 0.0232,0.0348 0.15625,0.25 0.15625,0.25 l -0.0937,-0.21875 c 3.75746,1.85743 6.09375,2.84375 6.09375,2.84375 0,0 0.34804,-4.77636 -3.1875,-13.96875 l -0.0937,-0.0312 c -0.0777,-0.90711 -0.21749,-2.05112 -0.46885,-3.4063 l 0.1875,0.0625 c 14.84925,8.13172 23.71875,8.875 23.71875,8.875 0,0 0.51152,-10.29507 -12.125,-27.59375 l 0.28125,0 c 18.03122,4.94974 28.65625,3.1875 28.65625,3.1875 0,0 -2.40538,-10.42884 -12.78125,-22.96875 23.61178,2.44015 30.8125,-6.71875 30.8125,-6.71875 0,0 -9.85653,-14.3907 -29,-25 l 0.0312,-0.0312 c 30.05208,2.47482 39.2188,-10.3438 39.2188,-10.3438 0,0 -8.64397,-10.04803 -24.78125,-15.875 l 0.0312,-0.0312 c 36.76952,-16.26346 38.88115,-26.15625 36.40625,-26.15625 -1.6391,0 -5.26143,-6.1899 -27.40625,-4.9375 28.75002,-24 22.875,-58.375 22.875,-58.375 0,0 -6.65618,6.94027 -19.96875,18.375 15.51797,-22.26528 6.96875,-57.625001 6.96875,-57.625001 0,0 -5.09711,12.32319 -16.875,29.437501 12.75,-29.750001 -0.80578,-56.395337 -0.80578,-56.395337 0,0 -4.5144,13.500376 -13.91297,32.395336 6.5634,-37.531 -10.2812,-53.12505 -10.2812,-53.12505 0,0 1.03671,9.50403 -7.5625,31.96875 1.29814,-30.58571 -23.8125,-49.28125 -23.8125,-49.28125 0,0 2.78836,11.32457 -0.5625,34.90625 C 246.78287,12.002139 216.875,1.5584094 216.875,1.5584094 z M 317.0625,133.99591 c -0.11025,0.0945 -0.20135,0.18613 -0.3125,0.28125 l -0.125,-0.15625 z"
       class="base" />
    <path
       d="m 224.3125,62.995909 -10,38.031251 -13.71875,46.5 0.0625,0 -0.15625,0.34375 -2.8125,20.6875 5,13.15625 2.53125,17.53125 -7.53125,14.09375 -12.21875,10.65625 1.25,5.625 c 7.2038,-10.02268 13.64611,-5.11114 21.34375,-23.90625 9.54826,-23.31371 -0.0256,-31.85586 -2.53125,-40.3125 -1.22072,-4.11992 0.61104,-9.6653 2.625,-16.71875 l 1.0625,0.15625 2,6.21875 3.75,4.1875 -1.09375,6.21875 4.65625,1.3125 -0.90625,8 2.65625,5.96875 -0.65625,16.59375 -1.3125,10.4375 -5.3125,5.3125 -0.6875,12.15625 -8.1875,-0.4375 -2,7.3125 -8.1875,-1.09375 -4.4375,5.96875 -5.28125,1.40625 0.625,6.875 31.9375,39.46875 c 0,0 -1.875,-5.64633 -1.875,-10.03125 0,-4.38493 -21.97804,-20.08752 -2.875,-37.90625 19.10305,-17.81872 19.67121,-43.98497 21.0625,-57.3125 1.39129,-13.32753 -15.14666,-38.3631 -14.40625,-52.59375 0.74041,-14.23065 13.76843,-44.487301 5.625,-63.906251 z m 23.0625,18.90625 c -6.84811,4.60942 -6.53125,6 -6.53125,6 l 3.25,23.062501 6.25,-2.3125 c 1.77646,-8.964741 2.15672,-20.866931 -2.96875,-26.750001 z m 13.875,18.656251 c -5.86469,1.49702 -7.0625,2.90625 -7.0625,2.90625 -2.06464,-5.104361 1.37525,5.06785 2.6875,9.34375 L 248.4375,135.65216 260,128.05841 c 0.51443,-2.26143 4.67849,-21.35623 1.25,-27.5 z m -1.25,27.5 c -0.0328,0.14427 -0.0937,0.4375 -0.0937,0.4375 l 0.625,-0.75 -0.53125,0.3125 z m 0.53125,-0.3125 6.25,-2.78125 0.125,-0.59375 z m 6.25,-2.78125 -4.875,20.71875 9.0625,5 -17.21875,19.75 17.21875,1.25 L 255,192.65216 l 4.25,1.78125 c 4.59048,1.93746 11.68856,-7.8393 12.59375,-12.96875 l -2.90625,0.78125 c 0,0 8.9723,-8.10515 7.40625,-16.875 l -12.09375,4.4375 c 0,0 11.56015,-14.19155 12.53125,-23.40625 l -9.96875,0.90625 c 0,0 6.63317,-11.29998 5.96875,-25.03125 z m -112.0625,8.25 c 11.05496,24.8336 -5.65625,29.15625 -5.65625,29.15625 1.03122,1.63146 -1.73602,0.0978 -3.1875,0.21875 0,0 -3.08286,-1.54899 -3.96875,2.4375 -0.88589,3.9865 12.84375,22.59375 12.84375,22.59375 0,0 -4.44022,-9.86814 -4.21875,-12.96875 0.33464,-2.93837 4.193,-2.53372 5.59375,-1.25 1.40075,1.28372 9.45315,9.66321 15.15625,13.71875 0,0 -10.40315,-14.03077 -9.40625,-15.3125 0,0 6.55246,5.11606 15.875,5.75 -8.12329,-5.91715 -11.36455,-27.93944 -13.75,-34.3125 -2.38546,-6.37307 -9.28125,-10.03125 -9.28125,-10.03125 z m -32.78125,15.625 -13.09375,0.1875 -8.1875,8.1875 c 8.41014,-4.73006 11.55101,-6.6078 24.84375,-4.59375 z m 5,9.375 c -0.53138,-0.002 -1.05862,0.12508 -1.5625,0.46875 -2.68738,1.83289 -4.79887,5.19914 -3.75,17.03125 3.99249,-6.12787 6.64578,-13.88546 8.375,-14.40625 1.40499,-0.42314 -0.75987,-3.08538 -3.0625,-3.09375 z m 48.125,27.40625 -0.96875,10.90625 -15.09375,-10 -1.4375,13.1875 -8.6875,-12 -5.5,17.78125 -5.40625,-13.6875 -9.4375,15.875 -1.40625,-15.375 1.40625,15.9375 -0.28125,7.125 c 0,0 7.40073,-3.68915 12.8125,-8.53125 0,0 3.70085,6.27051 5.125,7.125 l 5.40625,-12.53125 9.5625,12.375 c 0,0 2.8361,-11.96111 4.6875,-13.8125 l 15.96875,10.25 9.3125,-13.8125 c 0,0 -7.07324,-5.12664 -6.21875,-9.96875 z m 90.375,11.84375 c -0.39236,0.17833 3.07241,2.25637 7.40625,4.28125 l 1.84375,-0.28125 0.0625,-0.0312 c -6.36683,-3.10108 -9.00733,-4.10745 -9.3125,-3.96875 z m 9.25,4 -16.875,11.28125 c 4.37089,2.78216 17.64694,0.91548 21.3125,-11.9375 z m -15.40625,12.5625 c -1.58827,-0.0526 0.59496,2.17117 10.125,8.09375 l -20.28125,0.0937 20.65625,22.875 c -10.76225,-22.15335 -0.3893,-9.80878 12.46875,-18.59375 -7.18197,-5.98906 -20.32163,-12.381 -22.96875,-12.46875 z m -15.875,30 c 5.01026,5.05112 20.29165,29.23263 15.875,18.59375 -3.31715,-7.80283 -0.82285,-11.34277 16.71875,-11.6875 -7.68689,-6.27608 -7.19884,-7.06845 -8.78125,-6.90625 z m -6.5625,14.71875 5,14.71875 -7.5,-1.5625 -11.28125,-6.25 3.375,7.53125 c 0,0 13.19363,7.72862 19.84375,6.90625 l 1.3125,-6.90625 c -2.50567,-9.08305 13.6875,-5.03125 13.6875,-5.03125 l -0.75,-1.53125 c -7.68399,-3.09275 -15.78693,-5.33198 -23.6875,-7.875 z M 155.625,308.65216 c 1.375,21.5 9,53.1875 9,53.1875 l 8.375,-6.1875 -8.5,-26.875 -5.125,-17.875 z m 58.0625,8.125 c 3.67363,6.34535 8.50418,11.97525 14.40625,16.65625 0.004,0.009 -0.004,0.0222 0,0.0312 6.72772,16.26702 29.40625,36.3125 29.40625,36.3125 l -17.78125,-29.09375 c 6.95152,3.32698 13.8626,4.74495 23.8125,6.5625 -0.58881,-7.43942 -10.09375,-14.9375 -10.09375,-14.9375 l -5,6.40625 -9.375,-2.84375 -17.65625,-11.40625 -7.71875,-7.6875 z m -35.3125,0.15625 c 16.0929,24.7802 28.78125,24.1875 28.78125,24.1875 0,0 -5.2679,-6.97184 -3.84375,-7.96875 z m 15.125,64.21875 c -2,4.75 -0.35532,9.18084 -5.625,26.78125 -5.26968,17.60041 10.03125,11.59375 10.03125,11.59375 0,0 -3.26935,-2.98388 -3.21875,-6.5 0.14194,-9.86152 4.38637,-27.64693 5.20472,-29.84519 0.84871,-2.27981 -6.39222,-2.02981 -6.39222,-2.02981 z m -46.8125,24.9375 c 0,0 -11.8125,2.3125 -20.125,9.3125 l 1.6875,-0.125 18.125,-6.0625 z m 1.125,2.53125 c -1.10015,0.0957 -0.59375,2.03125 -0.59375,2.03125 l 8.5,3 11.65625,3.28125 c 0,0 5.47395,1.31954 2.46875,-0.625 -3.0052,-1.94455 -18.95283,-7.7759 -21.78125,-7.6875 -0.0884,-0.0111 -0.17666,-0.006 -0.25,0 z m -7.25,11.90625 c 0,0 -10.0625,4.75 -16.5,16.5625 l 5.875,-5.5 9.625,-5.0625 z m 32.78125,1.84375 c -1.79352,-0.0128 0.15625,3.28125 -5.46875,7.03125 -6,4 -12.625,4.25 -12.625,4.25 0,0 -2.84835,-3.75334 -4.875,-4.75 -2.02665,-0.99666 -2.625,4 -2.625,4 l -1,8.25 4.75,3 7,-2.5 8.75,-5.25 11,-1.25 8,-3.75 10,4 c 0,0 7.25,3 10.5,3.25 2.4375,0.1875 3.60156,-3.5625 4.5625,-6.1875 l -1.125,4.71875 10.46875,3.96875 4.71875,4.3125 c 1.94979,-9.03402 -12.5413,-14.01545 -13.53125,-14.34375 -0.17124,0.3742 -0.32132,0.82551 -0.5,1.3125 l 0.3125,-1.375 c 0,0 0.15291,0.051 0.1875,0.0625 0.13017,-0.28443 0.27344,-0.53281 0.40625,-0.71875 1.25,-1.75 0.5,-4.375 -3.375,-4.875 -4.06659,-0.52472 -3.125,1.625 -6.125,4.375 -3,2.75 -3,-1.5 -6.5,-4 -3.5,-2.5 -10.5,-0.25 -15.5,-0.25 -5,0 -4.5,-2.75 -7,-3.25 -0.15625,-0.0312 -0.28668,-0.0304 -0.40625,-0.0312 z m -27.15625,13.34375 c 0,0 -13,3.8125 -17.875,9.4375 l 0.375,1 17.5625,-6 z"
       class="shading" />
    <path
       d="m 144.60715,353.97794 a 71.428575,71.428575 0 0 1 -142.85715,0 71.428575,71.428575 0 1 1 142.85715,0 z"
       class="globe" />
    <path
       d="m 143.53125,119.45951 c -2.44629,-0.0932 -4.87044,-0.0244 -7.21875,0.15625 -9.34174,0.71859 -14.03577,1.85769 -16.8125,3.34375 -2.27838,1.21935 -3.20015,2.59407 -3.3125,3.8125 -0.0974,1.06709 0.49834,1.68691 0.46875,2.34375 -0.92661,-0.0422 -2.69799,-0.57235 -4.28125,-0.28125 -2.51549,0.46249 -5.20746,1.90819 -7.4375,4.40625 -6.7182,1.77437 -11.8326,6.86793 -13.28125,13.25 -1.4886,6.5581 0.99132,14.34057 5.75,20.125 l 1.0625,1.28125 0.625,-1.53125 c 2.33704,-5.67566 6.78125,-6.5625 6.78125,-6.5625 l 0.0625,0 0.0312,0 c 0,0 1.55492,-0.50644 3.4375,-0.65625 1.88258,-0.14981 3.97962,0.12176 5.09375,1.21875 1.36052,1.33959 1.81263,2.83996 2.40625,5.71875 0.59362,2.87879 0.62868,7.14572 -0.34375,13.6875 -2.20097,12.18289 -4.73119,20.42238 -14.62495,25.75 0,0 0.0308,-7e-5 0.0312,0 l 0,0.0312 c 0,0 0.17523,-0.001 0.1875,0 0.62335,0.0984 9.14493,1.50024 19.25,-6.48667 2.30874,-1.8248 2.86429,-2.07141 3.92325,-2.68192 -0.23644,6.54012 -0.37831,10.71006 -0.47357,17.36811 0,0 4.70608,-2.38629 7.26907,-6.23077 2.00787,-3.0118 3.958,-4.05225 5.72189,-9.77919 1.51102,5.97079 5.02897,11.04336 7.59061,14.21669 0.0971,-3.58483 0.6974,-14.821 3.30752,-19.90289 4.29404,6.29142 8.22997,13.79919 11.47373,19.09039 0,0 -1.61899,-12.38467 -0.0312,-21.96875 5.96968,5.45038 11.10824,9.60421 17.71875,11.95711 -1.79949,-5.66217 -2.3331,-8.53794 -1.93398,-14.16307 6.31237,2.38993 11.42051,2.31378 17.42954,2.15771 -8.67708,-8.90819 -18.32977,-22.33088 -19.58931,-32.88925 l 0,-0.0312 0,-0.0312 c -1.01307,-6.88891 -1.30289,-10.64499 -2.48928,-15.32415 -0.86025,-3.39285 -0.598,-8.67906 -4.41176,-12.69729 -3.81375,-4.01823 -16.04133,-8.4176 -23.38021,-8.69731 z m -0.0937,1.96875 c 6.99148,0.256 13.87038,2.07616 19,7.71875 3.4907,3.83976 5.30226,7.17377 6.53125,11.3125 1.22485,4.12478 1.86491,9.09551 2.875,15.96875 l -0.0312,0 c 1.03086,10.85496 6.39997,21.20905 14.87868,29.56028 -7.95009,-0.53324 -13.79362,-4.76415 -21.92103,-8.56434 2.14254,2.77761 4.00476,4.56319 6.72715,6.15176 -0.35528,2.93449 0.82555,8.2873 1.51202,11.53385 -7.8921,-3.17094 -8.87341,-6.23571 -21.25942,-19.49405 2.17292,5.69991 5.03362,7.37614 5.17412,12.99686 0.14051,5.62072 -0.3939,8.19127 -0.54744,9.26887 -1.2473,-1.39114 -5.00503,-11.23104 -11.15392,-18.99321 3.61343,10.8748 -1.83623,14.39898 -1.82414,23.81641 -2.30594,-3.91579 -3.52707,-5.51208 -4.45316,-16.78385 -1.76129,7.99844 -7.73581,16.00606 -10.15609,19.63648 0.0218,-2.24091 -0.38923,-8.10005 -0.66659,-12.27237 -0.27736,-4.17231 -0.0942,-10.04316 -1.56033,-15.13794 -0.52233,1.49618 -0.42108,3.76723 -0.96875,6.84375 -1.46314,5.67535 -3.26999,8.67146 -6.08525,10.92006 -2.19184,1.39299 -3.40285,1.9745 -4.90717,1.96875 0.86228,-1.49416 2.36355,-2.31162 4.55492,-16.70136 2.19137,-14.38974 -1.32458,-21.26025 3.0527,-25.01294 3.23267,-2.67415 8.57681,-2.43333 8.7286,-2.89331 0.15179,-0.45998 -0.98086,-1.89125 -3.34375,-3.6875 -1.64116,-1.24759 -3.236,-3.15365 -3.6875,-4.1875 -1.18535,-2.71425 -1.70276,-6.14318 -2.40625,-8.78125 -0.63253,-2.07755 -2.60669,-4.43644 -3.4375,-5.5 0.38742,0.36806 0.51572,0.52613 1.21875,1.125 0.82366,0.70164 1.34512,1.62835 2.29197,2.6348 0.94685,1.00645 3.09921,6.36629 5.02053,7.4902 2.93479,1.73756 5.66357,0.72575 7.4062,-0.8437 1.49354,-1.35804 2.43954,-5.27659 4.1361,-6.34743 1.69657,-1.07084 8.3456,-1.28212 10.08996,-1.22395 -2.93438,-1.92464 -10.41574,-2.31835 -14.53856,-2.33487 -2.54899,-0.19607 -4.55432,0.55219 -6.09375,1.125 -1.53943,0.57281 -2.48721,0.88495 -3.3125,0.53125 -1.0387,-0.44516 -2.54567,-1.56321 -3.71875,-2.5625 -1.09813,-0.93544 -1.80473,-1.64918 -1.90625,-1.75 -0.78434,-0.73241 -0.61017,-1.505 -0.49995,-2 0.11022,-0.495 0.33664,-1.20928 2.28125,-2.25 2.30059,-1.23124 6.80155,-2.38378 16.03125,-3.09375 2.29455,-0.1765 4.63826,-0.27283 6.96875,-0.1875 z m -29.15625,9.8125 c 0.60745,0.4215 3.8849,2.74802 4.71875,5.875 0.72509,2.71909 0.34024,6.75971 3.09375,9.09375 1.118,3.004 -4.97788,1.8357 -6.5625,1.75 -2.30842,-2.84776 -2.03884,-4.25849 -2.75184,-6.12056 -0.23462,-0.83848 -0.45164,-1.40203 0.44161,-1.31602 1.38641,1.22947 2.81542,1.51872 2.41567,-0.0483 -0.39975,-1.56698 -2.89398,-2.23243 -4.83481,-2.10799 -0.59411,-1.18807 -1.64873,-1.97858 -2.98928,-3.53217 1.14623,-2.15486 3.30925,-3.10871 5.4375,-3.5 0.39362,-0.0724 0.66158,-0.0567 1.03125,-0.0937 z m 17.12231,5.94059 c -0.68373,-0.0672 -1.39589,-0.40989 -1.66049,-1.69156 1.31878,-0.40739 2.52491,-0.45499 3.47947,-0.2806 0.43932,0.12031 0.23305,0.95727 -0.2577,1.54412 -0.49075,0.58686 -0.87755,0.49526 -1.56128,0.42804 z m -2.93481,1.46566 c 0.70863,0.9986 2.43769,1.59004 3.53125,1.25 1.09356,-0.34004 2.56218,-0.69351 1.45312,0.40625 -2.07838,1.42374 -4.0692,0.94653 -5.70307,0 -1.22571,-0.717 -2.10305,-2.30033 -1.84651,-3.22465 1.0182,-1.73044 1.85658,0.5698 2.56521,1.5684 z m -22.2188,-2.5625 c 2.18362,2.50531 2.61124,5.98643 3.27145,7.71063 0.66021,1.7242 1.91452,1.84578 3.6348,4.22687 -1.7792,0.0703 -3.56052,0.28059 -5.25,0.84375 -7.32495,2.44165 -9.79844,10.14828 -10.59375,13.9375 -2.96512,-4.91673 -3.98635,-10.84122 -2.84375,-15.875 1.31329,-5.78575 5.203,-10.20284 11.78125,-10.84375 z m 40.57751,1.37316 c 0,0 -7.66369,1.07836 -10.67126,4.90809 -1.50378,1.91487 -3.05171,4.92393 -3.1348,7.68122 -0.0831,2.75729 2.19768,5.65412 3.57491,7.23391 1.37722,1.57979 3.63795,0.0376 2.38388,-1.40089 -1.25408,-1.43852 -2.78796,-3.38374 -2.72136,-5.59374 0.0666,-2.21 0.13277,-4.98062 1.45987,-6.6705 1.79953,-3.37102 4.79378,-3.89246 9.10876,-6.15809 z m 10.28908,22.22844 c -0.10493,-1.25891 0.98537,-3.1246 0.16466,-5.7891 -0.59846,2.45369 -2.17734,4.5423 -3.4375,5.65625 -4.17762,3.86731 -3.42643,1.59638 -2.42586,-3.399 -2.27786,2.51166 -2.64356,5.73342 -7.57202,5.52621 -2.21551,-0.33992 -5.90837,-2.12721 -5.90837,-2.12721 2.77888,3.46763 10.53354,4.97407 12.80844,5.07639 2.2749,0.10232 6.18942,1.15817 10.83583,-5.00848 4.64642,-6.16665 -0.43686,-16.89271 -0.71844,-15.37276 1.8743,12.85332 -2.49276,15.32659 -3.74674,15.4377 z m -41.71034,-9.69535 c 2.3643,0.12141 4.72429,0.55846 6.8125,1.09375 1.69787,0.43523 1.77187,1.15907 2.96875,1.59375 -2.78644,0.58802 -2.70521,1.41844 -4.70672,2.62148 -2.00151,1.20304 -5.02366,1.54879 -6.51203,1.19102 -1.48837,-0.35777 -3.66916,-0.34382 -5.14553,-0.22628 -3.27919,0.89857 -7.1999,3.36108 -8.97942,5.22628 1.04814,-3.6574 3.33264,-8.92338 8.71875,-10.71875 2.11514,-0.70505 4.47945,-0.90266 6.84375,-0.78125 z"
       class="borders" />
    <path
       d="m 73.25,281.74591 c -14.33464,0 -27.24928,8.26871 -36.5,21.4375 -1.287361,1.83261 -2.482443,3.76621 -3.625,5.78125 -4.01434,1.94575 -7.747678,4.17729 -11.15625,6.65625 C 8.7852,325.20894 0.5,338.57832 0.5,353.40216 l 0.03125,0 c -0.006066,0.1654 -0.03125,0.33383 -0.03125,0.5 l 2.5,0 0.5,0 c 0,0.37086 -0.19309,0.63361 -0.28125,0.71875 -0.0882,0.0851 -0.1108,0.0858 -0.0625,0.0625 0.0966,-0.0466 0.41431,-0.17852 0.84375,-0.28125 0.85887,-0.20546 2.21678,-0.41862 4,-0.625 3.285041,-0.38019 8.110743,-0.70186 13.875,-1 -0.0084,0.54227 -0.03125,1.07989 -0.03125,1.625 0,8.07409 0.94158,15.83316 2.65625,23.09375 -4.118502,0.8168 -7.574015,1.72229 -10.15625,2.75 -1.66351,0.66205 -2.9847,1.37798 -3.96875,2.1875 -0.49202,0.40476 -0.88755,0.82602 -1.21875,1.375 -0.33119,0.54898 -0.59375,1.26204 -0.59375,2.0625 l 2.09375,0 c 0,0.0581 -0.01125,0.049 0.09375,-0.125 0.10495,-0.17397 0.29739,-0.45478 0.65625,-0.75 0.71774,-0.59043 1.93119,-1.21938 3.5,-1.84375 2.520744,-1.00323 6.054828,-1.95038 10.3125,-2.78125 2.173561,8.05257 5.333525,15.4197 9.28125,21.8125 -1.921323,0.58694 -3.608139,1.21242 -4.96875,1.90625 -1.22577,0.62506 -2.20983,1.32677 -2.9375,2.09375 -0.72767,0.76699 -1.21875,1.66032 -1.21875,2.65625 l 2.03125,0 c 0,-0.36952 0.16237,-0.76069 0.65625,-1.28125 0.49387,-0.52056 1.28058,-1.09817 2.375,-1.65625 1.324959,-0.67565 3.111409,-1.32895 5.1875,-1.9375 0.368196,0.55811 0.744495,1.11459 1.125,1.65625 9.25072,13.16879 22.16536,21.46875 36.5,21.46875 14.33464,0 27.24928,-8.29996 36.5,-21.46875 0.2652,-0.37752 0.52201,-0.77071 0.78125,-1.15625 1.36256,0.45754 2.57305,0.94887 3.53125,1.4375 1.09442,0.55808 1.88113,1.13569 2.375,1.65625 0.49388,0.52056 0.65625,0.91173 0.65625,1.28125 l 2.03125,0 c 0,-0.99593 -0.49108,-1.88926 -1.21875,-2.65625 -0.72767,-0.76698 -1.71173,-1.46869 -2.9375,-2.09375 -0.94855,-0.4837 -2.08737,-0.9434 -3.3125,-1.375 4.12011,-6.5411 7.42097,-14.12082 9.65625,-22.4375 4.45256,0.85139 8.14496,1.83822 10.75,2.875 1.56881,0.62437 2.78226,1.25332 3.5,1.84375 0.35886,0.29522 0.55129,0.57603 0.65625,0.75 0.10495,0.17396 0.0937,0.18313 0.0937,0.125 l 2.09375,0 c 0,-0.80046 -0.26256,-1.51352 -0.59375,-2.0625 -0.3312,-0.54898 -0.72673,-0.97024 -1.21875,-1.375 -0.98405,-0.80952 -2.30524,-1.52545 -3.96875,-2.1875 -2.67031,-1.06277 -6.2857,-2.00622 -10.59375,-2.84375 1.70025,-7.23317 2.625,-14.96134 2.625,-23 0,-0.56607 -0.0222,-1.1245 -0.0312,-1.6875 6.26317,0.3112 11.38538,0.65863 14.875,1.0625 1.78322,0.20638 3.14113,0.41954 4,0.625 0.42944,0.10273 0.74716,0.23469 0.84375,0.28125 0.0483,0.0233 0.0257,0.0226 -0.0625,-0.0625 C 144.19305,354.53581 144,354.27302 144,353.90216 l 2,0 0.21517,-0.12461 c 0,-0.49167 0.0278,-0.73344 -0.18392,-0.93789 -0.0183,-0.0176 -0.0446,-0.015 -0.0625,-0.0312 -0.22012,-14.58451 -8.43197,-27.72893 -21.4375,-37.1875 -3.40857,-2.47896 -7.14191,-4.7105 -11.15625,-6.65625 -1.14256,-2.01504 -2.33764,-3.94864 -3.625,-5.78125 -9.25072,-13.16879 -22.16536,-21.4375 -36.5,-21.4375 z m 1.0625,3 c 2.835096,0.34401 5.629683,2.02226 8.3125,5.0625 2.498778,2.83168 4.863012,6.81773 6.9375,11.6875 -4.883295,-0.81758 -9.953808,-1.253 -15.15625,-1.3125 z m -2.5,0.0312 0.09375,15.40625 c -5.136537,0.0683 -10.144348,0.50478 -14.96875,1.3125 2.074488,-4.86977 4.438722,-8.85582 6.9375,-11.6875 2.566588,-2.90853 5.229652,-4.58922 7.9375,-5.03125 z m -6.71875,0.4375 c -1.070631,0.83067 -2.106001,1.81816 -3.09375,2.9375 -3.01904,3.42126 -5.678392,8.17306 -7.96875,13.90625 -5.986974,1.19604 -11.668427,2.91178 -16.9375,5.125 0.556233,-0.87576 1.132948,-1.72858 1.71875,-2.5625 7.056984,-10.04592 16.15533,-16.96618 26.28125,-19.40625 z m 16.3125,0 c 10.12592,2.44007 19.22427,9.36033 26.28125,19.40625 0.5858,0.83392 1.16252,1.68674 1.71875,2.5625 -5.26907,-2.21322 -10.950526,-3.92896 -16.9375,-5.125 -2.290358,-5.73319 -4.94971,-10.48499 -7.96875,-13.90625 -0.987749,-1.11934 -2.023119,-2.10683 -3.09375,-2.9375 z m -9.5,17.46875 0.125,20.46875 c -7.536674,0.0516 -14.783634,0.59127 -21.59375,1.53125 1.30683,-7.50881 3.103914,-14.28136 5.25,-20.03125 0.05173,-0.13859 0.1041,-0.26885 0.15625,-0.40625 5.150125,-0.9529 10.524157,-1.48659 16.0625,-1.5625 z m 2.5,0 c 5.604696,0.0661 11.041543,0.5988 16.25,1.5625 0.05215,0.1374 0.104524,0.26766 0.15625,0.40625 2.146086,5.74989 3.94317,12.52244 5.25,20.03125 -6.791319,-0.93739 -14.016928,-1.47711 -21.53125,-1.53125 z m -21.4375,2.125 c -2.118203,5.90233 -3.859359,12.73794 -5.125,20.25 -7.473588,1.16493 -14.353825,2.83408 -20.4375,4.90625 1.799942,-6.93164 4.330759,-13.34109 7.46875,-19.03125 5.535502,-2.62002 11.613888,-4.70948 18.09375,-6.125 z m 40.5625,0 c 6.47986,1.41552 12.55825,3.50498 18.09375,6.125 3.13799,5.69016 5.66881,12.09961 7.46875,19.03125 -6.08367,-2.07217 -12.96391,-3.74132 -20.4375,-4.90625 -1.265641,-7.51206 -3.006797,-14.34767 -5.125,-20.25 z m -62.46875,8.0313 c -2.730692,5.53324 -4.938868,11.62203 -6.5,18.125 -0.79411,0.30008 -1.581692,0.62308 -2.34375,0.9375 -6.57309,2.71197 -11.93771,5.93673 -15.71875,9.625 -0.8499374,0.82908 -1.5966384,1.68397 -2.28125,2.5625 2.6211983,-10.17847 9.431128,-19.31923 19.21875,-26.4375 2.380193,-1.73105 4.918582,-3.34023 7.625,-4.8125 z m 84.375,0 c 2.70642,1.47227 5.24481,3.08145 7.625,4.8125 9.78762,7.11827 16.59755,16.25903 19.21875,26.4375 -0.68461,-0.87853 -1.43131,-1.73342 -2.28125,-2.5625 -3.78104,-3.68827 -9.14566,-6.91303 -15.71875,-9.625 -0.76206,-0.31442 -1.54964,-0.63742 -2.34375,-0.9375 -1.56113,-6.50297 -3.76931,-12.59176 -6.5,-18.125 z m -43.40625,12.8125 0.125,23.5 c -8.494942,0.009 -16.574459,0.10689 -24.09375,0.25 0.205124,-7.79751 0.895271,-15.24509 1.96875,-22.125 6.909281,-0.99059 14.300845,-1.57087 22,-1.625 z m 2.5,0 c 7.676686,0.0567 15.046939,0.63709 21.9375,1.625 1.072048,6.87074 1.762635,14.30757 1.96875,22.09375 -7.453374,-0.13571 -15.399366,-0.21347 -23.78125,-0.21875 z m -27.09375,2 c -1.028821,6.81482 -1.679243,14.12172 -1.875,21.78125 -7.891322,0.16694 -14.993635,0.4011 -21.125,0.6875 0.253001,-5.99406 1.011395,-11.78923 2.25,-17.28125 6.066241,-2.18267 13.079915,-3.94732 20.75,-5.1875 z m 51.625,0 c 7.67008,1.24018 14.68376,3.00483 20.75,5.1875 1.23646,5.48249 1.99561,11.26705 2.25,17.25 -6.17769,-0.27844 -13.24748,-0.49647 -21.125,-0.65625 -0.19576,-7.65953 -0.84618,-14.96643 -1.875,-21.78125 z m -75.125,6.25 c -1.082936,5.23285 -1.77595,10.69603 -2,16.34375 -5.919228,0.30484 -10.784531,0.66505 -14.21875,1.0625 -1.83488,0.21236 -3.26649,0.43727 -4.3125,0.6875 -0.080071,0.0192 -0.1428772,0.0432 -0.21875,0.0625 0.5002683,-3.0144 2.1902741,-5.94824 5.0625,-8.75 3.45516,-3.37039 8.54038,-6.46727 14.90625,-9.09375 0.255267,-0.10532 0.521968,-0.20875 0.78125,-0.3125 z m 98.625,0 c 0.25928,0.10375 0.52598,0.20718 0.78125,0.3125 6.36587,2.62648 11.45109,5.72336 14.90625,9.09375 2.80246,2.73371 4.48513,5.59397 5.03125,8.53125 -0.95071,-0.18779 -2.06331,-0.36497 -3.5,-0.53125 -3.63267,-0.42042 -8.82402,-0.80945 -15.21875,-1.125 -0.22655,-5.62566 -0.92105,-11.06767 -2,-16.28125 z m -50.40625,17.75 0.125,22 c -8.198938,0.0258 -16.015989,0.31607 -23.1875,0.8125 C 48.388941,368.10461 48,361.37718 48,354.40216 c 0,-0.83968 0.02033,-1.66749 0.03125,-2.5 7.518901,-0.14417 15.622694,-0.24048 24.125,-0.25 z m 2.5,0 c 8.390045,0.005 16.358364,0.082 23.8125,0.21875 0.01119,0.84282 0.03125,1.68107 0.03125,2.53125 0,6.96376 -0.391126,13.68024 -1.09375,20.03125 -7.011581,-0.4743 -14.636769,-0.75477 -22.625,-0.78125 z m -29.125,0.28125 c -0.01034,0.81888 -0.03125,1.64306 -0.03125,2.46875 0,7.03446 0.386511,13.82146 1.09375,20.25 -6.856011,0.53398 -13.081185,1.26511 -18.375,2.15625 -0.436448,0.0735 -0.826002,0.14342 -1.25,0.21875 -1.689985,-7.09861 -2.625,-14.70275 -2.625,-22.625 0,-0.58789 0.02118,-1.16559 0.03125,-1.75 6.124068,-0.28802 13.235242,-0.54998 21.15625,-0.71875 z m 55.4375,0 c 7.90964,0.16157 14.98254,0.37608 21.15625,0.65625 0.0108,0.60514 0.0312,1.20362 0.0312,1.8125 0,7.89769 -0.91377,15.48272 -2.59375,22.5625 -0.27928,-0.0487 -0.52795,-0.10835 -0.8125,-0.15625 -5.42063,-0.91249 -11.79844,-1.65052 -18.84375,-2.1875 0.7051,-6.4194 1.0938,-13.1956 1.0938,-20.21875 0,-0.82569 -0.0209,-1.64987 -0.0312,-2.46875 z m -28.6875,24.6875 0.125,21.34375 c -0.0526,-4e-5 -0.103612,0 -0.15625,0 -6.531889,0 -12.734173,0.28953 -18.375,0.8125 -1.903195,-6.28237 -3.424272,-13.49713 -4.4375,-21.34375 7.071497,-0.48832 14.769812,-0.78652 22.84375,-0.8125 z m 2.5,0 c 7.865484,0.0266 15.368355,0.31466 22.28125,0.78125 -1.024779,7.94796 -2.563644,15.25301 -4.5,21.59375 -5.39276,-0.56649 -11.343578,-0.92424 -17.65625,-1 z m 24.78125,0.9375 c 7.10998,0.54044 13.54243,1.30531 18.96875,2.21875 0.0994,0.0167 0.18249,0.0457 0.28125,0.0625 -2.24146,8.23912 -5.52579,15.71931 -9.625,22.09375 -1.32516,-0.38044 -2.73209,-0.72837 -4.28125,-1.0625 -2.90861,-0.62734 -6.234344,-1.15601 -9.8125,-1.59375 1.938494,-6.44117 3.45325,-13.76558 4.46875,-21.71875 z m -52.625,0.0625 c 1.003991,7.83973 2.503856,15.06581 4.40625,21.4375 -4.335635,0.47228 -8.323655,1.07349 -11.75,1.8125 -0.897738,0.19363 -1.73884,0.41586 -2.5625,0.625 -3.959896,-6.26277 -7.153955,-13.56578 -9.34375,-21.59375 0.257903,-0.0449 0.487457,-0.0808 0.75,-0.125 5.299194,-0.89204 11.581926,-1.61878 18.5,-2.15625 z M 72.25,399.96466 c 0.05286,0 0.103437,-4e-5 0.15625,0 l 0.125,24.125 c -2.955079,-0.24229 -5.864021,-1.92952 -8.65625,-5.09375 -3.02093,-3.4234 -5.82614,-8.48584 -8.1875,-14.8125 -0.411492,-1.10249 -0.803497,-2.26127 -1.1875,-3.4375 5.449451,-0.49548 11.448445,-0.78125 17.75,-0.78125 z m 2.65625,0.0312 c 6.082428,0.0756 11.829549,0.40024 17.03125,0.9375 -0.364951,1.10989 -0.735451,2.2063 -1.125,3.25 -2.36136,6.32666 -5.16657,11.3891 -8.1875,14.8125 -2.460038,2.78778 -5.002347,4.44594 -7.59375,4.96875 z m -22.96875,1 c 0.446985,1.39479 0.920498,2.76105 1.40625,4.0625 2.4342,6.52181 5.33635,11.83155 8.65625,15.59375 1.004558,1.13839 2.066061,2.12927 3.15625,2.96875 -10.149307,-2.43564 -19.273221,-9.37229 -26.34375,-19.4375 -0.205873,-0.29307 -0.391478,-0.60794 -0.59375,-0.90625 0.603795,-0.1471 1.200334,-0.29873 1.84375,-0.4375 3.436381,-0.74118 7.45933,-1.36959 11.875,-1.84375 z m 42.53125,0.21875 c 3.667502,0.44175 7.03209,0.9916 9.96875,1.625 1.27191,0.27433 2.4507,0.56997 3.5625,0.875 -0.10608,0.15382 -0.20545,0.31635 -0.3125,0.46875 -7.07053,10.06521 -16.194443,17.00186 -26.34375,19.4375 1.090189,-0.83948 2.151692,-1.83036 3.15625,-2.96875 3.3199,-3.7622 6.22205,-9.07194 8.65625,-15.59375 0.459672,-1.23157 0.887492,-2.52845 1.3125,-3.84375 z"
       class="borders" />
    <path
       d="m 214.53125,-0.16034061 c 4.98335,14.50756661 5.99646,31.93391461 5.68842,42.60034661 -0.88053,-2.889808 -1.77904,-3.531789 -4.52329,-8.3914 -1.70666,5.171663 -2.80971,12.372876 -3.27496,15.749395 -6.1594,-5.382833 -8.7409,-8.174499 -15.34559,-13.040449 -5.5452,-4.613729 -13.95401,-8.714083 -20.29718,-11.825825 0.94053,5.624968 1.12161,7.236678 2.3099,11.147524 -15.13596,-8.666977 -30.91785,-14.424738 -47.03386,-17.259961 17.82345,21.849361 24.1451,29.295888 32.60156,49.614119 -5.32971,-3.096246 -7.92558,-4.131843 -14.34375,-6.3125 18.68614,34.99233 26.41217,56.392751 33.46875,86.625001 -2.42472,8.49357 -2.91716,18.39957 -0.0312,26.03125 0.98489,3.73544 2.33417,6.79279 3.5,9.21875 1.16583,2.42596 1.23193,4.4256 1.375,5.28125 0.40606,2.4285 0.49333,5.48396 0.1875,8.71875 -0.30583,3.23479 -1.69093,5.20082 -4.78125,7.4375 -6.80968,4.92864 -10.69874,11.29392 -10.71875,17.90625 -0.0119,3.91691 2.79885,8.83186 4.875,12.8125 1.46836,2.86397 0.0649,1.1242 4.23575,8.66069 4.1709,7.53649 14.22731,21.83374 21.59467,30.85172 7.36737,9.01797 17.16907,18.45644 26.69195,25.53845 -0.15734,3.13131 1.49568,6.05052 2.47763,9.13664 0.53671,1.68681 0.68799,1.89925 1.125,3 -0.56833,-0.38794 -1.16709,-0.80823 -1.75,-1.21875 -0.0168,-0.0118 -0.0145,-0.0506 -0.0312,-0.0625 l -0.0312,0 c -7.23034,-5.09852 -15.43005,-11.74312 -24.375,-20.90625 6.23124,10.84309 17.97022,20.3299 21.625,23.90625 3.65478,3.57635 5.29097,6.3886 6.0625,10.5625 -1.71799,-0.82633 -2.84322,-1.51275 -6.40625,-3.75 -5.30985,-3.33409 -11.18576,-8.48024 -14.28125,-13.71875 0.46895,3.73163 11.16254,13.54637 13.40625,14.96875 3.70396,2.33329 8.98087,5.37328 13.09191,6.83211 -0.5175,-2.30366 -1.30209,-4.26146 -1.71875,-5.71431 -0.41666,-1.45286 -1.21636,-3.16705 -1.87316,-4.3678 5.55189,4.14062 9.93781,10.49072 11.46875,17 -11.46837,-1.74626 -23.03547,-10.85375 -37.90625,-23.4375 15.04642,17.95843 31.86447,28.59375 47.53125,28.59375 -2.0404,-7.29627 -7.74114,-13.31634 -7.3125,-13.65625 0.42864,-0.33991 2.40964,1.85838 4.875,5.0625 2.46536,3.20412 25.93552,36.50704 39.09375,56.1875 -1.22036,3.6603 -5.08057,5.19471 -6.71875,3.40625 -1.63818,-1.78846 -15.71598,-19.37022 -31.46875,-46.5 0,0 -0.44217,-0.11733 -1.0939,0.16032 -0.65174,0.27764 -0.62485,0.83968 -0.62485,0.83968 15.44421,26.59836 28.58143,43.6297 28.6875,45.46875 0.10607,1.83905 -4.29414,3.26697 -5.59375,2.25 -1.29961,-1.01697 -30.1679,-41.45167 -41.75,-57.15625 4.07452,10.99064 36.51914,55.92037 37.125,57.5625 0.60585,1.64212 -3.33212,1.28885 -5.1875,0.78125 -1.85538,-0.50759 -3.55086,-2.32058 -5.625,-4.96875 -11.25399,-13.69806 -23.7192,-29.73411 -32.90625,-42.03125 -5.72476,-7.55045 -23.09363,-31.9142 -34.25,-44.78125 8.10738,14.73863 9.99059,16.44343 15.3125,27.25 -3.82633,-3.39839 -16.64274,-17.97899 -18.78125,-20.6875 1.69764,5.0837 4.04083,7.30726 6.34375,12.3125 -3.19754,-2.94757 -7.58964,-8.72825 -12.125,-12.625 7.3497,11.44483 8.4269,13.14062 14.65625,20.125 -10.18902,-6.48134 -15.78582,-8.47639 -28.8125,-26.03125 3.73516,10.64991 12.65227,20.08686 42.71875,43.28125 -0.42428,0.83988 0.86218,13.40529 0.96875,19.28125 -0.0192,1.78217 -3.9375,5.5 -3.9375,5.5 -0.76096,-7.04256 -2.1269,-13.48405 -5.75,-19.78125 2.30162,8.50954 2.24662,13.58738 1.59375,22.875 -1.93524,2.09701 -3.04455,2.46441 -4.84375,4.28125 -2.82853,-8.97404 -3.92976,-18.34433 -9.78125,-25.125 1.95751,7.00424 5.18723,14.58269 3.15625,21.4375 -3.75107,-4.74936 -8.89233,-11.47153 -15.125,-13.46875 1.26353,2.17214 3.64047,4.2461 4.375,6.40625 -2.85673,4.5058 -2.62234,5.87207 -4.5625,10.09375 -7.01038,-27.74323 -17.99565,-45.37778 -22.71875,-86.46875 -0.38543,6.05591 -0.17904,11.86217 -0.40625,14.71875 -10.33438,-8.14624 -25.70383,-29.01656 -32.09375,-44.3125 -7.24356,-17.73143 -9.84855,-37.71814 -5.375,-65.28125 0.051,0.0492 -2.48287,-0.30308 -2.75,-0.375 -4.51173,27.79833 -2.71265,48.29149 4.6875,66.40625 5.90341,14.45089 13.32513,28.55125 25.875,42.46875 -3.20882,8.67035 -9.39596,16.07383 -17.125,21.125 -1.2436,15.83873 -2.40414,31.68731 -3.59375,47.53125 l -0.0625,1 1.03125,0.0625 c 0,0 24.67415,4.84054 41.96875,-16.84375 3.4308,10.44929 7.53849,19.12999 10.21875,30.84375 l 1.90625,-3.34375 c -0.0281,0.24978 -0.002,1.27926 -0.0312,1.53125 -1.01361,8.85804 -2.55657,19.06109 -4.40625,23.9375 -0.20051,0.52861 -0.45883,0.97424 -0.78125,1.375 -4.05442,0.21483 -8.90656,-2.82757 -13.375,-6.4375 -4.49016,-3.62747 -8.46303,-7.6766 -11.625,-9.1875 -0.61697,-0.29481 -1.05888,-0.13034 -1.46875,0.0312 -0.12206,0.0481 -0.25236,0.15625 -0.375,0.21875 -17.3705,-0.39181 -27.28125,19.15625 -27.28125,19.15625 3.00906,-0.48432 11.92969,-4.93083 14.8125,-5.875 -0.009,0.0218 -0.023,0.0403 -0.0312,0.0625 -15.49017,10.15633 -16.2815,28.0938 -16.2815,28.0938 3.10931,-1.72337 9.07217,-8.47179 9.75,-8.78125 0.67783,-0.30947 1.15292,-0.76304 1.71875,-0.59375 0.56582,0.1693 0.71425,0.0698 0.5,0.53125 -2.83489,4.19136 -2.76394,4.62946 -4.875,8.59375 -1.57878,2.60783 -2.25649,5.43643 -2.5,8.40625 3.13342,-1.81101 6.27985,-3.43704 8.96875,-4.5625 1.98514,-0.82066 4.12309,-1.55345 6.03125,-1.9375 1.78425,-0.35911 3.28724,-0.33003 4.28125,0.0312 1.45811,2.62179 4.8541,4.16182 6.8125,3.90625 3.13285,-0.49561 6.55614,-2.06332 11.4375,-5.28125 0.81275,-0.54775 5.86565,-2.47126 7,-3.25 2.06584,-0.90209 6.33826,-0.65954 11.0625,-2.09375 4.72424,-1.43421 7.78246,-0.85749 13.84375,3.15625 2.54118,1.29891 5.61481,2.90903 7.15625,2.9375 1.54144,0.0285 5.11755,-0.96817 7.75,-1.03125 2.63245,-0.0631 7.7025,1.85761 10.5625,5.1875 2.26221,2.6989 2.15625,4.0625 2.15625,4.0625 3.08939,-3.34537 3.70517,-10.03576 3.53125,-11.96875 -0.34045,-3.30725 -1.29924,-6.78426 -3.46875,-9.71875 -2.08542,-2.82074 -4.35116,-5.58471 -9,-6.625 -1.58353,-1.557 -2.36521,-2.41043 -3.9375,-3 -3.91952,-1.23122 -8.33394,-1.0598 -12.09375,-1.25 -2.79905,-0.45475 -3.73884,-0.55371 -3.46875,-3.09375 0.89076,-6.12794 2.09915,-12.77967 3.28125,-18.53125 1.50974,-7.28895 0.98103,-11.57019 1.6875,-14.8125 0.48205,2.29801 3.58339,10.55245 3.90625,12.8125 0.47397,-5.53561 16.48955,-23.29965 16.9375,-25.53125 0.44795,-2.2316 0.74319,-15.13126 0.90625,-17.96875 1.54402,-0.33421 3.00896,0.71182 4.4375,1.78125 11.23153,18.05111 23.70437,33.5238 36.5,49 4.41839,4.89879 8.32456,6.59021 12.03125,6.78125 7.70136,-0.52352 15.35484,-1.91918 22.1875,-4.9375 2.85183,-1.27522 4.69024,-3.8437 4.875,-5.75 0.18476,-1.9063 0.52079,-3.3822 -0.46875,-5.25 -0.98954,-1.8678 -3.06709,-4.90048 -4.375,-6.9375 -13.60781,-18.64983 -27.54604,-38.31503 -39.96875,-56.75 0.717,0.31774 1.46381,0.51891 2.21875,0.71875 l 0.15625,-1.125 c 0,0 0.40277,-4.63422 -1.875,-10.625 2.05827,1.60019 8.44653,5.89159 11.68956,6.873 0.34425,-5.31104 -2.32987,-11.53619 -2.87467,-15.33264 10.44424,4.28354 19.00069,5.26274 22.26793,4.543 -1.36374,-6.69146 -4.3615,-13.64994 -6.05346,-17.78201 -1.69196,-4.13208 -2.33864,-5.74955 -4.29864,-8.34023 8.71726,3.70261 17.21062,2.88182 26.53072,1.74405 -2.20678,-6.73246 -6.10593,-12.30244 -9.54274,-17.86152 -1.29774,-2.06362 -2.87095,-4.28048 -4.65625,-6.5625 13.76823,0.89928 25.66361,-0.54531 31.64277,-9.66866 -9.1178,-10.28734 -12.59577,-13.26396 -22.71003,-19.57077 10.70271,-1.86007 25.93989,-4.28462 31.22351,-14.01057 -2.15847,-3.56523 -8.95885,-10.65724 -17,-15.5 6.84785,-3.28342 28.29608,-16.98383 29.40358,-27.21341 -3.04815,-4.45063 -10.54961,-7.83823 -19.37957,-8.00839 20.27474,-20.47809 17.60679,-45.6859 14.07799,-57.98358 -6.48159,6.46768 -10.23173,9.09607 -15.48349,13.75375 6.89859,-10.81393 4.82769,-47.938701 0.83385,-53.937091 -2.93676,5.76997 -4.90888,9.35164 -7.71055,13.4958 0.79786,-13.870847 -2.42603,-26.963534 -8.78373,-38.991607 -2.362,7.079843 -6.68877,12.370631 -9.11928,17.339554 -1.28234,-14.888741 -7.97158,-28.739402 -15.88342,-38.559779 -2.04093,10.418433 -2.75207,12.460326 -4.08038,22.104752 -6.7157,-17.611952 -14.19844,-27.400043 -28.875,-38.5624996 -0.16572,10.4825396 0.3574,16.6656736 -0.375,25.4062496 -4.48209,-17.690625 -18.14581,-28.6770266 -34.4687,-34.24984961 z m 4.15625,3.81250001 c 5.55378,2.34585 30.4382,19.0754776 28.92494,38.7339146 -1.51326,19.658437 -1.42895,23.537914 -6.22856,39.240355 -3.72349,2.57781 -5.32044,4.22789 -9.00812,8 -0.46286,-12.65134 -1.98766,-25.711357 -7.46431,-31.84743 0.5596,-17.829452 0.56652,-37.462903 -6.22395,-54.1268396 z M 255.25,19.058409 c 3.52376,5.00457 23.23759,25.123434 16.4375,44.375 -6.80009,19.25157 -10.63522,24.6804 -19.45895,41.311581 -2.29663,1.88151 -3.33925,1.77843 -6.16605,3.62592 -0.22543,-8.846741 0.11286,-18.773721 -1.90625,-25.781251 1.48004,-8.623864 2.51879,-10.717139 5.08814,-23.585498 2.13741,-10.705088 6.73653,-32.004524 6.00561,-39.945752 z m -109.5573,8.106155 c 24.33489,5.90504 31.77281,11.775585 39.15105,24.987595 7.70033,13.78877 10.72364,24.65114 15.53125,49.406251 -3.12953,10.4703 -4.90899,17.08598 -8.03125,23.71875 C 176.75578,73.98032 166.53574,54.3069 145.6927,27.164564 z m 35.2448,3.393845 c 2.16903,1.1146 7.28086,3.82601 13.625,8.5 7.81746,5.75944 14.58391,13.64124 15.8197,21.625 -2.761,19.51581 -5.56044,24.56849 -8.5697,35.5 -1.62478,-24.342616 -12.30474,-37.605056 -18.4062,-56.34375 -0.93184,-3.134752 -1.87293,-6.366185 -2.4688,-9.28125 z m 102.534,1.672753 c 9.59123,14.865184 12.53705,35.399961 5.4942,48.776947 -7.04285,13.37699 -12.81521,26.259451 -24.92965,41.642291 -0.688,0.199 -3.55969,1.94444 -10.92085,6.54726 3.26412,-8.52921 5.37654,-16.79113 5.66605,-25.1705 -1.27376,-0.0476 -1.74568,0.25482 -3.09375,0.75 11.81366,-23.055001 26.54768,-47.476637 27.784,-72.545998 z m -67.0965,8.702247 c 6.79615,23.530062 0.0161,50.29761 -5.46875,69.125001 -3.84077,13.0233 -9.28941,28.76556 -14.0625,43.96875 -5.19497,16.54697 2.58867,23.99826 4.5,31.84375 1.91133,7.84549 0.5768,20.67921 -4.34375,24.96875 -4.92055,4.28954 -9.66108,5.55768 -12.03125,9.5625 -1.74845,3.10835 -2.11717,6.81237 -2.15625,11.5 -0.0267,3.2047 -0.10749,4.21891 -0.28125,5.71875 -2.38206,-4.57169 -5.34265,-8.0448 -5.41789,-14.3223 -0.0752,-6.2775 4.24537,-8.95606 10.85539,-13.7402 3.61952,-2.6197 5.00371,-7.65335 5.34375,-11.25 0.24039,-9.36111 -4.0125,-16.46772 -6.15625,-24.0625 -1.87371,-7.10651 -2.00369,-16.22703 3.65625,-28.53125 7.88409,-17.13933 16.29443,-31.08387 23.875,-84.718751 0.73236,-6.256989 0.99422,-14.353864 1.6875,-20.0625 z m 89.75,14.663492 c 2.51414,5.50677 9.54504,23.266378 -1.11433,48.642149 -7.36053,13.1253 -18.57852,26.23033 -33.72523,40.51753 -2.80786,0.17748 -4.58842,0.61337 -7.20503,0.99105 2.26688,-6.77833 4.30117,-15.94755 4.13453,-23.33366 C 283.2557,102.23143 291.6146,85.392809 306.125,55.596901 z m -83.09559,12.784416 c 3.03308,6.827252 5.94142,12.554362 5.6152,23.479022 -4.32622,4.29966 -7.72687,7.74182 -14.43138,17.739601 4.77664,-15.016931 7.12657,-29.707631 8.81618,-41.218623 z m -65.68566,1.333342 c 6.70622,2.688961 15.75182,10.73508 24.22238,36.822301 5.43734,16.17493 8.44111,25.24613 8.49632,25.77145 -1.65893,3.24632 -2.80943,4.76212 -3.6875,8.59375 -6.23214,-25.98042 -24.03571,-63.311481 -29.0312,-71.187501 z m 164.88567,12.78163 c 4.08718,6.35447 3.47246,42.097581 -8.69834,52.416271 -17.12224,14.51663 -25.97733,19.75136 -42.7632,31.66572 -3.48244,0.35409 -6.61877,0.21397 -8.93499,0.0586 2.03743,-3.04778 9.51274,-14.96976 10.48854,-17.03585 0.9758,-2.06609 1.22963,-3.76621 2.43423,-4.69119 7.15261,-5.4923 26.23261,-25.93543 33.49434,-38.94522 5.35755,-8.353201 10.19874,-16.866911 13.97942,-23.468331 z m -82.08205,7.48874 c 1.59237,6.19691 5.84777,18.045801 -4.7454,27.490191 -10.59318,9.4444 -18.18706,18.66852 -25.23413,30.5092 -1.90155,-2.74386 -4.60137,-2.20945 -7.09651,-2.15272 2.19443,-6.99781 3.53922,-12.92607 5.58487,-19.58579 9.22466,-16.44391 20.31545,-31.881361 31.49117,-36.260881 z m 14.29013,20.229631 c -0.86838,4.2463 -1.63914,13.62528 -5.92678,21.4349 -8.80032,5.9999 -20.62047,17.2235 -33.29197,32.1901 -0.10616,-1.23364 0.84345,-2.5317 0.59375,-4.40625 -0.83774,-2.69202 -2.29058,-4.20922 -3.5625,-5.46875 13.47305,-23.90042 23.62369,-32.36627 31.8125,-37.75 3.64948,-2.13636 6.36838,-3.9338 10.375,-6 z m 56.48999,61.79875 c -10.92783,0.62768 -29.59741,4.06089 -43.05761,9.25687 1.72247,-3.09215 5.42274,-10.08886 7.2518,-14.03722 7.34469,-3.27573 49.39849,-36.82006 59.9337,-46.83469 -0.64615,24.38391 -6.18312,39.89806 -24.12789,51.61504 z m -47.8427,-41.7311 c 0.54411,7.1808 -1.95121,14.51807 -6.32355,18.18769 -9.69148,3.28089 -22.31335,11.05984 -37.69874,24.90091 0.10583,-1.32676 0.098,-2.56541 -0.1875,-3.65625 -0.27047,-1.03337 -0.78945,-1.94716 -1.46875,-2.71875 12.53007,-16.65954 24.25521,-24.06345 32.91578,-29.91273 4.18723,-3.07541 9.70976,-6.66594 12.76276,-6.80087 z m -55.44815,19.70288 c 1.28775,0.85224 1.93242,1.04412 0.81603,3.03087 -2.37698,0.6827 -4.89122,0.93734 -6.17602,1.5183 -0.44336,-1.82469 -0.79219,-3.92529 1.0072,-4.68674 1.97039,-0.77933 3.06505,-0.71467 4.35279,0.13757 z m 60.67643,-0.66039 c -4.71555,9.11969 -10.87668,16.77532 -16.41507,19.56636 -7.09161,3.57378 -17.23213,4.34577 -29.77281,11.94831 0.033,-1.95317 -0.72379,-2.59983 -2.0625,-3.75099 24.35985,-22.61995 45.68038,-27.33357 48.25038,-27.76368 z m -57.05235,8.21124 c 3.47472,0.83969 3.17953,3.66739 0.77053,4.99112 -2.409,1.32373 -8.32456,1.12444 -11.07767,1.56786 0.0728,-2.04794 -2.10279,-4.17562 1.31602,-5.77589 3.41881,-1.60026 5.5164,-1.62278 8.99112,-0.78309 z m 2.64553,10.61612 c 5.0878,2.69319 4.19278,3.20861 1.68755,6.59375 -3.75,-1.54495 -6.75868,-2.22167 -14.28125,-1.375 -0.77199,-2.15648 -1.75616,-3.25433 0.15625,-5.3125 3.1581,-1.74136 9.3664,-1.40685 12.43745,0.0937 z m 53.47662,5.27888 c -4.17249,8.63469 -8.9663,13.55196 -13.99037,17.07136 -8.14417,-2.72182 -17.20834,-4.29493 -32.80001,-4.91323 12.34681,-6.44643 34.31359,-14.91268 46.79038,-12.15813 z m 70.18459,6.83125 c -3.50965,5.64138 -24.37004,23.34302 -34.06898,21.72562 -12.99055,-2.81016 -24.01896,-3.405 -30.63402,-3.1445 -5.20285,-3.72913 -9.46263,-5.70674 -13.73641,-6.68589 2.65419,-3.04588 3.56105,-4.63523 6.55145,-7.0324 18.97093,-6.09398 40.85765,-9.96294 51.83118,-9.25903 10.97352,0.70392 14.54314,0.98449 20.05678,4.3962 z M 214.375,177.55836 c 5.64842,1.35595 6.52143,5.71225 1.59375,8.3125 -2.72969,-1.99524 -4.25769,-3.00352 -11.17586,-4.84375 -0.64473,-1.464 -1.09674,-2.9117 -1.73039,-4.4375 2.93592,-0.23283 5.66408,-0.3872 11.3125,0.96875 z m -8.87224,8.14205 c 7.02804,2.73672 11.00638,6.65224 11.90349,9.95175 -2.68391,2.31692 -5.91568,0.13715 -11.59451,-3.19102 0.2018,-2.29622 0.3744,-3.35925 -0.30898,-6.76073 z m 51.60436,10.99675 c 7.77036,3.20179 10.8136,6.27418 11.14612,6.5961 -4.43836,2.65182 -7.89887,6.74525 -15.71278,4.47231 -7.81391,-2.27295 -18.28862,-8.27981 -31.44666,-10.70716 0.6847,-2.66934 1.61487,-3.86177 0.125,-6.3125 11.77188,-1.48167 24.99757,1.16273 35.88832,5.95125 z m -51.05978,0.43984 c 4.05073,2.02717 10.42642,7.66218 9.51516,11.70266 -4.94668,1.01585 -6.83225,0.33737 -10.8125,-3.84375 0.71996,-3.03802 1.09981,-6.13919 1.29734,-7.85891 z m 55.03324,24.25536 c -5.31843,0.20547 -8.41776,-0.56183 -13.0118,-0.89277 -7.55981,-6.76691 -12.5273,-10.40933 -25.01615,-17.12619 8.43696,0.51838 16.21677,3.47859 22.73323,6.98145 7.93632,4.26608 13.23532,9.34432 15.29472,11.03751 z m 66.63817,-0.7715 c -0.59844,0.73248 -4.19464,2.76575 -9.125,5.125 -5.86658,2.80725 -18.61462,5.50721 -29.87576,1.68934 -11.26114,-3.81787 -20.54852,-8.21256 -28.40549,-15.00184 7.23483,-2.20457 8.75547,-4.78419 13.80288,-8.04971 2.97722,-1.92617 4.60147,-2.34183 7.19351,-2.451 2.59203,-0.10918 11.19582,0.91338 22.47073,5.15826 6.92448,2.60699 17.05236,7.00163 23.93913,13.52995 z m -66.82364,21.98351 c -5.86493,0.3112 -16.21556,-0.75625 -17.61381,-2.04601 -1.39825,-1.28976 -17.40792,-20.40748 -25,-26.71875 1.21344,-1.14262 2.64045,-2.34443 3.3125,-4.125 5.9884,1.6123 15.7683,7.35534 22.31143,13.43942 8.77181,8.1564 15.20315,14.69474 16.98988,19.45034 z m -57.58889,-34.87991 c 5.62689,4.59986 6.90448,9.823 7.31878,14.45895 -1.4607,1.51095 -4.18254,0.70238 -6.37278,-0.4902 -1.17472,-3.83816 -1.81873,-5.47081 -3.93972,-8.3848 1.27437,-2.02918 2.45349,-3.50476 2.99372,-5.58395 z m -4.57767,7.72542 c 1.62671,3.14413 3.07672,8.59285 2.8652,13.20228 -1.83652,0.23443 -3.11295,-0.46944 -6.4375,-1.125 0.57333,-3.70711 -0.28464,-5.66759 -2.09375,-8.625 2.56427,-1.04608 3.95967,-2.24474 5.66605,-3.45228 z m 16.52145,1.63978 c 15.79598,12.97493 22.96344,22.71267 28.21523,30.65089 4.44873,6.72437 6.75462,10.89789 5.44914,10.85539 -8.70769,-0.28351 -9.75319,-3.22719 -15.75261,-10.73804 -5.99941,-7.51085 -9.17613,-15.00071 -19.16636,-24.29857 1.10157,-1.21986 1.10948,-1.41959 1.0671,-3.15717 -0.0235,-0.96497 -0.90203,-2.05242 -1.25,-3.09375 0.3157,-0.17266 0.81967,-0.38885 1.4375,-0.21875 z m -24.84375,5.46875 c 2.3333,6.13548 -0.70609,11.51512 -3.09375,13.15625 -0.44986,-3.85056 -0.64042,-7.26642 3.09375,-13.15625 z m 126.06082,32.43934 c -2.07448,4.12334 -23.40354,6.7323 -29.63925,2.39292 -6.31641,-4.33308 -12.33628,-11.16826 -16.24733,-12.72024 -3.91105,-1.55198 -11.1574,-12.79046 -16.67424,-19.23702 7.97251,-0.0392 13.84467,-0.63814 18.51739,0.31472 20.9769,4.93856 44.0734,22.59416 44.04343,29.24962 z M 210.28125,227.02716 c 17.75191,16.18993 31.15613,41.55842 28.875,44.6875 -4.15734,-1.0865 -13.55044,-3.74656 -16.0625,-9.15625 -2.51206,-5.40969 -14.11961,-24.88656 -18.71875,-30.15625 1.27637,-3.5696 2.66785,-4.88155 5.90625,-5.375 z m -9.91881,7.41422 c 5.79625,8.45224 10.35961,13.47664 14.04487,20.42628 5.5057,10.38262 10.92131,22.14732 11.70084,32.04262 -7.30057,-1.71416 -25.57222,-19.60176 -35.60847,-39.0334 -0.78144,-2.72498 -2.91871,-8.52241 -1.78093,-9.31847 1.72306,-1.04966 3.42621,-1.84934 4.65625,-3.9303 0.0607,-0.10274 0.0668,-0.23873 0.125,-0.34375 2.20206,0.45554 5.19692,0.5342 6.86244,0.15702 z m 69.90441,13.81249 c 2.85784,1.73618 14.40625,12.85911 20.1394,20.49204 5.73315,7.63293 7.29997,12.23832 8.29474,15.18934 -2.70565,0.0665 -15.55892,3.40893 -24.86575,-5.62354 -18.79322,-16.67423 -21.6268,-24.34536 -25.89769,-31.84705 9.95963,0.27648 19.47146,0.053 22.3293,1.78921 z m -29.0481,12.49204 c 2.84671,1.45585 5.039,2.59472 8.01834,3.0773 2.7288,0.442 4.08272,0.004 6.51291,1.26645 2.43019,1.26252 19.17664,23.44497 23.10409,31.96339 1.57238,3.82811 2.97492,5.55483 3.81472,9.82154 -6.80823,-1.69396 -15.29593,-4.10428 -17.31579,-5.59054 -2.01985,-1.48627 -4.79205,-8.06 -6.40296,-11.27726 -1.61091,-3.21726 -4.24113,-9.0091 -9.30729,-15.43674 -5.06616,-6.42764 -5.75566,-8.54242 -8.42402,-13.82414 z m -14.19394,10.12484 c 5.17405,2.51798 11.75066,4.15999 17.41293,5.10407 0.53352,-0.43189 0.44792,-1.92232 0.85147,-1.96554 0.40355,-0.0432 5.81642,8.7214 8.89849,14.25758 3.08207,5.53618 5.61812,12.27809 6.52569,16.26219 -8.55202,-3.52382 -19.66201,-10.54029 -21.98042,-12.61011 -2.31841,-2.06981 -6.53625,-6.55957 -7.57627,-9.14221 -1.9091,-4.74079 -2.01519,-7.46116 -4.13189,-11.90598 z m -9.24356,16.18766 c 1.86726,0.73241 9.27876,5.55862 14.15625,7.84375 l 0,-3.71875 c 2.18498,2.68455 4.57147,6.32903 4.78125,8.9375 -7.38326,-4.30317 -16.33549,-10.75 -18.9375,-13.0625 z m 20.09597,9.97671 c 1.98882,1.05077 3.63535,1.58448 4.53753,2.40051 0.95544,1.33857 1.28489,4.40691 1.16177,6.56174 -1.4514,-0.76514 -2.06214,-1.1589 -3.39363,-2.59051 -1.29451,-2.22869 -2.12854,-4.68086 -2.30567,-6.37174 z m 7.98928,4.28217 c 2.37382,1.44372 3.29615,1.99314 5.20987,3.0969 0.94145,1.63409 1.55975,2.73186 2.59428,5.53546 -2.21132,-0.62342 -3.32012,-1.33289 -4.88718,-3.18007 -1.56705,-1.84718 -2.24497,-3.25568 -2.91697,-5.45229 z m -12.2415,0.61612 c 2.3811,1.71063 4.74596,3.34168 7.03125,4.8125 1.21444,6.28149 1.49294,7.58641 4.125,10.96875 -3.75136,-1.36607 -5.42748,-2.27777 -7.40625,-3.9375 -2.45337,-3.21748 -3.48611,-7.30593 -3.75,-11.84375 z m 20.25,3.90625 c 2.13897,0.73933 4.04908,2.02897 4.80806,2.93122 0.75898,0.90225 1.60656,3.32462 1.44194,5.85003 -2.69604,-2.29576 -5.04925,-5.58665 -6.25,-8.78125 z m -9.8125,4.40625 c 4.97749,2.80567 7.02569,4.07125 10.28125,6.1875 2.16288,4.51518 3.07778,5.84657 3,7.28125 -0.86155,-0.24977 -3.30971,-1.85486 -5.375,-3.03125 -2.06529,-1.17639 -4.8183,-2.98949 -7.90625,-10.4375 z m -91.84375,0.375 c 3.7246,2.35372 4.80311,3.75192 7.4375,6.375 2.81552,14.42261 6.29801,25.66596 9.84375,36.53125 -8.88172,8.58012 -18.29574,13.70443 -20.4375,9.0625 -0.76676,-1.26693 5.86849,-4.17812 9.34375,-10.40625 -4.75149,5.26311 -8.42497,6.42967 -12.9375,9.75 -0.81971,-0.23451 -1.9841,-1.53987 -3.96875,-2.53125 0,0 10.71631,-4.75947 13.0625,-8.40625 -5.16163,2.22788 -14.83172,6.22951 -15.09375,5.71875 -0.32399,-0.63154 -0.69368,-1.41256 -1.09375,-2.375 -0.40007,-0.96244 -3.625,-23.6875 -3.625,-23.6875 1.18516,-0.7332 12.67735,-7.23625 17.46875,-20.03125 z M 189,374.21466 c 2.50187,2.19142 4.71617,7.39806 7.4375,12.75 -1.11892,10.38828 -4.84138,27.27677 -4.6875,29.46875 0.15388,2.19198 1.37824,1.99944 2.5,2.53125 6.41574,1.58694 13.6765,0.3348 17.75,2.90625 0.45884,0.24451 0.78397,1.47263 -0.28125,3.71875 -1.06522,2.24612 -2.544,6.23121 -3.21875,8.375 -0.67475,2.14379 -2.77323,2.27319 -4.03125,2.25 -1.25802,-0.0232 -2.65572,-0.0794 -5.625,-1.625 -2.96928,-1.54559 -3.7883,-3.81596 -6.84375,-5.375 -2.63666,-1.31187 -3.82594,-1.92262 -6.625,-2.0625 l 0.9375,1.59375 c 0.33822,0.58249 0.41213,0.96627 0.40625,1.15625 -0.006,0.18998 -0.0432,0.25909 -0.1875,0.40625 -0.28856,0.29433 -1.09479,0.62552 -1.90625,1.03125 -0.41642,0.20821 -1.78328,0.53882 -3.4375,0.0937 -1.63316,-0.43935 -5.03658,-3.20257 -7.0625,-4.28125 0.31637,1.57297 0.83487,2.98199 0.1875,3.4375 -0.64737,0.45551 -7.66351,2.19683 -10.0625,3.84375 -1.2243,0.84097 -3.15131,2.50142 -3.625,2.46875 -0.47369,-0.0327 -0.69255,-1.91029 -1.3125,-3.28125 -0.93244,1.31653 0.33776,4.53863 -2.125,6.71875 -0.93959,0.81116 -2.39725,1.40773 -3.875,1.6875 -1.47775,0.27977 -3.00159,0.25568 -3.96875,-0.0312 -0.48358,-0.14349 -0.76304,-0.36749 -0.9375,-0.5 -0.70347,-0.53434 -1.05944,-1.05572 -1.03125,-1.28125 0.73284,-6.60917 1.07587,-10.48304 -2.90625,-14.375 0.0392,-0.0313 0.15569,-0.73106 0.75,-1.125 0.59432,-0.39395 1.12119,-0.61296 1.875,-0.8125 1.46168,-0.38691 2.96684,-0.58099 3.0625,-0.59375 6.50945,0.91242 10.76215,0.74335 13.375,0.3125 1.32149,-0.21791 2.23656,-0.50601 2.84375,-0.75 0.41261,-0.1658 0.50514,-0.25053 0.65625,-0.34375 0.0713,-0.044 0.3125,-0.15625 0.3125,-0.15625 l -0.65625,-0.5 c -5.42964,1.25693 -11.61641,0.45346 -14.625,-1.0625 -3.0086,-1.51595 -5.88801,-2.51766 -9.25,0.0937 -0.12165,-1.87096 -1.00469,-3.49174 -1.5,-5.1875 -0.38865,-1.30127 -0.78125,-2.16156 -0.78125,-2.9375 0.0202,-0.0226 0.12119,-0.11301 0.3125,-0.1875 0.38261,-0.14897 1.1111,-0.2358 1.90625,-0.25 1.59029,-0.0284 3.54355,0.24644 4.46875,0.46875 0.55003,0.13216 2.85172,0.97432 5.75,1.9375 2.89828,0.96318 6.51548,2.07603 10.1875,2.84375 3.67202,0.76772 7.38606,1.19655 10.5625,0.75 3.17644,-0.44655 5.94165,-1.88877 7.0625,-4.84375 2.03941,-5.37664 3.51192,-15.52949 4.53125,-24.4375 1.19126,-5.93121 1.91504,-12.23571 3.6875,-14.84375 z m 109.1875,16.5 c 1.27467,1.90765 2.95134,3.97535 0.78125,6 -2.1701,2.02464 -19.76469,6.19978 -24.75,5.53125 -4.98531,-0.66853 -7.29089,-1.79962 -8.65625,-3.4375 -0.27076,-0.3248 -0.70238,-0.88481 -1,-1.25 5.01803,2.24798 9.1715,2.67796 14.78125,1.34375 5.60975,-1.33422 11.75606,-1.82488 15.53125,-4.15625 1.92914,-1.19134 2.82497,-2.69298 3.3125,-4.03125 z m -145.78125,9.71875 c 2.43369,1.21629 6.55848,5.17983 11.09375,8.84375 3.64443,2.94423 7.62656,5.655 11.65625,6.53125 -0.57461,0.18328 -1.03062,0.46576 -1.71875,0.5625 -2.77512,0.39013 -6.32376,-0.008 -9.875,-0.75 -3.55124,-0.74247 -7.1074,-1.83035 -9.96875,-2.78125 -2.78414,-0.92524 -4.71263,-1.64154 -5.75,-1.90625 -0.74969,-3.05337 0.16758,-5.73996 1.53125,-7.6875 0.72226,-1.03151 1.55308,-1.85502 2.21875,-2.34375 0.33284,-0.24437 0.63724,-0.39963 0.8125,-0.46875 z m -3.6875,0.625 c -0.33132,0.37178 -0.65644,0.58523 -0.96875,1.03125 -1.16356,1.66175 -2.0644,3.87953 -2.15625,6.375 -8.37943,1.19772 -14.14584,4.11825 -17.75,6.25 3.51522,-4.76679 10.79818,-12.62657 20.875,-13.65625 z m -2.96875,9.40625 c 0.009,0.062 0.0206,0.12519 0.0312,0.1875 -0.20547,-0.0302 -0.4067,-0.0365 -0.625,-0.0625 0.20592,-0.0336 0.38632,-0.0946 0.59375,-0.125 z m -6.78125,4.03125 c 0.17435,0.5857 0.26296,1.22812 0.4375,1.8125 0.63215,2.57136 0.22118,4.07179 0.0937,6.625 -7.84532,5.22756 -12.2666,9.48685 -14.84375,12.96875 1.32554,-5.36059 4.83331,-14.71993 14.3125,-21.40625 z m 76,10 c 4.11835,0.96346 5.84428,2.0914 7.625,4.5 3.51114,5.25297 4.25357,9.47794 2.625,14.65625 -3.28184,-6.83799 -11.31468,-7.10731 -12.28125,-8.875 -0.96657,-1.76769 1.12255,-6.66801 2.03125,-10.28125 z m -71.25,1.8125 c 2.82182,4.67297 1.79577,7.02941 1.3125,12.4375 -1.05499,0.60761 -1.68241,0.82188 -3.34375,1.15625 -2.10936,0.42454 -4.31594,1.21128 -6.375,2.0625 -3.02546,1.25073 -4.36583,2.05852 -5.5625,2.71875 0.30195,-0.94653 0.74195,-2.12301 1.625,-3.78125 1.90034,-3.56857 5.57236,-8.62882 12.34375,-14.59375 z"
       class="borders" />
    <path
       d="M 52.55178,285.84854 C 13.484127,294.15705 3,340.15216 3,340.15216 c 2,3 5.25,7.5 8.5,7.5 3.25,0 8.75,-1.75 8.75,0.25 0,2 0.44495,2.67508 -2.75,8 -1.5,2.5 2.625,3.625 4.25,4.25 2.00723,0.77201 4.125,1 5.125,2 1,1 1.375,4.5 0.625,7 -0.75,2.5 5.75,1 6.25,2.5 0.5,1.5 -0.81565,6.57888 -7.875,9.25 -2.24883,0.85091 2.625,3.75 1.625,6.75 -1,3 -4.89277,9.88388 -8.142767,13.13388 14.051117,12.80664 26.566917,25.84398 54.215987,24.89093 -0.003,-0.61063 0.14808,-6.78294 -0.0732,-8.77481 -0.25,-2.25 1.75,-7 3,-8.5 1.25,-1.5 6,-3 9.5,-3.25 3.5,-0.25 5.25,-4.25 4.5,-6.25 -0.75,-2 -2.75,-3.75 -4.75,-4.25 -2,-0.5 -6,0 -7.5,0 -1.5,0 -2.5,-3.25 -4.75,-3.75 -1.72567,-0.38348 -4.5,0.5 -6.5,0 -2,-0.5 -3,-3.25 -4.25,-4.5 -1.25,-1.25 2.25,-5.75 -1.25,-10 -3.5,-4.25 -10,-4.25 -11.75,-5.25 -1.75,-1 -6.75,0 -6.75,0 0,0 -2.75,-1.75 -3.75,-3.5 -1,-1.75 -2,-2.25 -3.25,-3.75 -1.25,-1.5 0.25,-4 -0.75,-4.75 -1,-0.75 -2.25001,0 -4,-1.5 -1.75,-1.5 -1,-4.75 -1,-4.75 0.75,-4.25 9.75,-3 9.75,-3 3,5 2,9.75 2,9.75 7,-5.5 8,-16 8,-16 5.75,-0.25 16.75,-9.75 16.75,-9.75 0,0 -3,-2.5 -4,-5 -1,-2.5 5,-7.25 5,-10.75 0,-3.5 -4,-4.25 -6,-4.25 -2,0 -8,8 -9,4.5 -1,-3.5 -3,-6 -0.5,-7 2.5,-1 5,1 5,1 0,0 4.25,-0.75 6.25,-2.75 2,-2 -1.75,-5.75 -3.75,-6.25 -2,-0.5 3,-3.5 -1.5,-9 z M 115,295.40216 c -9,1 -8.63051,4.85249 -11,4.75 -5.07843,-0.21967 -7.27237,-3.66881 -9.40625,-3.90625 -1.59096,-0.17703 -7.71875,8.25 -7.21875,9.5 0.5,1.25 0.375,2.65625 1.875,3.15625 1.5,0.5 5.5,-3 5.5,-3 0,0 5.05561,4.35302 -3.25,8.25 -3.4507,1.61906 3.0625,4.59375 2.5625,5.84375 -0.5,1.25 2.11588,5.24994 -5.0625,9.65625 -0.58634,0.35991 1,6.75 2.25,7 1.25,0.25 5.03835,-3.58779 6.6875,-2.5625 1.73299,1.07741 2.5625,2.125 4.3125,1.625 1.75,-0.5 -0.53129,-8.67122 2.25,-10.5625 6.25,-4.25 7.75,1 9,3 1.25,2 5.5,0.5 6.25,-0.75 0.75,-1.25 1.25,-5.25 4.25,-5 3,0.25 11.65793,2.05806 13.65793,1.05806 l -0.44638,-0.37316 C 131.8883,311.06638 122.83393,302.43957 115,295.40216 z m 22.12316,27.6849 c 1.81572,-0.90676 -0.61972,2.51966 -0.40441,3.03385 -0.0578,0.10079 1.72488,-0.51313 1.84635,-0.49913 l -0.73483,-1.91605 z m 1.36336,2.50352 c -8.88736,-0.92818 -12.73652,3.03033 -12.73652,3.03033 0,0 -3.54658,6.02236 -6.375,6.90625 -2.05269,0.64146 -5.30453,-4.4375 -6.71875,-4.4375 -1.41421,0 -6.72065,12.00977 -19.4375,13.09375 -4.91295,0.41878 0.90013,11.83394 3.375,12.1875 2.21359,0.31622 -5.14093,12.55637 -2.3125,15.03125 2.82842,2.47487 13.07414,0.35723 13.78125,2.125 0.70711,1.76776 3.91177,4.60171 7.09375,3.1875 3.18198,-1.41422 5.59181,-2.96441 7.59375,-1.0625 2.5459,2.41869 2.98651,10.60111 1.21875,14.84375 -1.76777,4.24264 -3.76592,12.26533 -0.9375,15.09375 24.57887,-27.4898 24.7347,-57.83909 15.45527,-79.99908 z M 82,314.40216 c -1.5,0.25 2,9.5 -3.5,11 0,0 -0.5,4.25 4.5,1.25 5,-3 2,-4.50001 2.75,-6 0.75,-1.5 -2.25,-6.5 -3.75,-6.25 z"
       class="base" />
    <path
       d="m 44.125,288.15216 c 0,0 -1.67801,3.53772 -1.46875,7.03125 0.20926,3.49353 -0.50165,7.83137 3.9375,15.8125 2.16051,-6.11795 2.89255,-8.49901 7.375,-12.90625 3.25234,-3.19778 6.68918,-2.68136 9.125,-2.84375 L 44.125,288.15216 z m -3.03125,3 -6.6875,3.40625 4.125,5.28125 2.5625,-8.6875 z m 77.9375,4.40625 -14.84375,1.6875 c -1.02022,4.94495 9.82497,5.42676 10.46875,3.25 1.5361,-0.27053 3.13881,0.81474 4.75,4.5625 2.11598,4.92193 2.6875,5.625 2.6875,5.625 0,0 1.307,-2.95874 1.6875,-5.8125 l -4.75,-9.3125 z"
       class="shading" />
    <path
       d="M 73.1875,280.80841 C 32.79282,280.80841 0,313.56998 0,353.96466 c 0,40.39468 32.79282,73.1875 73.1875,73.1875 40.39468,0 73.15625,-32.79282 73.15625,-73.1875 0,-40.39468 -32.76157,-73.15625 -73.15625,-73.15625 z m 0,3.5 c 38.50314,0 69.65625,31.15311 69.65625,69.65625 0,38.50314 -31.15311,69.6875 -69.65625,69.6875 -38.50314,0 -69.6875,-31.18436 -69.6875,-69.6875 0,-38.50314 31.18436,-69.65625 69.6875,-69.65625 z"
       class="borders" />
    <path
       d="m 53.25,284.43341 -1.71875,1.0625 5.875,9.4375 0.03125,0.0625 0.03125,0.0625 c 2.07863,2.54055 1.88075,4.13206 1.5,5.4375 -0.19038,0.65272 -0.45711,1.1857 -0.625,1.8125 -0.084,0.3134 -0.18575,0.7379 0.03125,1.21875 0.21705,0.48085 0.71331,0.74083 1.125,0.84375 0.572,0.143 2.0062,1.14368 2.8125,2.21875 0.40315,0.53753 0.68615,1.06598 0.75,1.46875 0.0639,0.40277 -0.002,0.62722 -0.28125,0.90625 -0.79376,0.79376 -2.22853,1.46159 -3.46875,1.875 -1.05033,0.35011 -1.66368,0.45325 -1.90625,0.5 -0.61198,-0.45693 -2.80242,-1.93528 -5.53125,-0.84375 -0.80109,0.32044 -1.43723,0.90053 -1.6875,1.625 -0.25027,0.72447 -0.14869,1.40981 0.03125,2.09375 0.35997,1.36789 1.0936,2.8276 1.5625,4.46875 0.17511,0.61287 0.56655,1.20885 1.15625,1.46875 0.5897,0.2599 1.18544,0.14495 1.6875,-0.0312 1.00411,-0.35251 1.91063,-1.07136 2.875,-1.875 0.96437,-0.80364 1.96081,-1.71119 2.78125,-2.375 0.41022,-0.33191 0.77664,-0.58051 1.0625,-0.75 0.28586,-0.16949 0.48958,-0.21875 0.40625,-0.21875 0.875,0 2.27716,0.20108 3.3125,0.71875 1.03534,0.51767 1.6875,1.1622 1.6875,2.53125 0,1.17857 -1.30769,3.24323 -2.6875,5.1875 -0.6899,0.97213 -1.36835,1.9154 -1.84375,2.875 -0.4754,0.9596 -0.82487,2.01595 -0.40625,3.0625 0.86152,2.15381 2.45436,3.7057 3.40625,4.5625 -0.63358,0.53666 -2.32311,2.00088 -5.25,4.03125 -3.41893,2.37169 -7.64652,4.67892 -10,4.78125 l -0.875,0.0625 L 49,343.55841 c 0,0 -0.91534,8.25919 -5.90625,13.65625 -0.009,-1.99672 -0.36106,-4.66427 -2.25,-7.8125 l -0.21875,-0.40625 -0.5,-0.0625 c 0,0 -2.32205,-0.35744 -4.8125,-0.125 -1.24522,0.11622 -2.55728,0.36542 -3.6875,0.9375 -1.1106,0.56215 -2.07436,1.56801 -2.34375,2.9375 -0.005,0.0242 -0.02695,0.0381 -0.03125,0.0625 l 0.03125,0 c -0.0122,0.0534 -0.22211,0.89259 -0.1875,2 0.0357,1.14172 0.30046,2.65932 1.5,3.6875 1.02685,0.88016 2.0458,1.14494 2.78125,1.25 0.710935,0.10156 1.036917,0.13644 1.25,0.28125 0.0022,0.0208 -0.0036,0.0274 0,0.0937 0.0119,0.22115 -0.04535,0.6258 -0.09375,1.09375 -0.0968,0.9359 -0.23835,2.29523 0.6875,3.40625 1.34795,1.61754 2.25802,2.02185 3.15625,3.59375 0.62467,1.09317 1.642,1.9945 2.5,2.6875 0.858,0.693 1.59375,1.15625 1.59375,1.15625 l 0.34375,0.21875 0.375,-0.0625 c 0,0 1.22074,-0.25549 2.625,-0.375 1.40426,-0.11951 3.04337,0.0248 3.4375,0.25 0.66903,0.3823 1.45095,0.53981 2.375,0.75 0.92405,0.21019 1.9664,0.43468 3.0625,0.75 2.1922,0.63063 4.47437,1.64075 6.03125,3.53125 1.53591,1.86504 1.51256,3.62047 1.25,5.3125 -0.13128,0.84601 -0.32677,1.65328 -0.4375,2.40625 -0.0554,0.37649 -0.08015,0.75811 -0.03125,1.15625 0.0488,0.39814 0.18644,0.84269 0.53125,1.1875 0.46001,0.46001 1.048,1.43682 1.75,2.40625 0.702,0.96943 1.5883,1.99864 2.96875,2.34375 1.24,0.31 2.51809,0.2052 3.6875,0.0937 1.16941,-0.1114 2.25045,-0.19434 2.84375,-0.0625 0.70773,0.15727 1.38725,0.85866 2.09375,1.71875 0.35325,0.43005 0.69677,0.85622 1.125,1.25 0.42823,0.39378 1.01389,0.78125 1.75,0.78125 0.86111,0 2.18641,-0.12631 3.59375,-0.1875 1.40734,-0.0612 2.88452,-0.0367 3.65625,0.15625 1.61955,0.40489 3.45038,2.02394 4.0625,3.65625 0.20826,0.55535 0.0875,1.84024 -0.5625,2.90625 -0.65001,1.06601 -1.67874,1.86991 -3.0625,1.96875 -1.8597,0.13284 -3.98261,0.59837 -5.84375,1.21875 -1.86114,0.62038 -3.45614,1.30362 -4.375,2.40625 -0.78942,0.9473 -1.56602,2.52028 -2.21875,4.25 -0.65273,1.72972 -1.16585,3.50734 -1,5 0.10519,0.94667 0.06565,3.13806 -0.03125,5 -0.097,1.86194 -0.21875,3.4375 -0.21875,3.4375 l 1.96875,0.15625 c 0,0 0.15132,-1.60561 0.25,-3.5 0.0987,-1.89439 0.17611,-4.00917 0.03125,-5.3125 -0.0842,-0.75734 0.27773,-2.47972 0.875,-4.0625 0.59727,-1.58278 1.44567,-3.1348 1.90625,-3.6875 0.33114,-0.39737 1.73614,-1.21413 3.4375,-1.78125 1.70136,-0.56712 3.70345,-1.00784 5.34375,-1.125 2.11624,-0.15116 3.71251,-1.44101 4.625,-2.9375 0.91249,-1.49649 1.29174,-3.2116 0.75,-4.65625 -0.88788,-2.36769 -3.05705,-4.27989 -5.4375,-4.875 -1.22827,-0.30707 -2.75109,-0.28256 -4.21875,-0.21875 -1.46766,0.0638 -2.89236,0.1875 -3.53125,0.1875 -0.0139,0 -0.12354,-0.0188 -0.375,-0.25 -0.25146,-0.23122 -0.572,-0.61755 -0.9375,-1.0625 -0.731,-0.88991 -1.67648,-2.06352 -3.21875,-2.40625 -1.13237,-0.25164 -2.31958,-0.0781 -3.46875,0.0312 -1.14917,0.10947 -2.24,0.1587 -3,-0.0312 -0.61955,-0.15489 -1.23325,-0.71943 -1.84375,-1.5625 -0.6105,-0.84307 -1.14751,-1.86626 -1.9375,-2.65625 0.0323,0.0323 0.0127,0.0725 0,-0.0312 -0.0127,-0.10381 -0.01095,-0.33742 0.03125,-0.625 0.0846,-0.57515 0.31878,-1.40851 0.46875,-2.375 0.29994,-1.93297 0.27659,-4.52129 -1.6875,-6.90625 -1.94312,-2.35945 -4.66095,-3.47433 -7.03125,-4.1562 -1.18515,-0.34093 -2.29123,-0.57738 -3.1875,-0.78125 -0.89627,-0.20387 -1.60653,-0.41355 -1.8125,-0.53125 -1.35587,-0.77478 -3.09176,-0.66174 -4.625,-0.53125 -1.2781,0.10877 -2.00845,0.28053 -2.34375,0.34375 -0.17512,-0.11497 -0.52669,-0.33526 -1.15625,-0.84375 -0.767,-0.6195 -1.62467,-1.46817 -2,-2.125 -1.10177,-1.9281 -2.1917,-2.49254 -3.34375,-3.875 -0.32415,-0.38898 -0.34068,-1.02965 -0.25,-1.90625 0.0453,-0.4383 0.12097,-0.90083 0.09375,-1.40625 -0.0272,-0.50542 -0.22192,-1.17425 -0.78125,-1.59375 -0.788,-0.591 -1.5792,-0.57381 -2.15625,-0.65625 -0.57705,-0.0824 -1.05811,-0.19266 -1.78125,-0.8125 -0.55046,-0.47182 -0.78568,-1.36047 -0.8125,-2.21875 -0.0268,-0.85828 0.125,-1.5625 0.125,-1.5625 l 0.03125,-0.0312 c 0.12656,-0.71717 0.51303,-1.17365 1.28125,-1.5625 0.76822,-0.38885 1.87023,-0.61622 2.96875,-0.71875 1.93038,-0.18017 3.40938,0.0414 3.84375,0.0937 2.46781,4.49009 1.6875,8.5625 1.6875,8.5625 l -0.5625,2.6875 2.15625,-1.71875 c 6.66455,-5.23643 8.01941,-14.05081 8.25,-15.9375 3.23012,-0.47031 6.9763,-2.71948 10.21875,-4.96875 3.51857,-2.44081 6.3125,-4.84375 6.3125,-4.84375 l 0.875,-0.78125 -0.90625,-0.75 c 0,0 -2.85825,-2.55189 -3.6875,-4.625 -0.0814,-0.20345 -0.0559,-0.66272 0.3125,-1.40625 0.36835,-0.74353 1.0024,-1.65964 1.6875,-2.625 1.37019,-1.93073 3.0625,-4.02232 3.0625,-6.34375 0,-2.13095 -1.34784,-3.58017 -2.8125,-4.3125 -1.46466,-0.73233 -3.0625,-0.9375 -4.1875,-0.9375 -0.58333,0 -1.00852,0.24566 -1.4375,0.5 -0.42898,0.25434 -0.86335,0.57409 -1.3125,0.9375 -0.89831,0.72681 -1.83937,1.61614 -2.75,2.375 -0.91063,0.75886 -1.81661,1.36813 -2.28125,1.53125 -0.11616,0.0408 -0.185309,0.0293 -0.21875,0.0312 -0.0116,-0.0267 -0.0069,-0.0398 -0.03125,-0.125 -0.5311,-1.85885 -1.29747,-3.43039 -1.5625,-4.4375 -0.13251,-0.50356 -0.1404,-0.80259 -0.09375,-0.9375 0.0466,-0.13491 0.11359,-0.25794 0.5625,-0.4375 1.85967,-0.74387 4,0.84375 4,0.84375 l 0.34375,0.28125 0.46875,-0.0625 c 0,0 1.11522,-0.19466 2.5,-0.65625 1.38478,-0.46159 3.07501,-1.16876 4.28125,-2.375 0.72097,-0.72097 0.95177,-1.74652 0.8125,-2.625 -0.13927,-0.87848 -0.5594,-1.66253 -1.09375,-2.375 -0.97328,-1.29771 -2.26345,-2.29957 -3.5625,-2.75 0.10806,-0.30531 0.31521,-0.8218 0.53125,-1.5625 0.4888,-1.6759 0.52854,-4.26779 -1.8125,-7.1875 l -0.0625,-0.0937 -5.78125,-9.34375 z m 61.625,9.96875 c -4.64158,0.51573 -7.0456,1.85431 -8.5,3.03125 -0.7272,0.58847 -1.21105,1.11626 -1.5625,1.40625 -0.35145,0.28999 -0.45798,0.32648 -0.78125,0.3125 -2.3195,-0.10033 -3.92701,-0.9025 -5.3125,-1.78125 -1.38549,-0.87875 -2.47243,-1.95155 -4.03125,-2.125 -0.66719,-0.0742 -1.03537,0.2274 -1.4375,0.5 -0.40213,0.2726 -0.79652,0.6115 -1.21875,1.03125 -0.84446,0.8395 -1.76978,1.94301 -2.625,3.09375 -0.85522,1.15074 -1.65788,2.35188 -2.21875,3.375 -0.28043,0.51156 -0.50393,0.97139 -0.65625,1.40625 -0.15232,0.43486 -0.32749,0.80627 -0.0625,1.46875 0.19045,0.47613 0.25661,1.11951 0.53125,1.84375 0.27464,0.72424 0.91169,1.56431 1.9375,1.90625 0.83353,0.27784 1.53793,-0.0129 2.21875,-0.3125 0.68082,-0.29956 1.34489,-0.69815 1.96875,-1.125 0.81644,-0.55862 1.09651,-0.82118 1.5,-1.15625 0.26798,0.37184 0.54473,0.87721 0.625,1.4375 0.0803,0.56029 -0.006,1.17115 -0.5625,1.9375 -0.55627,0.76635 -1.64873,1.66649 -3.625,2.59375 -0.53933,0.25305 -0.95553,0.57245 -1.25,1.03125 -0.29447,0.4588 -0.38588,1.0625 -0.28125,1.53125 0.20926,0.9375 0.82663,1.53157 1.4375,2.125 0.61087,0.59343 1.28749,1.13702 1.71875,1.5625 0.184982,0.1825 0.281342,0.31794 0.34375,0.40625 -0.16086,0.61456 -0.02134,1.10699 0.03125,1.625 0.0607,0.598 0.12724,1.22594 0,1.9375 -0.25448,1.42312 -1.1658,3.23957 -4.59375,5.34375 -0.36057,0.22133 -0.44201,0.497 -0.5,0.6875 -0.058,0.1905 -0.08615,0.34367 -0.09375,0.5 -0.0154,0.31265 0.0149,0.63738 0.0625,1 0.0952,0.72525 0.27964,1.59056 0.53125,2.46875 0.25161,0.87819 0.58007,1.77473 0.9375,2.5 0.17872,0.36263 0.3579,0.67827 0.59375,0.96875 0.23585,0.29048 0.52453,0.61116 1.0625,0.71875 0.89022,0.17804 1.38866,-0.2236 2,-0.5625 0.61134,-0.3389 1.27166,-0.76854 1.90625,-1.15625 0.63459,-0.38771 1.24436,-0.70944 1.71875,-0.875 0.47439,-0.16556 0.68982,-0.14299 0.71875,-0.125 0.80383,0.49975 1.43233,1.06 2.21875,1.46875 0.78642,0.40875 1.81374,0.5934 2.90625,0.28125 0.59224,-0.16921 0.95028,-0.65909 1.125,-1.09375 0.17472,-0.43466 0.239,-0.89153 0.28125,-1.375 0.0845,-0.96693 0.0644,-2.09753 0.0625,-3.25 -0.002,-1.15247 0.008,-2.30529 0.1875,-3.21875 0.17973,-0.91346 0.50912,-1.5012 0.875,-1.75 1.46796,-0.99821 2.57684,-1.38049 3.375,-1.4375 0.79816,-0.057 1.31335,0.13906 1.8125,0.53125 0.9983,0.78438 1.6681,2.41272 2.40625,3.59375 0.47726,0.76361 1.25519,1.21461 2.03125,1.375 0.77606,0.16039 1.58786,0.0995 2.34375,-0.0625 0.75589,-0.16198 1.47819,-0.44591 2.09375,-0.78125 0.61556,-0.33534 1.11227,-0.68712 1.46875,-1.28125 0.56667,-0.94446 0.801,-2.15585 1.3125,-3.125 0.25575,-0.48458 0.56623,-0.8628 0.875,-1.09375 0.30877,-0.23095 0.59722,-0.35648 1.125,-0.3125 1.38777,0.11565 4.27527,0.62842 7.03125,0.96875 1.37799,0.17017 2.73201,0.28669 3.90625,0.3125 1.17424,0.0258 2.14734,0.0201 3,-0.40625 l -0.90625,-1.78125 c -0.14734,0.0737 -0.97629,0.21069 -2.03125,0.1875 -1.05496,-0.0232 -2.37447,-0.1465 -3.71875,-0.3125 -2.68856,-0.332 -5.48152,-0.8344 -7.09375,-0.96875 -0.97222,-0.081 -1.87908,0.23095 -2.53125,0.71875 -0.65217,0.4878 -1.06825,1.10958 -1.40625,1.75 -0.676,1.28085 -1.06667,2.72571 -1.25,3.03125 -0.0185,0.0309 -0.31868,0.32753 -0.75,0.5625 -0.43132,0.23497 -1.00589,0.44323 -1.5625,0.5625 -0.55661,0.11927 -1.10418,0.1443 -1.5,0.0625 -0.39582,-0.0818 -0.60226,-0.23236 -0.75,-0.46875 -0.51185,-0.81897 -1.21705,-2.81563 -2.84375,-4.09375 -0.81335,-0.63906 -1.93878,-1.06018 -3.21875,-0.96875 -1.27997,0.0914 -2.68671,0.65446 -4.34375,1.78125 -1.02477,0.69684 -1.45804,1.83381 -1.6875,3 -0.22946,1.16619 -0.25199,2.43575 -0.25,3.625 0.002,1.18925 0.004,2.2976 -0.0625,3.0625 -0.0297,0.33934 -0.0806,0.5821 -0.125,0.71875 -0.51344,0.11525 -0.80691,0.1053 -1.25,-0.125 -0.49908,-0.2594 -1.16459,-0.79734 -2.09375,-1.375 -0.79564,-0.49466 -1.69869,-0.35165 -2.4375,-0.0937 -0.73881,0.25785 -1.41886,0.68142 -2.09375,1.09375 -0.67489,0.41233 -1.34168,0.81542 -1.84375,1.09375 -0.34104,0.18906 -0.582529,0.24655 -0.625,0.28125 -0.08343,-0.11884 -0.160843,-0.31818 -0.28125,-0.5625 -0.27324,-0.55444 -0.55331,-1.32943 -0.78125,-2.125 -0.22794,-0.79557 -0.42361,-1.60557 -0.5,-2.1875 -0.0273,-0.20802 -0.02775,-0.34301 -0.03125,-0.46875 3.45304,-2.22503 4.81282,-4.51696 5.15625,-6.4375 0.17813,-0.99615 0.09645,-1.88949 0.03125,-2.53125 -0.0652,-0.64176 -0.007,-1.07524 -0.0625,-0.9375 0.22685,-0.56713 0.0149,-1.10298 -0.1875,-1.4375 -0.20239,-0.33452 -0.44817,-0.57679 -0.71875,-0.84375 -0.54116,-0.53392 -1.19562,-1.08556 -1.71875,-1.59375 -0.52313,-0.50819 -0.84952,-1.01084 -0.875,-1.125 0.0201,-0.0272 0.12908,-0.16779 0.4375,-0.3125 2.17653,-1.02123 3.54325,-2.10414 4.375,-3.25 0.83175,-1.14586 1.05168,-2.35991 0.90625,-3.375 -0.29086,-2.03018 -1.8125,-3.28125 -1.8125,-3.28125 l -0.65625,-0.56255 -0.65625,0.5625 c 0,0 -0.96646,0.8537 -2.09375,1.625 -0.56364,0.38565 -1.1652,0.75269 -1.65625,0.96875 -0.49105,0.21606 -0.86478,0.19091 -0.78125,0.21875 -0.47419,-0.15806 -0.52908,-0.30098 -0.6875,-0.71875 -0.14001,-0.36922 -0.26688,-0.99252 -0.5,-1.65625 -4e-5,-0.0288 0.0162,-0.14897 0.0625,-0.28125 0.0927,-0.26456 0.2525,-0.67351 0.5,-1.125 0.495,-0.90298 1.25231,-2.03486 2.0625,-3.125 0.81019,-1.09014 1.70335,-2.14516 2.4375,-2.875 0.36708,-0.36492 0.70258,-0.65325 0.9375,-0.8125 0.08809,-0.0597 0.144751,-0.0801 0.1875,-0.0937 0.593652,0.1217 1.645409,0.86264 3.09375,1.78125 1.51593,0.96148 3.55357,1.97441 6.3125,2.09375 0.86147,0.0373 1.59806,-0.34647 2.125,-0.78125 0.52694,-0.43478 0.96089,-0.91941 1.5625,-1.40625 1.20323,-0.97368 3.11033,-2.07823 7.46875,-2.5625 l -0.25,-2 z m -32.6875,19 c -0.110072,8e-5 -0.223562,0.0112 -0.34375,0.0312 -0.3559,0.0593 -0.69724,0.3121 -0.875,0.5625 -0.17776,0.2504 -0.26604,0.46563 -0.3125,0.6875 -0.0929,0.44373 -0.0791,0.88206 -0.0625,1.375 0.0333,0.98588 0.15625,2.17522 0.15625,3.375 0,1.19978 -0.12203,2.37752 -0.5,3.25 -0.37797,0.87248 -0.90268,1.45073 -2,1.75 l -0.65625,0.1875 -0.09375,0.6875 c 0,0 -0.27239,1.28953 0.5625,2.4375 0.41744,0.57398 1.23181,1.03302 2.15625,1 0.92444,-0.033 1.94823,-0.41894 3.28125,-1.21875 1.31936,-0.79161 2.20079,-1.50782 2.75,-2.25 0.54921,-0.74218 0.74073,-1.55921 0.71875,-2.21875 -0.022,-0.65954 -0.20052,-1.17061 -0.28125,-1.5 -0.0807,-0.32939 -0.06975,-0.36065 -0.03125,-0.4375 0.40614,-0.81228 0.23211,-1.58764 0,-2.375 -0.23211,-0.78736 -0.63489,-1.61023 -1.09375,-2.375 -0.45886,-0.76472 -0.98689,-1.48367 -1.5625,-2.0312 -0.503659,-0.47909 -1.041993,-0.93804 -1.8125,-0.9375 z m 0.40625,2.375 c 0.0263,0.0225 0.0041,0.005 0.03125,0.0312 0.38533,0.36653 0.86511,0.95227 1.25,1.59375 0.38489,0.64148 0.67742,1.34204 0.84375,1.90625 0.16633,0.56421 0.0939,0.96853 0.125,0.90625 -0.33657,0.67314 -0.20838,1.37627 -0.09375,1.84375 0.11458,0.46748 0.20948,0.78454 0.21875,1.0625 0.009,0.27796 -0.0258,0.53905 -0.34375,0.96875 -0.31798,0.4297 -0.94436,1.01036 -2.125,1.71875 -1.16698,0.70019 -1.95569,0.92364 -2.34375,0.9375 -0.38806,0.0139 -0.38619,-0.074 -0.46875,-0.1875 -0.10039,-0.13803 -0.10219,-0.36673 -0.125,-0.625 1.15893,-0.5629 2.04909,-1.39665 2.5,-2.4375 0.55953,-1.29158 0.6875,-2.73103 0.6875,-4.0625 0,-1.33147 -0.12703,-2.57182 -0.15625,-3.4375 -0.004,-0.10435 -1.2e-4,-0.12677 0,-0.21875 z m 52.71875,9.15625 c -1.01453,-0.005 -1.96096,0.0607 -2.8125,0.15625 -1.70308,0.19121 -3.09563,0.56523 -4.1875,0.96875 -2.18374,0.80704 -3.28125,1.875 -3.28125,1.875 l -0.0937,0.0937 -0.0625,0.0937 c 0,0 -0.83638,1.47365 -2.03125,3.03125 -1.19487,1.5576 -2.8385,3.1214 -3.75,3.40625 -0.0841,0.0263 -0.40385,10e-4 -0.90625,-0.3125 -0.5024,-0.31364 -1.11163,-0.82884 -1.71875,-1.40625 -0.60712,-0.57741 -1.19739,-1.21256 -1.78125,-1.71875 -0.58386,-0.50619 -1.08127,-1 -2.03125,-1 -0.44187,0 -0.70096,0.16136 -0.90625,0.3125 -0.20529,0.15114 -0.35476,0.30926 -0.53125,0.5 -0.35298,0.38149 -0.7386,0.86537 -1.1875,1.4375 -0.8978,1.14425 -2.0634,2.63782 -3.5625,4.15625 -2.9982,3.03685 -7.28466,6.13978 -13.34375,6.65625 -0.81411,0.0694 -1.54671,0.41104 -2.03125,0.96875 -0.48454,0.55771 -0.68223,1.26114 -0.75,1.96875 -0.13555,1.41522 0.23866,3.00128 0.84375,4.5625 0.60509,1.56122 1.43808,3.07125 2.3125,4.28125 0.43721,0.605 0.88142,1.14655 1.34375,1.5625 0.33321,0.29978 0.74966,0.4351 1.15625,0.59375 -1e-5,0.17956 -0.0721,0.58266 -0.21875,1.125 -0.30904,1.14285 -0.92387,2.78207 -1.53125,4.5 -0.60738,1.71793 -1.19254,3.53657 -1.46875,5.15625 -0.1381,0.80984 -0.21919,1.55616 -0.125,2.28125 0.0942,0.72509 0.38089,1.45437 0.96875,1.96875 0.98571,0.8625 2.32562,1.18718 3.78125,1.375 1.45563,0.18782 3.05009,0.21875 4.5625,0.21875 1.51241,0 2.94577,-0.0193 3.96875,0.0625 0.51149,0.0409 0.93575,0.11515 1.15625,0.1875 0.11025,0.0362 0.15829,0.0702 0.15625,0.0625 0.50767,1.1405 1.53007,2.29995 2.9375,3.125 1.47504,0.86468 3.44486,1.29534 5.375,0.4375 1.62887,-0.72395 2.99159,-1.43987 4.0625,-1.71875 1.07091,-0.27888 1.68049,-0.25043 2.4375,0.46875 0.88621,0.84193 1.70356,3.34179 1.90625,6.09375 0.20269,2.75196 -0.12204,5.77413 -0.90625,7.65625 -0.89597,2.15033 -2.04278,5.18076 -2.625,8.125 -0.58222,2.94424 -0.72773,5.92852 1.125,7.78125 L 123,404.62091 c -0.97569,-0.97569 -1.15966,-3.26502 -0.625,-5.96875 0.53466,-2.70373 1.65945,-5.65769 2.53125,-7.75 0.98355,-2.36052 1.28399,-5.58643 1.0625,-8.59375 -0.22149,-3.00732 -0.87156,-5.79824 -2.53125,-7.375 -1.24493,-1.18273 -2.87869,-1.34213 -4.3125,-0.96875 -1.43381,0.37338 -2.82189,1.15348 -4.375,1.84375 -1.25184,0.55637 -2.47428,0.29417 -3.5625,-0.34375 -1.08822,-0.63792 -1.95774,-1.73811 -2.1875,-2.3125 -0.25594,-0.63985 -0.79464,-0.90283 -1.28125,-1.0625 -0.48661,-0.15967 -1.03163,-0.23378 -1.625,-0.28125 -1.18673,-0.0949 -2.6322,-0.0625 -4.125,-0.0625 -1.4928,0 -3.02809,-0.0218 -4.3125,-0.1875 -1.28441,-0.16573 -2.29025,-0.53132 -2.71875,-0.90625 -0.11925,-0.10434 -0.22683,-0.2998 -0.28125,-0.71875 -0.0544,-0.41895 -0.02395,-0.99734 0.09375,-1.6875 0.23539,-1.38031 0.80886,-3.12281 1.40625,-4.8125 0.59739,-1.68969 1.20623,-3.33877 1.5625,-4.65625 0.17813,-0.65874 0.30742,-1.23204 0.28125,-1.8125 -0.0131,-0.29023 -0.0735,-0.61134 -0.28125,-0.9375 -0.20775,-0.32616 -0.61908,-0.57058 -1,-0.625 0.0368,0.005 -0.22205,-0.0968 -0.53125,-0.375 -0.3092,-0.27818 -0.68499,-0.69637 -1.0625,-1.21875 -0.75501,-1.04476 -1.52314,-2.45212 -2.0625,-3.84375 -0.53936,-1.39163 -0.83197,-2.8004 -0.75,-3.65625 0.041,-0.42792 0.18336,-0.69511 0.3125,-0.84375 0.12914,-0.14864 0.27337,-0.24595 0.6875,-0.28125 6.65776,-0.56751 11.402,-4.01711 14.59375,-7.25 1.59587,-1.61645 2.79371,-3.17335 3.6875,-4.3125 0.4469,-0.56958 0.83573,-1.03364 1.09375,-1.3125 0.0484,-0.0523 0.0549,-0.0559 0.0937,-0.0937 -0.0152,0.0377 0.19145,0.0887 0.59375,0.4375 0.48753,0.42268 1.07985,1.01737 1.71875,1.625 0.6389,0.60763 1.30265,1.23264 2.03125,1.6875 0.7286,0.45486 1.62029,0.79444 2.5625,0.5 1.91692,-0.59904 3.47,-2.42518 4.75,-4.09375 1.21439,-1.58304 1.97535,-2.91542 2.0625,-3.0625 0.0196,-0.0203 0.6455,-0.68964 2.5,-1.375 1.88212,-0.69557 4.91899,-1.2954 9.375,-0.78125 l 0.21875,-2 c -1.1841,-0.13662 -2.26672,-0.21338 -3.28125,-0.21875 z m -131.46875,14.6875 -1.6875,1.09375 c 1.01067,1.516 2.35441,3.44639 3.90625,5.03125 1.55184,1.58486 3.35096,2.90625 5.4375,2.90625 1.80449,0 3.98254,-0.44553 5.6875,-0.625 0.85248,-0.0897 1.58608,-0.10401 1.9375,-0.0312 0.0995,0.0206 0.0976,0.0188 0.125,0.0312 0.009,0.9685 0.077,1.49699 -0.15625,2.375 -0.24552,0.92403 -0.86015,2.37109 -2.4375,5 -0.49606,0.82676 -0.60434,1.78156 -0.28125,2.53125 0.32309,0.74969 0.91575,1.26123 1.53125,1.65625 1.231,0.79005 2.76448,1.21711 3.5,1.5 1.08281,0.41646 2.13788,0.6723 3,0.9375 0.86212,0.2652 1.47271,0.56646 1.75,0.84375 0.13172,0.13172 0.57379,1.11856 0.6875,2.3125 0.11371,1.19394 0.0124,2.60446 -0.3125,3.6875 -0.14691,0.48971 -0.11941,1.07145 0.125,1.53125 0.24441,0.4598 0.65137,0.73226 1.03125,0.90625 0.75976,0.34798 1.54968,0.40402 2.375,0.46875 0.82532,0.0647 1.6521,0.0947 2.21875,0.1875 0.25176,0.0412 0.43358,0.0857 0.53125,0.125 0.0288,0.14975 0.0589,0.52101 -0.0625,1.0625 -0.13558,0.605 -0.42367,1.35515 -0.9375,2.15625 -1.02766,1.6022 -2.92855,3.38765 -6.28125,4.65625 -0.42491,0.16078 -0.86607,0.45425 -1.09375,0.90625 -0.22768,0.452 -0.19766,0.94845 -0.09375,1.3125 0.20773,0.7281 0.62771,1.2446 1.03125,1.84375 0.40354,0.59915 0.8351,1.24071 1.0625,1.8125 0.2274,0.57179 0.28266,1.02702 0.125,1.5 -0.90638,2.71913 -4.89882,10.08632 -7.90625,13.09375 l 1.40625,1.4375 c 3.49257,-3.49257 7.28138,-10.62538 8.375,-13.90625 0.34234,-1.02702 0.17866,-2.03287 -0.15625,-2.875 -0.33491,-0.84213 -0.80994,-1.54927 -1.21875,-2.15625 -0.36723,-0.54524 -0.60128,-0.98596 -0.6875,-1.1875 3.59297,-1.40094 5.87723,-3.39838 7.125,-5.34375 0.635,-0.99001 0.99642,-1.95986 1.1875,-2.8125 0.19108,-0.85264 0.22014,-1.58958 0,-2.25 -0.17318,-0.51954 -0.57,-0.82385 -0.9375,-1 -0.3675,-0.17615 -0.74036,-0.28077 -1.125,-0.34375 -0.76929,-0.12597 -1.60657,-0.15848 -2.375,-0.21875 -0.76843,-0.0603 -1.48632,-0.16048 -1.75,-0.28125 -0.02535,-0.0116 -0.01538,-0.0224 -0.03125,-0.0312 0.0042,-0.0127 -0.0061,-0.011 0,-0.0312 0.42509,-1.41696 0.51129,-3.00644 0.375,-4.4375 -0.13629,-1.43106 -0.38172,-2.66297 -1.25,-3.53125 -0.72271,-0.72271 -1.67643,-1.05195 -2.625,-1.34375 -0.94857,-0.2918 -1.95058,-0.5507 -2.875,-0.90625 -0.88948,-0.34211 -2.231,-0.7588 -3.09375,-1.3125 -0.43137,-0.27685 -0.70199,-0.5661 -0.78125,-0.75 -0.0793,-0.1839 -0.12894,-0.29551 0.125,-0.71875 1.6176,-2.69601 2.35676,-4.25526 2.6875,-5.5 0.33074,-1.24474 0.21875,-2.10541 0.21875,-3.03125 0,-0.47917 -0.21353,-0.99288 -0.5625,-1.3125 -0.34897,-0.31962 -0.76556,-0.45042 -1.15625,-0.53125 -0.78139,-0.16167 -1.60248,-0.12907 -2.53125,-0.0312 -1.85754,0.19553 -4.05449,0.625 -5.5,0.625 -1.16346,0 -2.61434,-0.89736 -4,-2.3125 -1.38566,-1.41514 -2.66692,-3.23475 -3.65625,-4.71875 z"
       class="borders" />
    <path
       d="m 89.74963,267.83809 c -1.89732,0.0112 -3.80804,0.4375 -4.96875,1.375 -1.56538,1.5302 -3.48305,1.88865 -5.1875,2.71875 -13.25824,-0.25254 -15.47956,-0.11448 -22.15625,-1.59375 -7.43283,-1.64681 -11.22749,0.0291 -11.65625,1.0625 -0.0536,0.12918 -0.12938,0.38058 -0.1875,0.71875 -15.28585,8.20605 -13.08937,13.4802 -8.625,24.625 0.032,-0.0891 0.0646,-0.18922 0.0937,-0.28125 0.0658,0.16427 0.12065,0.30188 0.1875,0.46875 0,0 -0.0536,-0.36505 -0.0625,-0.875 0.62797,-2.34804 0.64535,-5.51932 3,-8.96875 0.46557,-0.68122 1.03831,-1.36208 1.65625,-2.0625 1.01421,-1.05521 2.2869,-2.12164 3.90625,-3.1875 0.0319,0.006 0.0627,-0.004 0.0937,0 0.0485,0.0796 0.0979,0.15039 0.15625,0.1875 2.00756,0.4015 2.39232,-3.27647 11.15625,-3.96875 -0.11238,0.0355 -0.23804,0.0817 -0.34375,0.125 -2.74115,1.12138 -3.13865,2.23891 -2.90625,2.875 -9.59288,4.38733 -11.08201,14.66485 -8.3125,24.15625 0,0 0.0496,-0.16204 0.0937,-0.3125 0.0737,0.22959 0.15625,0.5 0.15625,0.5 0,0 2.16964,-8.74553 11.8125,-14.28125 0.0437,0.0626 0.10376,0.13101 0.15625,0.21875 0.24745,1.52082 0.86422,2.76379 3.15625,3.8125 3.54747,0.8347 5.67354,0.76523 7.0625,-0.75 1.38896,-1.51523 3.28373,-3.64178 1.65625,-7.59375 2.67857,1.07143 7.89433,-1.34057 9.03125,-1.21875 4.375,0.46876 1.27475,-5.1517 2.65625,-4.21875 0.17464,0.151 0.37963,0.33252 0.65625,0.625 0.11811,0.12488 0.26519,0.23848 0.40625,0.34375 1.82553,1.67303 6.02011,1.32075 8.46875,0.0625 1.90595,-0.97938 -1.87819,-5.15854 5.5,0.34375 0.39152,0.22813 0.73657,0.4375 1.0625,0.6875 5.18818,4.27018 1.82759,11.24478 4.59375,12.875 0.16756,0.14475 0.36341,0.25398 0.59375,0.34375 0.0734,0.0582 0.14281,0.13559 0.21875,0.1875 2.47123,2.00537 6.42344,0.41024 9.5,-2.75 0.88308,0.16856 1.74582,0.60344 2.5625,1.1875 4.41984,3.38341 7.625,11.53125 7.625,11.53125 0.0285,-0.0472 0.0657,-0.10732 0.0937,-0.15625 0.0223,0.0552 0.15625,0.375 0.15625,0.375 2.51528,-4.16593 3.45028,-15.26083 -3.1875,-20.65625 -0.0399,-0.0344 -0.0846,-0.0598 -0.125,-0.0937 -0.15711,-0.12434 -0.30328,-0.25711 -0.46875,-0.375 -0.68906,-0.52049 -1.46436,-0.98511 -2.3125,-1.375 -0.26734,-1.01588 -1.26793,-2.13776 -2.5,-3.0625 -1.13657,-0.90728 -2.55579,-1.65457 -3.8125,-1.96875 -2.74257,-0.68564 -8.02856,-3.62624 -9.71875,-4.8125 -0.93928,-0.70447 -2.14828,-2.23734 -3.5,-3.625 -0.18647,-0.19699 -0.36876,-0.40415 -0.5625,-0.59375 -0.0721,-0.068 -0.14571,-0.1213 -0.21875,-0.1875 -0.53041,-0.50181 -1.10714,-0.95536 -1.6875,-1.3125 -1.16071,-0.71429 -3.07143,-1.13616 -4.96875,-1.125 z"
       class="base" />
    <path
       d="m 55.88583,284.37604 c 5.23654,5.43794 5.16027,4.3613 7.60453,4.19077 4.33021,-0.30211 1.66726,-4.71454 6.05647,-4.06564 4.3892,0.6489 5.47249,-0.52794 7.08374,-1.33356 1.61124,-0.80562 0.60421,-3.42389 2.21545,-3.8267 1.61124,-0.40281 5.28279,1.40984 7.45199,1.40984 4.02811,0 3.86336,-3.92234 6.07881,-3.11672 2.21546,0.80562 4.75975,3.32437 9.28192,5.23147 4.52217,1.9071 7.54994,4.651 6.63563,8.56959 -0.58307,2.49893 2.64911,2.67619 4.23666,3.96789 -3.45054,1.33044 -6.49531,2.87002 -6.49531,2.87002 l -4.43091,-2.21546 -1.81265,-8.66042 -2.41686,-4.22951 -4.43092,-1.61124 -5.23653,3.42389 -5.03513,-1.61124 -5.63934,3.82669 -5.63935,1.00703 -1.20843,4.83372 -5.23653,2.61827 -6.04216,-1.40984 -2.81967,-3.02107 z m 67.14928,22.11126 c -0.0951,-7.8954 -8.18077,-15.0298 -8.18077,-15.0298 l -2.18788,3.42451 4.66114,3.61476 3.90013,5.32702 z M 45.8885,304.39454 c -0.3805,-10.74916 9.60766,-13.88829 9.60766,-13.88829 l 0.3805,3.13913 -7.32465,5.42215 z m -8.5794,-9.88142 c -2.42149,-9.55145 8.34071,-15.33613 8.34071,-15.33613 l 0.26905,2.95961 -4.17035,3.49771 -2.95961,4.70846 z"
       class="shading" />
    <path
       d="m 90.1875,266.4301 c -2.93091,-0.15953 -5.11266,0.76575 -6.05622,1.61964 -1.58768,0.96924 -2.42096,1.97501 -4.98391,2.08931 -2.56296,0.11429 -14.04166,-0.0359 -20.67418,-1.50537 -3.79513,-0.84085 -5.33214,-1.11699 -7.56694,-0.64292 -2.2348,0.47407 -5.43678,1.48191 -6.6875,3.6875 -7.42568,4.03706 -10.28762,7.95166 -11.09375,11.78125 -0.80613,3.82959 0.3111,8.94794 5.03125,13.5312 -0.15462,-5.68938 3.93599,-10.56604 7.625,-13.5625 0.0602,0.15604 0.48529,-0.0835 1.12499,-0.1876 1.99458,-1.08789 4.80965,-2.46844 5.81657,-3.20175 -7.2054,3.5585 -8.58268,10.60053 -8.81656,15.88925 -0.23889,5.40197 1.4375,9.90625 1.4375,9.90625 l 0.84375,2.3125 c 1.65434,-7.63952 3.95545,-10.02908 9.04566,-13.27512 0.74701,-0.3192 1.23774,-1.19857 1.38074,-0.90572 0.51715,1.05893 2.47529,1.53468 4.25447,2.15005 1.77919,0.61537 3.40684,0.58491 4.69413,0.46819 1.28729,-0.11672 2.39923,-0.60598 3.21875,-1.5 0.69894,-0.76248 1.0149,-1.19725 2.35892,-3.08081 1.34401,-1.88355 1.81611,-2.98536 4.01613,-4.54419 0.90991,-0.23086 1.76263,-0.50035 2.4375,-0.6875 0.67487,-0.18715 1.25412,-0.24621 1.21875,-0.25 0.71011,0.0761 1.30584,0.0195 1.8125,-0.1875 1.99429,-1.9324 4.04768,-1.88891 5.875,-1.9375 2.3783,-0.0182 3.53124,-0.74268 5.23353,-0.85853 1.7023,-0.11586 2.38857,0.24603 4.82741,1.20861 2.43884,0.96257 3.58035,3.54188 3.78271,6.24357 0.10118,1.35084 0.077,2.6611 0.28125,3.8125 0.18844,1.06226 0.72248,2.04792 1.93556,2.88264 1.21307,0.83472 2.74595,1.15539 4.28324,0.86731 1.63213,-0.30585 3.28478,-1.20035 4.8125,-2.4375 4.06436,-0.95993 10.17665,10.55712 11.1875,12.75 l 0.8125,-1.28125 c 1.57754,-2.61281 3.44072,-7.30693 2.72227,-12 -0.69602,-4.5466 -2.82372,-9.35644 -7.76608,-11.60892 -0.29596,-0.77441 -1.93025,-2.04272 -2.79772,-2.81472 -1.29577,-1.1531 -2.8538,-2.98466 -6.63963,-4.22357 -3.78582,-1.2389 -8.4071,-5.73451 -13.02512,-8.75812 -2.34262,-0.88338 -3.03156,-1.58915 -5.96247,-1.74868 z m 0,2.56066 c 1.7885,-0.0105 3.60556,0.37987 4.5625,0.96875 2.34608,1.44968 3.60017,3.92229 5.65625,5.5 4.06537,3.65382 10.03653,4.25909 13.83395,7.57767 1.11581,0.99295 2.0408,1.83739 1.9473,2.35983 l 0,0.0312 0,0.0312 c -0.33933,3.58107 -2.70475,7.26171 -5.46875,9.5 -2.20957,1.69765 -4.4201,2.69963 -6.39656,1.28741 -2.33622,-1.6711 -1.38714,-3.52549 -1.47844,-5.47486 -0.2125,-2.83704 -1.75507,-6.0191 -4.71987,-7.99572 -2.96481,-1.97662 -4.28299,-2.15456 -5.44937,-2.84131 -2.52199,-1.38952 -0.37819,1.22499 -2.77074,2.37638 -0.58793,0.37169 -1.93089,0.57121 -3.43497,0.58565 -1.50408,0.0144 -2.61014,-0.42682 -3.46875,-1.03125 -0.85861,-0.60443 -1.6066,-1.23194 -2.55714,-0.98392 -0.28317,0.32322 0.69455,2.64217 -0.53564,3.64553 -1.23019,1.00336 -3.33328,1.10764 -5.12592,1.48544 -2.4438,0.60396 -4.08738,0.47213 -6.28135,-0.397 l 0.6875,1.625 c 0.75652,1.83705 0.6646,3.13339 0.28125,4.1875 -0.99714,1.34044 -2.91202,2.52462 -4.90625,2.84375 -1.99423,0.31913 -5.31006,-0.53506 -6.47666,-2.34462 -0.57909,-0.99068 -0.52195,-3.41468 -1.15993,-5.61651 -0.58996,-2.03609 -1.65582,-3.99555 -2.15978,-4.77902 1.38902,-2.35694 6.10727,-2.22539 8.18561,-2.617 3.66724,-0.70205 7.32435,-1.70762 8.48258,-2.25876 1.15822,-0.55114 8.30775,-1.8751 14.28448,-6.47779 0.93593,-0.75595 2.68025,-1.17698 4.46875,-1.1875 z m -37.25,1.78125 c 1.35981,0.0565 2.9624,0.25327 4.78125,0.65625 5.94054,1.31617 10.70771,1.27491 16.73851,1.97319 -4.46408,1.81164 -6.54218,2.86031 -11.23851,3.83931 -1.78406,0.12271 -3.18699,0.16402 -4.46875,0.3125 -4.70065,0.21751 -7.7119,1.0841 -9.40625,2.09375 -0.97011,0.57808 -1.62838,1.13869 -2.09375,1.46875 -0.34093,0.24181 -0.43668,0.21608 -0.59911,0.0732 -0.16243,-0.14286 -0.20708,-0.39832 -0.24464,-0.82322 -0.0774,-0.87574 -0.0764,-2.04258 -0.0312,-3.21875 0.0451,-1.17617 0.14333,-2.39283 0.25,-3.34375 0.0533,-0.47546 0.10181,-0.8707 0.15625,-1.1875 0.0544,-0.3168 0.12887,-0.57183 0.125,-0.5625 -0.0156,0.0375 0.14875,-0.23774 0.59375,-0.46875 0.445,-0.23101 1.1256,-0.46488 2.03125,-0.625 0.90565,-0.16012 2.04644,-0.244 3.40625,-0.1875 z m -7.84375,3.125 c -0.1991,2.50723 -0.40876,5.10442 -0.0625,7.4375 -4.71747,3.68831 -6.87376,7.5796 -7.78125,10.59375 -0.2123,0.70513 -0.1823,1.1517 -0.28125,1.75 -1.47442,-3.89485 -2.50057,-7.18066 -1.90625,-9.875 0.69973,-3.17222 3.5443,-6.22914 10.03125,-9.90625 z m 7.34651,8.14108 c 0.24466,1.85154 2.34529,5.91807 2.52459,10.62133 -6.78112,3.98184 -7.46053,5.7679 -8.72021,8.75107 -0.1637,-1.44039 -0.37479,-1.35045 -0.0429,-5.33134 0.33189,-3.98089 -0.28628,-10.72567 6.23852,-14.04106 z m 66.00612,4.34284 c 3.81843,2.12217 4.85928,5.53036 5.45987,9.45358 0.55613,3.6328 -0.11537,7.06591 -1.0625,9.4375 -1.75064,-4.38583 -4.74391,-8.84907 -8.55806,-11.10447 1.90075,-2.20247 3.75463,-4.90147 4.16069,-7.78661 z"
       class="borders" />
  </g>
</svg>
