<?xml version="1.0" encoding="UTF-8" standalone="no"?>
<!-- Created with Inkscape (http://www.inkscape.org/) -->

<svg
   xmlns:osb="http://www.openswatchbook.org/uri/2009/osb"
   xmlns:dc="http://purl.org/dc/elements/1.1/"
   xmlns:cc="http://creativecommons.org/ns#"
   xmlns:rdf="http://www.w3.org/1999/02/22-rdf-syntax-ns#"
   xmlns:svg="http://www.w3.org/2000/svg"
   xmlns="http://www.w3.org/2000/svg"
   xmlns:sodipodi="http://sodipodi.sourceforge.net/DTD/sodipodi-0.dtd"
   xmlns:inkscape="http://www.inkscape.org/namespaces/inkscape"
   width="477.42856"
   height="601.19183"
   id="svg2"
   version="1.1"
   inkscape:version="0.48.4 r9939"
   sodipodi:docname="Eagle.svg">
  <defs
     id="defs4">
    <linearGradient
       id="linearGradient5271"
       osb:paint="solid">
      <stop
         style="stop-color:#c6c6c6;stop-opacity:1;"
         offset="0"
         id="stop5273" />
    </linearGradient>
    <linearGradient
       id="linearGradient3942"
       osb:paint="solid">
      <stop
         style="stop-color:#b3b3b3;stop-opacity:1;"
         offset="0"
         id="stop3944" />
    </linearGradient>
    <linearGradient
       id="linearGradient3930"
       osb:paint="solid">
      <stop
         style="stop-color:#333333;stop-opacity:1;"
         offset="0"
         id="stop3932" />
    </linearGradient>
    <linearGradient
       id="linearGradient3922"
       osb:paint="solid">
      <stop
         id="stop5255"
         offset="1"
         style="stop-color:#dadada;stop-opacity:1;" />
    </linearGradient>
  </defs>
  <sodipodi:namedview
     id="base"
     pagecolor="#ffffff"
     bordercolor="#666666"
     borderopacity="1.0"
     inkscape:pageopacity="0.0"
     inkscape:pageshadow="2"
     inkscape:zoom="1.7554337"
     inkscape:cx="250.13926"
     inkscape:cy="350.55121"
     inkscape:document-units="px"
     inkscape:current-layer="layer1"
     showgrid="false"
     showguides="false"
     inkscape:guide-bbox="true"
     inkscape:window-width="1680"
     inkscape:window-height="998"
     inkscape:window-x="-8"
     inkscape:window-y="-8"
     inkscape:window-maximized="1"
     inkscape:snap-to-guides="false"
     fit-margin-top="0"
     fit-margin-left="0"
     fit-margin-right="0"
     fit-margin-bottom="0">
    <sodipodi:guide
       orientation="1,0"
       position="238.92857,393.35715"
       id="guide2998" />
  </sodipodi:namedview>
  <metadata
     id="metadata7">
    <rdf:RDF>
      <cc:Work
         rdf:about="">
        <dc:format>image/svg+xml</dc:format>
        <dc:type
           rdf:resource="http://purl.org/dc/dcmitype/StillImage" />
        <dc:title />
      </cc:Work>
    </rdf:RDF>
  </metadata>
  <g
     inkscape:label="Eagle"
     inkscape:groupmode="layer"
     id="layer1"
     transform="translate(-142.5,-273.0989)"
     style="display:inline">
    <path
       style="fill:url(#linearGradient3922);fill-opacity:1;stroke:none"
       d="m 295.125,27.34375 c 0,0 9.10847,15.61002 4.125,57.8125 -0.26983,-7.45299 -1.60916,-15.29175 -5.40625,-21.90625 -0.93403,8.45717 -1.91886,16.1005 -2.90625,23.09375 -2.49523,-17.15557 -33.0625,-32 -33.0625,-32 0.7414,5.93122 5.24003,18.1254 5.34375,18.40625 -8.13396,-11.58167 -21.28441,-19.24343 -45.09375,-23.40625 0,0 20.85245,19.23662 36.78125,63.5625 -5.6044,-9.98016 -13.16406,-18.67187 -23.28125,-22.8125 0,0 21,28.25001 33.5,83.75 l 0.25,-0.5625 c -7.67468,19.04652 -1.03993,31.36179 2.09375,37.8125 -8.26722,-8.21972 -15.42308,-18.61599 -16.40625,-28.96875 -2.02918,-13.79846 -2.48214,-20.01786 -9.625,-27.875 -7.14285,-7.85715 -17.49554,-8.55804 -26.78125,-7.84375 -9.28572,0.71428 -13.89884,1.8601 -16.4375,3.21875 -4.22299,2.26007 -2.40625,4.375 -2.40625,4.375 0.35713,1.96428 0.15625,1.96875 0.15625,1.96875 0,0 -8.74554,-1.16964 -11.15625,4.8125 -14.55523,1.01466 -17.46987,19.91344 -8.375,30.96875 2.5,-6.07143 7.5,-7.125 7.5,-7.125 0,0 6.56769,-2.0747 9.5,0.8125 2.90178,2.85715 4.96429,7.03572 3,20.25 -3.92857,26.42857 -15.696,25.49594 -15.696,25.49594 0,0 8.38998,0.74861 16.946,-7.15219 -8.11711,50.05464 4.31714,75.88638 32.875,107.40625 -4.29498,13.72125 -19.5,22.96875 -19.5,22.96875 l -3.53125,47.03125 c 0,0 26.30732,1.3171 43.28125,-21.53125 3.63069,11.10677 7.27457,21.66748 10.125,34.125 0.59318,-5.43721 1.55511,-9.47264 2.5,-12.40625 -0.6046,7.46247 -2.56702,28.77613 -5.78125,37.25 -0.38432,1.01322 -0.95677,1.83657 -1.71875,2.46875 l 0.125,-0.4375 c -9.16592,0.5585 -19.95022,-13.05194 -25.53125,-15.71875 -0.26686,-0.12752 -0.83686,0.0821 -1.53125,0.5625 l -0.1875,-0.21875 c -16.625,-0.375 -26.5,18 -26.5,18 0,0 9.375,-7 21.5,-8.5 l 0.53125,-0.0937 c 0.0309,0.82775 0.1943,1.67815 0.46875,2.5625 -2.34161,-0.47641 -7.4375,-0.95749 -7.4375,1.03125 0,0.0746 0.0269,0.14504 0.0312,0.21875 l -0.21875,-0.0937 c -15.125,9.875 -16.625,27.125 -16.625,27.125 0,0 7.24372,-9.57192 12.99155,-12.53581 5.74784,-2.96389 7.77585,-6.54877 14.62587,-6.13208 0,0 9.55936,2.95044 16.55936,0.95044 0,0 -3.67678,1.84245 -16.80178,-0.0326 0,0 -6.75,0.875 -6,2.5 0.0109,0.022 0.0205,0.0406 0.0312,0.0625 l -0.28125,-0.0625 c -14.875,12.75 -15.625,21.75 -15.625,21.75 0,0 13.375,-7.875 18.625,-5.5 l 0.40625,-0.46875 c -0.0123,0.11885 -0.018,0.22299 -0.0312,0.34375 -0.5,4 13.125,2.875 12.125,-3.75 l -0.0625,-0.2813 c 0.20439,0.43915 0.50162,0.81331 0.9375,1.03125 1.5,0.75 5.92077,-5.69257 14.25,-6.375 2.12156,-0.17382 0.125,-4 0.125,-4 4.33509,6.01171 9.02328,5.39461 10.4375,4.6875 1.41421,-0.70711 3.716,-1.22871 2.125,-3.96875 9.72272,0.53033 5.97184,5.43126 10.875,7.9375 4.81938,2.46341 9.77407,2.32381 10,0.46875 0.046,-0.3776 0.13068,-0.8054 0.21875,-1.21875 l 0.71875,0.84375 c 15.375,4.625 16.625,13.625 16.625,13.625 0,0 6.875,-23.625 -12.125,-27.375 l -0.15625,0 c 0.23707,-2.66444 -7.21974,-3.89257 -8.375,-3.5625 -1.23744,0.35355 -11.8652,0.34896 -12.21875,-2.65625 -0.35356,-3.0052 8.0625,-41.1875 8.0625,-41.1875 l -1.40625,-0.96875 c 0.0458,-2.99967 -0.28156,-6.56991 -1.5,-10.53125 1.6564,4.65295 3.69091,11.65905 5,20.90625 0,0 6.20987,-6.08671 7.09375,-8.03125 0,0 1.16329,-10.85311 -1.2598,-19.81174 0,0 3.04289,5.84575 3.60355,18.56174 L 297,394.53125 c 0,0 -1.42586,-14.66729 -0.71875,-21.03125 5.22226,-2.06162 10.46875,2.9375 10.46875,2.9375 0,0 34.77712,48.60061 39.25,52 6.25,4.75 32.18881,-0.44327 33.75,-6.25 1.42258,-5.29117 -31.83792,-48.47505 -49.40625,-72 4.13882,1.78437 6.59375,2.46875 6.59375,2.46875 0,0 0.7025,-5.48071 -2.65625,-12.375 l 0,-0.1875 c 0.99518,0.51534 1.95652,1.01387 2.8125,1.4375 0.0232,0.0348 0.15625,0.25 0.15625,0.25 l -0.0937,-0.21875 c 3.75746,1.85743 6.09375,2.84375 6.09375,2.84375 0,0 0.34804,-4.77636 -3.1875,-13.96875 l -0.0937,-0.0312 C 339.89115,329.49919 339.75136,328.35518 339.5,327 l 0.1875,0.0625 c 14.84925,8.13172 23.71875,8.875 23.71875,8.875 0,0 0.51152,-10.29507 -12.125,-27.59375 l 0.28125,0 c 18.03122,4.94974 28.65625,3.1875 28.65625,3.1875 0,0 -2.40538,-10.42884 -12.78125,-22.96875 23.61178,2.44015 30.8125,-6.71875 30.8125,-6.71875 0,0 -9.85653,-14.3907 -29,-25 l 0.0312,-0.0312 c 30.05208,2.47482 39.2188,-10.3438 39.2188,-10.3438 0,0 -8.64397,-10.04803 -24.78125,-15.875 l 0.0312,-0.0312 c 36.76952,-16.26346 38.88115,-26.15625 36.40625,-26.15625 -1.6391,0 -5.26143,-6.1899 -27.40625,-4.9375 28.75002,-24 22.875,-58.375 22.875,-58.375 0,0 -6.65618,6.94027 -19.96875,18.375 15.51797,-22.26528 6.96875,-57.625 6.96875,-57.625 0,0 -5.09711,12.32319 -16.875,29.4375 12.75,-29.75 -1.375,-56.4375 -1.375,-56.4375 0,0 -3.94518,13.54254 -13.34375,32.4375 6.5634,-37.531 -10.2812,-53.12505 -10.2812,-53.12505 0,0 1.03671,9.50403 -7.5625,31.96875 1.29814,-30.58571 -23.8125,-49.28125 -23.8125,-49.28125 0,0 2.78836,11.32457 -0.5625,34.90625 C 325.03287,37.78748 295.125,27.34375 295.125,27.34375 z m 100.1875,132.4375 c -0.11025,0.0945 -0.20135,0.18613 -0.3125,0.28125 l -0.125,-0.15625 z"
       id="path3032"
       inkscape:connector-curvature="0"
       sodipodi:nodetypes="cccccccccccccssscccccssccccccccscccccccccsccccccccccccccccsscscsccccccssccccccccccsscccccccccccccccccccccccscccccccccccccccc"
       transform="translate(142.5,273.0989)" />
    <path
       style="fill:url(#linearGradient5271);stroke:none"
       d="m 319.08985,113.68466 3.2539,23.06534 6.24256,-2.30293 c 1.77646,-8.96474 2.16897,-20.87925 -2.9565,-26.76232 -6.84811,4.60942 -6.53996,5.99991 -6.53996,5.99991 z m 20.41429,12.65778 c -5.86469,1.49702 -7.0612,2.90887 -7.0612,2.90887 -2.06464,-5.10436 1.36981,5.06654 2.68206,9.34244 l -8.4375,22.84375 11.54717,-7.587 c 0.51443,-2.26143 4.69796,-21.36429 1.26947,-27.50806 z m -1.26947,27.50806 c -0.0328,0.14427 -0.0937,0.4375 -0.0937,0.4375 l 0.625,-0.75 z m 0.53125,-0.3125 6.39033,-3.38175 -5,21.3125 9.0625,5 -17.21875,19.75 17.21875,1.25 -15.97017,20.96804 4.24195,1.79013 c 4.59048,1.93746 11.70843,-7.84794 12.61362,-12.97739 l -2.91524,0.79664 c 0,0 8.98424,-8.11804 7.41819,-16.88789 l -12.1065,4.42932 c 0,0 11.54735,-14.18399 12.51845,-23.39869 l -9.95666,0.88992 c 0,0 6.62925,-11.27951 5.96483,-25.01078 z M 351.09375,227.53125 352.9375,227.25 353,227.2188 c -14.55276,-7.08818 -9.61085,-3.28728 -1.90625,0.3125 z m 1.84375,-0.28125 -16.88938,11.28231 c 4.37089,2.78216 17.66132,0.91442 21.32688,-11.93856 z m -5.2812,20.65625 -20.2777,0.091 20.64726,22.86349 c -10.76225,-22.15335 -0.38386,-9.79457 12.47419,-18.57954 -11.49115,-9.58249 -38.25719,-20.16856 -12.84375,-4.375 z m -2.18755,21.90625 -23.8125,0 c 5.01026,5.05112 20.2902,29.23173 15.87355,18.59285 -3.31715,-7.80283 -0.82495,-11.34474 16.71665,-11.68947 -7.68689,-6.27608 -7.19529,-7.06558 -8.7777,-6.90338 z m -30.375,14.71875 5,14.71875 -7.5,-1.5625 -11.28125,-6.25 3.37838,7.51622 c 0,0 13.18807,7.7443 19.83819,6.92193 l 1.31891,-6.8971 c -2.50567,-9.08305 13.68327,-5.04105 13.68327,-5.04105 l -0.75182,-1.5386 c -7.68399,-3.09275 -15.78511,-5.32463 -23.68568,-7.86765 z"
       transform="translate(142.5,273.0989)"
       id="path3061"
       inkscape:connector-curvature="0"
       sodipodi:nodetypes="ccccccccccccccccccccccccccccccccccccccccccccccccccccccccccccc" />
    <path
       style="fill:url(#linearGradient5271);stroke:none"
       d="m 290.03136,147.03906 c 1.56604,21.2982 -8.76985,35.70581 -6.26418,44.16244 2.50567,8.45664 12.10767,16.98927 2.55941,40.30298 -7.69764,18.79511 -14.14814,13.88215 -21.35194,23.90483 l -1.25283,-5.63776 12.21514,-10.6491 7.51701,-14.09439 -2.50567,-17.5397 -5.01134,-13.15477 2.81888,-20.67178 z"
       id="path3057"
       inkscape:connector-curvature="0"
       transform="translate(142.5,273.0989)"
       sodipodi:nodetypes="csscccccccc" />
    <path
       style="fill:url(#linearGradient5271);stroke:none"
       d="m 302.55971,88.782224 c 8.14343,19.418946 -4.89735,49.663946 -5.63776,63.894596 -0.74041,14.23065 15.79889,39.29155 14.4076,52.61908 -1.39129,13.32753 -1.96064,39.46971 -21.06369,57.28843 -19.10304,17.81873 2.89758,33.54212 2.89758,37.92705 0,4.38492 1.87926,10.02268 1.87926,10.02268 l -31.9473,-39.46431 -0.62642,-6.89059 5.29076,-1.39665 4.42944,-5.97975 8.19446,1.10736 1.99325,-7.30858 8.19447,0.44295 0.66441,-12.18097 5.31533,-5.31533 1.32884,-10.40918 0.66441,-16.61041 -2.65766,-5.97974 0.88589,-7.973 -4.65092,-1.32883 1.10736,-6.20122 -3.76502,-4.20797 -1.99325,-6.20122 -8.63741,-1.32883 13.73127,-46.50913 z"
       id="path3055"
       inkscape:connector-curvature="0"
       transform="translate(142.5,273.0989)"
       sodipodi:nodetypes="czzzsccccccccccccccccccccc" />
    <path
       style="fill:url(#linearGradient5271);fill-opacity:1;stroke:none"
       d="m 232.96875,159 c 11.05496,24.8336 -5.64808,29.16986 -5.64808,29.16986 1.03122,1.63146 -1.74419,0.0842 -3.19567,0.20514 0,0 -3.08286,-1.54899 -3.96875,2.4375 C 219.27036,194.799 233,213.40625 233,213.40625 c 0,0 -4.42933,-9.86335 -4.20786,-12.96396 0.33464,-2.93837 4.17536,-2.531 5.57611,-1.24728 1.40075,1.28372 9.4464,9.64623 15.1495,13.70177 0,0 -10.38965,-14.0213 -9.39275,-15.30303 0,0 6.55246,5.11606 15.875,5.75 -8.12329,-5.91715 -11.36455,-27.93944 -13.75,-34.3125 C 239.86454,162.65818 232.96875,159 232.96875,159 z"
       transform="translate(142.5,273.0989)"
       id="path3045"
       inkscape:connector-curvature="0"
       sodipodi:nodetypes="cccscczcccsc" />
    <path
       style="fill:url(#linearGradient5271);stroke:none"
       d="m 178.90678,182.99549 c 8.41014,-4.73006 11.5635,-6.60169 24.85624,-4.58764 l -3.56629,-3.79214 -13.09134,0.20141 z"
       id="path5311"
       inkscape:connector-curvature="0"
       transform="translate(142.5,273.0989)"
       sodipodi:nodetypes="ccccc" />
    <path
       style="fill:url(#linearGradient5271);stroke:none"
       d="m 291.9375,342.5625 c 3.67363,6.34535 8.50418,11.97525 14.40625,16.65625 0.004,0.009 -0.004,0.0222 0,0.0312 6.72772,16.26702 29.40625,36.3125 29.40625,36.3125 l -17.78125,-29.09375 c 6.95152,3.32698 13.8626,4.74495 23.8125,6.5625 -0.58881,-7.43942 -10.10139,-14.93992 -10.10139,-14.93992 L 326.6875,364.5 317.3125,361.65625 299.65625,350.25 z"
       transform="translate(142.5,273.0989)"
       id="path5308"
       inkscape:connector-curvature="0"
       sodipodi:nodetypes="ccccccccccc" />
    <path
       style="fill:url(#linearGradient5271);stroke:none"
       d="m 256.63174,342.70869 c 16.0929,24.7802 28.76783,24.21055 28.76783,24.21055 0,0 -5.26936,-6.97833 -3.84521,-7.97524"
       id="path5304"
       inkscape:connector-curvature="0"
       transform="translate(142.5,273.0989)"
       sodipodi:nodetypes="ccc" />
    <path
       style="fill:url(#linearGradient5271);stroke:none"
       d="m 233.87499,334.44185 c 1.375,21.5 9.00368,53.17309 9.00368,53.17309 l 8.37132,-6.1731 -8.5,-26.87499 -5.125,-17.875 z"
       id="path5279"
       inkscape:connector-curvature="0"
       transform="translate(142.5,273.0989)"
       sodipodi:nodetypes="cccccc" />
    <g
       id="g4212"
       transform="translate(-16.499996,14.999999)"
       style="fill:#00ff00" />
    <path
       transform="translate(142.5,273.0989)"
       d="m 222.85715,379.76328 c 0,39.44891 -31.97966,71.42857 -71.42858,71.42857 C 111.97966,451.19185 80,419.21219 80,379.76328 c 0,-39.44892 31.97966,-71.42858 71.42857,-71.42858 39.44892,0 71.42858,31.97966 71.42858,71.42858 z"
       sodipodi:ry="71.428574"
       sodipodi:rx="71.428574"
       sodipodi:cy="379.76328"
       sodipodi:cx="151.42857"
       id="path4276"
       style="fill:url(#linearGradient3942);fill-opacity:1;stroke:none"
       sodipodi:type="arc" />
    <g
       id="g4063"
       transform="translate(-453.21023,-14.949747)"
       style="fill:#cccccc" />
    <path
       style="fill:url(#linearGradient5271);stroke:none"
       d="m 206.78651,234.04609 -0.28483,7.12074 c 0,0 7.40558,-3.70279 12.81735,-8.54489 0,0 3.70279,6.26625 5.12694,7.12074 l 5.41176,-12.53251 9.54181,12.39009 c 0,0 2.84829,-11.96285 4.69969,-13.81424 l 15.95047,10.25388 9.31597,-13.82734 c 0,0 -7.05461,-5.11805 -6.20012,-9.96016 l -9.83935,-0.86169 -0.998,10.93141 -15.08275,-10.02149 -1.43486,13.20213 -8.67464,-12.00225 -5.52581,17.77334 -5.39905,-13.68751 -9.424,15.89419 -1.42473,-15.38492 z"
       id="path5300"
       inkscape:connector-curvature="0"
       transform="translate(142.5,273.0989)"
       sodipodi:nodetypes="cccccccccccccccccccc" />
    <path
       style="font-size:medium;font-style:normal;font-variant:normal;font-weight:normal;font-stretch:normal;text-indent:0;text-align:start;text-decoration:none;line-height:normal;letter-spacing:normal;word-spacing:normal;text-transform:none;direction:ltr;block-progression:tb;writing-mode:lr-tb;text-anchor:start;baseline-shift:baseline;color:#000000;fill:url(#linearGradient3930);fill-opacity:1;stroke:none;stroke-width:2;marker:none;visibility:visible;overflow:visible;enable-background:accumulate;font-family:Sans;-inkscape-font-specification:Sans"
       d="m 364.28125,418.34375 c -2.44629,-0.0932 -4.87044,-0.0244 -7.21875,0.15625 -9.34174,0.71859 -14.03577,1.85769 -16.8125,3.34375 -2.27838,1.21935 -3.20015,2.59407 -3.3125,3.8125 -0.0974,1.06709 0.49834,1.68691 0.46875,2.34375 -0.92661,-0.0422 -2.69799,-0.57235 -4.28125,-0.28125 -2.51549,0.46249 -5.20746,1.90819 -7.4375,4.40625 -6.7182,1.77437 -11.8326,6.86793 -13.28125,13.25 -1.4886,6.5581 0.99132,14.34057 5.75,20.125 l 1.0625,1.28125 0.625,-1.53125 c 2.33704,-5.67566 6.78125,-6.5625 6.78125,-6.5625 l 0.0625,0 0.0312,0 c 0,0 1.55492,-0.50644 3.4375,-0.65625 1.88258,-0.14981 3.97962,0.12176 5.09375,1.21875 1.36052,1.33959 1.81263,2.83996 2.40625,5.71875 0.59362,2.87879 0.62868,7.14572 -0.34375,13.6875 -2.20097,12.18289 -4.73119,20.42238 -14.62495,25.75 0,0 0.0308,-7e-5 0.0312,0 l 0,0.0312 c 0,0 0.17523,-0.001 0.1875,0 0.62335,0.0984 9.14493,1.50024 19.25,-6.48667 2.30874,-1.8248 2.86429,-2.07141 3.92325,-2.68192 -0.23644,6.54012 -0.37831,10.71006 -0.47357,17.36811 0,0 4.70608,-2.38629 7.26907,-6.23077 2.00787,-3.0118 3.958,-4.05225 5.72189,-9.77919 1.51102,5.97079 5.02897,11.04336 7.59061,14.21669 0.0971,-3.58483 0.6974,-14.821 3.30752,-19.90289 4.29404,6.29142 8.22997,13.79919 11.47373,19.09039 0,0 -1.61899,-12.38467 -0.0312,-21.96875 5.96968,5.45038 11.10824,9.60421 17.71875,11.95711 -1.79949,-5.66217 -2.3331,-8.53794 -1.93398,-14.16307 6.31237,2.38993 11.42051,2.31378 17.42954,2.15771 -8.67708,-8.90819 -18.32977,-22.33088 -19.58931,-32.88925 l 0,-0.0312 0,-0.0312 c -1.01307,-6.88891 -1.30289,-10.64499 -2.48928,-15.32415 -0.86025,-3.39285 -0.598,-8.67906 -4.41176,-12.69729 -3.81375,-4.01823 -16.04133,-8.4176 -23.38021,-8.69731 z m -0.0937,1.96875 c 6.99148,0.256 13.87038,2.07616 19,7.71875 3.4907,3.83976 5.30226,7.17377 6.53125,11.3125 1.22485,4.12478 1.86491,9.09551 2.875,15.96875 l -0.0312,0 c 1.03086,10.85496 6.39997,21.20905 14.87868,29.56028 -7.95009,-0.53324 -13.79362,-4.76415 -21.92103,-8.56434 2.14254,2.77761 4.00476,4.56319 6.72715,6.15176 -0.35528,2.93449 0.82555,8.2873 1.51202,11.53385 -7.8921,-3.17094 -8.87341,-6.23571 -21.25942,-19.49405 2.17292,5.69991 5.03362,7.37614 5.17412,12.99686 0.14051,5.62072 -0.3939,8.19127 -0.54744,9.26887 -1.2473,-1.39114 -5.00503,-11.23104 -11.15392,-18.99321 3.61343,10.8748 -1.83623,14.39898 -1.82414,23.81641 -2.30594,-3.91579 -3.52707,-5.51208 -4.45316,-16.78385 -1.76129,7.99844 -7.73581,16.00606 -10.15609,19.63648 0.0218,-2.24091 -0.38923,-8.10005 -0.66659,-12.27237 -0.27736,-4.17231 -0.0942,-10.04316 -1.56033,-15.13794 -0.52233,1.49618 -0.42108,3.76723 -0.96875,6.84375 -1.46314,5.67535 -3.26999,8.67146 -6.08525,10.92006 -2.19184,1.39299 -3.40285,1.9745 -4.90717,1.96875 0.86228,-1.49416 2.36355,-2.31162 4.55492,-16.70136 2.19137,-14.38974 -1.32458,-21.26025 3.0527,-25.01294 3.23267,-2.67415 8.57681,-2.43333 8.7286,-2.89331 0.15179,-0.45998 -0.98086,-1.89125 -3.34375,-3.6875 -1.64116,-1.24759 -3.236,-3.15365 -3.6875,-4.1875 -1.18535,-2.71425 -1.70276,-6.14318 -2.40625,-8.78125 -0.63253,-2.07755 -2.60669,-4.43644 -3.4375,-5.5 0.38742,0.36806 0.51572,0.52613 1.21875,1.125 0.82366,0.70164 1.34512,1.62835 2.29197,2.6348 0.94685,1.00645 3.09921,6.36629 5.02053,7.4902 2.93479,1.73756 5.66357,0.72575 7.4062,-0.8437 1.49354,-1.35804 2.43954,-5.27659 4.1361,-6.34743 1.69657,-1.07084 8.3456,-1.28212 10.08996,-1.22395 -2.93438,-1.92464 -10.41574,-2.31835 -14.53856,-2.33487 -2.54899,-0.19607 -4.55432,0.55219 -6.09375,1.125 -1.53943,0.57281 -2.48721,0.88495 -3.3125,0.53125 -1.0387,-0.44516 -2.54567,-1.56321 -3.71875,-2.5625 -1.09813,-0.93544 -1.80473,-1.64918 -1.90625,-1.75 -0.78434,-0.73241 -0.61017,-1.505 -0.49995,-2 0.11022,-0.495 0.33664,-1.20928 2.28125,-2.25 2.30059,-1.23124 6.80155,-2.38378 16.03125,-3.09375 2.29455,-0.1765 4.63826,-0.27283 6.96875,-0.1875 z m -29.15625,9.8125 c 0.60745,0.4215 3.8849,2.74802 4.71875,5.875 0.72509,2.71909 0.34024,6.75971 3.09375,9.09375 1.118,3.004 -4.97788,1.8357 -6.5625,1.75 -2.30842,-2.84776 -2.03884,-4.25849 -2.75184,-6.12056 -0.23462,-0.83848 -0.45164,-1.40203 0.44161,-1.31602 1.38641,1.22947 2.81542,1.51872 2.41567,-0.0483 -0.39975,-1.56698 -2.89398,-2.23243 -4.83481,-2.10799 -0.59411,-1.18807 -1.64873,-1.97858 -2.98928,-3.53217 1.14623,-2.15486 3.30925,-3.10871 5.4375,-3.5 0.39362,-0.0724 0.66158,-0.0567 1.03125,-0.0937 z m 17.12231,5.94059 c -0.68373,-0.0672 -1.39589,-0.40989 -1.66049,-1.69156 1.31878,-0.40739 2.52491,-0.45499 3.47947,-0.2806 0.43932,0.12031 0.23305,0.95727 -0.2577,1.54412 -0.49075,0.58686 -0.87755,0.49526 -1.56128,0.42804 z m -2.93481,1.46566 c 0.70863,0.9986 2.43769,1.59004 3.53125,1.25 1.09356,-0.34004 2.56218,-0.69351 1.45312,0.40625 -2.07838,1.42374 -4.0692,0.94653 -5.70307,0 -1.22571,-0.717 -2.10305,-2.30033 -1.84651,-3.22465 1.0182,-1.73044 1.85658,0.5698 2.56521,1.5684 z M 327,434.96875 c 2.18362,2.50531 2.61124,5.98643 3.27145,7.71063 0.66021,1.7242 1.91452,1.84578 3.6348,4.22687 -1.7792,0.0703 -3.56052,0.28059 -5.25,0.84375 -7.32495,2.44165 -9.79844,10.14828 -10.59375,13.9375 -2.96512,-4.91673 -3.98635,-10.84122 -2.84375,-15.875 1.31329,-5.78575 5.203,-10.20284 11.78125,-10.84375 z m 40.57751,1.37316 c 0,0 -7.66369,1.07836 -10.67126,4.90809 -1.50378,1.91487 -3.05171,4.92393 -3.1348,7.68122 -0.0831,2.75729 2.19768,5.65412 3.57491,7.23391 1.37722,1.57979 3.63795,0.0376 2.38388,-1.40089 -1.25408,-1.43852 -2.78796,-3.38374 -2.72136,-5.59374 0.0666,-2.21 0.13277,-4.98062 1.45987,-6.6705 1.79953,-3.37102 4.79378,-3.89246 9.10876,-6.15809 z m 10.28908,22.22844 c -0.10493,-1.25891 0.98537,-3.1246 0.16466,-5.7891 -0.59846,2.45369 -2.17734,4.5423 -3.4375,5.65625 -4.17762,3.86731 -3.42643,1.59638 -2.42586,-3.399 -2.27786,2.51166 -2.64356,5.73342 -7.57202,5.52621 -2.21551,-0.33992 -5.90837,-2.12721 -5.90837,-2.12721 2.77888,3.46763 10.53354,4.97407 12.80844,5.07639 2.2749,0.10232 6.18942,1.15817 10.83583,-5.00848 4.64642,-6.16665 -0.43686,-16.89271 -0.71844,-15.37276 1.8743,12.85332 -2.49276,15.32659 -3.74674,15.4377 z M 336.15625,448.875 c 2.3643,0.12141 4.72429,0.55846 6.8125,1.09375 1.69787,0.43523 1.77187,1.15907 2.96875,1.59375 -2.78644,0.58802 -2.70521,1.41844 -4.70672,2.62148 -2.00151,1.20304 -5.02366,1.54879 -6.51203,1.19102 -1.48837,-0.35777 -3.66916,-0.34382 -5.14553,-0.22628 -3.27919,0.89857 -7.1999,3.36108 -8.97942,5.22628 1.04814,-3.6574 3.33264,-8.92338 8.71875,-10.71875 2.11514,-0.70505 4.47945,-0.90266 6.84375,-0.78125 z"
       id="path3002"
       inkscape:connector-curvature="0"
       sodipodi:nodetypes="cssccscsccccccssscccccsccscccccccccccszcccssccccccczccccczcccczczssccszcczccsssczsscccscccczccccczcczzzzccczczscscccszzsccccccccczzcccczzccsccc" />
    <path
       sodipodi:type="arc"
       style="fill:none;stroke:url(#linearGradient3930);stroke-width:2.5;stroke-miterlimit:4;stroke-opacity:1;stroke-dasharray:none"
       id="path4307"
       sodipodi:cx="151.5"
       sodipodi:cy="380.19183"
       sodipodi:rx="26.499998"
       sodipodi:ry="71"
       d="m 178,380.19183 c 0,39.21222 -11.86446,71 -26.5,71 -14.63554,0 -26.5,-31.78778 -26.5,-71 0,-39.21221 11.86446,-71 26.5,-71 14.63554,0 26.5,31.78779 26.5,71 z"
       transform="translate(142.5,273.0989)" />
    <path
       sodipodi:type="arc"
       style="fill:none;stroke:url(#linearGradient3930);stroke-width:2.5;stroke-miterlimit:4;stroke-opacity:1;stroke-dasharray:none"
       id="path4309"
       sodipodi:cx="151.5"
       sodipodi:cy="380.19183"
       sodipodi:rx="50.169044"
       sodipodi:ry="71.417778"
       d="m 201.66904,380.19183 c 0,39.44295 -22.46144,71.41778 -50.16904,71.41778 -27.7076,0 -50.16904,-31.97483 -50.16904,-71.41778 0,-39.44295 22.46144,-71.41777 50.16904,-71.41777 27.7076,0 50.16904,31.97482 50.16904,71.41777 z"
       transform="translate(142.5,273.0989)" />
    <path
       sodipodi:type="arc"
       style="fill:none;stroke:url(#linearGradient3930);stroke-width:2.5;stroke-miterlimit:4;stroke-opacity:1;stroke-dasharray:none"
       id="path4311"
       sodipodi:cx="151.5"
       sodipodi:cy="379.69183"
       sodipodi:rx="71.5"
       sodipodi:ry="29.499998"
       d="m 80,379.69183 c 2e-6,-16.2924 32.01164,-29.5 71.5,-29.49999 39.48836,0 71.5,13.20759 71.5,29.49999"
       transform="translate(142.5,273.0989)"
       sodipodi:start="3.1415927"
       sodipodi:end="6.2831853"
       sodipodi:open="true" />
    <path
       sodipodi:type="arc"
       style="fill:none;stroke:url(#linearGradient3930);stroke-width:2.5;stroke-miterlimit:4;stroke-opacity:1;stroke-dasharray:none"
       id="path4313"
       sodipodi:cx="153"
       sodipodi:cy="379.19183"
       sodipodi:rx="71.5"
       sodipodi:ry="51.999996"
       d="m 81.5,379.19183 c 2e-6,-28.7188 32.01164,-51.99999 71.5,-51.99999 39.48836,0 71.5,23.28119 71.5,51.99999"
       transform="translate(141,273.0989)"
       sodipodi:start="3.1415927"
       sodipodi:end="6.2831853"
       sodipodi:open="true" />
    <path
       style="fill:none;stroke:url(#linearGradient3930);stroke-width:2.5;stroke-linecap:butt;stroke-linejoin:miter;stroke-miterlimit:4;stroke-opacity:1;stroke-dasharray:none"
       d="m 293.82085,581.19499 0.70711,142.83556"
       id="path4321"
       inkscape:connector-curvature="0" />
    <path
       sodipodi:type="arc"
       style="fill:none;stroke:url(#linearGradient3930);stroke-width:2.22489977;stroke-miterlimit:4;stroke-opacity:1;stroke-dasharray:none"
       id="path4334"
       sodipodi:cx="152.73506"
       sodipodi:cy="401.78772"
       sodipodi:rx="68"
       sodipodi:ry="7.9999995"
       d="m 84.735062,401.78772 c 10e-7,-4.41828 30.444638,-8 67.999998,-8 37.55537,0 68,3.58172 68,8"
       transform="matrix(0.93935815,0,0,1.3440885,150.76214,144.72472)"
       sodipodi:start="3.1415927"
       sodipodi:end="6.2831853"
       sodipodi:open="true" />
    <path
       sodipodi:type="arc"
       style="fill:none;stroke:url(#linearGradient3930);stroke-width:2.5;stroke-miterlimit:4;stroke-opacity:1;stroke-dasharray:none"
       id="path4336"
       sodipodi:cx="152"
       sodipodi:cy="379.69183"
       sodipodi:rx="71.5"
       sodipodi:ry="3.4999998"
       d="m 80.5,379.69183 c 2e-6,-1.93299 32.01164,-3.5 71.5,-3.5 39.48836,0 71.5,1.56701 71.5,3.5"
       transform="translate(142.5,273.0989)"
       sodipodi:start="3.1415927"
       sodipodi:end="6.2831853"
       sodipodi:open="true" />
    <path
       sodipodi:type="arc"
       style="fill:none;stroke:url(#linearGradient3930);stroke-width:2.22459888;stroke-miterlimit:4;stroke-opacity:1;stroke-dasharray:none"
       id="path4338"
       sodipodi:cx="152.5"
       sodipodi:cy="425.19183"
       sodipodi:rx="50.999996"
       sodipodi:ry="10.999999"
       d="m 101.5,425.19183 c 1e-5,-6.07513 22.83348,-11 51,-11 28.16652,0 51,4.92487 51,11"
       transform="matrix(0.89903846,0,0,0.89903846,155.89663,325.47163)"
       sodipodi:start="3.1415927"
       sodipodi:end="6.2831853"
       sodipodi:open="true" />
    <path
       style="fill:url(#linearGradient5271);stroke:none"
       d="M 271.75 406.9375 C 269.75 411.6875 271.39468 416.11834 266.125 433.71875 C 260.85532 451.31916 276.15625 445.3125 276.15625 445.3125 C 276.15625 445.3125 272.8869 442.32862 272.9375 438.8125 C 273.07944 428.95098 276.84138 410.59612 278.5 408.9375 C 280.75 406.6875 271.75 406.9375 271.75 406.9375 z M 224.9375 431.875 C 224.9375 431.875 213.125 434.1875 204.8125 441.1875 L 206.5 441.0625 L 224.625 435 L 224.9375 431.875 z M 226.0625 434.40625 C 224.96235 434.50198 225.46875 436.4375 225.46875 436.4375 L 233.96875 439.4375 L 245.625 442.71875 C 245.625 442.71875 251.09895 444.03829 248.09375 442.09375 C 245.08855 440.1492 229.14092 434.31785 226.3125 434.40625 C 226.22411 434.3952 226.13584 434.39987 226.0625 434.40625 z M 218.8125 446.3125 C 218.8125 446.3125 208.75 451.0625 202.3125 462.875 L 208.1875 457.375 L 217.8125 452.3125 L 218.8125 446.3125 z M 251.59375 448.15625 C 249.80023 448.14343 251.75 451.4375 246.125 455.1875 C 240.125 459.1875 233.5 459.4375 233.5 459.4375 C 233.5 459.4375 230.65165 455.68416 228.625 454.6875 C 226.59835 453.69084 226 458.6875 226 458.6875 L 225 466.9375 L 229.75 469.9375 L 236.75 467.4375 L 245.5 462.1875 L 256.5 460.9375 L 264.5 457.1875 L 274.5 461.1875 C 274.5 461.1875 281.75 464.1875 285 464.4375 C 287.4375 464.625 288.60156 460.875 289.5625 458.25 L 288.4375 462.96875 L 298.90625 466.9375 L 303.625 471.25 C 305.57479 462.21598 291.0837 457.23455 290.09375 456.90625 C 289.92251 457.28045 289.77243 457.73176 289.59375 458.21875 L 289.90625 456.84375 C 289.90625 456.84375 290.05916 456.89478 290.09375 456.90625 C 290.22392 456.62182 290.36719 456.37344 290.5 456.1875 C 291.75 454.4375 291 451.8125 287.125 451.3125 C 283.05841 450.78778 284 452.9375 281 455.6875 C 278 458.4375 278 454.1875 274.5 451.6875 C 271 449.1875 264 451.4375 259 451.4375 C 254 451.4375 254.5 448.6875 252 448.1875 C 251.84375 448.15625 251.71332 448.1571 251.59375 448.15625 z M 224.4375 461.5 C 224.4375 461.5 211.4375 465.3125 206.5625 470.9375 L 206.9375 471.9375 L 224.5 465.9375 L 224.4375 461.5 z "
       id="path5263"
       transform="translate(142.5,273.0989)" />
    <path
       style="font-size:medium;font-style:normal;font-variant:normal;font-weight:normal;font-stretch:normal;text-indent:0;text-align:start;text-decoration:none;line-height:normal;letter-spacing:normal;word-spacing:normal;text-transform:none;direction:ltr;block-progression:tb;writing-mode:lr-tb;text-anchor:start;baseline-shift:baseline;color:#000000;fill:url(#linearGradient3930);fill-opacity:1;stroke:none;stroke-width:2;marker:none;visibility:visible;display:inline;overflow:visible;enable-background:accumulate;font-family:Sans;-inkscape-font-specification:Sans"
       d="m 292.78125,25.625 c 4.98335,14.507567 5.99646,31.933915 5.68842,42.600347 -0.88053,-2.889808 -1.77904,-3.531789 -4.52329,-8.3914 -1.70666,5.171663 -2.80971,12.372876 -3.27496,15.749395 -6.1594,-5.382833 -8.7409,-8.174499 -15.34559,-13.040449 -5.5452,-4.613729 -13.95401,-8.714083 -20.29718,-11.825825 0.94053,5.624968 1.12161,7.236678 2.3099,11.147524 -15.13596,-8.666977 -30.91785,-14.424738 -47.03386,-17.259961 17.82345,21.849361 24.1451,29.295888 32.60156,49.614119 -5.32971,-3.096246 -7.92558,-4.131843 -14.34375,-6.3125 18.68614,34.99233 26.41217,56.39275 33.46875,86.625 -2.42472,8.49357 -2.91716,18.39957 -0.0312,26.03125 0.98489,3.73544 2.33417,6.79279 3.5,9.21875 1.16583,2.42596 1.23193,4.4256 1.375,5.28125 0.40606,2.4285 0.49333,5.48396 0.1875,8.71875 -0.30583,3.23479 -1.69093,5.20082 -4.78125,7.4375 -6.80968,4.92864 -10.69874,11.29392 -10.71875,17.90625 -0.0119,3.91691 2.79885,8.83186 4.875,12.8125 1.46836,2.86397 0.0649,1.1242 4.23575,8.66069 4.1709,7.53649 14.22731,21.83374 21.59467,30.85172 7.36737,9.01797 17.16907,18.45644 26.69195,25.53845 -0.15734,3.13131 1.49568,6.05052 2.47763,9.13664 0.53671,1.68681 0.68799,1.89925 1.125,3 -0.56833,-0.38794 -1.16709,-0.80823 -1.75,-1.21875 -0.0168,-0.0118 -0.0145,-0.0506 -0.0312,-0.0625 l -0.0312,0 c -7.23034,-5.09852 -15.43005,-11.74312 -24.375,-20.90625 6.23124,10.84309 17.97022,20.3299 21.625,23.90625 3.65478,3.57635 5.29097,6.3886 6.0625,10.5625 -1.71799,-0.82633 -2.84322,-1.51275 -6.40625,-3.75 -5.30985,-3.33409 -11.18576,-8.48024 -14.28125,-13.71875 0.46895,3.73163 11.16254,13.54637 13.40625,14.96875 3.70396,2.33329 8.98087,5.37328 13.09191,6.83211 -0.5175,-2.30366 -1.30209,-4.26146 -1.71875,-5.71431 -0.41666,-1.45286 -1.21636,-3.16705 -1.87316,-4.3678 5.55189,4.14062 9.93781,10.49072 11.46875,17 -11.46837,-1.74626 -23.03547,-10.85375 -37.90625,-23.4375 15.04642,17.95843 31.86447,28.59375 47.53125,28.59375 -2.0404,-7.29627 -7.74114,-13.31634 -7.3125,-13.65625 0.42864,-0.33991 2.40964,1.85838 4.875,5.0625 2.46536,3.20412 25.93552,36.50704 39.09375,56.1875 -1.22036,3.6603 -5.08057,5.19471 -6.71875,3.40625 -1.63818,-1.78846 -15.71598,-19.37022 -31.46875,-46.5 0,0 -0.44217,-0.11733 -1.0939,0.16032 -0.65174,0.27764 -0.62485,0.83968 -0.62485,0.83968 15.44421,26.59836 28.58143,43.6297 28.6875,45.46875 0.10607,1.83905 -4.29414,3.26697 -5.59375,2.25 -1.29961,-1.01697 -30.1679,-41.45167 -41.75,-57.15625 4.07452,10.99064 36.51914,55.92037 37.125,57.5625 0.60585,1.64212 -3.33212,1.28885 -5.1875,0.78125 -1.85538,-0.50759 -3.55086,-2.32058 -5.625,-4.96875 -11.25399,-13.69806 -23.7192,-29.73411 -32.90625,-42.03125 -5.72476,-7.55045 -23.09363,-31.9142 -34.25,-44.78125 8.10738,14.73863 9.99059,16.44343 15.3125,27.25 -3.82633,-3.39839 -16.64274,-17.97899 -18.78125,-20.6875 1.69764,5.0837 4.04083,7.30726 6.34375,12.3125 -3.19754,-2.94757 -7.58964,-8.72825 -12.125,-12.625 7.3497,11.44483 8.4269,13.14062 14.65625,20.125 -10.18902,-6.48134 -15.78582,-8.47639 -28.8125,-26.03125 3.73516,10.64991 12.65227,20.08686 42.71875,43.28125 -0.42428,0.83988 0.86218,13.40529 0.96875,19.28125 -0.0192,1.78217 -3.9375,5.5 -3.9375,5.5 -0.76096,-7.04256 -2.1269,-13.48405 -5.75,-19.78125 2.30162,8.50954 2.24662,13.58738 1.59375,22.875 -1.93524,2.09701 -3.04455,2.46441 -4.84375,4.28125 -2.82853,-8.97404 -3.92976,-18.34433 -9.78125,-25.125 1.95751,7.00424 5.18723,14.58269 3.15625,21.4375 -3.75107,-4.74936 -8.89233,-11.47153 -15.125,-13.46875 1.26353,2.17214 3.64047,4.2461 4.375,6.40625 -2.85673,4.5058 -2.62234,5.87207 -4.5625,10.09375 -7.01038,-27.74323 -17.99565,-45.37778 -22.71875,-86.46875 -0.38543,6.05591 -0.17904,11.86217 -0.40625,14.71875 -10.33438,-8.14624 -25.70383,-29.01656 -32.09375,-44.3125 -7.24356,-17.73143 -9.84855,-37.71814 -5.375,-65.28125 0.051,0.0492 -2.48287,-0.30308 -2.75,-0.375 -4.51173,27.79833 -2.71265,48.29149 4.6875,66.40625 5.90341,14.45089 13.32513,28.55125 25.875,42.46875 -3.20882,8.67035 -9.39596,16.07383 -17.125,21.125 -1.2436,15.83873 -2.40414,31.68731 -3.59375,47.53125 l -0.0625,1 1.03125,0.0625 c 0,0 24.67415,4.84054 41.96875,-16.84375 3.4308,10.44929 7.53849,19.12999 10.21875,30.84375 l 1.90625,-3.34375 c -0.0281,0.24978 -0.002,1.27926 -0.0312,1.53125 -1.01361,8.85804 -2.55657,19.06109 -4.40625,23.9375 -0.20051,0.52861 -0.45883,0.97424 -0.78125,1.375 -4.05442,0.21483 -8.90656,-2.82757 -13.375,-6.4375 -4.49016,-3.62747 -8.46303,-7.6766 -11.625,-9.1875 -0.61697,-0.29481 -1.05888,-0.13034 -1.46875,0.0312 -0.12206,0.0481 -0.25236,0.15625 -0.375,0.21875 -17.3705,-0.39181 -27.28125,19.15625 -27.28125,19.15625 3.00906,-0.48432 11.92969,-4.93083 14.8125,-5.875 -0.009,0.0218 -0.023,0.0403 -0.0312,0.0625 C 201.54133,448.06253 200.75,466 200.75,466 c 3.10931,-1.72337 9.07217,-8.47179 9.75,-8.78125 0.67783,-0.30947 1.15292,-0.76304 1.71875,-0.59375 0.56582,0.1693 0.71425,0.0698 0.5,0.53125 -2.83489,4.19136 -2.76394,4.62946 -4.875,8.59375 -1.57878,2.60783 -2.25649,5.43643 -2.5,8.40625 3.13342,-1.81101 6.27985,-3.43704 8.96875,-4.5625 1.98514,-0.82066 4.12309,-1.55345 6.03125,-1.9375 1.78425,-0.35911 3.28724,-0.33003 4.28125,0.0312 1.45811,2.62179 4.8541,4.16182 6.8125,3.90625 3.13285,-0.49561 6.55614,-2.06332 11.4375,-5.28125 0.81275,-0.54775 5.86565,-2.47126 7,-3.25 2.06584,-0.90209 6.33826,-0.65954 11.0625,-2.09375 4.72424,-1.43421 7.78246,-0.85749 13.84375,3.15625 2.54118,1.29891 5.61481,2.90903 7.15625,2.9375 1.54144,0.0285 5.11755,-0.96817 7.75,-1.03125 2.63245,-0.0631 7.7025,1.85761 10.5625,5.1875 2.26221,2.6989 2.15625,4.0625 2.15625,4.0625 3.08939,-3.34537 3.70517,-10.03576 3.53125,-11.96875 -0.34045,-3.30725 -1.29924,-6.78426 -3.46875,-9.71875 -2.08542,-2.82074 -4.35116,-5.58471 -9,-6.625 -1.58353,-1.557 -2.36521,-2.41043 -3.9375,-3 -3.91952,-1.23122 -8.33394,-1.0598 -12.09375,-1.25 -2.79905,-0.45475 -3.73884,-0.55371 -3.46875,-3.09375 0.89076,-6.12794 2.09915,-12.77967 3.28125,-18.53125 1.50974,-7.28895 0.98103,-11.57019 1.6875,-14.8125 0.48205,2.29801 3.58339,10.55245 3.90625,12.8125 0.47397,-5.53561 16.48955,-23.29965 16.9375,-25.53125 0.44795,-2.2316 0.74319,-15.13126 0.90625,-17.96875 1.54402,-0.33421 3.00896,0.71182 4.4375,1.78125 11.23153,18.05111 23.70437,33.5238 36.5,49 4.41839,4.89879 8.32456,6.59021 12.03125,6.78125 7.70136,-0.52352 15.35484,-1.91918 22.1875,-4.9375 2.85183,-1.27522 4.69024,-3.8437 4.875,-5.75 0.18476,-1.9063 0.52079,-3.3822 -0.46875,-5.25 -0.98954,-1.8678 -3.06709,-4.90048 -4.375,-6.9375 -13.60781,-18.64983 -27.54604,-38.31503 -39.96875,-56.75 0.717,0.31774 1.46381,0.51891 2.21875,0.71875 l 0.15625,-1.125 c 0,0 0.40277,-4.63422 -1.875,-10.625 2.05827,1.60019 8.44653,5.89159 11.68956,6.873 0.34425,-5.31104 -2.32987,-11.53619 -2.87467,-15.33264 10.44424,4.28354 19.00069,5.26274 22.26793,4.543 -1.36374,-6.69146 -4.3615,-13.64994 -6.05346,-17.78201 -1.69196,-4.13208 -2.33864,-5.74955 -4.29864,-8.34023 8.71726,3.70261 17.21062,2.88182 26.53072,1.74405 -2.20678,-6.73246 -6.10593,-12.30244 -9.54274,-17.86152 -1.29774,-2.06362 -2.87095,-4.28048 -4.65625,-6.5625 13.76823,0.89928 25.66361,-0.54531 31.64277,-9.66866 -9.1178,-10.28734 -12.59577,-13.26396 -22.71003,-19.57077 10.70271,-1.86007 25.93989,-4.28462 31.22351,-14.01057 -2.15847,-3.56523 -8.95885,-10.65724 -17,-15.5 6.84785,-3.28342 28.29608,-16.98383 29.40358,-27.21341 -3.04815,-4.45063 -10.54961,-7.83823 -19.37957,-8.00839 20.27474,-20.47809 17.60679,-45.6859 14.07799,-57.98358 -6.48159,6.46768 -10.23173,9.09607 -15.48349,13.75375 6.89859,-10.81393 4.82769,-47.9387 0.83385,-53.93709 -2.93676,5.76997 -4.90888,9.35164 -7.71055,13.4958 0.79786,-13.870847 -2.42603,-26.963534 -8.78373,-38.991607 -2.362,7.079843 -6.68877,12.370631 -9.11928,17.339554 -1.28234,-14.888741 -7.97158,-28.739402 -15.88342,-38.559779 -2.04093,10.418433 -2.75207,12.460326 -4.08038,22.104752 -6.7157,-17.611952 -14.19844,-27.400043 -28.875,-38.5625 -0.16572,10.48254 0.3574,16.665674 -0.375,25.40625 C 322.76786,42.184225 309.10414,31.197823 292.78125,25.625 z m 4.15625,3.8125 c 5.55378,2.34585 30.4382,19.075478 28.92494,38.733915 -1.51326,19.658437 -1.42895,23.537914 -6.22856,39.240355 -3.72349,2.57781 -5.32044,4.22789 -9.00812,8 -0.46286,-12.65134 -1.98766,-25.711357 -7.46431,-31.84743 0.5596,-17.829452 0.56652,-37.462903 -6.22395,-54.12684 z M 333.5,44.84375 c 3.52376,5.00457 23.23759,25.123434 16.4375,44.375 -6.80009,19.25157 -10.63522,24.6804 -19.45895,41.31158 -2.29663,1.88151 -3.33925,1.77843 -6.16605,3.62592 -0.22543,-8.84674 0.11286,-18.77372 -1.90625,-25.78125 1.48004,-8.623864 2.51879,-10.717139 5.08814,-23.585498 C 329.6318,74.084414 334.23092,52.784978 333.5,44.84375 z m -109.5573,8.106155 c 24.33489,5.90504 31.77281,11.775585 39.15105,24.987595 7.70033,13.78877 10.72364,24.65114 15.53125,49.40625 -3.12953,10.4703 -4.90899,17.08598 -8.03125,23.71875 C 255.00578,99.765661 244.78574,80.092241 223.9427,52.949905 z m 35.2448,3.393845 c 2.16903,1.1146 7.28086,3.82601 13.625,8.5 7.81746,5.75944 14.58391,13.64124 15.8197,21.625 -2.761,19.51581 -5.56044,24.56849 -8.5697,35.5 -1.62478,-24.342616 -12.30474,-37.605056 -18.4062,-56.34375 -0.93184,-3.134752 -1.87293,-6.366185 -2.4688,-9.28125 z m 102.534,1.672753 c 9.59123,14.865184 12.53705,35.399961 5.4942,48.776947 -7.04285,13.37699 -12.81521,26.25945 -24.92965,41.64229 -0.688,0.199 -3.55969,1.94444 -10.92085,6.54726 3.26412,-8.52921 5.37654,-16.79113 5.66605,-25.1705 -1.27376,-0.0476 -1.74568,0.25482 -3.09375,0.75 11.81366,-23.055 26.54768,-47.476636 27.784,-72.545997 z M 294.625,66.71875 c 6.79615,23.530062 0.0161,50.29761 -5.46875,69.125 -3.84077,13.0233 -9.28941,28.76556 -14.0625,43.96875 -5.19497,16.54697 2.58867,23.99826 4.5,31.84375 1.91133,7.84549 0.5768,20.67921 -4.34375,24.96875 -4.92055,4.28954 -9.66108,5.55768 -12.03125,9.5625 -1.74845,3.10835 -2.11717,6.81237 -2.15625,11.5 -0.0267,3.2047 -0.10749,4.21891 -0.28125,5.71875 -2.38206,-4.57169 -5.34265,-8.0448 -5.41789,-14.3223 -0.0752,-6.2775 4.24537,-8.95606 10.85539,-13.7402 3.61952,-2.6197 5.00371,-7.65335 5.34375,-11.25 0.24039,-9.36111 -4.0125,-16.46772 -6.15625,-24.0625 -1.87371,-7.10651 -2.00369,-16.22703 3.65625,-28.53125 7.88409,-17.13933 16.29443,-31.08387 23.875,-84.71875 0.73236,-6.256989 0.99422,-14.353864 1.6875,-20.0625 z m 89.75,14.663492 c 2.51414,5.50677 9.54504,23.266378 -1.11433,48.642148 -7.36053,13.1253 -18.57852,26.23033 -33.72523,40.51753 -2.80786,0.17748 -4.58842,0.61337 -7.20503,0.99105 2.26688,-6.77833 4.30117,-15.94755 4.13453,-23.33366 15.04076,-20.18254 23.39966,-37.02116 37.91006,-66.817068 z m -83.09559,12.784416 c 3.03308,6.827252 5.94142,12.554362 5.6152,23.479022 -4.32622,4.29966 -7.72687,7.74182 -14.43138,17.7396 4.77664,-15.01693 7.12657,-29.70763 8.81618,-41.218622 z M 235.59375,95.5 c 6.70622,2.688961 15.75182,10.73508 24.22238,36.8223 5.43734,16.17493 8.44111,25.24613 8.49632,25.77145 -1.65893,3.24632 -2.80943,4.76212 -3.6875,8.59375 -6.23214,-25.98042 -24.03571,-63.31148 -29.0312,-71.1875 z m 164.88567,12.78163 c 4.08718,6.35447 3.47246,42.09758 -8.69834,52.41627 -17.12224,14.51663 -25.97733,19.75136 -42.7632,31.66572 -3.48244,0.35409 -6.61877,0.21397 -8.93499,0.0586 2.03743,-3.04778 9.51274,-14.96976 10.48854,-17.03585 0.9758,-2.06609 1.22963,-3.76621 2.43423,-4.69119 7.15261,-5.4923 26.23261,-25.93543 33.49434,-38.94522 5.35755,-8.3532 10.19874,-16.86691 13.97942,-23.46833 z m -82.08205,7.48874 c 1.59237,6.19691 5.84777,18.0458 -4.7454,27.49019 -10.59318,9.4444 -18.18706,18.66852 -25.23413,30.5092 -1.90155,-2.74386 -4.60137,-2.20945 -7.09651,-2.15272 2.19443,-6.99781 3.53922,-12.92607 5.58487,-19.58579 9.22466,-16.44391 20.31545,-31.88136 31.49117,-36.26088 z M 332.6875,136 c -0.86838,4.2463 -1.63914,13.62528 -5.92678,21.4349 -8.80032,5.9999 -20.62047,17.2235 -33.29197,32.1901 -0.10616,-1.23364 0.84345,-2.5317 0.59375,-4.40625 -0.83774,-2.69202 -2.29058,-4.20922 -3.5625,-5.46875 13.47305,-23.90042 23.62369,-32.36627 31.8125,-37.75 3.64948,-2.13636 6.36838,-3.9338 10.375,-6 z m 56.48999,61.79875 c -10.92783,0.62768 -29.59741,4.06089 -43.05761,9.25687 1.72247,-3.09215 5.42274,-10.08886 7.2518,-14.03722 7.34469,-3.27573 49.39849,-36.82006 59.9337,-46.83469 -0.64615,24.38391 -6.18312,39.89806 -24.12789,51.61504 z m -47.8427,-41.7311 c 0.54411,7.1808 -1.95121,14.51807 -6.32355,18.18769 -9.69148,3.28089 -22.31335,11.05984 -37.69874,24.90091 0.10583,-1.32676 0.098,-2.56541 -0.1875,-3.65625 -0.27047,-1.03337 -0.78945,-1.94716 -1.46875,-2.71875 12.53007,-16.65954 24.25521,-24.06345 32.91578,-29.91273 4.18723,-3.07541 9.70976,-6.66594 12.76276,-6.80087 z m -55.44815,19.70288 c 1.28775,0.85224 1.93242,1.04412 0.81603,3.03087 -2.37698,0.6827 -4.89122,0.93734 -6.17602,1.5183 -0.44336,-1.82469 -0.79219,-3.92529 1.0072,-4.68674 1.97039,-0.77933 3.06505,-0.71467 4.35279,0.13757 z m 60.67643,-0.66039 c -4.71555,9.11969 -10.87668,16.77532 -16.41507,19.56636 -7.09161,3.57378 -17.23213,4.34577 -29.77281,11.94831 0.033,-1.95317 -0.72379,-2.59983 -2.0625,-3.75099 24.35985,-22.61995 45.68038,-27.33357 48.25038,-27.76368 z m -57.05235,8.21124 c 3.47472,0.83969 3.17953,3.66739 0.77053,4.99112 -2.409,1.32373 -8.32456,1.12444 -11.07767,1.56786 0.0728,-2.04794 -2.10279,-4.17562 1.31602,-5.77589 3.41881,-1.60026 5.5164,-1.62278 8.99112,-0.78309 z m 2.64553,10.61612 c 5.0878,2.69319 4.19278,3.20861 1.68755,6.59375 -3.75,-1.54495 -6.75868,-2.22167 -14.28125,-1.375 -0.77199,-2.15648 -1.75616,-3.25433 0.15625,-5.3125 3.1581,-1.74136 9.3664,-1.40685 12.43745,0.0937 z m 53.47662,5.27888 c -4.17249,8.63469 -8.9663,13.55196 -13.99037,17.07136 -8.14417,-2.72182 -17.20834,-4.29493 -32.80001,-4.91323 12.34681,-6.44643 34.31359,-14.91268 46.79038,-12.15813 z m 70.18459,6.83125 c -3.50965,5.64138 -24.37004,23.34302 -34.06898,21.72562 -12.99055,-2.81016 -24.01896,-3.405 -30.63402,-3.1445 -5.20285,-3.72913 -9.46263,-5.70674 -13.73641,-6.68589 2.65419,-3.04588 3.56105,-4.63523 6.55145,-7.0324 18.97093,-6.09398 40.85765,-9.96294 51.83118,-9.25903 10.97352,0.70392 14.54314,0.98449 20.05678,4.3962 z M 292.625,203.3437 c 5.64842,1.35595 6.52143,5.71225 1.59375,8.3125 -2.72969,-1.99524 -4.25769,-3.00352 -11.17586,-4.84375 -0.64473,-1.464 -1.09674,-2.9117 -1.73039,-4.4375 2.93592,-0.23283 5.66408,-0.3872 11.3125,0.96875 z m -8.87224,8.14205 c 7.02804,2.73672 11.00638,6.65224 11.90349,9.95175 -2.68391,2.31692 -5.91568,0.13715 -11.59451,-3.19102 0.2018,-2.29622 0.3744,-3.35925 -0.30898,-6.76073 z m 51.60436,10.99675 c 7.77036,3.20179 10.8136,6.27418 11.14612,6.5961 -4.43836,2.65182 -7.89887,6.74525 -15.71278,4.47231 -7.81391,-2.27295 -18.28862,-8.27981 -31.44666,-10.70716 0.6847,-2.66934 1.61487,-3.86177 0.125,-6.3125 11.77188,-1.48167 24.99757,1.16273 35.88832,5.95125 z m -51.05978,0.43984 c 4.05073,2.02717 10.42642,7.66218 9.51516,11.70266 -4.94668,1.01585 -6.83225,0.33737 -10.8125,-3.84375 0.71996,-3.03802 1.09981,-6.13919 1.29734,-7.85891 z m 55.03324,24.25536 c -5.31843,0.20547 -8.41776,-0.56183 -13.0118,-0.89277 -7.55981,-6.76691 -12.5273,-10.40933 -25.01615,-17.12619 8.43696,0.51838 16.21677,3.47859 22.73323,6.98145 7.93632,4.26608 13.23532,9.34432 15.29472,11.03751 z m 66.63817,-0.7715 c -0.59844,0.73248 -4.19464,2.76575 -9.125,5.125 -5.86658,2.80725 -18.61462,5.50721 -29.87576,1.68934 -11.26114,-3.81787 -20.54852,-8.21256 -28.40549,-15.00184 7.23483,-2.20457 8.75547,-4.78419 13.80288,-8.04971 2.97722,-1.92617 4.60147,-2.34183 7.19351,-2.451 2.59203,-0.10918 11.19582,0.91338 22.47073,5.15826 6.92448,2.60699 17.05236,7.00163 23.93913,13.52995 z m -66.82364,21.98351 c -5.86493,0.3112 -16.21556,-0.75625 -17.61381,-2.04601 -1.39825,-1.28976 -17.40792,-20.40748 -25,-26.71875 1.21344,-1.14262 2.64045,-2.34443 3.3125,-4.125 5.9884,1.6123 15.7683,7.35534 22.31143,13.43942 8.77181,8.1564 15.20315,14.69474 16.98988,19.45034 z M 281.55622,233.5098 c 5.62689,4.59986 6.90448,9.823 7.31878,14.45895 -1.4607,1.51095 -4.18254,0.70238 -6.37278,-0.4902 -1.17472,-3.83816 -1.81873,-5.47081 -3.93972,-8.3848 1.27437,-2.02918 2.45349,-3.50476 2.99372,-5.58395 z m -4.57767,7.72542 c 1.62671,3.14413 3.07672,8.59285 2.8652,13.20228 -1.83652,0.23443 -3.11295,-0.46944 -6.4375,-1.125 0.57333,-3.70711 -0.28464,-5.66759 -2.09375,-8.625 2.56427,-1.04608 3.95967,-2.24474 5.66605,-3.45228 z M 293.5,242.875 c 15.79598,12.97493 22.96344,22.71267 28.21523,30.65089 4.44873,6.72437 6.75462,10.89789 5.44914,10.85539 -8.70769,-0.28351 -9.75319,-3.22719 -15.75261,-10.73804 -5.99941,-7.51085 -9.17613,-15.00071 -19.16636,-24.29857 1.10157,-1.21986 1.10948,-1.41959 1.0671,-3.15717 -0.0235,-0.96497 -0.90203,-2.05242 -1.25,-3.09375 0.3157,-0.17266 0.81967,-0.38885 1.4375,-0.21875 z m -24.84375,5.46875 c 2.3333,6.13548 -0.70609,11.51512 -3.09375,13.15625 -0.44986,-3.85056 -0.64042,-7.26642 3.09375,-13.15625 z m 126.06082,32.43934 c -2.07448,4.12334 -23.40354,6.7323 -29.63925,2.39292 -6.31641,-4.33308 -12.33628,-11.16826 -16.24733,-12.72024 -3.91105,-1.55198 -11.1574,-12.79046 -16.67424,-19.23702 7.97251,-0.0392 13.84467,-0.63814 18.51739,0.31472 20.9769,4.93856 44.0734,22.59416 44.04343,29.24962 z M 288.53125,252.8125 c 17.75191,16.18993 31.15613,41.55842 28.875,44.6875 -4.15734,-1.0865 -13.55044,-3.74656 -16.0625,-9.15625 -2.51206,-5.40969 -14.11961,-24.88656 -18.71875,-30.15625 1.27637,-3.5696 2.66785,-4.88155 5.90625,-5.375 z m -9.91881,7.41422 c 5.79625,8.45224 10.35961,13.47664 14.04487,20.42628 5.5057,10.38262 10.92131,22.14732 11.70084,32.04262 -7.30057,-1.71416 -25.57222,-19.60176 -35.60847,-39.0334 -0.78144,-2.72498 -2.91871,-8.52241 -1.78093,-9.31847 1.72306,-1.04966 3.42621,-1.84934 4.65625,-3.9303 0.0607,-0.10274 0.0668,-0.23873 0.125,-0.34375 2.20206,0.45554 5.19692,0.5342 6.86244,0.15702 z m 69.90441,13.81249 c 2.85784,1.73618 14.40625,12.85911 20.1394,20.49204 5.73315,7.63293 7.29997,12.23832 8.29474,15.18934 -2.70565,0.0665 -15.55892,3.40893 -24.86575,-5.62354 -18.79322,-16.67423 -21.6268,-24.34536 -25.89769,-31.84705 9.95963,0.27648 19.47146,0.053 22.3293,1.78921 z m -29.0481,12.49204 c 2.84671,1.45585 5.039,2.59472 8.01834,3.0773 2.7288,0.442 4.08272,0.004 6.51291,1.26645 2.43019,1.26252 19.17664,23.44497 23.10409,31.96339 1.57238,3.82811 2.97492,5.55483 3.81472,9.82154 -6.80823,-1.69396 -15.29593,-4.10428 -17.31579,-5.59054 -2.01985,-1.48627 -4.79205,-8.06 -6.40296,-11.27726 -1.61091,-3.21726 -4.24113,-9.0091 -9.30729,-15.43674 -5.06616,-6.42764 -5.75566,-8.54242 -8.42402,-13.82414 z m -14.19394,10.12484 c 5.17405,2.51798 11.75066,4.15999 17.41293,5.10407 0.53352,-0.43189 0.44792,-1.92232 0.85147,-1.96554 0.40355,-0.0432 5.81642,8.7214 8.89849,14.25758 3.08207,5.53618 5.61812,12.27809 6.52569,16.26219 -8.55202,-3.52382 -19.66201,-10.54029 -21.98042,-12.61011 -2.31841,-2.06981 -6.53625,-6.55957 -7.57627,-9.14221 -1.9091,-4.74079 -2.01519,-7.46116 -4.13189,-11.90598 z m -9.24356,16.18766 c 1.86726,0.73241 9.27876,5.55862 14.15625,7.84375 l 0,-3.71875 c 2.18498,2.68455 4.57147,6.32903 4.78125,8.9375 -7.38326,-4.30317 -16.33549,-10.75 -18.9375,-13.0625 z m 20.09597,9.97671 c 1.98882,1.05077 3.63535,1.58448 4.53753,2.40051 0.95544,1.33857 1.28489,4.40691 1.16177,6.56174 -1.4514,-0.76514 -2.06214,-1.1589 -3.39363,-2.59051 -1.29451,-2.22869 -2.12854,-4.68086 -2.30567,-6.37174 z m 7.98928,4.28217 c 2.37382,1.44372 3.29615,1.99314 5.20987,3.0969 0.94145,1.63409 1.55975,2.73186 2.59428,5.53546 -2.21132,-0.62342 -3.32012,-1.33289 -4.88718,-3.18007 -1.56705,-1.84718 -2.24497,-3.25568 -2.91697,-5.45229 z m -12.2415,0.61612 c 2.3811,1.71063 4.74596,3.34168 7.03125,4.8125 1.21444,6.28149 1.49294,7.58641 4.125,10.96875 -3.75136,-1.36607 -5.42748,-2.27777 -7.40625,-3.9375 -2.45337,-3.21748 -3.48611,-7.30593 -3.75,-11.84375 z m 20.25,3.90625 c 2.13897,0.73933 4.04908,2.02897 4.80806,2.93122 0.75898,0.90225 1.60656,3.32462 1.44194,5.85003 -2.69604,-2.29576 -5.04925,-5.58665 -6.25,-8.78125 z m -9.8125,4.40625 c 4.97749,2.80567 7.02569,4.07125 10.28125,6.1875 2.16288,4.51518 3.07778,5.84657 3,7.28125 -0.86155,-0.24977 -3.30971,-1.85486 -5.375,-3.03125 -2.06529,-1.17639 -4.8183,-2.98949 -7.90625,-10.4375 z m -91.84375,0.375 c 3.7246,2.35372 4.80311,3.75192 7.4375,6.375 2.81552,14.42261 6.29801,25.66596 9.84375,36.53125 -8.88172,8.58012 -18.29574,13.70443 -20.4375,9.0625 -0.76676,-1.26693 5.86849,-4.17812 9.34375,-10.40625 -4.75149,5.26311 -8.42497,6.42967 -12.9375,9.75 -0.81971,-0.23451 -1.9841,-1.53987 -3.96875,-2.53125 0,0 10.71631,-4.75947 13.0625,-8.40625 -5.16163,2.22788 -14.83172,6.22951 -15.09375,5.71875 -0.32399,-0.63154 -0.69368,-1.41256 -1.09375,-2.375 -0.40007,-0.96244 -3.625,-23.6875 -3.625,-23.6875 1.18516,-0.7332 12.67735,-7.23625 17.46875,-20.03125 z M 267.25,400 c 2.50187,2.19142 4.71617,7.39806 7.4375,12.75 -1.11892,10.38828 -4.84138,27.27677 -4.6875,29.46875 0.15388,2.19198 1.37824,1.99944 2.5,2.53125 6.41574,1.58694 13.6765,0.3348 17.75,2.90625 0.45884,0.24451 0.78397,1.47263 -0.28125,3.71875 -1.06522,2.24612 -2.544,6.23121 -3.21875,8.375 -0.67475,2.14379 -2.77323,2.27319 -4.03125,2.25 -1.25802,-0.0232 -2.65572,-0.0794 -5.625,-1.625 -2.96928,-1.54559 -3.7883,-3.81596 -6.84375,-5.375 -2.63666,-1.31187 -3.82594,-1.92262 -6.625,-2.0625 l 0.9375,1.59375 c 0.33822,0.58249 0.41213,0.96627 0.40625,1.15625 -0.006,0.18998 -0.0432,0.25909 -0.1875,0.40625 -0.28856,0.29433 -1.09479,0.62552 -1.90625,1.03125 -0.41642,0.20821 -1.78328,0.53882 -3.4375,0.0937 -1.63316,-0.43935 -5.03658,-3.20257 -7.0625,-4.28125 0.31637,1.57297 0.83487,2.98199 0.1875,3.4375 -0.64737,0.45551 -7.66351,2.19683 -10.0625,3.84375 -1.2243,0.84097 -3.15131,2.50142 -3.625,2.46875 -0.47369,-0.0327 -0.69255,-1.91029 -1.3125,-3.28125 -0.93244,1.31653 0.33776,4.53863 -2.125,6.71875 -0.93959,0.81116 -2.39725,1.40773 -3.875,1.6875 -1.47775,0.27977 -3.00159,0.25568 -3.96875,-0.0312 -0.48358,-0.14349 -0.76304,-0.36749 -0.9375,-0.5 -0.70347,-0.53434 -1.05944,-1.05572 -1.03125,-1.28125 0.73284,-6.60917 1.07587,-10.48304 -2.90625,-14.375 0.0392,-0.0313 0.15569,-0.73106 0.75,-1.125 0.59432,-0.39395 1.12119,-0.61296 1.875,-0.8125 1.46168,-0.38691 2.96684,-0.58099 3.0625,-0.59375 6.50945,0.91242 10.76215,0.74335 13.375,0.3125 1.32149,-0.21791 2.23656,-0.50601 2.84375,-0.75 0.41261,-0.1658 0.50514,-0.25053 0.65625,-0.34375 0.0713,-0.044 0.3125,-0.15625 0.3125,-0.15625 l -0.65625,-0.5 c -5.42964,1.25693 -11.61641,0.45346 -14.625,-1.0625 -3.0086,-1.51595 -5.88801,-2.51766 -9.25,0.0937 -0.12165,-1.87096 -1.00469,-3.49174 -1.5,-5.1875 -0.38865,-1.30127 -0.78125,-2.16156 -0.78125,-2.9375 0.0202,-0.0226 0.12119,-0.11301 0.3125,-0.1875 0.38261,-0.14897 1.1111,-0.2358 1.90625,-0.25 1.59029,-0.0284 3.54355,0.24644 4.46875,0.46875 0.55003,0.13216 2.85172,0.97432 5.75,1.9375 2.89828,0.96318 6.51548,2.07603 10.1875,2.84375 3.67202,0.76772 7.38606,1.19655 10.5625,0.75 3.17644,-0.44655 5.94165,-1.88877 7.0625,-4.84375 2.03941,-5.37664 3.51192,-15.52949 4.53125,-24.4375 1.19126,-5.93121 1.91504,-12.23571 3.6875,-14.84375 z m 109.1875,16.5 c 1.27467,1.90765 2.95134,3.97535 0.78125,6 -2.1701,2.02464 -19.76469,6.19978 -24.75,5.53125 -4.98531,-0.66853 -7.29089,-1.79962 -8.65625,-3.4375 -0.27076,-0.3248 -0.70238,-0.88481 -1,-1.25 5.01803,2.24798 9.1715,2.67796 14.78125,1.34375 5.60975,-1.33422 11.75606,-1.82488 15.53125,-4.15625 1.92914,-1.19134 2.82497,-2.69298 3.3125,-4.03125 z m -145.78125,9.71875 c 2.43369,1.21629 6.55848,5.17983 11.09375,8.84375 3.64443,2.94423 7.62656,5.655 11.65625,6.53125 -0.57461,0.18328 -1.03062,0.46576 -1.71875,0.5625 -2.77512,0.39013 -6.32376,-0.008 -9.875,-0.75 -3.55124,-0.74247 -7.1074,-1.83035 -9.96875,-2.78125 -2.78414,-0.92524 -4.71263,-1.64154 -5.75,-1.90625 -0.74969,-3.05337 0.16758,-5.73996 1.53125,-7.6875 0.72226,-1.03151 1.55308,-1.85502 2.21875,-2.34375 0.33284,-0.24437 0.63724,-0.39963 0.8125,-0.46875 z m -3.6875,0.625 c -0.33132,0.37178 -0.65644,0.58523 -0.96875,1.03125 -1.16356,1.66175 -2.0644,3.87953 -2.15625,6.375 -8.37943,1.19772 -14.14584,4.11825 -17.75,6.25 3.51522,-4.76679 10.79818,-12.62657 20.875,-13.65625 z M 224,436.25 c 0.009,0.062 0.0206,0.12519 0.0312,0.1875 -0.20547,-0.0302 -0.4067,-0.0365 -0.625,-0.0625 0.20592,-0.0336 0.38632,-0.0946 0.59375,-0.125 z m -6.78125,4.03125 c 0.17435,0.5857 0.26296,1.22812 0.4375,1.8125 0.63215,2.57136 0.22118,4.07179 0.0937,6.625 -7.84532,5.22756 -12.2666,9.48685 -14.84375,12.96875 1.32554,-5.36059 4.83331,-14.71993 14.3125,-21.40625 z m 76,10 c 4.11835,0.96346 5.84428,2.0914 7.625,4.5 3.51114,5.25297 4.25357,9.47794 2.625,14.65625 -3.28184,-6.83799 -11.31468,-7.10731 -12.28125,-8.875 -0.96657,-1.76769 1.12255,-6.66801 2.03125,-10.28125 z m -71.25,1.8125 c 2.82182,4.67297 1.79577,7.02941 1.3125,12.4375 -1.05499,0.60761 -1.68241,0.82188 -3.34375,1.15625 -2.10936,0.42454 -4.31594,1.21128 -6.375,2.0625 -3.02546,1.25073 -4.36583,2.05852 -5.5625,2.71875 0.30195,-0.94653 0.74195,-2.12301 1.625,-3.78125 1.90034,-3.56857 5.57236,-8.62882 12.34375,-14.59375 z"
       transform="translate(142.5,273.0989)"
       id="path3076"
       inkscape:connector-curvature="0"
       sodipodi:nodetypes="ccccccccccccsssssczzcscccccscsccczcccczzcsczcsscsscccccccccccccccccccccccccscccccccccscssccccccccccccsccccsccscccscccccccscccccsscccccccczcccccccccccccccccccccczccccczcccsccccccccscccczcccccccszzcsczscccccccccccccccccccccscczsccczccccccccccccccccccccscczccczcsccczzczzcccccccccccccczcczccczccccczcsccccccccsccczcszscccccscccccccccccccszccccccccczccccczccczcccssczcccczcczczzzcccczczscccccccccccccczccccccccccccczccccscccccsccccsccsccccsscsscccsccccsssssscccssscssccscscscssccsscccccsscccccccssccssccccccccacccccsccccscsccc" />
    <path
       style="fill:url(#linearGradient3922);fill-opacity:1;stroke:none"
       d="M 130.80178,311.63388 C 91.734127,319.94239 81.25,365.9375 81.25,365.9375 c 2,3 5.25,7.5 8.5,7.5 3.25,0 8.75,-1.75 8.75,0.25 0,2 0.44495,2.67508 -2.75,8 -1.5,2.5 2.625,3.625 4.25,4.25 2.00723,0.77201 4.125,1 5.125,2 1,1 1.375,4.5 0.625,7 -0.75,2.5 5.75,1 6.25,2.5 0.5,1.5 -0.81565,6.57888 -7.875,9.25 -2.24883,0.85091 2.625,3.75 1.625,6.75 -1,3 -4.89277,9.88388 -8.142767,13.13388 14.051117,12.80664 26.566917,25.84398 54.215987,24.89093 -0.003,-0.61063 0.14808,-6.78294 -0.0732,-8.77481 -0.25,-2.25 1.75,-7 3,-8.5 1.25,-1.5 6,-3 9.5,-3.25 3.5,-0.25 5.25,-4.25 4.5,-6.25 -0.75,-2 -2.75,-3.75 -4.75,-4.25 -2,-0.5 -6,0 -7.5,0 -1.5,0 -2.5,-3.25 -4.75,-3.75 -1.72567,-0.38348 -4.5,0.5 -6.5,0 -2,-0.5 -3,-3.25 -4.25,-4.5 -1.25,-1.25 2.25,-5.75 -1.25,-10 -3.5,-4.25 -10,-4.25 -11.75,-5.25 -1.75,-1 -6.75,0 -6.75,0 0,0 -2.75,-1.75 -3.75,-3.5 -1,-1.75 -2,-2.25 -3.25,-3.75 -1.25,-1.5 0.25,-4 -0.75,-4.75 -1,-0.75 -2.25001,0 -4,-1.5 -1.75,-1.5 -1,-4.75 -1,-4.75 0.75,-4.25 9.75,-3 9.75,-3 3,5 2,9.75 2,9.75 7,-5.5 8,-16 8,-16 5.75,-0.25 16.75,-9.75 16.75,-9.75 0,0 -3,-2.5 -4,-5 -1,-2.5 5,-7.25 5,-10.75 0,-3.5 -4,-4.25 -6,-4.25 -2,0 -8,8 -9,4.5 -1,-3.5 -3,-6 -0.5,-7 2.5,-1 5,1 5,1 0,0 4.25,-0.75 6.25,-2.75 2,-2 -1.75,-5.75 -3.75,-6.25 -2,-0.5 3,-3.5 -1.5,-9 z M 193.25,321.1875 c -9,1 -8.63051,4.85249 -11,4.75 -5.07843,-0.21967 -7.27237,-3.66881 -9.40625,-3.90625 -1.59096,-0.17703 -7.71875,8.25 -7.21875,9.5 0.5,1.25 0.375,2.65625 1.875,3.15625 1.5,0.5 5.5,-3 5.5,-3 0,0 5.05561,4.35302 -3.25,8.25 -3.4507,1.61906 3.0625,4.59375 2.5625,5.84375 -0.5,1.25 2.11588,5.24994 -5.0625,9.65625 -0.58634,0.35991 1,6.75 2.25,7 1.25,0.25 5.03835,-3.58779 6.6875,-2.5625 1.73299,1.07741 2.5625,2.125 4.3125,1.625 1.75,-0.5 -0.53129,-8.67122 2.25,-10.5625 6.25,-4.25 7.75,1 9,3 1.25,2 5.5,0.5 6.25,-0.75 0.75,-1.25 1.25,-5.25 4.25,-5 3,0.25 11.65793,2.05806 13.65793,1.05806 l -0.44638,-0.37316 C 210.1383,336.85172 201.08393,328.22491 193.25,321.1875 z m 22.12316,27.6849 c 1.81572,-0.90676 -0.61972,2.51966 -0.40441,3.03385 -0.0578,0.10079 1.72488,-0.51313 1.84635,-0.49913 l -0.73483,-1.91605 z m 1.36336,2.50352 C 207.84916,350.44774 204,354.40625 204,354.40625 c 0,0 -3.54658,6.02236 -6.375,6.90625 -2.05269,0.64146 -5.30453,-4.4375 -6.71875,-4.4375 -1.41421,0 -6.72065,12.00977 -19.4375,13.09375 -4.91295,0.41878 0.90013,11.83394 3.375,12.1875 2.21359,0.31622 -5.14093,12.55637 -2.3125,15.03125 2.82842,2.47487 13.07414,0.35723 13.78125,2.125 0.70711,1.76776 3.91177,4.60171 7.09375,3.1875 3.18198,-1.41422 5.59181,-2.96441 7.59375,-1.0625 2.5459,2.41869 2.98651,10.60111 1.21875,14.84375 -1.76777,4.24264 -3.76592,12.26533 -0.9375,15.09375 24.57887,-27.4898 24.7347,-57.83909 15.45527,-79.99908 z M 160.25,340.1875 c -1.5,0.25 2,9.5 -3.5,11 0,0 -0.5,4.25 4.5,1.25 5,-3 2,-4.50001 2.75,-6 0.75,-1.5 -2.25,-6.5 -3.75,-6.25 z"
       id="path4401"
       inkscape:connector-curvature="0"
       sodipodi:nodetypes="ccsssssssssccssssssssssscsssscccccssssscsscccsssscssssssssssccccccccccsssssssssccscsss"
       transform="translate(142.5,273.0989)" />
    <path
       style="fill:url(#linearGradient5271);stroke:none;stroke-width:1px;stroke-linecap:butt;stroke-linejoin:miter;stroke-opacity:1"
       d="m 112.65023,320.34955 4.13003,5.26935 2.56347,-8.68731 z"
       id="path5298"
       inkscape:connector-curvature="0"
       transform="translate(142.5,273.0989)" />
    <path
       style="fill:url(#linearGradient5271);stroke:none"
       d="m 120.90806,320.95382 c 0.20926,3.49353 -0.51579,7.85473 3.92336,15.83586 2.16051,-6.11795 2.91468,-8.51709 7.39713,-12.92433 3.25234,-3.19778 6.69016,-2.66747 9.12598,-2.82986 l -18.9899,-7.08622 c 0,0 -1.66583,3.51102 -1.45657,7.00455 z"
       id="path5296"
       inkscape:connector-curvature="0"
       transform="translate(142.5,273.0989)"
       sodipodi:nodetypes="zcsccz" />
    <path
       style="fill:url(#linearGradient5271);stroke:none"
       d="m 182.45031,323.04548 c -1.02022,4.94495 9.82,5.41102 10.46378,3.23426 1.5361,-0.27053 3.14508,0.81826 4.75627,4.56602 2.11598,4.92193 2.6846,5.62871 2.6846,5.62871 0,0 1.31065,-2.9652 1.69115,-5.81896 l -4.75626,-9.32228 z"
       id="path5294"
       inkscape:connector-curvature="0"
       transform="translate(142.5,273.0989)"
       sodipodi:nodetypes="ccscccc" />
    <path
       sodipodi:type="arc"
       style="fill:none;stroke:url(#linearGradient3930);stroke-width:3.5;stroke-miterlimit:4;stroke-opacity:1;stroke-dasharray:none"
       id="path3020"
       sodipodi:cx="151.42857"
       sodipodi:cy="379.76328"
       sodipodi:rx="71.428574"
       sodipodi:ry="71.428574"
       d="m 222.85715,379.76328 c 0,39.44891 -31.97966,71.42857 -71.42858,71.42857 C 111.97966,451.19185 80,419.21219 80,379.76328 c 0,-39.44892 31.97966,-71.42858 71.42857,-71.42858 39.44892,0 71.42858,31.97966 71.42858,71.42858 z"
       transform="translate(142.5,273.0989)" />
    <path
       id="path4353"
       style="fill:none;stroke:url(#linearGradient3930);stroke-width:2;stroke-linecap:butt;stroke-linejoin:miter;stroke-miterlimit:4;stroke-opacity:1;stroke-dasharray:none"
       d="m 240.10723,700.02818 c 3.25,-3.25 7.14277,-10.48744 8.14277,-13.48744 1,-3 -3.87383,-5.89909 -1.625,-6.75 7.05935,-2.67112 8.37499,-7.75 7.87499,-9.25 -0.5,-1.5 -6.99999,0 -6.24999,-2.5 0.75,-2.5 0.375,-6 -0.625,-7 -1,-1 -3.11777,-1.22799 -5.125,-2 -1.625,-0.625 -5.75,-1.75 -4.25,-4.25 3.19495,-5.32492 2.75,-6 2.75,-8 0,-2 -5.5,-0.25 -8.75,-0.25 -3.25,0 -6.5,-4.5 -8.5,-7.5 m 49.38797,-55.19411 5.86202,9.44412 c 4.5,5.5 -0.5,8.5 1.5,9 2,0.5 5.75,4.25 3.75,6.25 -2,2 -6.25,2.75 -6.25,2.75 0,0 -2.5,-2 -5,-1 -2.5,1 -0.5,3.5 0.5,7 1,3.5 7,-4.5 9,-4.5 2,0 6,0.75 6,4.25 0,3.5 -6,8.24999 -5,10.74999 1,2.5 4,5 4,5 0,0 -11,9.5 -16.75,9.75 0,0 -1,10.5 -8,16 0,0 1,-4.75 -2,-9.75 0,0 -8.99999,-1.25 -9.74999,3 0,0 -0.75,3.25 1,4.75 1.74999,1.5 2.99999,0.75 3.99999,1.5 1,0.75 -0.5,3.25 0.75,4.75 1.25,1.5 2.25,2 3.25,3.75 1,1.75 3.75,3.5 3.75,3.5 0,0 5,-1 6.75,0 1.75,1 8.25,1 11.75,5.25 3.5,4.25 0,8.75 1.25,10 1.25,1.25 2.25,4 4.25,4.5 2,0.5 4.77433,-0.38348 6.5,0 2.25,0.5 3.25,3.75 4.75,3.75 1.5,0 5.5,-0.5 7.5,0 2,0.5 4,2.25 4.75,4.25 0.75,2 -1,6 -4.5,6.25 -3.5,0.25 -8.25,1.75 -9.5,3.25 -1.25,1.5 -3.25,6.25 -3,8.5 0.25,2.25 -0.26635,8.63767 -0.26635,8.63767"
       inkscape:connector-curvature="0"
       sodipodi:nodetypes="cssssssssscccsscssssscccccsssscsssssssssssc" />
    <path
       style="fill:none;stroke:url(#linearGradient3930);stroke-width:2;stroke-linecap:butt;stroke-linejoin:miter;stroke-miterlimit:4;stroke-opacity:1;stroke-dasharray:none"
       d="m 299.24999,624.29074 c 5.5,-1.5 2,-10.74999 3.5,-10.99999 1.5,-0.25 4.5,4.75 3.75,6.25 -0.75,1.49999 2.25,2.99999 -2.75,5.99999 -5,3 -4.5,-1.25 -4.5,-1.25 z"
       id="path4355"
       inkscape:connector-curvature="0"
       sodipodi:nodetypes="csssc" />
    <path
       id="path4359"
       style="fill:none;stroke:url(#linearGradient3930);stroke-width:2;stroke-linecap:butt;stroke-linejoin:miter;stroke-miterlimit:4;stroke-opacity:1;stroke-dasharray:none"
       d="m 359.22822,625.0356 c -9.19239,-1.06066 -12.72792,2.47488 -12.72792,2.47488 0,0 -3.53554,6.0104 -6.36396,6.89429 -2.05269,0.64146 -5.3033,-4.41942 -6.71752,-4.41942 -1.41421,0 -6.72858,11.9975 -19.44543,13.08148 -4.91295,0.41878 0.88388,11.84403 3.35875,12.19759 2.21359,0.31622 -5.12652,12.55114 -2.29809,15.02602 2.82842,2.47487 13.08147,0.35355 13.78858,2.12132 0.70711,1.76776 3.88909,4.59619 7.07107,3.18198 3.18198,-1.41422 5.59946,-2.96257 7.6014,-1.06066 2.5459,2.41869 3.00519,10.6066 1.23743,14.84924 -1.76777,4.24264 -4.53185,12.00305 -1.70343,14.83147 m -7.27911,-109.92304 c -9,1 -8.63051,4.85249 -11,4.75 -5.07843,-0.21967 -7.27513,-3.67157 -9.40901,-3.90901 -1.59096,-0.17703 -7.70711,8.25 -7.20711,9.5 0.5,1.25 0.36612,2.65901 1.86612,3.15901 1.5,0.5 5.5,-3 5.5,-3 0,0 5.05561,4.35302 -3.25,8.25 -3.4507,1.61906 3.06066,4.59099 2.56066,5.84099 -0.5,1.25 2.11772,5.25269 -5.06066,9.659 -0.58634,0.35991 1,6.75 2.25,7 1.25,0.25 5.03835,-3.58779 6.6875,-2.5625 1.73299,1.07741 2.5625,2.125 4.3125,1.625 1.75,-0.5 -0.53129,-8.67122 2.25,-10.5625 6.25,-4.25 7.75,1 9,3 1.25,2 5.5,0.5 6.25,-0.75 0.75,-1.25 1.25,-5.25 4.25,-5 3,0.25 11.38909,1.96967 13.38909,0.96967"
       inkscape:connector-curvature="0"
       sodipodi:nodetypes="ccsssssssssccsssscssssssssssc" />
    <g
       style="fill:url(#linearGradient3922)"
       id="g4193"
       transform="translate(-42.603183,-31.289474)">
      <path
         style="fill:url(#linearGradient3922);stroke:none"
         d="m 353.10281,598.0118 c -1.89732,0.0112 -3.80804,0.4375 -4.96875,1.375 -1.56538,1.5302 -3.48305,1.88865 -5.1875,2.71875 -13.25824,-0.25254 -15.47956,-0.11448 -22.15625,-1.59375 -7.43283,-1.64681 -11.22749,0.0291 -11.65625,1.0625 -0.0536,0.12918 -0.12938,0.38058 -0.1875,0.71875 -15.28585,8.20605 -13.08937,13.4802 -8.625,24.625 0.032,-0.0891 0.0646,-0.18922 0.0937,-0.28125 0.0658,0.16427 0.12065,0.30188 0.1875,0.46875 0,0 -0.0536,-0.36505 -0.0625,-0.875 0.62797,-2.34804 0.64535,-5.51932 3,-8.96875 0.46557,-0.68122 1.03831,-1.36208 1.65625,-2.0625 1.01421,-1.05521 2.2869,-2.12164 3.90625,-3.1875 0.0319,0.006 0.0627,-0.004 0.0937,0 0.0485,0.0796 0.0979,0.15039 0.15625,0.1875 2.00756,0.4015 2.39232,-3.27647 11.15625,-3.96875 -0.11238,0.0355 -0.23804,0.0817 -0.34375,0.125 -2.74115,1.12138 -3.13865,2.23891 -2.90625,2.875 -9.59288,4.38733 -11.08201,14.66485 -8.3125,24.15625 0,0 0.0496,-0.16204 0.0937,-0.3125 0.0737,0.22959 0.15625,0.5 0.15625,0.5 0,0 2.16964,-8.74553 11.8125,-14.28125 0.0437,0.0626 0.10376,0.13101 0.15625,0.21875 0.24745,1.52082 0.86422,2.76379 3.15625,3.8125 3.54747,0.8347 5.67354,0.76523 7.0625,-0.75 1.38896,-1.51523 3.28373,-3.64178 1.65625,-7.59375 2.67857,1.07143 7.89433,-1.34057 9.03125,-1.21875 4.375,0.46876 1.27475,-5.1517 2.65625,-4.21875 0.17464,0.151 0.37963,0.33252 0.65625,0.625 0.11811,0.12488 0.26519,0.23848 0.40625,0.34375 1.82553,1.67303 6.02011,1.32075 8.46875,0.0625 1.90595,-0.97938 -1.87819,-5.15854 5.5,0.34375 0.39152,0.22813 0.73657,0.4375 1.0625,0.6875 5.18818,4.27018 1.82759,11.24478 4.59375,12.875 0.16756,0.14475 0.36341,0.25398 0.59375,0.34375 0.0734,0.0582 0.14281,0.13559 0.21875,0.1875 2.47123,2.00537 6.42344,0.41024 9.5,-2.75 0.88308,0.16856 1.74582,0.60344 2.5625,1.1875 4.41984,3.38341 7.625,11.53125 7.625,11.53125 0.0285,-0.0472 0.0657,-0.10732 0.0937,-0.15625 0.0223,0.0552 0.15625,0.375 0.15625,0.375 2.51528,-4.16593 3.45028,-15.26083 -3.1875,-20.65625 -0.0399,-0.0344 -0.0846,-0.0598 -0.125,-0.0937 -0.15711,-0.12434 -0.30328,-0.25711 -0.46875,-0.375 -0.68906,-0.52049 -1.46436,-0.98511 -2.3125,-1.375 -0.26734,-1.01588 -1.26793,-2.13776 -2.5,-3.0625 -1.13657,-0.90728 -2.55579,-1.65457 -3.8125,-1.96875 -2.74257,-0.68564 -8.02856,-3.62624 -9.71875,-4.8125 -0.93928,-0.70447 -2.14828,-2.23734 -3.5,-3.625 -0.18647,-0.19699 -0.36876,-0.40415 -0.5625,-0.59375 -0.0721,-0.068 -0.14571,-0.1213 -0.21875,-0.1875 -0.53041,-0.50181 -1.10714,-0.95536 -1.6875,-1.3125 -1.16071,-0.71429 -3.07143,-1.13616 -4.96875,-1.125 z"
         id="path4195"
         inkscape:connector-curvature="0"
         sodipodi:nodetypes="cccsccccccccccccccccccccscscscscccccccccccccccsccccscc" />
    </g>
    <path
       id="path5281"
       style="fill:url(#linearGradient5271);stroke:none"
       d="m 134.13583,310.16138 c 5.23654,5.43794 5.16027,4.3613 7.60453,4.19077 4.33021,-0.30211 1.66726,-4.71454 6.05647,-4.06564 4.3892,0.6489 5.47249,-0.52794 7.08374,-1.33356 1.61124,-0.80562 0.60421,-3.42389 2.21545,-3.8267 1.61124,-0.40281 5.28279,1.40984 7.45199,1.40984 4.02811,0 3.86336,-3.92234 6.07881,-3.11672 2.21546,0.80562 4.75975,3.32437 9.28192,5.23147 4.52217,1.9071 7.54994,4.651 6.63563,8.56959 -0.58307,2.49893 2.64911,2.67619 4.23666,3.96789 -3.45054,1.33044 -6.49531,2.87002 -6.49531,2.87002 l -4.43091,-2.21546 -1.81265,-8.66042 -2.41686,-4.22951 -4.43092,-1.61124 -5.23653,3.42389 -5.03513,-1.61124 -5.63934,3.82669 -5.63935,1.00703 -1.20843,4.83372 -5.23653,2.61827 -6.04216,-1.40984 -2.81967,-3.02107 z m 67.14928,22.11126 c -0.0951,-7.8954 -8.18077,-15.0298 -8.18077,-15.0298 l -2.18788,3.42451 4.66114,3.61476 3.90013,5.32702 z m -77.14661,-2.09276 c -0.3805,-10.74916 9.60766,-13.88829 9.60766,-13.88829 l 0.3805,3.13913 -7.32465,5.42215 z m -8.5794,-9.88142 c -2.42149,-9.55145 8.34071,-15.33613 8.34071,-15.33613 l 0.26905,2.95961 -4.17035,3.49771 -2.95961,4.70846 z"
       transform="translate(142.5,273.0989)" />
    <path
       style="font-size:medium;font-style:normal;font-variant:normal;font-weight:normal;font-stretch:normal;text-indent:0;text-align:start;text-decoration:none;line-height:normal;letter-spacing:normal;word-spacing:normal;text-transform:none;direction:ltr;block-progression:tb;writing-mode:lr-tb;text-anchor:start;baseline-shift:baseline;color:#000000;fill:url(#linearGradient3930);fill-opacity:1;stroke:none;stroke-width:1.5;marker:none;visibility:visible;display:inline;overflow:visible;enable-background:accumulate;font-family:Sans;-inkscape-font-specification:Sans"
       d="m 310.9375,565.31434 c -2.93091,-0.15953 -5.11266,0.76575 -6.05622,1.61964 -1.58768,0.96924 -2.42096,1.97501 -4.98391,2.08931 -2.56296,0.11429 -14.04166,-0.0359 -20.67418,-1.50537 -3.79513,-0.84085 -5.33214,-1.11699 -7.56694,-0.64292 -2.2348,0.47407 -5.43678,1.48191 -6.6875,3.6875 -7.42568,4.03706 -10.28762,7.95166 -11.09375,11.78125 -0.80613,3.82959 0.3111,8.94794 5.03125,13.5312 -0.15462,-5.68938 3.93599,-10.56604 7.625,-13.5625 0.0602,0.15604 0.48529,-0.0835 1.12499,-0.1876 1.99458,-1.08789 4.80965,-2.46844 5.81657,-3.20175 -7.2054,3.5585 -8.58268,10.60053 -8.81656,15.88925 -0.23889,5.40197 1.4375,9.90625 1.4375,9.90625 l 0.84375,2.3125 c 1.65434,-7.63952 3.95545,-10.02908 9.04566,-13.27512 0.74701,-0.3192 1.23774,-1.19857 1.38074,-0.90572 0.51715,1.05893 2.47529,1.53468 4.25447,2.15005 1.77919,0.61537 3.40684,0.58491 4.69413,0.46819 1.28729,-0.11672 2.39923,-0.60598 3.21875,-1.5 0.69894,-0.76248 1.0149,-1.19725 2.35892,-3.08081 1.34401,-1.88355 1.81611,-2.98536 4.01613,-4.54419 0.90991,-0.23086 1.76263,-0.50035 2.4375,-0.6875 0.67487,-0.18715 1.25412,-0.24621 1.21875,-0.25 0.71011,0.0761 1.30584,0.0195 1.8125,-0.1875 1.99429,-1.9324 4.04768,-1.88891 5.875,-1.9375 2.3783,-0.0182 3.53124,-0.74268 5.23353,-0.85853 1.7023,-0.11586 2.38857,0.24603 4.82741,1.20861 2.43884,0.96257 3.58035,3.54188 3.78271,6.24357 0.10118,1.35084 0.077,2.6611 0.28125,3.8125 0.18844,1.06226 0.72248,2.04792 1.93556,2.88264 1.21307,0.83472 2.74595,1.15539 4.28324,0.86731 1.63213,-0.30585 3.28478,-1.20035 4.8125,-2.4375 4.06436,-0.95993 10.17665,10.55712 11.1875,12.75 l 0.8125,-1.28125 c 1.57754,-2.61281 3.44072,-7.30693 2.72227,-12 -0.69602,-4.5466 -2.82372,-9.35644 -7.76608,-11.60892 -0.29596,-0.77441 -1.93025,-2.04272 -2.79772,-2.81472 -1.29577,-1.1531 -2.8538,-2.98466 -6.63963,-4.22357 -3.78582,-1.2389 -8.4071,-5.73451 -13.02512,-8.75812 -2.34262,-0.88338 -3.03156,-1.58915 -5.96247,-1.74868 z m 0,2.56066 c 1.7885,-0.0105 3.60556,0.37987 4.5625,0.96875 2.34608,1.44968 3.60017,3.92229 5.65625,5.5 4.06537,3.65382 10.03653,4.25909 13.83395,7.57767 1.11581,0.99295 2.0408,1.83739 1.9473,2.35983 l 0,0.0312 0,0.0312 c -0.33933,3.58107 -2.70475,7.26171 -5.46875,9.5 -2.20957,1.69765 -4.4201,2.69963 -6.39656,1.28741 -2.33622,-1.6711 -1.38714,-3.52549 -1.47844,-5.47486 -0.2125,-2.83704 -1.75507,-6.0191 -4.71987,-7.99572 -2.96481,-1.97662 -4.28299,-2.15456 -5.44937,-2.84131 -2.52199,-1.38952 -0.37819,1.22499 -2.77074,2.37638 -0.58793,0.37169 -1.93089,0.57121 -3.43497,0.58565 -1.50408,0.0144 -2.61014,-0.42682 -3.46875,-1.03125 -0.85861,-0.60443 -1.6066,-1.23194 -2.55714,-0.98392 -0.28317,0.32322 0.69455,2.64217 -0.53564,3.64553 -1.23019,1.00336 -3.33328,1.10764 -5.12592,1.48544 -2.4438,0.60396 -4.08738,0.47213 -6.28135,-0.397 l 0.6875,1.625 c 0.75652,1.83705 0.6646,3.13339 0.28125,4.1875 -0.99714,1.34044 -2.91202,2.52462 -4.90625,2.84375 -1.99423,0.31913 -5.31006,-0.53506 -6.47666,-2.34462 -0.57909,-0.99068 -0.52195,-3.41468 -1.15993,-5.61651 -0.58996,-2.03609 -1.65582,-3.99555 -2.15978,-4.77902 1.38902,-2.35694 6.10727,-2.22539 8.18561,-2.617 3.66724,-0.70205 7.32435,-1.70762 8.48258,-2.25876 1.15822,-0.55114 8.30775,-1.8751 14.28448,-6.47779 0.93593,-0.75595 2.68025,-1.17698 4.46875,-1.1875 z m -37.25,1.78125 c 1.35981,0.0565 2.9624,0.25327 4.78125,0.65625 5.94054,1.31617 10.70771,1.27491 16.73851,1.97319 -4.46408,1.81164 -6.54218,2.86031 -11.23851,3.83931 -1.78406,0.12271 -3.18699,0.16402 -4.46875,0.3125 -4.70065,0.21751 -7.7119,1.0841 -9.40625,2.09375 -0.97011,0.57808 -1.62838,1.13869 -2.09375,1.46875 -0.34093,0.24181 -0.43668,0.21608 -0.59911,0.0732 -0.16243,-0.14286 -0.20708,-0.39832 -0.24464,-0.82322 -0.0774,-0.87574 -0.0764,-2.04258 -0.0312,-3.21875 0.0451,-1.17617 0.14333,-2.39283 0.25,-3.34375 0.0533,-0.47546 0.10181,-0.8707 0.15625,-1.1875 0.0544,-0.3168 0.12887,-0.57183 0.125,-0.5625 -0.0156,0.0375 0.14875,-0.23774 0.59375,-0.46875 0.445,-0.23101 1.1256,-0.46488 2.03125,-0.625 0.90565,-0.16012 2.04644,-0.244 3.40625,-0.1875 z m -7.84375,3.125 c -0.1991,2.50723 -0.40876,5.10442 -0.0625,7.4375 -4.71747,3.68831 -6.87376,7.5796 -7.78125,10.59375 -0.2123,0.70513 -0.1823,1.1517 -0.28125,1.75 -1.47442,-3.89485 -2.50057,-7.18066 -1.90625,-9.875 0.69973,-3.17222 3.5443,-6.22914 10.03125,-9.90625 z m 7.34651,8.14108 c 0.24466,1.85154 2.34529,5.91807 2.52459,10.62133 -6.78112,3.98184 -7.46053,5.7679 -8.72021,8.75107 -0.1637,-1.44039 -0.37479,-1.35045 -0.0429,-5.33134 0.33189,-3.98089 -0.28628,-10.72567 6.23852,-14.04106 z m 66.00612,4.34284 c 3.81843,2.12217 4.85928,5.53036 5.45987,9.45358 0.55613,3.6328 -0.11537,7.06591 -1.0625,9.4375 -1.75064,-4.38583 -4.74391,-8.84907 -8.55806,-11.10447 1.90075,-2.20247 3.75463,-4.90147 4.16069,-7.78661 z"
       id="path3018"
       inkscape:connector-curvature="0"
       sodipodi:nodetypes="zczszczccccscccccsszcsccczzsscscccscszczcccccccccccccczczcccczcscczccccscccsczcccccssccccscscccczcccccc" />
    <text
       xml:space="preserve"
       style="font-size:32px;font-style:normal;font-weight:normal;line-height:125%;letter-spacing:0px;word-spacing:0px;fill:#000000;fill-opacity:1;stroke:none;font-family:Sans"
       x="43.840618"
       y="193.19124"
       id="text4542"
       sodipodi:linespacing="125%"
       transform="translate(142.5,273.0989)"><tspan
         sodipodi:role="line"
         id="tspan4544"
         x="43.840618"
         y="193.19124" /></text>
    <path
       style="fill:url(#linearGradient5271);stroke:none"
       d="m 203.61655,184.46998 c -2.68738,1.83289 -4.79123,5.20084 -3.74236,17.03295 3.99249,-6.12787 6.64952,-13.87931 8.37874,-14.4001 1.72922,-0.52079 -1.949,-4.46573 -4.63638,-2.63285 z"
       id="path3050"
       inkscape:connector-curvature="0"
       transform="translate(142.5,273.0989)"
       sodipodi:nodetypes="zczz" />
  </g>
</svg>
