<?xml version="1.0" encoding="UTF-8" standalone="no"?>
<?xml-stylesheet type="text/css" href="colors.css" ?>
<svg
   xmlns="http://www.w3.org/2000/svg"
   xmlns:xlink="http://www.w3.org/1999/xlink"
   width="3240"
   height="2160"
   version="1.1">
  
  <rect
     class="background"
     width="3243.8706"
     height="2159.4426"
     x="0"
     y="0.27868161" />
  <image xlink:href="Eagle.svg" height="2000" width="2000" x="620" y="80" />
  <path
     class="foreground"
     d="M 0 0.28125 L 0 2159.7188 L 813.03125 2159.7188 L 813.03125 0.28125 L 0 0.28125 z M 2430.8438 0.28125 L 2430.8438 2159.7188 L 3243.875 2159.7188 L 3243.875 0.28125 L 2430.8438 0.28125 z M 1626.0312 394.28125 C 1626.0312 394.28125 1527.4872 591.35606 1511.0625 607.78125 C 1494.6379 632.41657 1486.4182 632.43135 1461.7812 624.21875 C 1437.1443 607.79603 1355.0312 566.71875 1355.0312 566.71875 C 1355.0312 566.71875 1428.9375 887.01845 1428.9375 911.65625 C 1437.1499 936.29154 1412.5056 960.91905 1379.6562 936.28125 C 1371.444 928.06865 1231.8438 772.03125 1231.8438 772.03125 C 1231.8438 772.03125 1198.9935 845.94979 1190.7812 862.375 C 1182.5689 878.80019 1174.3622 887.02511 1157.9375 878.8125 C 1133.3005 870.5999 1001.9062 845.9375 1001.9062 845.9375 C 1001.9062 845.9375 1051.1939 1001.9872 1059.4062 1026.625 C 1067.6185 1043.0502 1075.8181 1059.4836 1042.9688 1075.9062 L 993.6875 1092.3125 C 993.6875 1092.3125 1264.6939 1330.4749 1272.9062 1338.6875 C 1289.3309 1355.1127 1297.556 1355.127 1289.3438 1396.1875 C 1272.9191 1437.2505 1264.6875 1486.5 1264.6875 1486.5 C 1264.6875 1486.5 1519.2693 1429.0312 1543.9062 1429.0312 C 1568.5432 1429.0312 1593.1875 1437.2397 1593.1875 1461.875 C 1593.1875 1486.5128 1576.7812 1765.7188 1576.7812 1765.7188 L 1658.9062 1765.7188 C 1658.9062 1765.7188 1642.4688 1494.7254 1642.4688 1461.875 C 1642.4688 1437.2397 1667.113 1429.0312 1691.75 1429.0312 C 1716.387 1437.2439 1970.9688 1486.5 1970.9688 1486.5 C 1970.9688 1486.5 1954.5248 1429.0379 1946.3125 1396.1875 C 1929.8878 1355.127 1946.3254 1346.9001 1962.75 1338.6875 C 1970.9624 1330.4749 2241.9688 1092.3125 2241.9688 1092.3125 L 2192.6875 1075.9062 C 2168.0505 1059.4835 2176.2812 1043.0502 2176.2812 1026.625 C 2184.4936 1010.1998 2233.75 845.9375 2233.75 845.9375 C 2233.75 845.9375 2102.3558 870.5999 2077.7188 878.8125 C 2061.294 887.02511 2053.0874 870.58759 2044.875 862.375 C 2036.6627 845.9498 2003.8125 772.03125 2003.8125 772.03125 C 2003.8125 772.03125 1864.2124 936.28125 1856 936.28125 C 1831.3631 952.70645 1798.5063 936.29155 1806.7188 911.65625 C 1806.7188 887.01845 1880.625 566.71875 1880.625 566.71875 C 1880.625 566.71875 1798.512 616.00616 1773.875 624.21875 C 1757.4504 640.64395 1741.0183 640.62917 1724.5938 607.78125 C 1724.5938 583.14346 1626.0312 394.28125 1626.0312 394.28125 z " />
  <path
     class="text"
     d="M 978.21875 1508.9062 L 978.21875 1516.5938 L 988.21875 1516.5938 C 994.88319 1516.594 1001.2659 1518.2617 1007.375 1521.5938 C 1011.6791 1524.0932 1014.5177 1527.0917 1015.9062 1530.5625 C 1017.7112 1535.1446 1018.6249 1544.5744 1018.625 1558.875 L 1018.625 1741.3125 C 1018.6249 1758.2514 1016.9572 1768.9633 1013.625 1773.4062 C 1008.3489 1780.2096 999.88155 1783.5938 988.21875 1783.5938 L 978.21875 1783.5938 L 978.21875 1791.3125 L 1099.2188 1791.3125 L 1099.2188 1783.5938 L 1089 1783.5938 C 1082.3354 1783.5938 1076.0326 1781.9261 1070.0625 1778.5938 C 1065.6194 1776.0947 1062.7008 1773.1273 1061.3125 1769.6562 C 1059.5074 1765.0743 1058.5937 1755.6134 1058.5938 1741.3125 L 1058.5938 1558.875 C 1058.5937 1541.9364 1060.3413 1531.2558 1063.8125 1526.8125 C 1069.0885 1520.0095 1077.4759 1516.594 1089 1516.5938 L 1099.2188 1516.5938 L 1099.2188 1508.9062 L 978.21875 1508.9062 z M 1118.7812 1508.9062 L 1118.7812 1516.5938 C 1132.5267 1517.0106 1144.6979 1520.6589 1155.25 1527.5312 C 1165.802 1534.4043 1178.6473 1548.8929 1193.7812 1570.9688 L 1249.375 1652.4062 L 1182.7188 1736.5312 C 1172.7221 1749.1661 1163.8377 1758.5472 1156.0625 1764.6562 C 1148.2873 1770.7654 1140.1082 1775.6089 1131.5 1779.2188 C 1126.3628 1781.4402 1120.2372 1782.8996 1113.1562 1783.5938 L 1113.1562 1791.3125 L 1213.3438 1791.3125 L 1213.3438 1783.5938 C 1202.7917 1783.1772 1195.6548 1781.5095 1191.9062 1778.5938 C 1188.1573 1775.678 1186.2812 1772.0055 1186.2812 1767.5625 C 1186.2812 1764.6468 1186.9065 1761.8324 1188.1562 1759.125 C 1189.4058 1756.4176 1193.1582 1751.0529 1199.4062 1743 L 1258.5312 1667.1875 L 1306.4375 1739.6562 C 1313.1017 1749.5141 1316.9341 1755.6397 1317.9062 1758 C 1319.1555 1761.1934 1319.7811 1764.3691 1319.7812 1767.5625 C 1319.7811 1770.2005 1318.8428 1772.8065 1316.9688 1775.375 C 1315.0942 1777.9437 1312.6968 1779.8441 1309.7812 1781.0938 C 1305.8935 1782.621 1299.9277 1783.4548 1291.875 1783.5938 L 1291.875 1791.3125 L 1413.0625 1791.3125 L 1413.0625 1783.5938 C 1400.5663 1782.8996 1390.2784 1779.2514 1382.1562 1772.6562 C 1374.0338 1766.0612 1361.5498 1750.2731 1344.75 1725.2812 L 1284.1562 1634.9062 L 1340.1875 1563.25 C 1351.5724 1548.6718 1360.3768 1538.6964 1366.625 1533.2812 C 1372.8727 1527.8667 1379.7522 1523.5375 1387.25 1520.3438 C 1392.2481 1518.2613 1398.7107 1517.0106 1406.625 1516.5938 L 1406.625 1508.9062 L 1306.4375 1508.9062 L 1306.4375 1516.5938 C 1316.434 1516.7329 1323.025 1517.4138 1326.2188 1518.5938 C 1329.4118 1519.7741 1332.0421 1521.8032 1334.125 1524.7188 C 1335.7909 1526.9405 1336.6248 1529.522 1336.625 1532.4375 C 1336.6248 1535.3534 1335.975 1538.1922 1334.6562 1540.9688 C 1333.337 1543.7459 1329.7687 1548.8777 1323.9375 1556.375 L 1273.75 1619.9062 L 1230.4375 1555.125 C 1223.773 1545.2674 1220.4374 1537.7938 1220.4375 1532.6562 C 1220.4374 1528.769 1222.4665 1525.225 1226.5625 1522.0312 C 1230.6582 1518.8382 1238.2675 1517.0106 1249.375 1516.5938 L 1249.375 1508.9062 L 1118.7812 1508.9062 z " />
</svg>
