<?xml version="1.0" encoding="UTF-8" standalone="no"?>
<svg
   xmlns="http://www.w3.org/2000/svg"
   xmlns:xlink="http://www.w3.org/1999/xlink"
   version="1.1"
   width="100%"
   height="100%"
   viewBox="0 0 686.00001 938.3683">
  <defs>
    <style>
        .outer, .background{fill: #000;}
        .leaf {fill: #BEC2C4!important;}
        .inner, .text {fill: #BEC2C4;}
        .ribbon-inner {fill:#000; stroke: #BEC2C4; stroke-width:10;}
    </style>
    <symbol
       viewBox="0 0 686.62499 939.2232"
       preserveAspectRatio="xMidYMid meet"
       id="Patch">
      <path
         d="m 58.656292,227.44932 c 0.197762,-3.21254 0.613512,-4.74643 1.681933,-6.81426 1.068421,-2.06784 3.161499,-3.11489 4.637133,-3.28844 C 139.23996,208.61275 248.88412,190.85319 342.73362,90 l 1.94464,0 c 93.8495,100.85319 203.49366,118.61275 277.75827,127.34662 1.47563,0.17355 3.56871,1.2206 4.63713,3.28844 1.06842,2.06783 1.48417,3.60172 1.68193,6.81426 C 644.9193,490.02054 541.82448,829.20385 343.26933,939.28571 144.71418,829.20385 42.492585,490.02054 58.656292,227.44932 z"
         class="outer" />
      <path
         d="M 67.056278,226.88386 C 171.70228,215.27947 257.36631,190.79211 342.79824,102.0979 l 1.81462,0 C 451.95431,219.95481 596.8095,225.25254 620.27036,228.29693 635.52128,417.79348 566.14226,800.55149 343.29813,927.18781 138.73253,815.24214 50.267416,459.20254 67.056278,226.88386 z"
         class="inner" />
      <path
         d="M 86.815171,256.29825 C 181.28389,245.82244 265.75958,217.28802 342.88288,142.21971 l 1.63814,0 c 97.61632,101.3948 234.09798,111.17731 255.27717,113.92562 13.7677,171.06718 -58.14961,530.886 -256.46403,645.20638 C 165.80632,800.29325 71.659106,466.02292 86.815171,256.29825 z"
         class="background" />
      <use
         x="132"
         y="196"
         width="425"
         height="556"
         xlink:href="symbols/9thLegion.svg#9thLegion" />
      <g id="ribbon">
        <path
           d="m 505.37998,48.5 -2.625,7.15625 -1.75,4.78125 -23.6875,65 -0.125,0.21875 -0.15625,0.5 -0.0937,0.28125 0,0.0312 -1.5,4.53125 -2.25,6.75 6.65625,2.59375 4.40625,1.71875 0.0312,0 c 38.57305,15.01279 75.26464,36.42472 108.5,64.3125 l 0.0625,0.0312 0.0312,0.0312 14,11.40625 20.9375,17.0625 -9.15625,-25.40625 -6.125,-17.03125 0,-0.0625 -0.0312,-0.0625 c 0,0 -5.81322,-15.89333 -10.28125,-36.4375 6.55444,-1.16457 14.53425,-1.71791 21.625,-1.625 11.3461,0.14867 20.3125,1.3125 20.3125,1.3125 l 17,2.21875 25.5,3.3125 -19.6875,-16.5 -13.125,-11 C 612.11935,98.609903 565.89333,71.734166 517.25498,53.03125 l -0.0312,0 -4.75,-1.8125 z m -324.0625,0 -7.09375,2.71875 -4.75,1.8125 -0.0312,0 C 120.80412,71.734166 74.578104,98.609903 32.848731,133.625 l -13.125,11 -19.6875,16.5 25.5,-3.3125 16.96875,-2.21875 c 0,0 0.03113,2e-5 0.03125,0 0.04683,-0.006 8.996118,-1.16422 20.3125,-1.3125 7.090749,-0.0929 15.07056,0.46043 21.625,1.625 -4.468026,20.54417 -10.28125,36.4375 -10.28125,36.4375 l -0.03125,0.0625 0,0.0625 -6.15625,17.03125 -9.125,25.40625 20.9375,-17.0625 14,-11.40625 0.03125,-0.0312 0.0625,-0.0312 C 127.15432,178.48084 163.82834,157.07591 202.41123,142.0626 l 4.4375,-1.71875 6.65625,-2.59375 -2.25,-6.75 -1.5,-4.53125 0,-0.0312 -0.0937,-0.28125 -0.15625,-0.5 -0.125,-0.21875 -23.6875,-65 -1.75,-4.78125 -2.625,-7.15625 z"
           class="outer" />
        <path
           d="m 512.74016,64.707624 c 47.37113,18.215633 92.40274,44.382426 133.0625,78.500006 0,0 -38.68159,-5.04955 -58.30035,3.77875 4.60716,27.32203 13.33159,49.815 13.33159,49.815 -34.30037,-28.78143 -72.20034,-50.90732 -112.03124,-66.40625 l 0.0937,-0.28125 z m -338.78655,0 C 126.58247,82.923257 81.550859,109.09005 40.891108,143.20763 c 0,0 38.681583,-5.04955 58.300345,3.77875 -4.607161,27.32203 -13.331594,49.815 -13.331594,49.815 34.300371,-28.78143 72.200351,-50.90732 112.031251,-66.40625 l -0.0937,-0.28125 z"
           class="ribbon-inner"/>
        <path
           d="m 185.12998,69.28125 -7.875,10.9375 -5.25,7.28125 -29.65625,41.25 -7,9.71875 -10.5,14.53125 17.71875,-2.75 11.84375,-1.84375 0.0312,0 43.875,-6.9375 0.5625,-0.0937 0.53125,-0.15625 6,-1.90625 8,-2.5 -3.375,-7.6875 -2.125,-4.78125 -0.0625,-0.15625 -14.15625,-34.15625 -3.4375,-8.3125 -5.125,-12.4375 z m 316.4375,0 -5.125,12.4375 -3.4375,8.3125 -14.15625,34.15625 -0.0625,0.15625 -2.125,4.78125 -3.375,7.6875 7.96875,2.5 6.03125,1.90625 0.53125,0.15625 0.5625,0.0937 43.875,6.9375 0.0312,0 11.8438,1.84375 17.71875,2.75 -10.5,-14.53125 -7,-9.71875 -29.65625,-41.25 -5.25,-7.28125 -7.875,-10.9375 z"
           class="outer" />
        <path
           d="m 152.48838,136.04882 43.86469,-6.9315 -14.20825,-34.312237 z m 381.717,0 -43.86468,-6.9315 14.20825,-34.312237 z"
           class="ribbon-inner" />
        <path
           d="m 342.97373,0.0625 c -83.19321,0 -166.4253,21.485989 -240.9375,64.5 -0.008,0.0046 -0.0234,-0.0046 -0.0312,0 l -4.312499,2.5 -6.5,3.75 3.71875,6.5 2.5,4.34375 0.03125,0 35.031249,60.65625 -0.0312,0 2.5,4.34375 3.78125,6.5 6.5,-3.75 4.28125,-2.5 c 0.008,-0.005 0.0233,0.005 0.0312,0 119.76538,-69.135215 267.11331,-69.144443 386.875,0 l 4.3125,2.5 6.5,3.75 3.75,-6.5 2.5,-4.34375 35.03125,-60.65625 2.5,-4.34375 3.75,-6.5 -6.5,-3.75 -4.34375,-2.5 c -74.51745,-43.022676 -157.73547,-64.5 -240.9375,-64.5 z"
           class="outer" />
        <path
           d="m 342.97237,12.551394 c -81.04987,0 -162.12183,20.94478 -234.71031,62.853766 l 35.0125,60.66021 c 123.61609,-71.369776 275.77953,-71.369776 399.39561,0 l 35.0125,-60.66021 C 505.09419,33.496174 424.02224,12.551394 342.97237,12.551394 z"
           class="ribbon-inner" />
      </g>
      <use
         x="0"
         y="-912.96875"
         xlink:href="#ribbon"
         transform="scale(1,-1)"
         width="686"
         height="938.36829" />
      <path
         d="m 509.98821,65.244987 c -0.41139,-0.09275 -1.00489,-0.208052 -1.78049,-0.34592 -0.7757,-0.137834 -1.53605,-0.08854 -2.28105,0.14789 -0.65489,0.203925 -1.25039,0.732604 -1.78649,1.586038 -0.53619,0.853464 -1.11106,2.180178 -1.72461,3.980148 l -7.34866,21.557267 -3.78421,-1.29 -10.84334,-29.728335 -4.82663,14.158914 c -0.59912,1.757467 -0.93755,3.133139 -1.01532,4.127019 -0.0778,0.993884 0.0731,1.792803 0.45253,2.396759 0.27637,0.442257 0.7916,0.926384 1.54569,1.452384 0.75407,0.525997 1.36464,0.916066 1.83172,1.170208 l -0.56528,1.658251 -12.96837,-4.420787 0.56528,-1.658252 c 0.56724,0.145909 1.23651,0.259362 2.00782,0.34036 0.7713,0.081 1.45587,0.03356 2.05371,-0.14233 0.69286,-0.222591 1.28336,-0.71342 1.77152,-1.472492 0.48814,-0.759066 1.06559,-2.116542 1.73234,-4.072433 l 4.87011,-14.286472 c 0.24156,-0.708633 0.36001,-1.415754 0.35534,-2.121367 -0.005,-0.705566 -0.16359,-1.364849 -0.47668,-1.97785 -0.3318,-0.650961 -0.77303,-1.224556 -1.32368,-1.720789 -0.55067,-0.49618 -1.21045,-0.962347 -1.97933,-1.398504 l 0.57977,-1.70077 11.35265,3.870001 9.54017,26.033066 3.89174,-11.416421 c 0.61839,-1.814142 0.95811,-3.205194 1.01917,-4.173162 0.061,-0.967936 -0.0982,-1.75389 -0.47765,-2.357864 -0.29993,-0.466075 -0.81395,-0.953746 -1.54206,-1.463014 -0.72818,-0.509229 -1.32579,-0.890923 -1.79283,-1.145083 l 0.56528,-1.658252 12.94712,4.413541 z M 464.32623,52.339965 c 1.18435,1.770794 1.98107,3.754804 2.39016,5.952035 0.40901,2.197259 0.30307,4.56108 -0.31781,7.091471 -0.55315,2.254097 -1.45761,4.306337 -2.71337,6.156727 -1.25584,1.850391 -2.77653,3.335127 -4.56209,4.454212 -1.8726,1.159406 -3.92397,1.916468 -6.15411,2.27119 -2.23019,0.35471 -4.74136,0.189492 -7.5335,-0.495654 -2.25411,-0.553123 -4.29359,-1.446742 -6.11846,-2.680861 -1.82488,-1.234123 -3.32773,-2.743842 -4.50854,-4.529161 -1.17342,-1.752661 -1.96102,-3.726722 -2.36279,-5.922191 -0.40179,-2.195453 -0.3047,-4.507483 0.29124,-6.936098 0.62091,-2.530384 1.61648,-4.718303 2.98671,-6.563765 1.37022,-1.845419 2.99175,-3.316974 4.8646,-4.41467 1.85115,-1.072128 3.90107,-1.744746 6.14977,-2.017856 2.24866,-0.273055 4.5364,-0.124116 6.86323,0.446817 2.31224,0.567418 4.38993,1.478122 6.23308,2.732114 1.84309,1.254041 3.34038,2.739269 4.49188,4.45569 z m -11.03919,20.765347 c 0.97912,-1.162787 1.81931,-2.54469 2.52057,-4.145713 0.70119,-1.601016 1.31052,-3.455859 1.82799,-5.564533 0.43889,-1.78872 0.73897,-3.561411 0.90024,-5.318077 0.1612,-1.756638 0.0988,-3.371587 -0.18723,-4.844852 -0.30062,-1.476795 -0.86904,-2.741803 -1.70527,-3.795028 -0.83628,-1.053179 -2.02516,-1.76891 -3.56664,-2.147196 -2.63222,-0.645873 -4.93781,0.110479 -6.91679,2.269059 -1.97901,2.158626 -3.52698,5.513831 -4.6439,10.065626 -0.47463,1.934167 -0.77341,3.79583 -0.89636,5.584994 -0.12298,1.789179 -0.0215,3.402142 0.30432,4.838895 0.3368,1.454869 0.91861,2.665343 1.74542,3.631425 0.82678,0.96608 1.97457,1.629329 3.44338,1.989751 1.43969,0.353278 2.76502,0.293037 3.97598,-0.180722 1.21093,-0.473765 2.27702,-1.268308 3.19829,-2.383629 z m -27.2554,-0.604866 -17.41108,-3.053224 0.30261,-1.725621 c 0.40339,0.04034 0.99741,0.0989 1.78208,0.175686 0.78466,0.07679 1.33482,0.08205 1.6505,0.01579 0.5845,-0.125536 1.00799,-0.35152 1.27047,-0.677954 0.26247,-0.32643 0.44285,-0.769874 0.54114,-1.330335 l 3.90285,-22.256091 c 0.0879,-0.501436 0.0696,-0.960714 -0.0548,-1.377835 -0.1245,-0.417067 -0.44628,-0.792746 -0.96535,-1.127039 -0.32812,-0.209534 -0.82519,-0.452526 -1.49123,-0.728978 -0.66605,-0.276395 -1.24462,-0.488072 -1.73573,-0.635034 l 0.3026,-1.725622 17.41108,3.053224 -0.30261,1.725622 c -0.45025,-0.03332 -1.01432,-0.06762 -1.69223,-0.10292 -0.67794,-0.03524 -1.25844,-0.01922 -1.7415,0.04806 -0.60885,0.09089 -1.0447,0.322312 -1.30754,0.694257 -0.26288,0.371998 -0.43957,0.816089 -0.53008,1.332275 l -3.89897,22.233967 c -0.0931,0.530962 -0.0731,1.001949 0.0601,1.412961 0.13315,0.411013 0.45926,0.783652 0.97835,1.117917 0.28644,0.187053 0.77633,0.405983 1.46968,0.656789 0.69332,0.250804 1.28076,0.43363 1.76232,0.54848 z m -17.4559,-16.46443 c -0.46637,-0.005 -0.8814,0.003 -1.24509,0.02403 -0.36376,0.02107 -0.82322,0.09207 -1.37839,0.212985 -0.63128,0.127803 -1.06773,0.404594 -1.30935,0.830375 -0.24168,0.425796 -0.38896,0.884339 -0.44185,1.375631 l -0.39689,3.684741 c -0.0802,0.744395 -0.13731,1.344432 -0.1713,1.800113 -0.0341,0.455683 -0.0723,1.020104 -0.11461,1.693265 -1.58503,0.732909 -3.87531,1.337141 -6.87085,1.812695 -2.99559,0.47555 -5.71417,0.581832 -8.15576,0.318845 -2.29274,-0.246956 -4.40635,-0.828539 -6.34082,-1.744752 -1.9345,-0.916214 -3.58566,-2.155832 -4.95347,-3.718857 -1.36943,-1.548132 -2.37897,-3.396365 -3.0286,-5.544704 -0.64965,-2.148322 -0.83175,-4.547504 -0.54631,-7.197553 0.2662,-2.471365 0.92176,-4.712548 1.96671,-6.723556 1.04493,-2.010964 2.42335,-3.69235 4.13526,-5.044162 1.68051,-1.340077 3.6554,-2.302081 5.92468,-2.886015 2.26925,-0.583874 4.7289,-0.733106 7.37896,-0.447697 1.8014,0.194065 3.44519,0.593263 4.93135,1.197595 1.48612,0.604391 2.70067,1.213385 3.64366,1.826984 l 1.51687,-1.079113 1.94286,0.20927 -1.04501,11.589503 -1.96519,-0.211674 c -0.75787,-3.590721 -1.83524,-6.312242 -3.23212,-8.164573 -1.39693,-1.852281 -3.3013,-2.908325 -5.7131,-3.168135 -2.85849,-0.307862 -5.20031,0.704983 -7.02548,3.038538 -1.82519,2.333605 -2.97431,5.696349 -3.44736,10.088244 -0.50194,4.659906 -0.13182,8.389608 1.11036,11.189118 1.24215,2.799518 3.26269,4.350013 6.06162,4.65149 1.31011,0.141115 2.49633,0.06933 3.55867,-0.215348 1.06229,-0.284682 1.90437,-0.657091 2.52626,-1.117229 l 0.69276,-6.431549 c 0.0577,-0.535955 0.009,-0.996735 -0.14479,-1.382342 -0.15428,-0.38559 -0.50729,-0.74365 -1.05902,-1.074181 -0.42421,-0.256528 -0.96406,-0.487872 -1.61956,-0.694035 -0.65554,-0.206142 -1.20341,-0.363047 -1.64361,-0.470717 l 0.18762,-1.741878 16.45851,1.772775 z m -40.9554,-14.823928 -1.70644,-0.04512 c -0.40206,-1.223921 -1.11804,-2.471145 -2.14794,-3.741676 -1.02996,-1.270478 -2.06586,-2.031848 -3.10771,-2.284114 -0.44631,-0.116626 -1.06957,-0.196767 -1.86978,-0.240424 -0.80026,-0.0436 -1.46233,-0.07234 -1.98621,-0.08622 l -4.62534,-0.122301 -0.32534,12.304293 3.27815,0.08668 c 0.82326,0.02179 1.57427,-0.05572 2.25303,-0.232521 0.67871,-0.176765 1.30233,-0.534756 1.87084,-1.073972 0.35336,-0.335158 0.71741,-0.932189 1.09215,-1.791093 0.3747,-0.858864 0.62296,-1.608748 0.74479,-2.249655 l 1.70643,0.04512 -0.35147,13.292229 -1.70643,-0.04512 c -0.0732,-0.631051 -0.28061,-1.426687 -0.62219,-2.386908 -0.34162,-0.960199 -0.67233,-1.624282 -0.99212,-1.992252 -0.47974,-0.551922 -1.05372,-0.937833 -1.72195,-1.157736 -0.66827,-0.219874 -1.44397,-0.341494 -2.32711,-0.364861 l -3.27815,-0.08668 -0.24282,9.183313 c -0.0253,0.958004 0.0257,1.719546 0.15305,2.284629 0.12734,0.56509 0.38166,1.002466 0.76294,1.312129 0.36669,0.294303 0.87442,0.494967 1.5232,0.601995 0.64875,0.107031 1.53445,0.175388 2.65713,0.205071 0.52388,0.01385 1.15277,0.02299 1.88665,0.02742 0.73384,0.0044 1.37868,-0.02346 1.93453,-0.08366 0.63064,-0.05822 1.22113,-0.154949 1.77147,-0.290192 0.55029,-0.135239 0.96393,-0.3415 1.24091,-0.618783 0.73787,-0.714466 1.57576,-1.812005 2.51369,-3.292618 0.93787,-1.480602 1.55892,-2.591364 1.86315,-3.332288 l 1.63907,0.04334 -0.86864,9.908236 -29.88507,-0.790206 0.0463,-1.751341 c 0.41992,-0.01885 0.99031,-0.06369 1.71119,-0.134504 0.72087,-0.07081 1.23257,-0.162136 1.53512,-0.273972 0.57514,-0.224457 0.96486,-0.517481 1.16915,-0.879072 0.20429,-0.361585 0.31395,-0.826784 0.329,-1.3956 l 0.59428,-22.475543 c 0.0143,-0.538847 -0.0563,-0.986343 -0.21165,-1.342489 -0.15537,-0.35609 -0.54363,-0.684664 -1.16479,-0.985722 -0.38444,-0.189886 -0.92644,-0.368989 -1.62601,-0.537308 -0.69958,-0.16826 -1.22839,-0.279607 -1.58645,-0.334042 l 0.0463,-1.751341 28.24598,0.746866 z m -30.92789,12.767373 -0.13773,10.238133 -29.32262,1.408838 -0.0841,-1.749934 c 0.52133,-0.07002 1.13114,-0.170527 1.82943,-0.301522 0.69829,-0.130992 1.15746,-0.246748 1.3775,-0.34727 0.52838,-0.235261 0.88828,-0.544881 1.07972,-0.928863 0.19142,-0.383974 0.27312,-0.867618 0.2451,-1.450934 l -1.07899,-22.457493 c -0.0259,-0.538413 -0.12952,-0.979423 -0.31093,-1.323029 -0.18141,-0.343549 -0.59303,-0.642335 -1.23486,-0.89636 -0.47373,-0.187087 -1.03895,-0.328582 -1.69567,-0.424484 -0.65673,-0.09584 -1.18096,-0.16435 -1.57271,-0.205523 l -0.0841,-1.749934 17.47691,-0.839698 0.0841,1.749934 c -0.47648,0.0679 -1.03804,0.158591 -1.68468,0.272081 -0.64668,0.113552 -1.20573,0.256594 -1.67714,0.429126 -0.57399,0.222493 -0.94831,0.54405 -1.12297,0.964672 -0.17469,0.42068 -0.24945,0.892748 -0.22429,1.416204 l 1.0057,20.931909 c 0.0474,0.987148 0.15209,1.761662 0.31402,2.323544 0.1619,0.561892 0.44377,0.968103 0.84559,1.218636 0.40251,0.265497 0.95349,0.422667 1.65295,0.47151 0.69942,0.04885 1.66237,0.04381 2.88883,-0.01512 1.19652,-0.05749 2.35599,-0.184402 3.47841,-0.380749 1.12238,-0.196341 1.91887,-0.545677 2.38947,-1.048009 0.72612,-0.799436 1.45605,-1.910126 2.18979,-3.332073 0.73368,-1.421932 1.31218,-2.720232 1.73549,-3.894905 z m -44.26198,12.896583 -17.0086,2.737797 -0.27842,-1.729688 c 0.36481,-0.08905 0.89728,-0.220262 1.5974,-0.393626 0.70007,-0.173352 1.17365,-0.340582 1.42074,-0.501692 0.51128,-0.309795 0.84126,-0.662454 0.98996,-1.057976 0.14864,-0.395507 0.17776,-0.874153 0.0874,-1.435941 l -1.74548,-10.843816 -13.43834,2.16311 1.70621,10.599885 c 0.0809,0.502651 0.26066,0.9363 0.53928,1.300948 0.2786,0.364659 0.69447,0.616219 1.24761,0.754681 0.29991,0.07306 0.80061,0.121383 1.50209,0.144967 0.70145,0.02359 1.26892,0.01567 1.70242,-0.02378 l 0.27842,1.729689 -17.0086,2.737797 -0.27842,-1.729689 c 0.36721,-0.07427 0.90278,-0.209772 1.6067,-0.406498 0.70391,-0.196721 1.20898,-0.380393 1.51518,-0.551018 0.50127,-0.277852 0.82387,-0.62932 0.96778,-1.054406 0.14391,-0.425078 0.17303,-0.903724 0.0874,-1.435941 l -3.58377,-22.264195 c -0.0833,-0.5174 -0.24589,-0.938644 -0.48779,-1.263735 -0.24191,-0.325033 -0.67256,-0.574214 -1.29196,-0.747542 -0.45966,-0.123148 -1.0494,-0.206429 -1.76922,-0.249843 -0.71982,-0.04335 -1.23733,-0.05484 -1.55255,-0.03447 l -0.27842,-1.729688 17.0086,-2.737797 0.27842,1.729688 c -0.45355,0.10337 -0.98864,0.265335 -1.60529,0.485897 -0.61667,0.220627 -1.08668,0.410033 -1.41004,0.568219 -0.54564,0.285025 -0.87694,0.653062 -0.9939,1.104111 -0.11699,0.451111 -0.1374,0.913189 -0.0612,1.386236 l 1.51346,9.402409 13.43835,-2.163109 -1.47777,-9.180654 c -0.0833,-0.517397 -0.24961,-0.938047 -0.49888,-1.261951 -0.24932,-0.32384 -0.68367,-0.572425 -1.30305,-0.745757 -0.41295,-0.1155 -0.95345,-0.199123 -1.62151,-0.25087 -0.66809,-0.05168 -1.19789,-0.06878 -1.58938,-0.05129 l -0.27842,-1.729689 17.0086,-2.737797 0.27842,1.729689 c -0.46835,0.105752 -0.99045,0.25425 -1.56629,0.445495 -0.57591,0.191315 -1.08849,0.398948 -1.53774,0.622898 -0.53088,0.28265 -0.85908,0.646396 -0.9846,1.091239 -0.12559,0.444912 -0.14911,0.911281 -0.0705,1.399109 l 3.58734,22.28637 c 0.0856,0.532221 0.25431,0.967655 0.50602,1.306302 0.25164,0.338664 0.6786,0.58844 1.28087,0.749326 0.37857,0.09073 0.91371,0.141093 1.60545,0.15108 0.69165,0.01 1.25424,-0.0047 1.68776,-0.04417 z m -45.67769,-15.359959 -1.67818,0.41818 c -0.77992,-1.209928 -1.85577,-2.446442 -3.22758,-3.709546 -1.37184,-1.263037 -2.49359,-1.847693 -3.36526,-1.75397 -0.47945,0.05778 -1.06604,0.149936 -1.75978,0.276481 -0.69377,0.126614 -1.28765,0.251454 -1.78164,0.374521 l -1.02434,0.255253 6.0446,24.257244 c 0.13033,0.523076 0.33972,0.960858 0.62819,1.313347 0.28844,0.352505 0.73769,0.576199 1.34777,0.671083 0.36674,0.0475 0.91967,0.05246 1.65877,0.01489 0.73906,-0.03756 1.36285,-0.08883 1.87136,-0.153825 l 0.42362,1.699969 -17.23943,4.295852 -0.42361,-1.699969 c 0.41049,-0.148583 0.98718,-0.357873 1.73009,-0.627872 0.74288,-0.269991 1.23787,-0.497502 1.48498,-0.682536 0.50872,-0.373673 0.80865,-0.780195 0.89979,-1.219569 0.0911,-0.439362 0.0697,-0.927844 -0.0642,-1.465448 l -6.09892,-24.475189 -1.02434,0.255253 c -0.49401,0.123132 -1.07703,0.291561 -1.74906,0.505287 -0.67203,0.213788 -1.23328,0.407656 -1.68375,0.581603 -0.81375,0.326263 -1.52999,1.368926 -2.14873,3.127991 -0.61874,1.759121 -0.98858,3.355885 -1.10953,4.790298 l -1.67817,0.41818 -2.20495,-8.848554 29.96739,-7.467506 z m -33.08577,11.599694 c 1.68733,5.182775 1.31625,9.992418 -1.11322,14.428942 -2.42951,4.436534 -6.54723,8.040852 -12.35316,10.812964 l -1.17961,-1.954468 2.13874,-1.121494 c 1.58906,-1.068522 2.83277,-2.182077 3.73113,-3.340668 0.89833,-1.158591 1.54851,-2.37811 1.95052,-3.658564 0.42118,-1.318193 0.63643,-2.6402 0.64573,-3.966025 0.009,-1.325809 -0.0927,-2.654772 -0.30592,-3.986895 -0.89605,1.504296 -1.87461,2.622075 -2.93569,3.353341 -1.06111,0.731284 -2.32493,1.335654 -3.79147,1.813112 -1.2245,0.398668 -2.44949,0.52978 -3.67497,0.393339 -1.22549,-0.136428 -2.36654,-0.497198 -3.42315,-1.082311 -1.07548,-0.5947 -2.03333,-1.420613 -2.87355,-2.477742 -0.84021,-1.057109 -1.48978,-2.290466 -1.9487,-3.700076 -0.97811,-3.004276 -0.63487,-5.867908 1.02971,-8.590905 1.66458,-2.722952 4.22683,-4.647663 7.68676,-5.774138 3.74467,-1.219131 7.09829,-1.027543 10.06085,0.574763 2.96252,1.602362 5.08119,4.361301 6.356,8.276825 z m -7.41307,3.712649 c -0.0649,-0.199321 -0.1366,-0.443691 -0.21506,-0.73311 -0.0785,-0.289386 -0.16176,-0.569351 -0.24982,-0.839897 -1.11255,-3.417184 -2.3737,-5.900206 -3.78343,-7.449073 -1.40975,-1.548818 -2.76958,-2.110002 -4.0795,-1.683555 -1.26722,0.412594 -2.07112,1.438074 -2.41169,3.076445 -0.34058,1.638417 -0.0867,3.760422 0.76161,6.366021 0.74168,2.278152 1.73495,3.962585 2.97981,5.053305 1.24484,1.090744 2.52222,1.422873 3.83216,0.996388 0.82582,-0.268853 1.53426,-0.680598 2.12533,-1.235235 0.59105,-0.554613 1.03956,-1.377781 1.34555,-2.469506 -0.0232,-0.07118 -0.0566,-0.19808 -0.10033,-0.38071 -0.0437,-0.1826 -0.11193,-0.416291 -0.20463,-0.701073 z"
         class="text top" />
      <path
         d="m 540.10246,827.77093 c -0.78547,0.40585 -1.61233,0.68689 -2.48059,0.84313 -0.86826,0.15624 -1.57583,0.21149 -2.12268,0.16576 l 0.0624,1.01422 -0.94741,0.48953 -2.49884,-4.44898 0.88668,-0.45814 c 0.30974,0.30163 0.72452,0.60798 1.24432,0.91905 0.51981,0.31107 1.05605,0.55466 1.60872,0.73076 0.56886,0.16775 1.16309,0.25056 1.7827,0.24845 0.6196,-0.002 1.20877,-0.1475 1.7675,-0.4362 0.73687,-0.38074 1.21121,-0.80794 1.42302,-1.28159 0.2118,-0.47365 0.1629,-1.01008 -0.14671,-1.6093 -0.16736,-0.32389 -0.38641,-0.54927 -0.65714,-0.67614 -0.27074,-0.12684 -0.58756,-0.19398 -0.95046,-0.2014 -0.39949,0.001 -0.81679,0.0424 -1.25189,0.12362 -0.43512,0.0812 -0.96983,0.18308 -1.60414,0.30563 -0.63431,0.12257 -1.19072,0.20231 -1.66922,0.23923 -0.4785,0.0369 -1.02033,-0.014 -1.6255,-0.1527 -0.52756,-0.12752 -1.01572,-0.35748 -1.46447,-0.68988 -0.44875,-0.33239 -0.83212,-0.80629 -1.15011,-1.42171 -0.58994,-1.14174 -0.58713,-2.31276 0.008,-3.51306 0.59555,-1.20027 1.67069,-2.20208 3.22541,-3.00542 0.73688,-0.38072 1.45374,-0.65623 2.15061,-0.82652 0.69686,-0.17025 1.30185,-0.2751 1.81498,-0.31454 l -0.11522,-0.84842 0.92312,-0.47698 2.33445,4.04147 -0.86238,0.44559 c -0.71856,-0.69569 -1.57992,-1.1714 -2.5841,-1.42714 -1.00418,-0.25571 -1.90305,-0.17855 -2.6966,0.23146 -0.62351,0.32219 -1.04647,0.70488 -1.26887,1.14808 -0.2224,0.44323 -0.21436,0.89562 0.0241,1.35716 0.31799,0.61542 0.80925,0.92585 1.4738,0.93129 0.66454,0.005 1.52923,-0.11302 2.59407,-0.35545 1.64191,-0.37644 2.96523,-0.41642 3.96996,-0.11995 1.00471,0.29649 1.76439,0.94273 2.27903,1.93871 0.68616,1.32801 0.69726,2.62521 0.0333,3.89162 -0.66398,1.26643 -1.83406,2.33268 -3.51024,3.19876 z m -6.95531,2.78252 -5.73588,3.12837 -0.26695,-0.0862 -0.76057,-1.6215 -0.0743,0.0348 c -0.16059,0.38741 -0.31788,0.76573 -0.47187,1.13495 -0.15402,0.36923 -0.37024,0.73996 -0.64867,1.11217 -0.31635,0.42021 -0.6371,0.772 -0.96223,1.05539 -0.32516,0.28339 -0.84669,0.59345 -1.5646,0.93019 -1.24604,0.58446 -2.37731,0.65702 -3.39381,0.21767 -1.0165,-0.43934 -1.84601,-1.34392 -2.48853,-2.71374 l -2.61265,-5.57004 c -0.15095,-0.32182 -0.33573,-0.55479 -0.55434,-0.69891 -0.21861,-0.1441 -0.46783,-0.24617 -0.74767,-0.3062 -0.2231,-0.0464 -0.47925,-0.0344 -0.76848,0.0358 -0.28921,0.0702 -0.54497,0.14741 -0.76727,0.23153 l -0.42382,-0.90359 5.85231,-3.13768 0.22325,0.12181 3.86091,8.23129 c 0.39867,0.84995 0.85581,1.40065 1.37142,1.6521 0.51561,0.25146 1.0581,0.24366 1.62749,-0.0234 0.58588,-0.27481 1.04033,-0.67422 1.36336,-1.19823 0.32301,-0.524 0.51052,-1.00962 0.56251,-1.45684 l -3.12937,-6.67168 c -0.13161,-0.28055 -0.3033,-0.50707 -0.51507,-0.67957 -0.21179,-0.17247 -0.45373,-0.28047 -0.72582,-0.324 -0.19499,-0.0293 -0.43844,0.004 -0.73035,0.10095 -0.29193,0.0967 -0.58617,0.20449 -0.88272,0.32344 l -0.42383,-0.90359 5.85231,-3.13767 0.27276,0.0986 4.48214,9.55572 c 0.13546,0.28882 0.30837,0.50722 0.51874,0.6552 0.21035,0.14799 0.45982,0.23987 0.74844,0.27564 0.20322,0.0255 0.43939,-0.002 0.7085,-0.0832 0.26909,-0.0809 0.52935,-0.1753 0.7808,-0.28317 z m -17.14648,8.4735 -7.55498,3.05277 -0.37391,-0.92535 c 0.17566,-0.10047 0.36149,-0.20014 0.55749,-0.299 0.19597,-0.0988 0.34791,-0.2094 0.45583,-0.33165 0.15175,-0.15962 0.21286,-0.34897 0.18334,-0.56807 -0.0296,-0.21907 -0.10751,-0.48495 -0.23383,-0.79763 l -2.39202,-5.91976 c -0.35174,-0.87041 -0.76975,-1.46091 -1.25405,-1.7715 -0.48432,-0.31056 -1.0138,-0.34975 -1.58844,-0.11756 -0.3634,0.14685 -0.66359,0.33451 -0.90058,0.56297 -0.23701,0.22849 -0.43967,0.47505 -0.60799,0.73966 -0.17337,0.27651 -0.2918,0.5308 -0.35529,0.76289 -0.0635,0.23211 -0.11614,0.43033 -0.15786,0.59463 l 2.75056,6.80709 c 0.12292,0.30423 0.25872,0.5369 0.40739,0.69801 0.14865,0.16113 0.34236,0.25735 0.58114,0.28866 0.16593,0.0214 0.34747,0.0267 0.54463,0.0159 0.19713,-0.0108 0.398,-0.0429 0.60263,-0.096 l 0.37391,0.92536 -7.23807,2.92472 -0.37391,-0.92536 c 0.15373,-0.0818 0.33956,-0.18144 0.55749,-0.299 0.21792,-0.11754 0.36986,-0.22809 0.45583,-0.33164 0.13989,-0.16467 0.20145,-0.34683 0.18468,-0.5465 -0.0168,-0.19965 -0.0952,-0.47272 -0.23517,-0.81921 l -2.39202,-5.91975 c -0.35173,-0.87042 -0.76974,-1.46092 -1.25405,-1.77151 -0.48431,-0.31056 -1.01379,-0.34975 -1.58844,-0.11756 -0.36339,0.14685 -0.66358,0.3345 -0.90058,0.56297 -0.237,0.22849 -0.43966,0.47504 -0.60799,0.73966 -0.17336,0.2765 -0.2918,0.5308 -0.35529,0.76289 -0.0635,0.23211 -0.11613,0.43033 -0.15786,0.59464 l 2.75056,6.80708 c 0.11951,0.29578 0.25657,0.52549 0.41117,0.68912 0.15459,0.16363 0.35127,0.26111 0.59003,0.29243 0.16594,0.0214 0.34748,0.0267 0.54463,0.0159 0.19714,-0.0108 0.39802,-0.0429 0.60264,-0.0961 l 0.37391,0.92536 -7.593,3.06814 -0.37391,-0.92536 c 0.21289,-0.10568 0.41984,-0.21389 0.62087,-0.32461 0.20102,-0.11072 0.36564,-0.22639 0.49385,-0.34701 0.22945,-0.21068 0.35646,-0.43158 0.38104,-0.6627 0.0246,-0.23112 -0.0263,-0.50301 -0.15265,-0.81569 l -2.98107,-7.37751 c -0.10927,-0.27041 -0.28781,-0.50548 -0.53562,-0.70518 -0.24781,-0.19969 -0.50215,-0.33039 -0.76302,-0.39211 -0.19309,-0.0399 -0.41949,-0.0468 -0.67921,-0.0205 -0.25971,0.0263 -0.53412,0.0831 -0.82325,0.17045 l -0.37391,-0.92536 5.91334,-2.77282 0.26697,0.11331 0.72222,1.78733 0.0507,-0.0205 c 0.15125,-0.30687 0.33065,-0.67182 0.5382,-1.09485 0.20754,-0.42301 0.41912,-0.7813 0.63474,-1.07488 0.23072,-0.32915 0.56384,-0.66036 0.99935,-0.99365 0.4355,-0.33325 0.94481,-0.61769 1.52792,-0.85332 0.96337,-0.38926 1.85282,-0.50536 2.66834,-0.34829 0.8155,0.1571 1.49848,0.52749 2.04892,1.11116 l 0.11408,-0.0461 c 0.15287,-0.32718 0.34445,-0.71671 0.57476,-1.1686 0.23028,-0.45185 0.45575,-0.83051 0.67641,-1.13596 0.2442,-0.34442 0.59292,-0.69177 1.04615,-1.04204 0.45321,-0.35024 0.97137,-0.64317 1.55448,-0.87881 1.27605,-0.5156 2.41041,-0.53651 3.40307,-0.0627 0.99263,0.47383 1.76896,1.4037 2.329,2.78961 l 2.48934,6.1606 c 0.12632,0.31269 0.27439,0.54531 0.4442,0.69788 0.16977,0.15259 0.39769,0.23007 0.68376,0.23244 0.15909,0.005 0.34989,-0.004 0.57241,-0.0248 0.22248,-0.0211 0.46983,-0.0719 0.74207,-0.1524 z m -26.43637,10.43942 -8.14642,2.88032 -0.33269,-0.94096 c 0.21735,-0.0962 0.42888,-0.19514 0.6346,-0.29688 0.20571,-0.10174 0.37528,-0.21003 0.50869,-0.32487 0.23852,-0.20035 0.37946,-0.41694 0.42281,-0.64979 0.0433,-0.23285 0.009,-0.50824 -0.1036,-0.8262 l -2.65245,-7.50192 c -0.10634,-0.30076 -0.26851,-0.54069 -0.48652,-0.71981 -0.21801,-0.1791 -0.45444,-0.30094 -0.70929,-0.36552 -0.19114,-0.0484 -0.46024,-0.0644 -0.80732,-0.0481 -0.34707,0.0164 -0.65407,0.0573 -0.92098,0.12261 l -0.3327,-0.94096 6.19756,-2.5683 0.26171,0.12499 3.61863,10.23458 c 0.10634,0.30077 0.26117,0.53363 0.46452,0.69859 0.20333,0.16496 0.44353,0.25647 0.72061,0.27451 0.19921,0.0166 0.41256,0.0185 0.64008,0.006 0.2275,-0.0128 0.45752,-0.0457 0.69007,-0.099 z m -8.09831,-16.91644 c 0.23091,0.65311 0.17629,1.29839 -0.16387,1.93585 -0.34016,0.6375 -0.85396,1.07778 -1.54143,1.32082 -0.69605,0.24612 -1.3767,0.22818 -2.04196,-0.0538 -0.66525,-0.28198 -1.11334,-0.74952 -1.34425,-1.40263 -0.23091,-0.65307 -0.17705,-1.3005 0.16158,-1.9423 0.33865,-0.64176 0.85599,-1.0857 1.55204,-1.33182 0.69606,-0.24608 1.37533,-0.22523 2.0378,0.0626 0.66248,0.28783 1.10918,0.75828 1.34009,1.41135 z m -0.97827,19.89267 -6.30524,2.41494 -0.25333,-0.12048 -0.38013,-1.19899 -0.0995,0.003 c -0.27975,0.59546 -0.72796,1.17979 -1.34462,1.75299 -0.61669,0.57319 -1.29428,0.97686 -2.03278,1.211 -1.75506,0.55642 -3.40827,0.36343 -4.95963,-0.57899 -1.55136,-0.9424 -2.65483,-2.44752 -3.31042,-4.51536 -0.58121,-1.83324 -0.44336,-3.60761 0.41355,-5.32311 0.85691,-1.71548 2.18895,-2.85969 3.99614,-3.43266 0.71244,-0.22586 1.40692,-0.35759 2.08345,-0.3952 0.67652,-0.0376 1.23601,-0.007 1.67848,0.0918 l -1.35111,-4.26166 c -0.10192,-0.32145 -0.26281,-0.60271 -0.48265,-0.84378 -0.21986,-0.24104 -0.46318,-0.40533 -0.72996,-0.49287 -0.32995,-0.10574 -0.71001,-0.13584 -1.14018,-0.0903 -0.43018,0.0456 -0.85496,0.1157 -1.27433,0.21038 l -0.30162,-0.95137 6.93016,-2.57005 0.2616,0.14655 5.41685,17.08571 c 0.10466,0.33016 0.2471,0.59097 0.42734,0.78243 0.18021,0.19148 0.41262,0.31381 0.69723,0.367 0.21274,0.0377 0.50194,0.0225 0.86761,-0.0456 0.36564,-0.0681 0.66279,-0.13363 0.89146,-0.19657 z m -7.38208,-0.21256 -2.33449,-7.36341 c -0.12418,-0.18053 -0.27914,-0.37523 -0.46486,-0.58409 -0.18574,-0.20883 -0.40861,-0.39155 -0.66861,-0.54818 -0.23162,-0.12735 -0.515,-0.2144 -0.85012,-0.26115 -0.33514,-0.0467 -0.68517,-0.0122 -1.05007,0.10344 -0.86884,0.27547 -1.42566,0.99223 -1.67045,2.1503 -0.24479,1.15809 -0.0835,2.63203 0.48398,4.42183 0.22311,0.70377 0.47346,1.32001 0.75105,1.84872 0.27759,0.52873 0.61536,0.98339 1.01332,1.36399 0.39794,0.38061 0.8359,0.63857 1.31386,0.77388 0.47796,0.13533 0.99496,0.11484 1.55103,-0.0615 0.52998,-0.16802 0.93638,-0.40921 1.21919,-0.72358 0.28279,-0.31435 0.51818,-0.68778 0.70617,-1.12029 z m -10.47221,5.84178 c -0.34133,0.27264 -0.75659,0.55128 -1.24577,0.83591 -0.48922,0.28465 -1.02839,0.50734 -1.61752,0.66809 -1.08157,0.2951 -1.92113,0.35175 -2.5187,0.16995 -0.59758,-0.18179 -1.07027,-0.54646 -1.41806,-1.09402 l -0.0791,0.0216 c -0.2174,0.38054 -0.4358,0.71411 -0.65519,1.00072 -0.21941,0.28661 -0.467,0.54785 -0.74276,0.7837 -0.3605,0.30621 -0.7194,0.55766 -1.07671,0.75436 -0.35731,0.19669 -0.8789,0.38861 -1.56476,0.57574 -1.02001,0.27831 -1.9727,0.21467 -2.85808,-0.19093 -0.88539,-0.4056 -1.46363,-1.10521 -1.73474,-2.09884 -0.15595,-0.57155 -0.20937,-1.07896 -0.16026,-1.52224 0.0491,-0.44327 0.17677,-0.85837 0.38298,-1.24531 0.18702,-0.35335 0.429,-0.66974 0.72595,-0.94917 0.29694,-0.27942 0.63046,-0.55465 1.00055,-0.8257 0.71221,-0.50609 1.5797,-1.06637 2.60247,-1.68083 1.02276,-0.61445 1.75555,-1.11436 2.19838,-1.49973 l -0.34548,-1.26621 c -0.06,-0.21982 -0.15675,-0.50519 -0.29028,-0.85613 -0.13355,-0.35091 -0.29106,-0.63388 -0.47254,-0.84891 -0.19989,-0.24778 -0.45812,-0.43241 -0.77469,-0.5539 -0.31658,-0.12146 -0.6903,-0.12341 -1.12116,-0.006 -0.3869,0.10558 -0.69505,0.24871 -0.92446,0.42939 -0.22941,0.1807 -0.40766,0.34979 -0.53474,0.50728 0.0744,0.16867 0.22228,0.41647 0.44375,0.74339 0.22147,0.32694 0.37779,0.65748 0.46896,0.9916 0.0408,0.1495 0.0522,0.34715 0.0342,0.59296 -0.018,0.24583 -0.0837,0.45508 -0.19718,0.62775 -0.15426,0.23105 -0.3435,0.42913 -0.56771,0.59422 -0.22421,0.16511 -0.59572,0.31844 -1.11451,0.45998 -0.73863,0.20154 -1.34557,0.17583 -1.82085,-0.0771 -0.47527,-0.25294 -0.79088,-0.6652 -0.94683,-1.23676 -0.13435,-0.49241 -0.0593,-0.98765 0.22527,-1.48572 0.28453,-0.49804 0.67338,-0.95135 1.16657,-1.35991 0.48199,-0.41493 1.06371,-0.79331 1.74516,-1.13515 0.68145,-0.3418 1.32994,-0.59669 1.94546,-0.76465 0.85293,-0.2327 1.64932,-0.39567 2.38916,-0.4889 0.73983,-0.0932 1.43871,-0.0595 2.09664,0.10109 0.62914,0.15902 1.18396,0.48711 1.66447,0.98427 0.48048,0.49719 0.84909,1.21621 1.10581,2.15706 0.2711,0.99364 0.57281,2.17732 0.90513,3.55104 0.33229,1.37375 0.55723,2.27604 0.6748,2.7069 0.10795,0.3957 0.25248,0.69166 0.43358,0.88789 0.18107,0.19624 0.41031,0.31792 0.68772,0.36505 0.16867,0.0296 0.41528,0.007 0.73984,-0.0672 0.32454,-0.0744 0.61871,-0.14755 0.88252,-0.21953 z m -8.43027,-5.08325 c -0.44684,0.30144 -0.88267,0.62585 -1.30751,0.97322 -0.42485,0.3474 -0.75876,0.68179 -1.00174,1.00317 -0.25817,0.33498 -0.4274,0.71891 -0.50769,1.15179 -0.0803,0.43289 -0.0497,0.90873 0.0919,1.42752 0.18713,0.68587 0.47876,1.1401 0.8749,1.36269 0.39612,0.22259 0.8228,0.2715 1.28005,0.14674 0.48362,-0.13195 0.85452,-0.33944 1.1127,-0.62246 0.25817,-0.28301 0.46638,-0.602 0.62463,-0.95695 z m -15.89152,12.20156 c -1.38633,0.31596 -2.73493,0.38728 -4.0458,0.21396 -1.31087,-0.17332 -2.51231,-0.58426 -3.6043,-1.23282 -1.07017,-0.63483 -1.99878,-1.50993 -2.78584,-2.6253 -0.78706,-1.11535 -1.3487,-2.41062 -1.68492,-3.88582 -0.33419,-1.4663 -0.38808,-2.88197 -0.16166,-4.24702 0.22642,-1.36503 0.69742,-2.61053 1.41302,-3.73652 0.70188,-1.10413 1.63201,-2.04762 2.7904,-2.83049 1.15839,-0.78282 2.46184,-1.33931 3.91038,-1.66947 1.04862,-0.23898 2.0328,-0.33008 2.95255,-0.27329 0.91972,0.0568 1.71375,0.17734 2.38208,0.36154 l 0.65937,-0.92152 1.15971,-0.26431 1.69371,6.87762 -1.17304,0.26735 c -1.14654,-1.95422 -2.29876,-3.31822 -3.45667,-4.09199 -1.15793,-0.77374 -2.40784,-1.0077 -3.74972,-0.70189 -1.67071,0.3808 -2.7739,1.40581 -3.30959,3.07502 -0.53569,1.66926 -0.50074,3.83244 0.10485,6.48954 0.34229,1.50187 0.78331,2.74984 1.32305,3.74395 0.53974,0.99411 1.12347,1.76084 1.75122,2.3002 0.66935,0.55792 1.391,0.91461 2.16496,1.07008 0.77394,0.15547 1.58748,0.13599 2.44061,-0.0585 1.24413,-0.28355 2.27578,-0.87391 3.09495,-1.77109 0.81915,-0.89716 1.47268,-2.12116 1.96058,-3.67201 l 1.30437,0.43189 c -0.20391,0.86913 -0.47986,1.6682 -0.82785,2.39721 -0.34801,0.72903 -0.7913,1.38863 -1.32986,1.97878 -0.59066,0.64878 -1.27894,1.20763 -2.06481,1.67654 -0.78591,0.46891 -1.75649,0.83502 -2.91175,1.09832 z m -18.40798,3.32116 -8.51125,1.48958 -0.17206,-0.9831 c 0.23029,-0.0588 0.4553,-0.12133 0.67504,-0.18754 0.21974,-0.0662 0.40491,-0.14489 0.55552,-0.23602 0.26844,-0.15802 0.44335,-0.34825 0.52471,-0.57068 0.0814,-0.22244 0.093,-0.49975 0.0348,-0.83194 l -1.37173,-7.8379 c -0.055,-0.31422 -0.17514,-0.57773 -0.36043,-0.79052 -0.18529,-0.21277 -0.39824,-0.37213 -0.63886,-0.47808 -0.18046,-0.0794 -0.44318,-0.13987 -0.78817,-0.18129 -0.34498,-0.0414 -0.6545,-0.052 -0.92856,-0.0318 l -0.17206,-0.9831 6.53764,-1.50505 0.23736,0.16666 1.87141,10.69294 c 0.055,0.31424 0.16907,0.56955 0.34225,0.76594 0.17316,0.1964 0.39486,0.32647 0.66511,0.39021 0.1937,0.0494 0.40379,0.0866 0.63027,0.11177 0.22647,0.0251 0.45877,0.0307 0.69693,0.0168 z m -5.18107,-18.02513 c 0.11942,0.68236 -0.0414,1.30965 -0.4826,1.88188 -0.44116,0.57227 -1.02087,0.92125 -1.73911,1.04693 -0.72723,0.12729 -1.39549,-0.003 -2.00477,-0.3917 -0.60929,-0.38839 -0.97364,-0.92376 -1.09306,-1.60612 -0.11941,-0.68232 0.0411,-1.31185 0.48143,-1.88861 0.44037,-0.57672 1.02417,-0.92873 1.7514,-1.05602 0.72723,-0.12726 1.39363,0.006 1.99921,0.39961 0.60558,0.3937 0.96808,0.93171 1.0875,1.61403 z m -11.22307,21.19362 c -0.87481,0.12802 -1.74812,0.12455 -2.61994,-0.0104 -0.87183,-0.13495 -1.55883,-0.31307 -2.06101,-0.53436 l -0.27122,0.97928 -1.05516,0.15441 -0.91427,-5.02013 0.98753,-0.14451 c 0.19467,0.38604 0.48711,0.81073 0.87732,1.27409 0.39022,0.46336 0.81793,0.86826 1.28316,1.2147 0.48326,0.3438 1.01815,0.61557 1.60469,0.8153 0.58653,0.19973 1.19093,0.25406 1.81322,0.163 0.82068,-0.1201 1.40826,-0.36959 1.76274,-0.74848 0.35446,-0.37888 0.48287,-0.90201 0.38522,-1.56938 -0.0528,-0.36074 -0.18654,-0.64516 -0.40122,-0.85325 -0.21469,-0.20808 -0.49239,-0.3747 -0.83311,-0.49987 -0.37812,-0.12889 -0.7861,-0.22579 -1.22393,-0.29068 -0.43785,-0.0649 -0.97659,-0.14265 -1.61624,-0.23328 -0.63966,-0.0906 -1.19172,-0.19637 -1.65617,-0.31725 -0.46445,-0.12087 -0.96019,-0.3454 -1.48722,-0.67359 -0.45731,-0.29233 -0.84401,-0.66869 -1.16009,-1.12908 -0.31609,-0.46038 -0.52428,-1.03327 -0.62458,-1.71869 -0.18609,-1.2716 0.19781,-2.37791 1.15169,-3.31892 0.95387,-0.94099 2.29659,-1.53819 4.02815,-1.7916 0.82068,-0.12008 1.58819,-0.14719 2.30253,-0.0813 0.71432,0.0659 1.32049,0.16373 1.81849,0.29349 l 0.16729,-0.83971 1.02811,-0.15045 0.8915,4.5813 -0.96047,0.14056 c -0.45292,-0.89173 -1.11248,-1.62196 -1.97868,-2.19069 -0.86623,-0.5687 -1.74124,-0.7884 -2.62505,-0.65907 -0.69443,0.10163 -1.21894,0.32577 -1.57352,0.67242 -0.35458,0.34668 -0.49426,0.77703 -0.41903,1.29108 0.1003,0.68542 0.46373,1.13887 1.0903,1.36037 0.62656,0.22152 1.48271,0.391 2.56846,0.50845 1.67502,0.17863 2.93926,0.57166 3.79273,1.17908 0.85345,0.60744 1.36134,1.4658 1.52368,2.57507 0.21643,1.47904 -0.1954,2.70919 -1.2355,3.69044 -1.04011,0.98126 -2.49358,1.60848 -4.3604,1.88167 z m -7.5818,0.59489 -8.58118,1.01175 -0.11687,-0.99118 c 0.23322,-0.0459 0.46137,-0.0957 0.68447,-0.14953 0.22309,-0.0538 0.41237,-0.12204 0.56784,-0.20462 0.27685,-0.14277 0.4621,-0.32293 0.55577,-0.54047 0.0937,-0.21754 0.12074,-0.49377 0.0813,-0.8287 l -0.93171,-7.90229 c -0.0374,-0.31681 -0.14259,-0.58661 -0.3157,-0.80942 -0.17311,-0.22279 -0.37683,-0.3938 -0.61115,-0.51303 -0.17574,-0.0894 -0.43468,-0.16441 -0.77681,-0.22504 -0.34214,-0.0606 -0.65058,-0.0885 -0.92534,-0.0836 l -0.11686,-0.99118 6.61151,-1.13745 0.22768,0.17965 1.27109,10.7808 c 0.0374,0.31681 0.13699,0.5781 0.29892,0.78386 0.16192,0.20577 0.37601,0.34802 0.64228,0.42676 0.19064,0.0601 0.39831,0.10906 0.62304,0.1468 0.22471,0.0377 0.45634,0.0563 0.6949,0.0557 z m -4.16595,-18.28643 c 0.0811,0.68796 -0.11456,1.30529 -0.58699,1.85198 -0.47244,0.54673 -1.07074,0.86277 -1.79488,0.94814 -0.73321,0.0865 -1.39313,-0.0812 -1.97976,-0.5031 -0.58663,-0.42182 -0.9205,-0.97671 -1.00161,-1.66467 -0.0811,-0.68793 0.11428,-1.30752 0.58618,-1.85877 0.47191,-0.55122 1.07446,-0.87006 1.80766,-0.95653 0.7332,-0.0864 1.39112,0.0838 1.97377,0.51068 0.58264,0.42693 0.91451,0.98435 0.99563,1.67227 z m -5.78247,6.87341 c -0.40301,0.0995 -0.78666,0.2888 -1.15096,0.56787 -0.36434,0.2791 -0.65085,0.68859 -0.85955,1.22847 -0.51899,1.38152 -1.02562,2.77338 -1.51989,4.17559 -0.49429,1.40222 -0.98101,2.7603 -1.46017,4.07426 -0.14806,0.39732 -0.3115,0.90578 -0.49031,1.52539 -0.17884,0.61961 -0.32386,1.18135 -0.43508,1.68522 l -2.50596,0.2204 c -1.25736,-2.33239 -2.32631,-4.26505 -3.20683,-5.79797 -0.88053,-1.53291 -1.81457,-3.18006 -2.80212,-4.94147 -0.2282,-0.40995 -0.5551,-0.71974 -0.9807,-0.92937 -0.4256,-0.2096 -0.84962,-0.32327 -1.27207,-0.34103 l -0.0874,-0.99421 8.38949,-0.73787 0.0874,0.99421 c -0.30791,0.0362 -0.6651,0.13628 -1.07157,0.30012 -0.40649,0.16386 -0.60094,0.34565 -0.58337,0.54539 0.005,0.0545 0.0301,0.13461 0.076,0.24036 0.0459,0.10577 0.10207,0.22435 0.16854,0.35574 0.35123,0.6645 0.87675,1.62018 1.57658,2.86704 0.69982,1.24687 1.43968,2.55884 2.21959,3.9359 0.36692,-1.02959 0.71522,-2.03696 1.0449,-3.02211 0.32966,-0.98514 0.73398,-2.23991 1.21295,-3.76431 0.0625,-0.22508 0.0946,-0.40632 0.0963,-0.54373 0.002,-0.13737 4.5e-4,-0.22877 -0.004,-0.27418 -0.0144,-0.16342 -0.10641,-0.29943 -0.27607,-0.40804 -0.16968,-0.10859 -0.36747,-0.1987 -0.59335,-0.27035 -0.23499,-0.0708 -0.45888,-0.11975 -0.67169,-0.14679 -0.21284,-0.027 -0.38814,-0.0436 -0.52592,-0.0498 l -0.0874,-0.99421 5.62478,-0.4947 z m -15.68332,13.93417 -8.62605,0.5017 -0.058,-0.99636 c 0.23552,-0.032 0.46622,-0.0682 0.69212,-0.10873 0.22589,-0.0405 0.41888,-0.0974 0.57896,-0.17062 0.28482,-0.12613 0.48042,-0.29499 0.58681,-0.50661 0.10638,-0.21161 0.14978,-0.48575 0.1302,-0.82242 l -0.46201,-7.94361 c -0.0185,-0.31846 -0.1076,-0.59403 -0.26721,-0.8267 -0.15961,-0.23265 -0.35284,-0.41542 -0.57969,-0.54832 -0.17013,-0.0996 -0.42417,-0.18987 -0.76212,-0.27066 -0.33794,-0.0808 -0.64419,-0.12686 -0.91875,-0.13829 l -0.058,-0.99636 6.66728,-0.74385 0.21664,0.19282 0.63031,10.83715 c 0.0185,0.31848 0.1025,0.58521 0.25196,0.8002 0.14945,0.215 0.35474,0.36968 0.61588,0.46405 0.18674,0.0713 0.39115,0.13246 0.61325,0.18345 0.22207,0.051 0.4522,0.0833 0.69038,0.0968 z m -3.07553,-18.50108 c 0.0402,0.69156 -0.19166,1.29621 -0.69565,1.81396 -0.50399,0.51779 -1.11996,0.79784 -1.84789,0.84016 -0.73704,0.0429 -1.38586,-0.1636 -1.94648,-0.61947 -0.56062,-0.45583 -0.86103,-1.02952 -0.90125,-1.72108 -0.0402,-0.69152 0.19153,-1.29845 0.69525,-1.82079 0.50372,-0.52229 1.1241,-0.80488 1.86114,-0.84777 0.73703,-0.0429 1.38372,0.16605 1.94006,0.62669 0.55632,0.46068 0.8546,1.03678 0.89482,1.7283 z m -11.6193,1.8745 c 1.20002,0.75108 2.17736,1.7641 2.93201,3.03907 0.75461,1.27499 1.15047,2.84654 1.18759,4.71465 0.0326,1.64031 -0.26487,3.07521 -0.89226,4.3047 -0.62742,1.2295 -1.47109,2.24221 -2.531,3.03815 -1.07817,0.7963 -2.30834,1.39734 -3.69051,1.80312 -1.3822,0.40578 -2.83422,0.62377 -4.35604,0.65399 l -9.77346,0.19408 -0.0212,-1.0662 c 0.29143,-0.0149 0.6554,-0.0495 1.09191,-0.10373 0.43651,-0.0542 0.72703,-0.11471 0.87157,-0.1814 0.32534,-0.1432 0.5495,-0.33226 0.67247,-0.56717 0.12296,-0.23491 0.18118,-0.51639 0.17467,-0.84446 l -0.27306,-13.75119 c -0.006,-0.30982 -0.071,-0.58886 -0.1944,-0.83713 -0.12344,-0.24823 -0.35984,-0.44637 -0.7092,-0.59443 -0.34937,-0.14803 -0.71824,-0.24554 -1.10662,-0.29254 -0.38838,-0.047 -0.68754,-0.0775 -0.8975,-0.0916 l -0.0212,-1.06619 10.32023,-0.20494 c 1.10264,-0.0219 2.28555,0.0959 3.54873,0.35344 1.26316,0.25755 2.48557,0.75747 3.66722,1.49976 z m -2.51246,13.95693 c 0.43203,-0.73789 0.74058,-1.61235 0.92564,-2.62339 0.18502,-1.01103 0.26451,-2.17266 0.23847,-3.48491 -0.0255,-1.28489 -0.18547,-2.45317 -0.47983,-3.50484 -0.29439,-1.05164 -0.71327,-1.94584 -1.25663,-2.68261 -0.5434,-0.73674 -1.21329,-1.30232 -2.00967,-1.69676 -0.79642,-0.39441 -1.69582,-0.58167 -2.69821,-0.56178 -0.31896,0.006 -0.68106,0.0204 -1.0863,0.0421 -0.40525,0.0217 -0.70803,0.0391 -0.90832,0.0522 l 0.29234,14.7217 c 0.007,0.32807 0.0555,0.61654 0.14709,0.86542 0.0915,0.24888 0.24401,0.46693 0.45742,0.65413 0.21338,0.18721 0.47376,0.33018 0.78113,0.42891 0.30735,0.0987 0.70707,0.14322 1.19917,0.13345 1.02973,-0.0204 1.90987,-0.22937 2.64042,-0.62677 0.73052,-0.39739 1.31628,-0.96968 1.75728,-1.71686 z m -24.43212,-3.95909 c -0.0247,0.71963 -0.31247,1.33449 -0.86345,1.84457 -0.55099,0.51009 -1.19085,0.75266 -1.91958,0.7277 -0.73786,-0.0253 -1.36426,-0.30892 -1.87921,-0.85095 -0.51495,-0.54203 -0.75995,-1.17741 -0.73499,-1.90616 0.025,-0.72873 0.313,-1.35042 0.86415,-1.86507 0.55113,-0.51463 1.19563,-0.75932 1.93348,-0.73406 0.72873,0.025 1.35035,0.31529 1.86484,0.87098 0.51447,0.5557 0.75939,1.19336 0.73476,1.91299 z m -22.06508,6.75852 c -0.88143,-0.0689 -1.73229,-0.26569 -2.55257,-0.59037 -0.82029,-0.32469 -1.45079,-0.65053 -1.89148,-0.97754 l -0.48137,0.8949 -1.06316,-0.0831 0.22024,-5.09795 0.99501,0.0778 c 0.10434,0.41957 0.29546,0.89848 0.57337,1.43675 0.2779,0.53827 0.60532,1.02784 0.98227,1.46871 0.39511,0.4423 0.85654,0.82578 1.38428,1.15045 0.52773,0.32467 1.10509,0.51151 1.73209,0.56052 0.8269,0.0646 1.45514,-0.0485 1.88473,-0.3395 0.42957,-0.29097 0.67065,-0.77267 0.72322,-1.4451 0.0284,-0.36347 -0.039,-0.67044 -0.20228,-0.92091 -0.16328,-0.25046 -0.39718,-0.47445 -0.70172,-0.67197 -0.34019,-0.20943 -0.71657,-0.39428 -1.12916,-0.55453 -0.4126,-0.16024 -0.92075,-0.35538 -1.52444,-0.58543 -0.60371,-0.23003 -1.11863,-0.45542 -1.54478,-0.67616 -0.42615,-0.22072 -0.85986,-0.54947 -1.30112,-0.98623 -0.38121,-0.38635 -0.67495,-0.839 -0.88122,-1.35797 -0.20628,-0.51894 -0.28243,-1.12372 -0.22844,-1.81433 0.10016,-1.28124 0.71953,-2.27505 1.85813,-2.98145 1.13858,-0.70637 2.58022,-0.99136 4.3249,-0.85499 0.8269,0.0647 1.58135,0.20819 2.26336,0.43063 0.682,0.22246 1.25144,0.45211 1.70834,0.68894 l 0.3491,-0.78181 1.03591,0.081 -0.14526,4.66498 -0.96775,-0.0756 c -0.24417,-0.96989 -0.72563,-1.82805 -1.44437,-2.5745 -0.71877,-0.74643 -1.5234,-1.15445 -2.4139,-1.22408 -0.6997,-0.0547 -1.26082,0.0477 -1.68336,0.30725 -0.42256,0.25953 -0.65408,0.64827 -0.69457,1.16621 -0.054,0.69061 0.2,1.2133 0.76195,1.56806 0.56195,0.35478 1.3593,0.70966 2.39208,1.06466 1.59386,0.54515 2.73966,1.20841 3.43741,1.98977 0.69773,0.78136 1.00291,1.73089 0.91555,2.84857 -0.11651,1.49024 -0.79055,2.59863 -2.02213,3.32517 -1.2316,0.72654 -2.78789,1.01629 -4.66886,0.86925 z m -7.37762,-1.29974 -6.5234,-0.36354 -0.18147,-0.21393 0.208,-1.7789 -0.0815,-0.01 c -0.34062,0.24465 -0.67365,0.4833 -0.99909,0.71596 -0.32545,0.23266 -0.70457,0.43381 -1.13734,0.60345 -0.49029,0.19044 -0.94826,0.32043 -1.37392,0.38996 -0.42568,0.0695 -1.03231,0.0582 -1.81991,-0.0339 -1.36699,-0.15983 -2.3667,-0.69426 -2.99914,-1.60328 -0.63244,-0.90902 -0.8608,-2.11492 -0.68509,-3.61771 l 0.71448,-6.11071 c 0.0413,-0.35306 0.007,-0.64843 -0.10287,-0.88611 -0.10986,-0.23766 -0.2679,-0.45573 -0.4741,-0.65421 -0.16519,-0.15695 -0.38919,-0.28179 -0.672,-0.37452 -0.28281,-0.0927 -0.54085,-0.16188 -0.7741,-0.20751 l 0.1159,-0.9913 6.62728,0.41699 0.12555,0.22115 -1.05584,9.03029 c -0.10903,0.93245 -0.0107,1.64137 0.29505,2.12677 0.30572,0.48541 0.7709,0.76463 1.39556,0.83766 0.64275,0.0752 1.23945,-0.0248 1.79012,-0.3 0.55064,-0.27515 0.96588,-0.58908 1.24573,-0.94178 l 0.85579,-7.31928 c 0.036,-0.30779 0.009,-0.59078 -0.0797,-0.84898 -0.0891,-0.25818 -0.23784,-0.47746 -0.44616,-0.65783 -0.15026,-0.12767 -0.37491,-0.22735 -0.67393,-0.29904 -0.29905,-0.0717 -0.60594,-0.13507 -0.92066,-0.19023 l 0.1159,-0.9913 6.62728,0.41699 0.17987,0.22751 -1.22573,10.48327 c -0.0371,0.31685 -0.005,0.59359 0.0956,0.8302 0.10079,0.23662 0.26441,0.44616 0.49086,0.62864 0.15929,0.12875 0.37462,0.22963 0.64598,0.30266 0.27134,0.073 0.54228,0.12993 0.81282,0.17074 z m -19.0379,-1.83334 -8.02963,-1.38635 0.1698,-0.9835 c 0.20223,0.007 0.41269,0.0204 0.63137,0.0396 0.21864,0.0192 0.40603,0.005 0.56216,-0.0417 0.21308,-0.0557 0.3648,-0.18444 0.45516,-0.3862 0.0903,-0.20177 0.16416,-0.46881 0.22156,-0.80113 l 1.08629,-6.29168 c 0.1597,-0.92511 0.11558,-1.64725 -0.13236,-2.16641 -0.248,-0.51915 -0.67736,-0.83146 -1.28809,-0.93692 -0.38623,-0.0667 -0.74025,-0.0654 -1.06205,0.004 -0.32184,0.0693 -0.62401,0.17207 -0.90649,0.30827 -0.29305,0.14365 -0.52771,0.29738 -0.70396,0.46117 -0.17629,0.16381 -0.32546,0.30455 -0.4475,0.42221 l -1.24911,7.23476 c -0.0559,0.32334 -0.063,0.59264 -0.0216,0.80791 0.0414,0.21527 0.15538,0.39912 0.34181,0.55155 0.12974,0.10564 0.28125,0.2058 0.45453,0.30046 0.17326,0.0947 0.36085,0.1733 0.5628,0.23591 l -0.16981,0.9835 -7.69282,-1.32821 0.16981,-0.98349 c 0.17374,0.0115 0.38419,0.0247 0.63136,0.0396 0.24715,0.0149 0.43454,0.001 0.56217,-0.0417 0.20566,-0.0662 0.35397,-0.18862 0.44493,-0.36716 0.0909,-0.17853 0.16819,-0.45193 0.23179,-0.82018 l 1.08629,-6.29167 c 0.15971,-0.92511 0.11559,-1.64725 -0.13237,-2.16641 -0.24798,-0.51915 -0.67734,-0.83146 -1.28809,-0.93692 -0.38622,-0.0667 -0.74024,-0.0654 -1.06205,0.004 -0.32183,0.0693 -0.62399,0.17208 -0.90648,0.30828 -0.29305,0.14365 -0.5277,0.29738 -0.70396,0.46117 -0.17629,0.16381 -0.32545,0.30455 -0.4475,0.42221 l -1.24912,7.23475 c -0.0543,0.31436 -0.0588,0.58181 -0.0137,0.80235 0.0452,0.22053 0.16095,0.40701 0.34738,0.55944 0.12974,0.10565 0.28125,0.2058 0.45453,0.30047 0.17326,0.0947 0.36086,0.1733 0.5628,0.23591 l -0.16981,0.98349 -8.07005,-1.39333 0.1698,-0.9835 c 0.23663,0.0224 0.46954,0.0394 0.69873,0.0513 0.2292,0.0118 0.43006,2.6e-4 0.60258,-0.0347 0.30602,-0.0582 0.53037,-0.17898 0.67305,-0.36246 0.14266,-0.18347 0.24269,-0.44137 0.30007,-0.7737 l 1.35379,-7.84102 c 0.0496,-0.2874 0.0217,-0.58126 -0.0837,-0.88158 -0.1054,-0.30029 -0.25269,-0.5454 -0.44189,-0.73531 -0.14306,-0.13568 -0.33189,-0.26078 -0.56647,-0.37529 -0.2346,-0.11449 -0.49776,-0.2108 -0.78951,-0.28893 l 0.16981,-0.98349 6.48688,0.75926 0.1672,0.23698 -0.32798,1.89963 0.0539,0.009 c 0.29024,-0.18111 0.63502,-0.39675 1.03433,-0.64693 0.39928,-0.25015 0.7679,-0.44318 1.10585,-0.57908 0.36953,-0.15817 0.82718,-0.26415 1.37294,-0.31792 0.54574,-0.0538 1.12848,-0.0271 1.74823,0.0798 1.0239,0.1768 1.84102,0.5468 2.45138,1.11001 0.61032,0.56324 0.99561,1.23791 1.15589,2.02403 l 0.12125,0.0209 c 0.30232,-0.19753 0.6704,-0.42764 1.10426,-0.69035 0.43381,-0.26269 0.82496,-0.46571 1.17346,-0.60904 0.38903,-0.16405 0.86844,-0.27552 1.43821,-0.3344 0.56974,-0.0589 1.16448,-0.0348 1.78424,0.0722 1.35621,0.23417 2.33133,0.81413 2.92534,1.73988 0.59397,0.92576 0.76381,2.12513 0.50951,3.59813 l -1.13048,6.54765 c -0.0574,0.33232 -0.0541,0.60806 0.01,0.82721 0.0639,0.21914 0.21677,0.40509 0.45865,0.55784 0.13283,0.0877 0.29936,0.18118 0.4996,0.2805 0.20019,0.0993 0.43719,0.18648 0.711,0.2615 z m -27.71632,-5.24499 c -0.42942,0.0802 -0.92692,0.131 -1.49249,0.15232 -0.56559,0.0213 -1.14617,-0.0355 -1.74172,-0.17054 -1.09336,-0.24786 -1.86105,-0.59245 -2.30305,-1.03378 -0.44202,-0.44132 -0.68785,-0.98537 -0.73748,-1.63214 l -0.08,-0.0181 c -0.37075,0.23372 -0.72031,0.4255 -1.04866,0.57536 -0.32838,0.14986 -0.66969,0.26408 -1.02395,0.34265 -0.46212,0.10085 -0.8971,0.15411 -1.30492,0.15979 -0.40784,0.006 -0.95843,-0.0701 -1.65177,-0.22725 -1.03113,-0.23375 -1.84212,-0.7377 -2.43299,-1.51183 -0.59087,-0.77414 -0.77245,-1.66344 -0.54474,-2.6679 0.13098,-0.57779 0.32232,-1.05077 0.57401,-1.41895 0.25169,-0.36818 0.55947,-0.67458 0.92334,-0.9192 0.33115,-0.22399 0.69344,-0.38952 1.08688,-0.4966 0.39343,-0.10707 0.81717,-0.19325 1.27123,-0.25855 0.86651,-0.11197 1.89554,-0.19879 3.0871,-0.26046 1.19155,-0.0617 2.07332,-0.15848 2.64532,-0.29051 l 0.29017,-1.28002 c 0.0504,-0.22222 0.0991,-0.51959 0.14616,-0.8921 0.0471,-0.37251 0.041,-0.69631 -0.0181,-0.9714 -0.06,-0.31266 -0.20113,-0.59699 -0.42346,-0.85301 -0.22235,-0.256 -0.5513,-0.43338 -0.98685,-0.53213 -0.39113,-0.0887 -0.73039,-0.10715 -1.0178,-0.0555 -0.28742,0.0517 -0.52423,0.11716 -0.71042,0.19643 -0.0136,0.18384 4.5e-4,0.47208 0.0423,0.86473 0.0418,0.39268 0.0244,0.7579 -0.0521,1.09567 -0.0343,0.15112 -0.11709,0.33095 -0.24847,0.53947 -0.13139,0.20855 -0.28775,0.36235 -0.46909,0.46142 -0.24475,0.13145 -0.50488,0.21734 -0.78038,0.25768 -0.27551,0.0403 -0.67549,10e-4 -1.19993,-0.11782 -0.74669,-0.16926 -1.27033,-0.47722 -1.57095,-0.92388 -0.30062,-0.44665 -0.38543,-0.95887 -0.25445,-1.53667 0.11284,-0.49777 0.41188,-0.89961 0.89712,-1.20551 0.48523,-0.30588 1.04151,-0.52323 1.66886,-0.65206 0.62045,-0.13971 1.31176,-0.20028 2.07392,-0.18172 0.76214,0.0186 1.45433,0.0984 2.07657,0.23944 0.86223,0.19547 1.64176,0.42593 2.33861,0.69137 0.69683,0.26545 1.29787,0.62367 1.80313,1.07465 0.48057,0.43606 0.81609,0.98642 1.00655,1.65108 0.19043,0.66468 0.17785,1.47258 -0.0378,2.4237 -0.22773,1.00447 -0.51775,2.19107 -0.87008,3.55979 -0.35235,1.36874 -0.57789,2.27089 -0.67662,2.70645 -0.0907,0.4 -0.10223,0.72917 -0.0346,0.98749 0.0676,0.25831 0.21275,0.47346 0.43546,0.64545 0.13498,0.10536 0.36319,0.20149 0.68463,0.28838 0.32141,0.0869 0.61546,0.16055 0.88215,0.221 z m -5.05198,-8.44904 c -0.53608,0.0561 -1.07325,0.13755 -1.61151,0.24449 -0.53827,0.10696 -0.99017,0.24517 -1.35568,0.41464 -0.38533,0.17434 -0.71515,0.43369 -0.98947,0.77804 -0.27433,0.34436 -0.47094,0.77876 -0.58983,1.30321 -0.15718,0.69335 -0.11325,1.23135 0.13178,1.614 0.24503,0.38265 0.59866,0.62637 1.0609,0.73116 0.48889,0.11083 0.91378,0.10201 1.27469,-0.0265 0.3609,-0.12847 0.6946,-0.31216 1.00111,-0.5511 z m -11.04236,4.39871 c -0.62885,0.0998 -1.29106,0.16503 -1.98663,0.19564 -0.69559,0.0306 -1.50642,-0.0748 -2.4325,-0.31618 -1.3759,-0.35866 -2.30943,-0.95994 -2.8006,-1.80383 -0.49117,-0.84389 -0.57467,-1.88763 -0.25049,-3.13123 l 2.11746,-8.12309 -2.38136,-0.62075 0.37245,-1.42882 2.43428,0.63455 1.04494,-4.00862 4.29968,1.12081 -1.04494,4.00862 3.70434,0.96562 -0.37245,1.42881 -3.67788,-0.95872 -1.88985,7.24992 c -0.26901,1.03193 -0.31651,1.80133 -0.14251,2.30823 0.17398,0.50689 0.63141,0.8569 1.37229,1.05002 0.23812,0.0621 0.57347,0.13065 1.00602,0.20573 0.43254,0.0751 0.73835,0.11241 0.91744,0.11199 z m -19.63634,-4.18796 c -1.13584,-0.33744 -2.15369,-0.79196 -3.05355,-1.36355 -0.89988,-0.57161 -1.63346,-1.15085 -2.20075,-1.73775 l -1.17684,0.64875 -1.11399,-0.33094 1.82698,-6.77387 1.1271,0.33484 c 0.0639,0.71309 0.1873,1.48189 0.37023,2.3064 0.18292,0.82452 0.44907,1.59294 0.79844,2.30526 0.35906,0.74372 0.81391,1.39705 1.36455,1.95998 0.55063,0.56294 1.26718,0.97548 2.14964,1.23764 1.18825,0.35301 2.1854,0.3331 2.99147,-0.0597 0.80604,-0.39284 1.34015,-1.03048 1.60232,-1.91294 0.21543,-0.72518 0.12781,-1.41442 -0.26286,-2.0677 -0.3907,-0.65328 -1.09637,-1.32645 -2.11703,-2.01952 -0.66386,-0.45393 -1.27391,-0.87288 -1.83017,-1.25683 -0.55628,-0.38394 -1.07412,-0.76123 -1.55352,-1.13185 -1.10147,-0.86919 -1.81825,-1.85706 -2.15034,-2.96361 -0.3321,-1.10652 -0.32813,-2.23208 0.0119,-3.37666 0.21543,-0.72517 0.57971,-1.37524 1.09282,-1.9502 0.5131,-0.57494 1.15025,-1.03935 1.91146,-1.39323 0.72459,-0.32669 1.58358,-0.51364 2.57696,-0.56084 0.99336,-0.0472 2.01865,0.0863 3.07586,0.40033 1.03097,0.3063 1.95425,0.7351 2.76983,1.28639 0.81556,0.55133 1.43826,1.04772 1.86812,1.48917 l 1.03306,-0.54884 1.1402,0.33873 -1.7796,6.37434 -1.12709,-0.33484 c -0.0597,-0.75936 -0.16066,-1.54765 -0.30295,-2.36486 -0.14233,-0.81719 -0.33999,-1.5201 -0.59298,-2.10872 -0.27759,-0.63393 -0.65119,-1.18468 -1.1208,-1.65225 -0.46965,-0.46754 -1.08016,-0.81293 -1.83154,-1.03617 -0.94363,-0.28031 -1.79385,-0.24289 -2.55067,0.11226 -0.75684,0.35518 -1.25206,0.92593 -1.48566,1.71226 -0.22064,0.74268 -0.14111,1.42713 0.2386,2.05337 0.37969,0.62626 1.06676,1.28202 2.06124,1.96728 0.58165,0.41052 1.17641,0.82492 1.7843,1.24321 0.60785,0.4183 1.14405,0.80579 1.6086,1.16248 1.12152,0.86566 1.88427,1.82677 2.28828,2.88335 0.40396,1.05659 0.41648,2.22269 0.0375,3.49832 -0.23882,0.80382 -0.65768,1.52562 -1.25659,2.1654 -0.59894,0.63979 -1.29128,1.11395 -2.07703,1.42248 -0.86252,0.34279 -1.79659,0.52645 -2.80224,0.55097 -1.00566,0.0245 -2.12009,-0.14492 -3.34329,-0.5083 z m -15.72754,-5.5235 -8.15319,-2.86112 0.33048,-0.94174 c 0.22965,0.0613 0.4565,0.11672 0.68057,0.16637 0.22406,0.0496 0.42406,0.0715 0.59999,0.0657 0.31143,-0.007 0.557,-0.0871 0.73672,-0.24135 0.1797,-0.15427 0.32539,-0.39052 0.43707,-0.70873 l 2.63476,-7.50816 c 0.10563,-0.301 0.12963,-0.58961 0.072,-0.86582 -0.0576,-0.27619 -0.16551,-0.51931 -0.32363,-0.72936 -0.11859,-0.15752 -0.31825,-0.33866 -0.59896,-0.54344 -0.28072,-0.20475 -0.54555,-0.3653 -0.79451,-0.48166 l 0.33048,-0.94174 6.439,1.88286 0.1256,0.26141 -3.5945,10.24308 c -0.10564,0.30102 -0.13093,0.57952 -0.0759,0.8355 0.0551,0.25598 0.18489,0.47782 0.38949,0.66553 0.14484,0.13777 0.3099,0.27297 0.49519,0.4056 0.18528,0.13264 0.3852,0.25109 0.59976,0.35537 z m 4.29146,-18.25738 c -0.22939,0.65364 -0.67637,1.12224 -1.34095,1.40579 -0.6646,0.28358 -1.34091,0.30464 -2.02893,0.0632 -0.69664,-0.24445 -1.21579,-0.68502 -1.55744,-1.32171 -0.34166,-0.63666 -0.3978,-1.28181 -0.16842,-1.93546 0.22936,-0.65361 0.6771,-1.12436 1.3432,-1.41225 0.66609,-0.28784 1.34746,-0.30954 2.0441,-0.0651 0.69662,0.24448 1.21286,0.68645 1.54872,1.3259 0.33584,0.63948 0.38908,1.28603 0.15972,1.93965 z m -13.62827,14.96967 -8.08581,-3.04634 0.35188,-0.93396 c 0.22818,0.0665 0.45372,0.12711 0.67659,0.18186 0.22287,0.0547 0.42232,0.0812 0.59834,0.0793 0.3115,4.8e-4 0.55884,-0.0743 0.74203,-0.22448 0.18318,-0.15014 0.33422,-0.383 0.45312,-0.69858 l 2.80534,-7.4461 c 0.11246,-0.29852 0.14304,-0.58651 0.0917,-0.86396 -0.0513,-0.27743 -0.15362,-0.52295 -0.3069,-0.73655 -0.11497,-0.16018 -0.31044,-0.34584 -0.58641,-0.55696 -0.27598,-0.2111 -0.53708,-0.37765 -0.78332,-0.49966 l 0.35188,-0.93396 6.39437,2.02924 0.11961,0.26421 -3.82721,10.15843 c -0.11248,0.29853 -0.14411,0.57637 -0.0949,0.83354 0.0492,0.25717 0.17394,0.48192 0.37421,0.67425 0.14165,0.14103 0.30359,0.27996 0.48581,0.41679 0.1822,0.13683 0.37937,0.25981 0.5915,0.36895 z m 4.70678,-18.15474 c -0.24424,0.64824 -0.70179,1.10652 -1.37266,1.37484 -0.6709,0.26834 -1.34751,0.27397 -2.02985,0.0169 -0.69088,-0.26027 -1.19984,-0.71257 -1.52688,-1.35689 -0.32706,-0.64429 -0.36847,-1.29055 -0.12424,-1.9388 0.24421,-0.64821 0.70257,-1.10862 1.37507,-1.38124 0.67248,-0.27258 1.35416,-0.27873 2.04505,-0.0185 0.69086,0.26031 1.19689,0.71393 1.51808,1.36088 0.32116,0.64698 0.35964,1.29457 0.11543,1.94279 z m -19.5212,12.88724 c -1.17235,-0.48032 -2.13767,-1.07527 -2.89596,-1.78486 -0.75829,-0.7096 -1.30748,-1.47881 -1.64755,-2.30763 -0.33662,-0.83725 -0.48072,-1.72368 -0.43229,-2.65928 0.0484,-0.9356 0.26959,-1.88414 0.66352,-2.84564 0.35937,-0.87715 0.87647,-1.64043 1.55131,-2.28985 0.67483,-0.6494 1.43432,-1.15085 2.2785,-1.50434 0.86793,-0.36343 1.83462,-0.54114 2.90005,-0.53311 1.06541,0.008 2.15055,0.23839 3.25544,0.69105 1.55187,0.63582 2.65897,1.43168 3.32128,2.38759 0.66228,0.95591 0.78956,1.93149 0.38183,2.92671 -0.24881,0.60727 -0.60948,1.03079 -1.082,1.27058 -0.47256,0.2398 -1.10102,0.19902 -1.88538,-0.12234 -0.63258,-0.25916 -1.09962,-0.62781 -1.40114,-1.10595 -0.30154,-0.47812 -0.35209,-0.96178 -0.15166,-1.45097 0.16931,-0.41327 0.40437,-0.79468 0.70519,-1.14424 0.3008,-0.34954 0.50705,-0.62456 0.61875,-0.82506 -0.0306,-0.18981 -0.10115,-0.35416 -0.21169,-0.49304 -0.11057,-0.13886 -0.31766,-0.27049 -0.62128,-0.3949 -0.37955,-0.15548 -0.76163,-0.2086 -1.14625,-0.15934 -0.38464,0.0493 -0.80347,0.24212 -1.25649,0.57854 -0.43425,0.3146 -0.87451,0.79417 -1.3208,1.4387 -0.4463,0.64455 -0.87332,1.46444 -1.28106,2.45967 -0.61508,1.50128 -0.75882,2.85585 -0.43121,4.06371 0.3276,1.20785 0.98058,2.0122 1.95896,2.41304 0.93618,0.38355 1.76602,0.47976 2.48951,0.2886 0.72347,-0.19116 1.45751,-0.58237 2.20212,-1.17365 l 0.67931,1.04661 c -0.47226,0.40736 -0.97696,0.74971 -1.51412,1.02705 -0.53718,0.27734 -1.12618,0.47681 -1.76698,0.59842 -0.67304,0.1281 -1.31994,0.1684 -1.94072,0.12092 -0.6208,-0.0475 -1.29386,-0.21983 -2.01919,-0.51699 z m -5.66212,-15.79184 c 0.35388,0.85159 0.51166,1.74922 0.47335,2.69288 -0.0384,0.94368 -0.26867,1.88021 -0.69094,2.8096 -0.41854,0.92109 -0.97324,1.71774 -1.66409,2.38995 -0.69088,0.6722 -1.47531,1.15923 -2.35329,1.46109 -0.93835,0.32449 -1.93725,0.44627 -2.99671,0.36534 -1.05947,-0.0809 -2.17422,-0.38723 -3.34425,-0.91886 -1.01239,-0.46 -1.87787,-1.02845 -2.59646,-1.70535 -0.7186,-0.67691 -1.2737,-1.45473 -1.66532,-2.33347 -0.37805,-0.84253 -0.56393,-1.75543 -0.55766,-2.7387 0.006,-0.98326 0.23941,-1.98108 0.6994,-2.99346 0.45245,-0.99577 1.01469,-1.80902 1.68671,-2.43974 0.67201,-0.6307 1.46512,-1.10378 2.37933,-1.41923 0.87798,-0.30185 1.83973,-0.40797 2.88526,-0.31836 1.0455,0.0896 2.12423,0.38705 3.23619,0.89228 1.16173,0.52787 2.11189,1.15232 2.8505,1.87334 0.73857,0.72104 1.29123,1.51527 1.65798,2.38269 z m -7.10588,7.17807 c 0.39369,-0.38174 0.78493,-0.88475 1.17371,-1.50901 0.38875,-0.62426 0.78297,-1.37619 1.18265,-2.2558 0.26392,-0.58087 0.52406,-1.26357 0.78044,-2.04811 0.25634,-0.78454 0.39957,-1.43026 0.42969,-1.93718 0.0384,-0.61327 -0.0509,-1.14939 -0.26783,-1.60838 -0.21695,-0.45897 -0.59511,-0.81099 -1.13447,-1.05608 -0.58919,-0.2677 -1.13363,-0.31985 -1.63334,-0.15648 -0.49973,0.16339 -0.9619,0.45897 -1.38651,0.88672 -0.38919,0.39383 -0.76119,0.89305 -1.11601,1.49769 -0.35483,0.60465 -0.68872,1.25135 -1.00165,1.94009 -0.41099,0.9045 -0.72223,1.66661 -0.93372,2.28631 -0.21151,0.61972 -0.34097,1.27921 -0.38839,1.97847 -0.0429,0.60121 0.0462,1.13224 0.26726,1.59311 0.22108,0.46086 0.60546,0.81571 1.15314,1.06457 0.49789,0.22622 0.98839,0.28141 1.47153,0.16555 0.48312,-0.11586 0.95096,-0.39635 1.4035,-0.84147 z m -19.60829,-6.03007 c -1.05757,-0.53435 -1.97819,-1.1629 -2.76186,-1.88564 -0.78367,-0.72274 -1.40235,-1.42339 -1.85603,-2.10194 l -1.27357,0.42876 -1.03723,-0.52407 3.00429,-6.34014 1.04944,0.53024 c -0.0641,0.71307 -0.0796,1.49156 -0.0465,2.33547 0.0331,0.84391 0.15816,1.64745 0.37507,2.41061 0.22084,0.79579 0.55205,1.51968 0.99362,2.17169 0.44157,0.65201 1.07317,1.18559 1.89483,1.60074 1.10637,0.55901 2.09112,0.71702 2.95427,0.47404 0.86313,-0.24299 1.50227,-0.77531 1.91743,-1.59695 0.34115,-0.67522 0.37769,-1.36904 0.10963,-2.08146 -0.26809,-0.71242 -0.84258,-1.50052 -1.72347,-2.3643 -0.57239,-0.56492 -1.09806,-1.08583 -1.57704,-1.56272 -0.479,-0.47688 -0.92136,-0.94037 -1.32708,-1.39046 -0.92904,-1.05148 -1.4584,-2.15122 -1.58809,-3.29923 -0.1297,-1.14798 0.0747,-2.25483 0.61315,-3.32054 0.34116,-0.67521 0.81539,-1.25 1.42271,-1.72438 0.6073,-0.47435 1.31698,-0.81784 2.12905,-1.03048 0.77119,-0.19241 1.64974,-0.22336 2.63565,-0.0929 0.98588,0.13051 1.971,0.44444 2.95537,0.94178 0.95992,0.48504 1.79206,1.07143 2.49641,1.75918 0.70432,0.68777 1.22865,1.28714 1.573,1.7981 l 1.1143,-0.35606 1.06163,0.5364 -2.88651,5.95543 -1.04943,-0.53023 c 0.0765,-0.75785 0.11757,-1.55152 0.12311,-2.38101 0.005,-0.82947 -0.0638,-1.55635 -0.20789,-2.18062 -0.16024,-0.67324 -0.42977,-1.28172 -0.80859,-1.82546 -0.37886,-0.54371 -0.91809,-0.99232 -1.6177,-1.34583 -0.87861,-0.4439 -1.7219,-0.55852 -2.52987,-0.34385 -0.80801,0.21469 -1.39697,0.68811 -1.76689,1.42026 -0.34939,0.6915 -0.39304,1.37918 -0.13095,2.06303 0.26207,0.68387 0.82136,1.45153 1.67787,2.30297 0.49923,0.50755 1.01067,1.02126 1.53433,1.54114 0.52363,0.51988 0.98224,0.99668 1.37583,1.43041 0.94939,1.05157 1.52876,2.13318 1.73811,3.24482 0.20931,1.11165 0.0139,2.26133 -0.58617,3.44906 -0.37818,0.74843 -0.9189,1.38409 -1.62219,1.90696 -0.70332,0.52288 -1.46905,0.86614 -2.29719,1.02979 -0.90978,0.18367 -1.86163,0.19802 -2.85556,0.043 -0.99395,-0.155 -2.06038,-0.52022 -3.19929,-1.09567 z"
         class="text bottom" />
    </symbol>
  </defs>
  <g>
    <use
       id="use52"
       x="0"
       y="0"
       width="686"
       height="939"
       xlink:href="#Patch" />
  </g>
</svg>
