<?xml version="1.0" encoding="UTF-8" standalone="no"?>
<svg
   xmlns="http://www.w3.org/2000/svg"
   xmlns:xlink="http://www.w3.org/1999/xlink"
   version="1.1"
   width="100%"
   height="100%"
   viewBox="0 0 573.4121 849.28571">
  <defs>
    <style>
        .outer, .background{fill: #000;}
        .inner, .leaf, .text {fill: #dfcb4e!important;}
        .text {stroke: #222;}
    </style>
    <symbol
       viewBox="0 0 573.4121 849.28571"
       preserveAspectRatio="xMidYMid meet"
       id="Patch">
      <style>
        .leaf, .text {stroke-width: 2;}
      </style>
      <path
       d="m 1.6622582,137.44932 c 0.197762,-3.21254 0.613512,-4.74643 1.681933,-6.81426 1.068421,-2.06784 3.161499,-3.11489 4.637133,-3.28844 C 82.245927,118.61275 191.89009,100.85319 285.73959,0 l 1.94464,0 c 93.8495,100.85319 203.49366,118.61275 277.75827,127.34662 1.47563,0.17355 3.56871,1.2206 4.63713,3.28844 1.06842,2.06783 1.48417,3.60172 1.68193,6.81426 C 587.92527,400.02054 484.83045,739.20385 286.2753,849.28571 87.720147,739.20385 -14.501449,400.02054 1.6622582,137.44932 z"
       class="outer" />
      <path
         d="M 10.062244,136.88386 C 114.70825,125.27947 200.37228,100.79211 285.80421,12.0979 l 1.81462,0 C 394.96028,129.95481 539.81547,135.25254 563.27633,138.29693 578.52725,327.79348 509.14823,710.55149 286.3041,837.18781 81.738497,725.24214 -6.7266178,369.20254 10.062244,136.88386 z"
         class="inner" />
      <path
         d="M 29.821137,166.29825 C 124.28986,155.82244 208.76555,127.28802 285.88885,52.21971 l 1.63814,0 c 97.61632,101.3948 234.09798,111.17731 255.27717,113.92562 13.7677,171.06718 -58.14961,530.886 -256.46403,645.20638 C 108.81229,710.29325 14.665072,376.02292 29.821137,166.29825 z"
         class="background" />
      <use
         id="use39"
         x="75"
         y="106"
         width="425"
         height="556"
         xlink:href="symbols/9thLegion.svg#9thLegion" />
      <path
         d="m 183.9003,493.74859 0,9.90625 1.875,0 c 0.50456,-1.48109 1.32259,-3.05727 2.4375,-4.75 1.1149,-1.69268 2.14973,-2.61976 3.09375,-2.75 0.52083,-0.0651 1.14127,-0.10735 1.90625,-0.15625 0.76497,-0.0487 1.4466,-0.0937 2,-0.0937 l 1.125,0 0,27.4375 c -10e-6,0.60222 -0.10093,1.12306 -0.3125,1.5625 -0.2116,0.43946 -0.61525,0.77084 -1.25,1.03125 -0.30926,0.13021 -0.89552,0.25425 -1.75,0.34375 -0.8545,0.0895 -1.52801,0.1387 -2,0.1875 l 0,1.90625 19.3125,0 0,-1.90625 c -0.55341,-0.0651 -1.21064,-0.15788 -2,-0.3125 -0.78941,-0.15462 -1.37567,-0.32226 -1.75,-0.46875 -0.61851,-0.26042 -1.03844,-0.61491 -1.25,-1.0625 -0.21161,-0.44759 -0.31252,-0.9453 -0.3125,-1.53125 l 0,-27.1875 1.125,0 c 0.55337,0 1.23501,0.0449 2,0.0937 0.76495,0.0489 1.3854,0.0912 1.90625,0.15625 0.94399,0.13024 1.97882,1.05732 3.09375,2.75 1.11488,1.69273 1.93291,3.26891 2.4375,4.75 l 1.875,0 0,-9.90625 -33.5625,0 z m 35.53125,0 0,1.90625 c 0.3418,0.0326 0.92252,0.11039 1.6875,0.28125 0.76497,0.17093 1.37174,0.3822 1.84375,0.59375 0.63476,0.293 1.04654,0.64066 1.25,1.03125 0.20344,0.39066 0.31249,0.86787 0.3125,1.4375 l 0,24.5 c -10e-6,0.58594 -0.11589,1.09994 -0.34375,1.53125 -0.22787,0.43132 -0.63282,0.75716 -1.21875,0.96875 -0.35808,0.13021 -0.92936,0.223 -1.71875,0.3125 -0.78939,0.0895 -1.4056,0.13995 -1.8125,0.15625 l 0,1.90625 18.75,0 0,-1.90625 c -0.47203,-0.0326 -1.09507,-0.10351 -1.84375,-0.25 -0.74871,-0.14648 -1.28452,-0.30728 -1.59375,-0.4375 -0.56968,-0.24413 -0.95151,-0.56054 -1.1875,-1 -0.23602,-0.43944 -0.37502,-0.94661 -0.375,-1.5 l 0,-11.65625 14.8125,0 0,11.9375 c -3e-5,0.61849 -0.11591,1.10124 -0.34375,1.5 -0.22789,0.39877 -0.64782,0.72461 -1.25,0.96875 -0.293,0.13021 -0.84378,0.2474 -1.625,0.3125 -0.78128,0.0651 -1.37437,0.0924 -1.78125,0.125 l 0,1.90625 18.75,0 0,-1.90625 c -0.47205,-0.0326 -1.10323,-0.0885 -1.84375,-0.21875 -0.7406,-0.13021 -1.29691,-0.30598 -1.6875,-0.46875 -0.61853,-0.27669 -1.03845,-0.59309 -1.25,-1 -0.21162,-0.40689 -0.31254,-0.91406 -0.3125,-1.5 l 0,-24.53125 c -4e-5,-0.53708 0.10088,-1.04424 0.3125,-1.5 0.21155,-0.4557 0.63147,-0.78838 1.25,-1 0.52079,-0.16273 1.09892,-0.30043 1.75,-0.40625 0.651,-0.10576 1.26037,-0.1549 1.78125,-0.1875 l 0,-1.90625 -18.75,0 0,1.90625 c 0.42315,0.0489 1.01071,0.14163 1.71875,0.3125 0.70798,0.17093 1.26429,0.36722 1.6875,0.5625 0.63473,0.293 1.06963,0.64066 1.28125,1.03125 0.21156,0.39066 0.31247,0.86787 0.3125,1.4375 l 0,10.09375 -14.8125,0 0,-10.34375 c -2e-5,-0.5208 0.10904,-1.00485 0.3125,-1.46875 0.20344,-0.46383 0.61522,-0.81963 1.25,-1.03125 0.37433,-0.1139 0.92511,-0.24476 1.625,-0.375 0.69985,-0.13018 1.30792,-0.18615 1.8125,-0.21875 l 0,-1.90625 -18.75,0 z m -60.28125,0.34375 c -6.6732,5e-5 -12.2715,2.31516 -16.8125,6.9375 -4.54102,4.62244 -6.8125,10.29301 -6.8125,17.03125 0,6.28258 1.95247,11.4909 5.875,15.625 3.92252,4.13412 8.53774,6.21876 13.84375,6.21875 3.32028,10e-6 6.31572,-0.5358 8.96875,-1.59375 2.65296,-1.05793 5.29944,-2.72134 7.96875,-5 -1.13937,7.06381 -3.65499,12.87891 -7.59375,17.46875 -3.93883,4.58984 -9.40758,8.0052 -16.40625,10.21875 l -4.40625,0.78125 0.875,4.375 c 5.85936,-0.78126 11.1699,-2.38608 15.90625,-4.84375 4.73629,-2.45769 8.74345,-5.53907 12.03125,-9.25 3.35282,-3.77604 5.92834,-8.15951 7.71875,-13.15625 1.79032,-4.99674 2.68745,-10.33591 2.6875,-16 -5e-5,-8.85413 -2.15564,-15.85543 -6.46875,-21.03125 -4.31319,-5.17573 -10.11592,-7.7812 -17.375,-7.78125 z m -0.0937,3.875 c 4.06898,5e-5 7.35348,2.15565 9.84375,6.46875 2.49019,4.31319 3.71871,10.25784 3.71875,17.875 0,0.65106 0.001,1.31773 -0.0312,1.96875 -0.0326,0.65107 -0.0625,1.20054 -0.0625,1.65625 0,0.71617 -0.0137,1.26565 -0.0625,1.65625 -0.0488,0.39065 -0.0625,0.65107 -0.0625,0.78125 -1.82296,2.0508 -3.82166,3.54103 -5.9375,4.46875 -2.11592,0.92775 -4.42971,1.40626 -6.96875,1.40625 -4.06903,10e-6 -7.32489,-1.62238 -9.75,-4.8125 -2.42514,-3.19008 -3.62502,-7.41404 -3.625,-12.6875 -2e-5,-5.85934 1.18618,-10.44462 3.5625,-13.78125 2.37628,-3.33654 5.50128,-4.99995 9.375,-5 z"
         class="text" />
    </symbol>
  </defs>
  <g>
    <use
       x="0"
       y="0"
       width="573"
       height="849"
       xlink:href="#Patch" />
  </g>
</svg>
