<?xml version="1.0" encoding="UTF-8" standalone="no"?>
<!-- Pattern from patternhead - www.patternhead.com/terms-of-use -->
<svg
   xmlns="http://www.w3.org/2000/svg"
   version="1.1"
   width="200"
   height="200"
   viewBox="0 0 1347.0801 1347.0801">
  <defs>
    <style>
      .color1 {fill:#000;}
      .color2 {fill:#333;}
      .color3 {fill:#3b3c2e;}
      .color4 {fill:#222;}
      .color2, .color3, .color4 {opacity: 0.5;}
    </style>
  </defs>
  <g
     transform="translate(471.40452,-976.4808)">
    <path
       d="m -471.40452,976.4808 1347.08004,0.004 0,1347.0761 -1347.08004,0 0,-1347.08"
       class="color1" />
    <path
       d="m 494.10748,2176.2908 c -7.989,-5.17 -11.586,-12.07 -12.957,-19.91 17.804,-1.88 35.16,-3.51 50.985,-5.94 5.22,-0.8 10.44,-1.51 15.69,-2.18 -9.23,21.88 -31.414,42.49 -53.718,28.03"
       class="color2" />
    <path
       d="m 847.34548,2197.9608 c 9.22,1.45 18.82,4.09 28.33004,7.5 l 0,81.28 c -9.65004,-5.06 -18.83004,-12.19 -23.13004,-14.72 -34.85,-20.45 -61.52,-26.53 -97.09,-40.4 -38.71,-15.1 -53.31,-53.14 -84.15,-74.2 -10.43,-7.12 -21.66,-12.4 -33.37,-16.3 32.55,-1.55 65.32,-2.62 98.04,-5.05 -11.82,-6.75 -31.83,-10.32 -53.38,-14.05 -36.66,1.44 -113.64,-36.77 -124.25,-36.38 -12.11,0.43 -22.2,-0.26 -33.52,-1.78 -29.296,-3.95 -6.792,-11.59 -17.699,-34.33 -14.687,-30.64 -23.617,-41.82 -62.488,-41.68 -34.863,0.11 -60.508,18.37 -95.832,16.66 -31.043,-1.5 -59.566,-15.51 -87.617,-24.88 -17.473,-5.83 -34.496,-11.52 -51.395,-18.13 12.375,-25.165 18.813,-62.485 30.016,-85.973 2.629,0.84 5.348,1.652 8.051,2.473 11.285,3.406 23.199,6.582 35.507,9.472 -2.335,14.274 -13.222,28.688 -24.335,39.75 39.085,8.957 47.777,-12.453 58.078,-32.73 27.609,5.019 55.664,8.363 81.351,9.375 6.656,10.976 12.641,21.703 18.571,28.351 11.722,13.153 25.574,39.082 33.218,0.016 3.508,-17.918 -19.597,-33.383 -16.867,-54.399 1.152,-8.871 5.906,-16.589 12.664,-22.859 64.617,23.426 110.727,74.852 172.847,96.082 -0.26,1.125 -0.08,9.772 0.1,11.172 -14.4,1.93 -26.06,3.49 -40.47,5.4 5.04,14.65 14.66,16.09 25.37,27.62 3.8,4.09 16.82,5.21 20.13,9.17 3.23,3.86 4.21,11.73 5.43,17.8 0.66,3.32 1.39,6.11 2.59,7.39 13.73,14.6 62.73,28.68 67.78,44.71 2.98,9.47 2.63,16.09 -0.21,20.49 25.72,5.76 52.41,11.37 76.68,12.62 36.4,1.87 64.94,-16.62 99.38004,-17.36 l 0,29.42 c -0.92004,0.51 -1.85004,1 -2.80004,1.36 0.94,-0.08 1.86,-0.1 2.80004,-0.17 l 0,44.62 c -48.58004,-9.35 -112.20004,-17.79 -107.79004,0.36 5.35,22.04 63.57,9.8 79.46,12.3"
       class="color2" />
    <path
       d="m 827.95548,1748.8638 c 3.6,-3.524 5.89,-8.867 6.25,-16.863 -12.96,-1.122 -25.57,-2.446 -38,-3.817 -3.57,-1.933 -7.2,-3.68 -10.91,-5.215 -3.31,-17.097 -5.37,-33.465 13.5,-44.691 20.17,12.07 34.68,88.523 61.57,36.961 14.04,-26.922 -4.46,-43.918 -24.13,-57.11 13.82,-5.668 26.45,-13.898 39.44004,-20.578 l 0,96.922 c -7.25004,3.281 -14.42004,7.27 -23.74004,9.836 -12.67,3.488 -19.41,4.891 -23.98,4.555"
       class="color2" />
    <path
       d="m 805.67548,1793.8868 c -11.19,-0.539 -45.55,-3.019 -58.56,-12.871 14.49,0.703 29.74,-4.492 36.05,-13.812 1.68,-2.485 2.88,-5.059 3.75,-7.7 32.41,2.235 62.68,3.461 88.76004,3.106 l 0,11.16 c -2.54004,5.106 -5.69004,9.91 -9.41004,14.422 -24.15,3.219 -46.22,6.387 -60.59,5.695"
       class="color2" />
    <path
       d="m 443.81048,1763.6608 c 8.117,-13.707 12.055,-26.707 14.726,-39.883 18.606,1.918 40.961,4.566 65.778,7.582 -4.746,13.867 -7.133,27.687 -31.219,16.18 -2.25,8.894 -1.316,17.023 1.191,24.828 -15.128,-4.895 -31.714,0.636 -50.476,-8.707"
       class="color2" />
    <path
       d="m 561.25548,1821.7818 c -0.73,6.789 -1.57,12.406 -2.49,16.996 -20.07,-4.953 -12.82,-18.609 3.02,-27.781 0.01,3.601 -0.14,7.195 -0.53,10.785"
       class="color2" />
    <path
       d="m 642.25548,1488.5748 c -11.8,11.433 -17.09,21.058 -16.65,27.972 -0.66,-0.14 -1.27,-0.265 -1.8,-0.367 -18.76,-3.551 -31.21,-8.41 -43.82,-14.793 1.71,-0.679 3.4,-1.41 5.07,-2.191 25.59,-11.926 43.53,-35.539 65.32,-52.188 7.56,-5.781 13.29,-10.707 17.95,-15.289 23.84,4.215 48.2,6.188 72.48,8.739 -28.21,19.98 -77.82,28.027 -98.55,48.117"
       class="color2" />
    <path
       d="m 531.81548,1771.1258 c 1.93,-8.473 6.18,-16.836 13.57,-25.129 1.29,-1.45 2.74,-2.739 4.24,-3.953 1.69,8.156 3.69,16.308 5.58,24.453 -7.46,-0.047 -14.56,0.82 -20.66,3.332 -0.98,0.398 -1.84,0.855 -2.73,1.297"
       class="color2" />
    <path
       d="m 752.64548,1608.5858 c -1.26,-0.203 -2.53,-0.398 -3.83,-0.753 -5.18,-1.411 -60.36,-32.774 -61.68,-34.149 -42.48,-44.238 9.64,-18.637 28.45,-28.254 31.42,-16.07 13.08,-34.449 -10.54,-38.207 12.72,-7.922 25.38,-16.359 38.35,-21.652 39.59,-16.16 76.58,-22.402 112.93,-16.785 6.22,2.218 12.7,4.543 19.35004,6.937 l 0,68.86 c -51.75004,-4.332 -108.90004,18.183 -123.03004,64.003"
       class="color2" />
    <path
       d="m 269.22448,2305.9608 c -10.375,4.93 -15.609,11.11 -17.109,17.6 l -72.668,0 c 27.441,-14.88 52.468,-33.53 89.777,-17.6"
       class="color2" />
    <path
       d="m 42.048479,2218.9708 c 31.418,-16.07 13.074,-34.45 -10.539,-38.21 12.719,-7.92 25.375,-16.36 38.344,-21.65 39.594001,-16.17 76.586001,-22.4 112.937001,-16.79 20.356,7.27 43.586,15.69 65.993,23.82 0.085,0.05 0.167,0.09 0.253,0.14 68.348,39.24 99.567,42.18 178.938,34.49 19.25,-1.86 56.012,-9.7 80.226,-3.55 5.028,1.28 9.469,3.2 13.145,5.87 0.828,0.6 1.703,1.16 2.449,1.85 19.091,17.6 13.481,25.13 0.332,28.15 -13.152,3.03 -33.836,1.54 -44.968,1.07 -0.403,-0.02 -0.821,-0.04 -1.2,-0.05 -58.64,-2.22 -146.644,-0.79 -114.601,77.41 2.004,-3.45 4.355,-6.74 7.312,-9.73 16.656,-16.86 39.746,-18.65 61.481,-21.85 10.691,-1.57 24.355,-3.97 39.285,-6.07 17.898,-2.51 37.617,-4.59 56.297,-4.32 4.923,0.07 9.773,0.3 14.503,0.73 3.25,0.3 6.44,0.69 9.56,1.19 15.51,2.49 29.12,7.6 38.66,16.79 17.33,16.67 17.18,27.18 9.03,35.3 l -267.706,0 c -11.739,-14.56 -19.391,-43.41 -24.641,-51.97 -16.125,-26.29 -54.125,-42.84 -83.332,-50 -56.219,-13.78 -128.559001,8.18 -144.703001,60.53 -1.262,-0.2 -2.52,-0.39 -3.82,-0.75 -5.192,-1.41 -60.364,-32.77 -61.688,-34.15 -42.480001,-44.24 9.645,-18.63 28.453,-28.25"
       class="color2" />
    <path
       d="m -88.478522,2172.7308 c 25.586,-11.92 43.523,-35.54 65.308001,-52.18 7.563,-5.78 13.2970004,-10.71 17.9610004,-15.29 23.8319996,4.21 48.1919996,6.18 72.4809996,8.74 -28.215,19.98 -77.828,28.02 -98.559001,48.11 -11.797,11.44 -17.082,21.06 -16.648,27.98 -0.656,-0.15 -1.266,-0.27 -1.797,-0.37 -18.766,-3.55 -31.211,-8.41 -43.817,-14.79 1.708,-0.68 3.395,-1.41 5.071,-2.2"
       class="color2" />
    <path
       d="m 865.97548,1300.7388 c -11.5,-5.024 -22.99,-10.598 -34.57,-17.168 6.16,-33.781 -19.76,-48.246 -45.71,-59.715 -2.62,-5.23 -5.35,-10.508 -8.14,-15.996 11.81,-17.598 45.36,-18.262 74.08,-15.84 9.35,5.563 17.53,10.469 24.04004,14.234 l 0,24.141 c -0.75004,0.832 -1.46004,1.672 -2.28004,2.465 1.29,3.129 2.09004,14.223 2.28004,26.176 l 0,10.41 c -0.19,11.988 -1.05004,22.765 -2.72004,24.988 -2.02,2.711 -4.41,4.703 -6.98,6.305"
       class="color2" />
    <path
       d="m 719.84548,1193.3478 c -10.09,-5.648 -19.84,-11.996 -27.65,-18.851 -11.24,-9.875 -18.4,-20.813 -16.46,-32.278 5.96,-35.203 64.81,-11.59 119.56,17.649 -6.84,1.277 -13.91,3.246 -21.49,6.312 -20.83,8.43 -35.41,19.664 -53.96,27.168"
       class="color2" />
    <path
       d="m 352.90048,1884.4808 c 11.488,-0.328 21.043,6.484 29.375,16.105 -12.235,-4.554 -23.461,-9.617 -29.375,-16.105"
       class="color2" />
    <path
       d="m 199.41948,1967.9728 c -2.027,2.711 -4.418,4.703 -6.988,6.305 -11.492,-5.024 -22.981,-10.598 -34.563,-17.168 6.157,-33.781 -19.761,-48.246 -45.714,-59.719 -2.625,-5.226 -5.352,-10.504 -8.137,-15.992 11.812,-17.598 45.359,-18.262 74.082,-15.84 14.945,8.895 26.945,16.137 33.773,19.649 -1.656,7.933 -5.714,15.074 -12.019,21.191 2.98,7.191 3.355,56.516 -0.434,61.574"
       class="color2" />
    <path
       d="m 46.310479,1866.8868 c -10.09,-5.648 -19.848,-11.996 -27.656,-18.855 -11.2349996,-9.875 -18.39899959,-20.809 -16.4569996,-32.274 5.957,-35.203 64.8079996,-11.589 119.5620006,17.649 -6.84,1.273 -13.91,3.246 -21.492,6.312 -20.836001,8.43 -35.410001,19.664 -53.957001,27.168"
       class="color2" />
    <path
       d="m -179.43152,1502.7538 c -7.993,-5.175 -11.59,-12.074 -12.961,-19.914 17.808,-1.879 35.164,-3.511 50.992,-5.937 5.215,-0.801 10.441,-1.508 15.684,-2.18 -9.223,21.871 -31.415,42.481 -53.715,28.031"
       class="color2" />
    <path
       d="m -3.9005206,1026.9964 c -41.8240014,-10.8867 -81.2580014,-19.4062 -119.4529994,-20.3789 -5.785,-0.1484 -11.539,-0.1172 -17.274,0.1016 -0.144,9.4805 -0.484,18.668 2.875,26.875 -6.922,0.035 -10.281,3.8867 -16.148,4.8789 l -29.164,-25 c 0.074,-0.4414 0.082,-0.8867 0.137,-1.332 -9.047,2.0586 -18.055,4.7539 -27.039,8.1093 1.085,-6.4336 2.347,-13.0312 4.089,-19.9062 -17.578,-10.6797 -39.957,-13 -55.687,-23.8633 l 153.555,0 c 0.066,0.75 0.152,1.4375 0.234,2.14063 -3.238,4.29296 -6.125,8.66797 -8.637,13.05857 3.817,-0.1484 7.672,-0.25 11.547,-0.3086 4.649,10.9063 13.155998,7.7149 22.183998,0.0547 29.863,0.4922 58.031,2.207 73.2500014,-0.1484 1.953,-0.3008 3.98,-0.7617 6.074,-1.3555 0.09,0.7734 0.168,1.5547 0.305,2.3047 22.8749996,-6.35157 68.7069996,-18.6836 82.6909996,12.7109 6.477,14.5586 2.551,25.2305 -4.805,34.3086 -26.281,-4.6133 -53.679,-5.7265 -78.7339996,-12.25"
       class="color2" />
    <path
       d="m 113.38048,1085.9648 c 34.242,2.36 66.121,3.606 93.164,3.039 -2.761,9.442 -7.476,17.965 -13.816,25.649 -24.156,3.219 -46.227,6.387 -60.59,5.695 -11.191,-0.539 -45.547001,-3.019 -58.563001,-12.871 14.497,0.703 29.739001,-4.496 36.051001,-13.812 1.68,-2.485 2.887,-5.059 3.754,-7.7"
       class="color2" />
    <path
       d="m 614.72548,1091.2428 c -2.24,1.367 -4.7,2.765 -7.49,4.199 -24.63,12.691 -64.69,3.82 -53.23,44.699 7.19,25.602 40.41,25.613 40.13,54.914 -0.01,1.246 0.01,2.465 -0.13,3.828 -9.52,-0.496 -18.98,-0.914 -28.4,-1.257 -14,-0.508 -27.88,-0.801 -41.643,-0.762 -53.937,0.148 -106.078,5.48 -156.547,23.519 -9.343,3.34 -18.636,7.063 -27.871,11.325 -4.851,2.234 -9.715,4.425 -14.609,6.554 -14.711,-12.414 -33.262,-22.043 -49.629,-33.359 25.437,-14.484 49.387,-34.016 51.57,-54.863 18.926,-15.633 36.184,-32.571 55.262,-56.672 -52.746,-4.739 -103.809,2.871 -156.34,-9.692 3.692,-7.5778 2.43,-19.9645 7.387,-27.6911 -24.055,-3.6406 -34.086,9.0859 -54.789,14.7852 -12.672,3.4882 -19.418,4.8906 -23.977,4.5547 3.602,-3.5235 5.891,-8.8672 6.239,-16.8633 -12.954,-1.1211 -25.567,-2.4453 -37.997,-3.8164 -3.566,-1.9336 -7.203,-3.6797 -10.914,-5.2188 -3.297,-17.0937 -5.359,-33.457 13.504,-44.6875 20.172,12.0703 34.684,88.5232 61.574,36.961 14.04,-26.9219 -4.46,-43.918 -24.132,-57.10942 5.754,-2.35938 11.304,-5.15235 16.754,-8.10548 l 72.668,0 c -6.079,26.3281 50.117,58.0469 83.144,34.4844 11.223,-8.0078 15.934,-18.7969 20.348,-29.6133 -9.422,6.8867 -17.266,3.27344 -23.832,-4.8711 l 267.71,0 c -7.08,7.05079 -20.18,12.3203 -33.27,18.2305 -7.91,3.5664 -15.77,7.3828 -22.29,11.9726 -7.96,5.6016 -13.9,12.3516 -15.32,21.2657 14.31,7.6054 46.53,14.5742 70.81,23.3632 27.26,9.8594 44.51,22.0157 15.31,39.9261"
       class="color2" />
    <path
       d="m 209.68548,1266.2148 c 5.211,-2.683 9.734,-6.105 13.223,-10.714 28.769,-3.344 57.472,-6.504 86.195,-10.637 -28.981,11.531 -58.723,20.051 -89.465,21.316 -3.309,0.137 -6.629,0.117 -9.953,0.035"
       class="color2" />
    <path
       d="m -141.72452,1097.5898 c 1.933,-8.476 6.183,-16.839 13.574,-25.1324 1.289,-1.4493 2.734,-2.7344 4.238,-3.9532 1.688,8.1566 3.688,16.3126 5.578,24.4536 -7.461,-0.047 -14.562,0.82 -20.664,3.332 -0.976,0.398 -1.836,0.859 -2.726,1.3"
       class="color2" />
    <path
       d="m -229.72852,1090.1218 c 8.117,-13.7074 12.054,-26.7074 14.73,-39.8832 18.606,1.918 40.957,4.5664 65.77,7.582 -4.742,13.8672 -7.129,27.6872 -31.219,16.1797 -2.25,8.8945 -1.316,17.0235 1.191,24.8285 -15.128,-4.895 -31.71,0.636 -50.472,-8.707"
       class="color2" />
    <path
       d="m -112.28352,1148.2428 c -0.73,6.789 -1.57,12.406 -2.488,16.996 -20.074,-4.953 -12.82,-18.61 3.015,-27.781 0.012,3.601 -0.14,7.195 -0.527,10.785"
       class="color2" />
    <path
       d="m -266.57652,2201.6808 c -12.363,28.23 7.445,26.8 30.137,21.72 11.512,8.92 22.734,18.3 33.625,28.04 2.726,-15.76 -0.192,-26.09 11.203,-38 19.797,-3.78 38.605,-5.46 62.695,1.29 11.797,3.31 62.495998,24.41 65.820998,38.32 7.746,32.38 -47.656998,38.07 -44.968998,70 0.015,0.18 0.039,0.33 0.055,0.51 l -153.551,0 c -3.688,-2.54 -7.012,-5.55 -9.821,-9.26 11.024,-7.47 23.68,-11.7 35.059,-17.37 -15.484,-10.46 -30.566,-19.71 -39.34,-26.9 -45.824,-37.57 -88.027,-55.12 -143.867,-73.01 -5.4805,-1.76 -26.6523,-6.86 -51.875,-11.72 l 0,-44.62 c 74.8008,-5.63 143.602,20.15 204.828,61"
       class="color2" />
    <path
       d="m -454.54122,2111.1708 c -1.0508,12.83 -8.40236,23.67 -16.8633,28.32 l 0,-29.42 c 5.46094,-0.12 11.0508,0.17 16.8633,1.1"
       class="color2" />
    <path
       d="m -425.36542,2243.2508 c -12.9297,-1.05 -27.6055,2.25 -40.50004,1.36 3.94922,8.33 28.76954,29.69 23.60154,40.11 -5.5039,11.11 -17.664,8.03 -29.1406,2.02 l 0,-81.28 c 16.3945,5.87 32.5117,14.04 45.9453,22.48 0.5156,5.33 0.336,9.99 0.0938,15.31"
       class="color2" />
    <path
       d="m -471.40452,1773.7698 0,-11.16 c 1.47656,-0.02 2.96094,-0.035 4.41016,-0.066 -1.14063,3.898 -2.62891,7.632 -4.41016,11.226"
       class="color2" />
    <path
       d="m -450.63502,1929.0398 c 28.7735,-3.344 57.4766,-6.504 86.1995,-10.637 -28.9807,11.531 -58.7229,20.051 -89.4651,21.316 -3.3086,0.137 -6.6289,0.117 -9.95312,0.035 5.21092,-2.683 9.73442,-6.105 13.21872,-10.714"
       class="color2" />
    <path
       d="m -424.50612,1492.7428 c 68.3516,39.238 99.5706,42.176 178.9416,34.492 19.25,-1.863 56.012,-9.707 80.226,-3.551 5.028,1.277 9.469,3.195 13.141,5.863 0.828,0.606 1.703,1.168 2.449,1.856 19.094,17.601 13.489,25.129 0.336,28.152 -13.152,3.024 -33.832,1.539 -44.969,1.067 -0.402,-0.02 -0.824,-0.039 -1.203,-0.051 -58.64,-2.215 -146.64,-0.785 -114.597,77.41 2.004,-3.449 4.351,-6.734 7.316,-9.73 16.649,-16.864 39.738,-18.653 61.481,-21.848 10.691,-1.574 24.351,-3.965 39.281,-6.067 17.898,-2.515 37.617,-4.593 56.297,-4.324 4.925,0.071 9.777,0.297 14.504,0.731 3.25,0.297 6.441,0.691 9.55,1.191 15.52,2.488 29.128998,7.602 38.667998,16.785 32.371,31.157 3.942,40.825 -24.241998,53.535 -7.91,3.567 -15.769,7.383 -22.289,11.973 -7.957,5.602 -13.894,12.352 -15.32,21.266 14.316,7.605 46.526998,14.574 70.815998,23.363 27.258,9.863 44.504,22.016 15.301,39.93 -2.231,1.363 -4.695,2.761 -7.484,4.195 -24.633,12.691 -64.687998,3.82 -53.226998,44.699 7.18,25.602 40.405998,25.614 40.124998,54.914 -0.012,1.25 0.012,2.465 -0.125,3.828 -9.527,-0.496 -18.984,-0.914 -28.401998,-1.257 -13.996,-0.508 -27.883,-0.797 -41.645,-0.762 -53.937,0.148 -106.078,5.48 -156.547,23.519 -9.343,3.34 -18.636,7.063 -27.871,11.325 -4.851,2.234 -9.719,4.425 -14.609,6.554 -14.711,-12.414 -33.2619,-22.043 -49.6291,-33.359 25.4375,-14.484 49.3871,-34.02 51.5741,-54.863 18.922,-15.637 36.18,-32.571 55.258,-56.672 -52.746,-4.738 -103.8087,2.871 -156.3399,-9.692 3.6914,-7.578 2.4297,-19.964 7.3867,-27.691 -13.2188,-2 -22.20314,0.949 -31.0508,4.949 l 0,-96.922 c 19.6484,-10.109 40.1719,-16.621 67.0898,-5.129 -52.4257,24.903 24.8633,81.465 66.0352,52.086 11.223,-8.007 15.938,-18.797 20.348,-29.613 -26.25,19.195 -40.282,-43.5 -48.469,-56.844 -16.129,-26.289 -54.1251,-42.836 -83.3321,-50 -7.0156,-1.718 -14.29299,-2.851 -21.6719,-3.468 l 0,-68.86 c 15.1211,5.446 31.0781,11.235 46.6406,16.883 0.086,0.047 0.1719,0.09 0.2578,0.137"
       class="color2" />
    <path
       d="m -291.26352,1227.0468 c -12.235,-4.554 -23.457,-9.617 -29.375,-16.105 11.492,-0.328 21.043,6.484 29.375,16.105"
       class="color2" />
    <path
       d="m -223.28752,1278.6958 c 3.508,-17.918 -19.597,-33.383 -16.867,-54.399 1.152,-8.871 5.906,-16.589 12.664,-22.859 64.613,23.426 110.727,74.852 172.851998,96.082 -0.262,1.125 -0.082,9.77 0.097,11.172 -14.406,1.934 -26.058,3.488 -40.48,5.398 5.055,14.649 14.664,16.094 25.383,27.625 3.8,4.086 16.816,5.207 20.121,9.164 3.23,3.868 4.218,11.735 5.429,17.801 0.661,3.321 1.391,6.11 2.59,7.391 13.735,14.605 62.739001,28.68 67.789001,44.715 2.985,9.465 2.633,16.09 -0.215,20.488 25.723,5.762 52.411,11.371 76.680001,12.621 42.164,2.168 73.778,-23.055 116.238,-16.266 -1.16,14.235 -10.066,26.098 -19.656,29.68 75.891,-6.496 145.637,19.469 207.629,60.832 -12.367,28.227 7.442,26.797 30.133,21.723 11.512,8.922 22.734,18.297 33.625,28.039 2.726,-15.758 -0.191,-26.094 11.199,-38 19.801,-3.785 38.606,-5.465 62.702,1.293 11.79,3.308 62.49,24.406 65.82,38.316 7.74,32.375 -47.66,38.071 -44.97,70 0.07,0.942 0.19,1.778 0.29,2.645 -3.24,4.293 -6.13,8.672 -8.64,13.062 3.82,-0.148 7.67,-0.254 11.55,-0.308 4.65,10.906 13.15,7.715 22.19,0.058 29.86,0.489 58.02,2.203 73.25,-0.152 1.95,-0.301 3.97,-0.762 6.06,-1.356 0.09,0.778 0.17,1.555 0.31,2.305 22.87,-6.351 68.72,-18.683 82.69,12.711 6.48,14.555 2.55,25.231 -4.8,34.309 -26.28,-4.61 -53.68,-5.727 -78.74,-12.25 -41.82,-10.887 -81.25,-19.407 -119.45,-20.379 -5.79,-0.149 -11.54,-0.117 -17.27,0.101 -0.15,9.481 -0.49,18.668 2.88,26.875 -6.93,0.036 -10.286,3.887 -16.157,4.879 l -29.164,-25 c 0.074,-0.441 0.086,-0.886 0.137,-1.332 -9.047,2.059 -18.055,4.754 -27.043,8.11 1.086,-6.434 2.347,-13.032 4.09,-19.907 -21.688,-13.183 -50.708,-13.621 -65.504,-33.117 11.023,-7.472 23.679,-11.707 35.062,-17.371 -15.484,-10.461 -30.566,-19.711 -39.34,-26.906 -45.82,-37.57 -88.023,-55.117 -143.867,-73.012 -16.035,-5.141 -166.371001,-38.926 -159.668001,-11.359 5.363,22.047 63.582001,9.801 79.465001,12.301 25.129,3.953 53.047,16.648 74.269,29.988 0.52,5.328 0.34,9.98 0.098,15.308 -12.93,-1.054 -27.609,2.246 -40.5,1.36 3.953,8.324 28.77,29.691 23.606,40.109 -10.141,20.449 -42.848,-7.168 -52.278,-12.703 -34.84,-20.453 -61.515,-26.527 -97.093001,-40.402 -38.7,-15.094 -53.305,-53.141 -84.1409996,-74.196 -10.4340004,-7.121 -21.6640004,-12.406 -33.3790014,-16.3 32.5620014,-1.551 65.324001,-2.618 98.047001,-5.051 -11.824,-6.746 -31.824,-10.317 -53.3749996,-14.047 -36.6600014,1.434 -113.6409994,-36.774 -124.2459994,-36.387 -12.121,0.438 -22.211,-0.258 -33.524,-1.781 -29.3,-3.945 -6.8,-11.582 -17.707,-34.328 -14.683,-30.633 -23.609,-41.813 -62.484,-41.68 -34.863,0.117 -60.512,18.371 -95.832,16.664 -31.047,-1.496 -59.5665,-15.512 -87.6173,-24.883 -17.4727,-5.832 -34.4961,-11.519 -51.39454,-18.129 12.37504,-25.164 18.81254,-62.484 30.01564,-85.972 2.6289,0.84 5.3476,1.656 8.0547,2.472 11.2851,3.407 23.1953,6.583 35.5039,9.473 -2.336,14.274 -13.2227,28.688 -24.336,39.75 39.086,8.957 47.7816,-12.449 58.0786,-32.73 27.609,5.019 55.664,8.363 81.351,9.375 6.66,10.976 12.641,21.703 18.57,28.351 11.723,13.153 25.575,39.078 33.219,0.016"
       class="color2" />
    <path
       d="m -471.40452,1206.2538 c 3.89453,2.258 7.17578,4.094 9.73828,5.411 -1.4414,6.906 -4.75781,13.179 -9.73828,18.73 l 0,-24.141"
       class="color2" />
    <path
       d="m 875.67552,1320.6568 0,5.09 c -0.60004,-0.789 -1.29004,-1.641 -2.07004,-2.528 0.71,-0.816 1.39,-1.675 2.07004,-2.562"
       class="color3" />
    <path
       d="m 577.43548,1250.2388 c -4.34,15.019 -6.6,23.789 -6.69,29.219 -12.42,-0.01 -23.36,0.289 -31.73,0.699 -19.861,0.965 -40.486,4.777 -61.338,9.621 12.664,-8.945 28.41,-20.52 45.32,-29.09 4.403,0.875 10.288,-1.391 17.588,-7.422 12.26,-4.105 24.77,-5.812 36.85,-3.027"
       class="color3" />
    <path
       d="m 565.60548,1197.6258 c 9.42,0.343 18.88,0.761 28.4,1.257 0.14,-1.363 0.12,-2.582 0.13,-3.828 10.28,6.512 14.41,14.598 29.25,29.883 2.38,2.457 4.56,4.555 6.66,6.492 -0.69,0.582 -1.38,1.082 -2.09,1.403 -19.98,9.121 -44.66,-5.571 -71.63,-8.09 3.26,-9.082 6.75,-19.25 9.28,-27.117"
       class="color3" />
    <path
       d="m 513.76748,1232.0628 c -38.754,15.746 -76.34,51.809 -111.707,70.691 -6.473,3.454 -12.395,6.434 -17.93,9.684 -3.504,0.668 -6.992,1.293 -10.453,1.852 -3.93,-13.723 -7.848,-27.516 -13.129,-39.543 6.965,-9.868 11.856,-20.473 11.781,-32.121 -0.058,-9.332 -1.847,-16.657 -4.914,-22.243 50.469,-18.039 102.61,-23.371 156.547,-23.519 -2.344,4.683 -6.711,11.719 -9.023,25.887 -0.535,3.285 -0.922,6.39 -1.172,9.312"
       class="color3" />
    <path
       d="m 784.84548,1150.9728 40.64,6.774 c -5.82,-0.055 -11.53,0.027 -17.28,0.464 -8.06,-2.082 -15.91,-4.468 -23.36,-7.238"
       class="color3" />
    <path
       d="m 797.88548,1449.0708 c -18.78,-4.215 -37.9,-6.602 -57.08,-8.613 -24.28,-2.551 -48.64,-4.524 -72.48,-8.739 -12.96,-2.293 -25.78,-5.258 -38.33,-9.375 3.63,-18.547 -12.97,-28.129 -34.63,-22.105 -1.5,2.148 -2.87,3.867 -4.15,5.328 -5.95,-3.09 -12.42,-6.699 -18.71,-10.707 -5.48,-16.098 -11.81,-38.223 -31.4,-36.383 0.02,1.274 -0.08,2.457 -0.15,3.66 -1.88,-6.508 -0.8,-13.187 4.69,-19.801 12.56,-15.132 49.09,-16.929 88.2,-16.035 6.55,13.883 9.97,29.028 23.29,40.282 8.87,-11.567 9.5,-24.528 11.99,-39.039 8.89,0.359 17.56,0.683 25.79,0.863 18.81,7.215 40.71,14.82 38.43,-1.278 3.44,-0.476 6.57,-1.082 9.28,-1.863 -9.4,-20.73 -41.3,-32.398 -78.05,-38.769 -7.86,-4.192 -13.87,-10.286 -15.97,-20.114 -1.94,-9.078 -1.91,-16.347 -0.31,-22.089 10.53,4.785 21.01,5.191 40.72,10.632 59.36,16.391 75.58,46.032 104.05,92.395 23.1,-28.539 29.17,-11.141 55.42,-9.988 11.69,0.511 22.09,1.265 27.19004,-0.598 l 0,138.988 c -6.65004,-2.394 -13.13004,-4.719 -19.35004,-6.937 -28.77,-10.27 -51.77,-18.219 -58.44,-19.715"
       class="color3" />
    <path
       d="m 852.74548,1305.9928 c -18.83,-9.813 -47.35,-15.692 -63.84,-26.672 -12.69,-8.453 -21.74,-21.922 -30.85,-34.363 20.72,8.261 37.94,16.886 44.4,20.691 -3.96,-15.148 -9.98,-28.273 -16.76,-41.793 25.95,11.469 51.87,25.934 45.71,59.715 11.58,6.57 23.07,12.144 34.57,17.168 -4.1,2.558 -8.69,4.047 -13.23,5.254"
       class="color3" />
    <path
       d="m 719.84548,1193.3478 c -6.39,2.59 -13.27,4.738 -21.04,6.164 -2.96,0.547 -5.92,0.762 -8.86,0.809 -6.92,-6.192 -8.53,-14.235 2,-25.586 0.08,-0.086 0.17,-0.156 0.25,-0.238 7.81,6.855 17.56,13.203 27.65,18.851"
       class="color3" />
    <path
       d="m 839.47548,1157.9968 c -22.24,-5.184 -50.07,-10.719 -62.04,-20.45 -19.68,-16.003 -15.31,-69.2652 -50.29,-48.011 7.4,14.078 4.99,28.246 -8.97,36.84 -15.27,-18.954 -35.13,-27.016 -57.62,-16.356 -4.3,14.816 -12.35,27.602 -24.66,36.145 -11.61,-17.45 -15.97,-36.11 -21.17,-54.922 29.2,-17.9104 11.95,-30.0667 -15.31,-39.9261 -15.58,-28.2773 -30.23,-34.957 -55.49,-44.6289 6.52,-4.5898 14.38,-8.4062 22.29,-11.9726 24.85,0.4765 48.02,2.7265 64.46,6.0429 32.67,6.586 58.28,32.8829 87.5,46.0508 25.32,11.4063 51.31,16.8086 75.93,32.4059 19.7,12.473 42.45,41.895 65.53,46.977 5.75,1.266 11.04,1.422 16.04004,0.859 l 0,29.008 c -4.63004,0.926 -9.40004,1.567 -14.37004,1.789 -7.77,0.344 -14.95,0.281 -21.83,0.149"
       class="color3" />
    <path
       d="m 283.36848,1907.4728 c -12.308,-2.89 -24.222,-6.066 -35.507,-9.472 3.578,-8.504 10.207,-13.079 18.656,-22.442 0.273,-0.305 0.562,-0.594 0.844,-0.89 14.086,9.574 17.918,21.14 16.007,32.804"
       class="color3" />
    <path
       d="m 352.90048,1884.4808 c 5.914,6.488 17.14,11.551 29.375,16.105 5.941,6.86 11.25,15.133 16.187,23.282 -25.687,-1.012 -53.742,-4.356 -81.351,-9.375 5.968,-11.754 12.48,-23.133 25.761,-27.996 3.5,-1.286 6.836,-1.926 10.028,-2.016"
       class="color3" />
    <path
       d="m -132.96352,1926.8088 c 12.27,-4.105 24.778,-5.816 36.863998,-3.031 -4.343998,15.019 -6.605998,23.789 -6.699998,29.219 -12.414,-0.01 -23.351,0.289 -31.726,0.699 -19.859,0.965 -40.481,4.777 -61.328,9.621 12.66,-8.945 28.402,-20.52 45.308,-29.09 4.407,0.875 10.286,-1.391 17.582,-7.418"
       class="color3" />
    <path
       d="m 179.20448,1979.5308 c -18.828,-9.812 -47.347,-15.695 -63.832,-26.671 -12.691,-8.453 -21.746001,-21.922 -30.855001,-34.363 20.723001,8.261 37.937001,16.886 44.402001,20.691 -3.961,-15.144 -9.98,-28.273 -16.765,-41.797 25.953,11.473 51.871,25.938 45.714,59.719 11.582,6.57 23.071,12.144 34.563,17.168 -4.098,2.563 -8.68,4.043 -13.227,5.253"
       class="color3" />
    <path
       d="m -306.12352,1893.9218 c 50.469,-18.039 102.61,-23.371 156.547,-23.519 -2.348,4.683 -6.711,11.719 -9.023,25.887 -0.535,3.285 -0.922,6.39 -1.172,9.312 -38.754,15.746 -76.34,51.809 -111.707,70.692 -6.473,3.457 -12.395,6.437 -17.93,9.687 -3.504,0.66 -6.988,1.29 -10.453,1.85 -3.93,-13.721 -7.848,-27.514 -13.125,-39.541 6.965,-9.868 11.855,-20.477 11.781,-32.125 -0.058,-9.332 -1.851,-16.657 -4.918,-22.243"
       class="color3" />
    <path
       d="m 438.39648,1834.9218 c 0.242,-10.777 2.832,-19.043 9.91,-26.043 5.242,3.973 10.031,8.012 14.203,12.067 3.66,3.555 10.742,7.031 20.465,10.277 -10.899,5.606 -22.445,4.746 -44.578,3.699"
       class="color3" />
    <path
       d="m 46.310479,1866.8868 c -6.399,2.59 -13.27,4.739 -21.043,6.164 -2.973,0.547 -5.926,0.762 -8.863,0.809 -6.9219996,-6.191 -8.5319996,-14.234 1.996,-25.586 0.078,-0.086 0.172,-0.156 0.254,-0.242 7.808,6.859 17.566,13.207 27.656,18.855"
       class="color3" />
    <path
       d="m 111.30648,1824.5118 40.641,6.774 c -5.817,-0.055 -11.532,0.027 -17.289,0.465 -8.059,-2.082 -15.899,-4.469 -23.352,-7.239"
       class="color3" />
    <path
       d="m -107.32652,1668.2538 c 24.851998,0.477 48.015998,2.727 64.464998,6.043 32.672001,6.586 58.281001,32.883 87.500001,46.051 25.316,11.406 51.301,16.809 75.930001,32.406 19.695,12.473 42.441,41.899 65.523,46.977 33.445,7.359 52.309,-20.668 79.477,-32.621 44.476,-19.574 113.062,-0.676 160.988,27.348 -12.52,14.16 -24.516,40.695 -33.613,46.269 -21.703,13.301 -59.239,10.703 -84.102,-3.324 2.961,-6.227 3.488,-13.668 0.043,-23.277 14.902,-8.278 28.844,-18.911 36.801,-36.063 -63.879,-10.027 -97.11,50.617 -157.918,53.324 -7.766,0.344 -14.953,0.282 -21.836,0.149 -22.234,-5.184 -50.059,-10.719 -62.031,-20.45 -19.692001,-16.003 -15.321001,-69.265 -50.297001,-48.011 7.398,14.078 4.988,28.246 -8.965,36.84 -15.27,-18.954 -35.1249996,-27.016 -57.621,-16.356 -4.305,14.817 -12.359001,27.602 -24.664001,36.145 -11.606,-17.45 -15.965,-36.106 -21.172,-54.918 29.203,-17.914 11.957,-30.067 -15.301,-39.93 -15.586,-28.281 -30.241998,-34.957 -55.495998,-44.629 6.52,-4.59 14.379,-8.406 22.289,-11.973"
       class="color3" />
    <path
       d="m -79.404522,1868.5938 c 10.281,6.512 14.406,14.598 29.25,29.883 2.383,2.453 4.563,4.551 6.664,6.492 -0.695,0.582 -1.391,1.082 -2.094,1.403 -19.972,9.121 -44.664,-5.571 -71.628998,-8.09 3.262,-9.082 6.75,-19.25 9.282,-27.117 9.417998,0.343 18.874998,0.761 28.401998,1.257 0.137,-1.363 0.113,-2.578 0.125,-3.828"
       class="color3" />
    <path
       d="m -39.693522,1999.8408 c 6.555,13.88 9.973,29.03 23.293001,40.28 8.8670004,-11.57 9.4960004,-24.53 11.9840004,-39.04 8.895,0.36 17.5589996,0.69 25.7849996,0.86 18.809,7.22 40.715,14.83 38.438,-1.27 3.441,-0.48 6.57,-1.08 9.285,-1.87 -9.41,-20.73 -41.305,-32.394 -78.0549996,-38.765 -7.8590004,-4.192 -13.8780004,-10.285 -15.9720014,-20.114 -1.938,-9.078 -1.91,-16.347 -0.305,-22.093 10.516001,4.789 21.0080014,5.195 40.715001,10.636 59.351,16.391 75.574,46.032 104.055001,92.396 23.097,-28.54 29.175,-11.14 55.421,-9.99 22.2,0.98 39.762,2.84 25.122,-14.12 3.648,-4.21 6.847,-9.4 9.722,-15.25 16.899,6.61 33.922,12.3 51.395,18.13 28.051,9.37 56.574,23.38 87.617,24.88 35.324,1.71 60.969,-16.55 95.832,-16.66 38.871,-0.14 47.801,11.04 62.488,41.68 10.907,22.74 -11.597,30.38 17.699,34.33 11.32,1.52 21.41,2.21 33.52,1.78 10.61,-0.39 87.59,37.82 124.25,36.38 21.55,3.73 41.56,7.3 53.38,14.05 -32.72,2.43 -65.49,3.5 -98.04,5.05 -30.3,1.45 -60.4,3.34 -90.11,7.14 -5.25,0.67 -10.47,1.38 -15.69,2.18 -15.825,2.43 -33.181,4.06 -50.985,5.94 -49.575,5.22 -102.703,12.31 -136.524,43.55 -0.812,0.75 -46.265,-15.79 -95.843,-33.79 -22.407,-8.13 -45.637,-16.55 -65.993,-23.82 -28.769,-10.26 -51.769,-18.21 -58.445,-19.71 -18.773,-4.22 -37.898001,-6.6 -57.074001,-8.61 -24.289,-2.56 -48.649,-4.53 -72.4809996,-8.74 -12.9720004,-2.3 -25.7810014,-5.26 -38.3360014,-9.38 3.637,-18.54 -12.972,-28.13 -34.629,-22.1 -1.503,2.15 -2.867,3.86 -4.156,5.33 -5.945,-3.09 -12.414,-6.7 -18.702998,-10.71 -5.48,-16.1 -11.808,-38.22 -31.402,-36.38 0.019,1.26 -0.078,2.45 -0.149,3.65 -1.871,-6.51 -0.793,-13.18 4.688,-19.8 12.558,-15.13 49.093998,-16.93 88.202998,-16.03"
       class="color3" />
    <path
       d="m 786.91548,1759.5038 c 3.77,-11.453 0.76,-24.183 -1.62,-36.535 3.71,1.535 7.34,3.282 10.91,5.215 0.82,0.449 1.66,0.844 2.48,1.313 19.83,11.429 20.38,18.714 29.27,19.367 4.57,0.336 11.31,-1.067 23.98,-4.555 9.32,-2.566 16.49,-6.555 23.74004,-9.836 l 0,28.137 c -26.08004,0.355 -56.35004,-0.871 -88.76004,-3.106"
       class="color3" />
    <path
       d="m 827.97548,1937.9418 c -4.08,0.621 -8.34,1.168 -12.7,1.687 -5.52,0.653 -11.2,1.262 -16.97,1.887 -0.96,0.106 -1.93,0.211 -2.89,0.317 -20.75,2.277 -42.23,5.007 -59.32,11.617 -10.91,4.215 -17.62,7.879 -21.82,11.535 -11.81,10.289 -3.52,20.516 -11.21,42.766 -12.43,36 -22.58,28.92 -62.59,33.43 -3.59,0.41 -7.31,0.72 -11.02,1.04 -1.22,-6.07 -2.2,-13.94 -5.43,-17.8 -3.31,-3.96 -16.33,-5.08 -20.13,-9.17 -10.71,-11.53 -20.33,-12.97 -25.37,-27.62 14.41,-1.91 26.07,-3.47 40.47,-5.4 -0.18,-1.4 -0.36,-10.047 -0.1,-11.172 -62.12,-21.23 -108.23,-72.656 -172.847,-96.082 25.516,-23.687 79.93,-26.445 79.93,9.848 16.737,6.527 33.147,10.019 49.057,17.625 11.76,5.613 32.39,25.16 42.84,27.996 17.11,4.644 40.37,-4.223 57.29,-3.344 17.97,0.926 39.88,9.371 57.39,12.004 17.18,-13.043 30.54,-27.699 42.28,-44.391 -49.98,-1.66 -184.22,10.309 -202.85,-47.695 102.8,9.191 245.98,-0.309 294.28,-58.828 3.72,-4.512 6.87,-9.316 9.41004,-14.422 l 0,157.742 c -15.87004,1.934 -31.76004,4 -47.70004,6.43"
       class="color3" />
    <path
       d="m 532.91548,1680.2578 c 5.73,-0.218 11.48,-0.25 17.27,-0.101 38.2,0.972 77.63,9.492 119.45,20.379 25.06,6.523 52.46,7.64 78.74,12.25 -11.77,14.527 -32.32,24.968 -33.33,40.605 -52.78,-5.187 -107.05,-11.777 -155.28,-17.687 -12.25,-1.504 -24.11,-2.961 -35.451,-4.344 -24.817,-3.016 -47.172,-5.664 -65.778,-7.582 -20.234,-2.086 -36.05,-3.313 -45.753,-3.215 16.925,-11.719 33.816,-20.445 50.785,-26.773 8.988,-3.356 17.996,-6.051 27.043,-8.11 -0.051,0.446 -0.063,0.891 -0.137,1.332 l 29.164,25 c 5.871,-0.992 9.227,-4.843 16.157,-4.879 -3.37,-8.207 -3.03,-17.394 -2.88,-26.875"
       class="color3" />
    <path
       d="m -330.66652,1212.9578 c 3.5,-1.286 6.836,-1.926 10.028,-2.016 5.918,6.488 17.14,11.551 29.375,16.105 5.933,6.856 11.25,15.133 16.187,23.282 -25.687,-1.012 -53.742,-4.356 -81.351,-9.375 5.968,-11.754 12.48,-23.133 25.761,-27.996"
       class="color3" />
    <path
       d="m -211.02952,1147.4068 c 3.664,3.554 10.742,7.031 20.465,10.277 -10.899,5.606 -22.445,4.746 -44.578,3.699 0.242,-10.777 2.832,-19.043 9.914,-26.043 5.238,3.973 10.023,8.012 14.199,12.067"
       class="color3" />
    <path
       d="m -412.34982,1326.0898 c 28.0508,9.371 56.5703,23.387 87.6173,24.883 35.32,1.707 60.969,-16.547 95.832,-16.664 38.875,-0.133 47.801,11.047 62.484,41.68 10.907,22.746 -11.593,30.383 17.707,34.328 11.313,1.523 21.403,2.219 33.524,1.781 10.605,-0.387 87.585998,37.821 124.2459994,36.387 21.5509996,3.73 41.5509996,7.301 53.3749996,14.047 -32.723,2.433 -65.4849996,3.5 -98.047001,5.051 -30.289,1.449 -60.395,3.336 -90.104998,7.14 -5.243,0.672 -10.469,1.379 -15.684,2.18 -15.828,2.426 -33.184,4.058 -50.992,5.937 -49.567,5.219 -102.699,12.309 -136.524,43.547 -0.812,0.754 -46.2653,-15.789 -95.8474,-33.781 -15.5625,-5.648 -31.5195,-11.437 -46.6406,-16.883 l 0,-138.988 c 4.07813,-1.492 4.76953,-4.664 0,-10.988 l 0,-5.09 c 2.80859,-3.692 5.34375,-7.977 7.66016,-12.696 16.89844,6.61 33.92184,12.297 51.39454,18.129"
       class="color3" />
    <path
       d="m -280.59552,1167.1878 c -21.704,13.297 -59.239,10.703 -84.102,-3.324 2.961,-6.227 3.484,-13.668 0.043,-23.274 14.902,-8.281 28.844,-18.914 36.801,-36.066 -58.6604,-9.207 -91.4924,41.148 -143.551,51.535 l 0,-29.008 c 24.1094,-2.718 40.9336,-23.582 63.4375,-33.48 44.4725,-19.5744 113.0585,-0.676 160.9845,27.348 -12.52,14.16 -24.516,40.695 -33.613,46.269"
       class="color3" />
    <path
       d="m -407.02172,1202.0198 c 0.2735,-0.301 0.5625,-0.594 0.8438,-0.891 14.0859,9.575 17.9179,21.141 16.0078,32.805 -12.3086,-2.89 -24.2188,-6.066 -35.5039,-9.473 3.5742,-8.503 10.2031,-13.074 18.6523,-22.441"
       class="color3" />
    <path
       d="m 326.87648,1150.0398 c -18.211,15.054 -37.976,28.906 -62.433,46.769 3.433,2.84 7.113,5.496 10.863,8.094 16.367,11.316 34.918,20.945 49.629,33.359 0.754,0.637 1.512,1.266 2.238,1.914 0.629,0.563 1.317,1.078 1.926,1.649 -3.399,0.551 -6.793,1.031 -10.188,1.551 -3.273,0.496 -6.539,1.015 -9.808,1.488 -28.723,4.133 -57.426,7.293 -86.195,10.637 -22.77,2.648 -45.579,5.414 -68.473,8.902 -4.074,0.621 -8.34,1.168 -12.711,1.687 -5.504,0.653 -11.188,1.262 -16.961,1.887 -0.961,0.106 -1.926,0.211 -2.891,0.317 -20.742,2.277 -42.226001,5.007 -59.320001,11.617 -10.902,4.215 -17.617,7.879 -21.816,11.535 -11.809,10.289 -3.516,20.512 -11.203,42.765 -12.442,35.997 -22.5859996,28.922 -62.598001,33.43 -3.598,0.406 -7.309,0.719 -11.024,1.039 -1.211,-6.066 -2.199,-13.933 -5.429,-17.801 -3.305,-3.957 -16.321,-5.078 -20.121,-9.164 -10.719,-11.531 -20.328,-12.976 -25.383,-27.625 14.422,-1.91 26.074,-3.464 40.48,-5.398 -0.179,-1.402 -0.359,-10.047 -0.097,-11.172 -62.124998,-21.23 -108.238998,-72.656 -172.851998,-96.082 25.516,-23.687 79.93,-26.445 79.93,9.848 16.734,6.527 33.14,10.015 49.057998,17.625 11.754,5.613 32.391,25.16 42.836,27.996 17.114,4.644 40.367001,-4.223 57.2970014,-3.344 17.9609996,0.926 39.8749996,9.371 57.3829996,12.004 17.18,-13.043 30.543,-27.699 42.281001,-44.391 -49.980001,-1.66 -184.215002,10.309 -202.844,-47.695 102.7929994,9.191 245.973,-0.309 294.278,-58.828 6.34,-7.684 11.055,-16.207 13.816,-25.649 -27.043,0.567 -58.922,-0.679 -93.164,-3.039 3.766,-11.4527 0.754,-24.1793 -1.633,-36.5387 3.711,1.5391 7.348,3.2852 10.914,5.2188 0.829,0.4492 1.668,0.8398 2.489,1.3125 19.828,11.4297 20.379,18.7109 29.269,19.3672 4.559,0.3359 11.305,-1.0665 23.977,-4.5547 20.703,-5.6993 30.734,-18.4258 54.789,-14.7852 -4.957,7.7266 -3.695,20.1133 -7.387,27.6911 52.531,12.563 103.594,4.953 156.34,9.692 -19.078,24.101 -36.336,41.039 -55.262,56.672"
       class="color3" />
    <path
       d="m 41.497479,1079.8518 c -52.777,-5.1874 -107.039001,-11.7772 -155.268999,-17.6874 -12.246,-1.5039 -24.11,-2.9609 -35.457,-4.3438 -24.813,-3.0156 -47.164,-5.664 -65.77,-7.582 -20.238,-2.0859 -36.054,-3.3125 -45.761,-3.2148 16.929,-11.7188 33.824,-20.4453 50.793,-26.7735 8.984,-3.3554 17.992,-6.0507 27.039,-8.1093 -0.055,0.4453 -0.063,0.8906 -0.137,1.332 l 29.164,25 c 5.867,-0.9922 9.226,-4.8438 16.148,-4.8789 -3.359,-8.207 -3.019,-17.3945 -2.875,-26.875 5.735,-0.2188 11.489,-0.25 17.274,-0.1016 38.194998,0.9727 77.628998,9.4922 119.4529994,20.3789 25.0549996,6.5235 52.4529996,7.6367 78.7339996,12.25 -11.769,14.5235 -32.324,24.9688 -33.336,40.6054"
       class="color3" />
    <path
       d="m -440.35372,1729.5238 c -4.957,7.727 -3.6953,20.113 -7.3867,27.691 52.5312,12.563 103.5939,4.954 156.3399,9.692 -19.078,24.101 -36.336,41.035 -55.258,56.672 -18.215,15.054 -37.9804,28.906 -62.4374,46.769 3.4336,2.84 7.1094,5.496 10.8633,8.094 16.3672,11.316 34.9181,20.945 49.6291,33.359 0.754,0.637 1.512,1.266 2.238,1.914 0.629,0.563 1.316,1.079 1.926,1.649 -3.399,0.551 -6.793,1.031 -10.188,1.551 -3.273,0.496 -6.539,1.015 -9.808,1.488 -28.7229,4.133 -57.426,7.293 -86.1995,10.637 -6.9179,0.804 -13.83981,1.629 -20.7695,2.472 l 0,-157.742 c 1.78125,-3.594 3.26953,-7.328 4.41016,-11.226 -1.44922,0.031 -2.9336,0.046 -4.41016,0.066 l 0,-28.137 c 8.84766,-4 17.832,-6.949 31.0508,-4.949"
       class="color3" />
    <path
       d="m 521.34548,2203.0908 c -3.676,-2.67 -8.117,-4.59 -13.145,-5.87 2.797,-1.24 5.754,-2.18 8.922,-2.7 1.84,2.4 3.203,5.32 4.223,8.57"
       class="color4" />
    <path
       d="m 524.12648,2233.0908 c -0.164,15.41 -1.07,30.25 3.606,36.46 -18.68,-0.27 -38.399,1.81 -56.297,4.32 0.82,-12.96 3.254,-27.03 7.723,-39.71 11.132,0.47 31.816,1.96 44.968,-1.07"
       class="color4" />
    <path
       d="m 551.79548,2271.4708 c -3.12,-0.5 -6.31,-0.89 -9.56,-1.19 2.51,-1.19 5.32,-2.81 8.55,-5.03 0.54,2.16 0.86,4.23 1.01,6.22"
       class="color4" />
    <path
       d="m 847.13548,2058.8808 c -0.22,-0.51 14.65,-4.76 28.54004,-8.43 l 0,21.78 c -1.26004,0.8 -2.49004,1.69 -3.70004,2.81 -4.22,3.9 -36.02,36.38 -36.03,36.38 -19.5,10.08 -7.44,9.01 -29.74,-10.85 -18.32,-16.29 -26.05,-50.79 -51.35,-60.06 -23.93,-8.77 -35.97,7.14 -59.26,8.61 0.46,-28.25 40.12,-52.28 37.6,-80.433 -6.01,-1.641 -12.42,-2.711 -18.92,-3.703 4.2,-3.656 10.91,-7.32 21.82,-11.535 17.09,-6.61 38.57,-9.34 59.32,-11.617 1.34,4.402 3.27,8.761 5.88,12.984 1.8,-0.324 9.15,-0.258 11.08,-0.098 0.2,-3.84 0.74,-7.3 1.52,-10.492 0.4,-1.609 0.84,-3.148 1.38,-4.598 4.36,-0.519 8.62,-1.066 12.7,-1.687 15.94,-2.43 31.83,-4.496 47.70004,-6.43 l 0,11.574 c -5.92004,2.254 -12.30004,4.071 -18.70004,6.012 -1.8,0.547 -3.59,1.106 -5.38,1.688 -9.26,3.019 -18.25,6.718 -25.48,13.008 9.32,12.967 4.9,30.987 6.76,45.947 1.77,14.22 8.36,35.19 14.26,49.14"
       class="color4" />
    <path
       d="m 543.92548,1006.6878 c 25.26,9.6719 39.91,16.3516 55.49,44.6289 -24.28,-8.789 -56.5,-15.7578 -70.81,-23.3632 1.42,-8.9141 7.36,-15.6641 15.32,-21.2657"
       class="color4" />
    <path
       d="m 848.48548,1337.3328 c -26.25,-1.153 -32.32,-18.551 -55.42,9.988 -28.47,-46.363 -44.69,-76.004 -104.05,-92.395 -19.71,-5.441 -30.19,-5.847 -40.72,-10.632 -1.6,5.742 -1.63,13.011 0.31,22.089 2.1,9.828 8.11,15.922 15.97,20.114 20.75,11.054 54.45,8.765 63.49,26.347 3.13,6.086 4.77,10.746 5.28,14.285 2.28,16.098 -19.62,8.493 -38.43,1.278 -11.25,-4.313 -21.38,-8.481 -24.55,-7.332 -0.47,2.191 -0.88,4.344 -1.24,6.469 -2.49,14.511 -3.12,27.472 -11.99,39.039 -13.32,-11.254 -16.74,-26.399 -23.29,-40.282 -4.66,-9.875 -10.9,-19.117 -23.48,-25.843 -27.16,-14.528 -39.85,-7.774 -39.62,-21 0.09,-5.43 2.35,-14.2 6.69,-29.219 -12.08,-2.785 -24.59,-1.078 -36.85,3.027 -7.3,6.031 -13.185,8.297 -17.588,7.422 -16.91,8.57 -32.656,20.145 -45.32,29.09 -0.168,0.121 -0.352,0.25 -0.523,0.371 -16.461,11.609 -24.11,32.945 -37.621,41.973 -16.872,11.269 -35.547,0.371 -45.622,20.832 -2.152,0.453 -4.371,0.757 -6.601,0.996 4.109,8.711 9.043,16.301 15.43,21.906 28.664,25.148 134.765,43.684 138.215,-13.719 0.07,-1.203 0.17,-2.386 0.15,-3.66 19.59,-1.84 25.92,20.285 31.4,36.383 4.5,13.234 8.46,22.328 18.71,10.707 1.28,-1.461 2.65,-3.18 4.15,-5.328 21.66,-6.024 38.26,3.558 34.63,22.105 -0.4,2.055 -0.99,4.188 -1.9,6.453 -11.86,29.157 -31.3,11.547 -53.36,7.09 -43.93,-8.883 -73.476,-13.98 -97.163,30.293 14.582,14 47.89,5.922 70.103,17.699 12.83,6.801 22.62,12.606 32.31,17.508 12.61,6.383 25.06,11.242 43.82,14.793 0.53,0.102 1.14,0.227 1.8,0.367 9.5,2.047 31.04,7.965 36.63,7.039 8.94,-1.488 29.83,-16.898 31.16,-16.976 3.9,-0.231 7.84,0.012 11.65,0.613 23.62,3.758 41.96,22.137 10.54,38.207 -18.81,9.617 -70.93,-15.984 -28.45,28.254 1.32,1.375 56.5,32.738 61.68,34.149 1.3,0.355 2.57,0.55 3.83,0.753 26.18,4.235 43.96,-22.179 70.23,-12.179 35.65,13.57 29.11,53.281 -11.14,45.605 6.48,4.969 15.61,10.157 24.5,16.117 19.67,13.192 38.17,30.188 24.13,57.11 -26.89,51.562 -41.4,-24.891 -61.57,-36.961 -18.87,11.226 -16.81,27.594 -13.5,44.691 2.38,12.352 5.39,25.082 1.62,36.535 -0.87,2.641 -2.07,5.215 -3.75,7.7 -6.31,9.32 -21.56,14.515 -36.05,13.812 -14.94,-0.726 -29.07,-7.715 -31.82,-22.969 -0.29,-1.609 -0.35,-3.152 -0.25,-4.656 1.01,-15.637 21.56,-26.078 33.33,-40.605 7.35,-9.078 11.28,-19.754 4.8,-34.309 -13.97,-31.394 -59.82,-19.062 -82.69,-12.711 -0.14,-0.75 -0.22,-1.527 -0.31,-2.305 -0.97,-8.503 0.98,-18.371 4.34,-25.734 5.87,-2.301 12.31,-7.269 16.56,-9.031 -27.16,-15.067 -47.43,-15.207 -72.46,7.285 -6.66,5.984 -17.54,20.316 -27.75,28.988 -9.04,7.657 -17.54,10.848 -22.19,-0.058 -1.3,-3.059 -2.29,-7.258 -2.91,-12.754 -0.1,-0.867 -0.22,-1.703 -0.29,-2.645 -2.69,-31.929 52.71,-37.625 44.97,-70 -3.33,-13.91 -54.03,-35.008 -65.82,-38.316 -24.096,-6.758 -42.901,-5.078 -62.702,-1.293 -6.973,1.336 -14.066,2.922 -21.558,4.504 -7.293,1.535 -15.45,3.711 -23.266,5.457 -22.691,5.074 -42.5,6.504 -30.133,-21.723 0.383,-0.875 0.762,-1.75 1.211,-2.683 13.078,-27.332 54.113,-18.512 7.297,-55.098 -9.867,-7.711 -25.723,-8.297 -34.356,-15.656 -13.761,-11.723 -10.132,-22.192 -20.742,-34.356 -12.519,-14.355 -27.222,-18.426 -39.715,-30.207 -23.347,-22.015 -16.589,-19.562 -22.679,-53.183 -7.946,-43.875 1.824,-57.52 20.929,-93.582 3.395,-0.52 6.789,-1 10.188,-1.551 -0.609,-0.571 -1.297,-1.086 -1.926,-1.649 16.203,4.856 26.106,18.012 33.375,34.571 5.281,12.027 9.199,25.82 13.129,39.543 0.402,1.402 0.805,2.796 1.207,4.199 2.969,-2.207 6.047,-4.176 9.246,-6.051 5.535,-3.25 11.457,-6.23 17.93,-9.684 35.367,-18.882 72.953,-54.945 111.707,-70.691 0.25,-2.922 0.637,-6.027 1.172,-9.312 2.312,-14.168 6.679,-21.204 9.023,-25.887 13.763,-0.039 27.643,0.254 41.643,0.762 -2.53,7.867 -6.02,18.035 -9.28,27.117 26.97,2.519 51.65,17.211 71.63,8.09 0.71,-0.321 1.4,-0.821 2.09,-1.403 -2.1,-1.937 -4.28,-4.035 -6.66,-6.492 -14.84,-15.285 -18.97,-23.371 -29.25,-29.883 0.28,-29.301 -32.94,-29.312 -40.13,-54.914 -11.46,-40.879 28.6,-32.008 53.23,-44.699 2.79,-1.434 5.25,-2.832 7.49,-4.199 5.2,18.812 9.56,37.472 21.17,54.922 12.31,-8.543 20.36,-21.329 24.66,-36.145 22.49,-10.66 42.35,-2.598 57.62,16.356 13.96,-8.594 16.37,-22.762 8.97,-36.84 34.98,-21.2542 30.61,32.008 50.29,48.011 11.97,9.731 39.8,15.266 62.04,20.45 6.88,0.132 14.06,0.195 21.83,-0.149 4.97,-0.222 9.74,-0.863 14.37004,-1.789 l 0,50.195 c -6.51004,-3.765 -14.69004,-8.671 -24.04004,-14.234 -28.72,-2.422 -62.27,-1.758 -74.08,15.84 2.79,5.488 5.52,10.766 8.14,15.996 6.78,13.52 12.8,26.645 16.76,41.793 -6.46,-3.805 -23.68,-12.43 -44.4,-20.691 9.11,12.441 18.16,25.91 30.85,34.363 16.49,10.98 45.01,16.859 63.84,26.672 4.54,-1.207 9.13,-2.696 13.23,-5.254 2.57,-1.602 4.96,-3.594 6.98,-6.305 1.67,-2.223 2.53004,-13 2.72004,-24.988 l 0,51.211 c -0.68004,0.887 -1.36004,1.746 -2.07004,2.562 0.78,0.887 1.47,1.739 2.07004,2.528 l 0,10.988 c -5.10004,1.863 -15.50004,1.109 -27.19004,0.598 z m -23,-179.586 -40.64,-6.774 c 7.45,2.77 15.3,5.156 23.36,7.238 5.75,-0.437 11.46,-0.519 17.28,-0.464 z m -51.68,8.433 c 7.58,-3.066 14.65,-5.035 21.49,-6.312 -54.75,-29.239 -113.6,-52.852 -119.56,-17.649 -1.94,11.465 5.22,22.403 16.46,32.278 -0.08,0.082 -0.17,0.152 -0.25,0.238 -10.53,11.351 -8.92,19.394 -2,25.586 2.94,-0.047 5.9,-0.262 8.86,-0.809 7.77,-1.426 14.65,-3.574 21.04,-6.164 18.55,-7.504 33.13,-18.738 53.96,-27.168"
       class="color4" />
    <path
       d="m -122.75652,1591.7108 c 0.543,2.165 0.86,4.231 1.004,6.223 -3.109,-0.5 -6.3,-0.894 -9.55,-1.191 2.503,-1.188 5.316,-2.809 8.546,-5.032"
       class="color4" />
    <path
       d="m -202.10352,1600.3358 c 0.82,-12.972 3.254,-27.039 7.722,-39.714 11.137,0.472 31.817,1.957 44.969,-1.067 -0.168,15.403 -1.07,30.242 3.606,36.457 -18.68,-0.269 -38.399,1.809 -56.297,4.324"
       class="color4" />
    <path
       d="m -152.19752,1529.5468 c -3.672,-2.668 -8.113,-4.586 -13.141,-5.863 2.797,-1.238 5.75,-2.18 8.914,-2.707 1.844,2.406 3.208,5.32 4.227,8.57"
       class="color4" />
    <path
       d="m -74.119522,1724.8558 c -24.289,-8.789 -56.499998,-15.758 -70.815998,-23.363 1.426,-8.914 7.363,-15.664 15.32,-21.266 25.254,9.672 39.909998,16.348 55.495998,44.629"
       class="color4" />
    <path
       d="m 875.67552,1230.3948 0,28.641 c -0.19,-11.953 -0.99004,-23.047 -2.28004,-26.176 0.82,-0.793 1.53,-1.633 2.28004,-2.465"
       class="color4" />
    <path
       d="m 198.43148,1401.5008 c -4.211,3.898 -36.023,36.378 -36.023,36.378 -19.497,10.079 -7.438,9.008 -29.75,-10.843 -18.313,-16.293 -26.04,-50.797 -51.344001,-60.067 -23.926,-8.765 -35.973,7.145 -59.254,8.614 0.457,-28.25 40.113,-52.286 37.59,-80.434 -6.012,-1.641 -12.414,-2.711 -18.914,-3.703 4.199,-3.656 10.914,-7.32 21.816,-11.535 17.094,-6.61 38.578001,-9.34 59.320001,-11.617 1.344,4.402 3.278,8.761 5.883,12.984 1.801,-0.324 9.153,-0.258 11.078,-0.098 0.203,-3.84 0.742,-7.301 1.52,-10.492 0.394,-1.609 0.847,-3.148 1.371,-4.598 4.371,-0.519 8.637,-1.066 12.711,-1.687 22.894,-3.488 45.703,-6.254 68.473,-8.902 -3.489,4.609 -8.012,8.031 -13.223,10.714 -7.789,4.024 -17.008,6.539 -26.258,9.344 -1.793,0.543 -3.586,1.106 -5.367,1.688 -9.266,3.019 -18.262,6.718 -25.488,13.007 9.324,12.969 4.902,30.989 6.761,45.95 1.766,14.218 8.371,35.183 14.258,49.14 -0.391,-0.922 47.649,-13.824 51.731,-13.949 2.32,27.199 -14.012,18.18 -26.891,30.106"
       class="color4" />
    <path
       d="m -344.43952,1915.3638 c -0.61,-0.57 -1.297,-1.086 -1.926,-1.649 16.203,4.856 26.109,18.012 33.379,34.575 5.277,12.027 9.195,25.82 13.125,39.541 0.402,1.4 0.805,2.79 1.207,4.2 2.969,-2.21 6.047,-4.18 9.246,-6.05 5.535,-3.25 11.457,-6.23 17.93,-9.687 35.367,-18.883 72.953,-54.946 111.707,-70.692 0.25,-2.922 0.637,-6.027 1.172,-9.312 2.312,-14.168 6.675,-21.204 9.023,-25.887 13.762,-0.035 27.649,0.254 41.645,0.762 -2.532,7.867 -6.02,18.035 -9.282,27.117 26.964998,2.519 51.656998,17.211 71.628998,8.09 0.703,-0.321 1.399,-0.821 2.094,-1.403 -2.101,-1.941 -4.281,-4.039 -6.664,-6.492 -14.844,-15.285 -18.969,-23.371 -29.25,-29.883 0.281,-29.3 -32.944998,-29.312 -40.124998,-54.914 -11.461,-40.879 28.593998,-32.008 53.226998,-44.699 2.789,-1.434 5.253,-2.832 7.484,-4.195 5.207,18.812 9.566,37.468 21.172,54.918 12.305,-8.543 20.359001,-21.328 24.664001,-36.145 22.4960004,-10.66 42.351,-2.598 57.621,16.356 13.953,-8.594 16.363,-22.762 8.965,-36.84 34.976,-21.254 30.605,32.008 50.297001,48.011 11.972,9.731 39.797,15.266 62.031,20.45 6.883,0.133 14.07,0.195 21.836,-0.149 60.808,-2.707 94.039,-63.351 157.918,-53.324 -7.957,17.152 -21.899,27.785 -36.801,36.063 3.445,9.609 2.918,17.05 -0.043,23.277 24.863,14.027 62.399,16.625 84.102,3.324 9.097,-5.574 21.093,-32.109 33.613,-46.269 10.164,-11.493 20.676,-14.836 30.269,7.875 -3.382,2.07 -6.187,4.242 -8.519,6.546 -7.078,7 -9.668,15.266 -9.91,26.043 22.133,1.047 33.679,1.907 44.578,-3.699 5.234,-2.695 10.328,-6.863 16.363,-13.265 4.293,-4.551 6.871,-10.118 9.242,-15.914 -5.136,-9.981 -11.043,-19.559 -14.293,-29.676 -2.507,-7.805 -3.441,-15.934 -1.191,-24.828 24.086,11.507 26.473,-2.313 31.219,-16.18 11.341,1.383 23.201,2.84 35.451,4.344 -3.63,1.793 -7.07,3.855 -10.14,6.34 -1.5,1.214 -2.95,2.503 -4.24,3.953 -7.39,8.293 -11.64,16.656 -13.57,25.129 0.89,-0.442 1.75,-0.899 2.73,-1.297 6.1,-2.512 13.2,-3.379 20.66,-3.332 18.55,0.113 39.43,6.019 53.39,7.484 17.7,1.852 45.35,2.301 66.14,8.133 -10.18,41.082 -51.92,21.824 -78.64,20.105 -11.77,-0.758 -24.64,3.176 -34.31,8.778 -15.84,9.172 -23.09,22.828 -3.02,27.781 3.17,0.781 7.01,1.359 11.62,1.652 0.37,2.301 0.92,4.481 1.6,6.59 18.63,58.004 152.87,46.035 202.85,47.695 -11.74,16.692 -25.1,31.348 -42.28,44.391 -17.51,-2.633 -39.42,-11.078 -57.39,-12.004 -16.92,-0.879 -40.18,7.988 -57.29,3.344 -10.45,-2.836 -31.08,-22.383 -42.84,-27.996 -15.91,-7.606 -32.32,-11.098 -49.057,-17.625 0,-36.293 -54.414,-33.535 -79.93,-9.848 -6.758,6.27 -11.512,13.988 -12.664,22.859 -2.73,21.016 20.375,36.481 16.867,54.399 -7.644,39.066 -21.496,13.137 -33.218,-0.016 -5.93,-6.648 -11.915,-17.375 -18.571,-28.351 -4.937,-8.149 -10.246,-16.422 -16.187,-23.282 -8.332,-9.621 -17.887,-16.433 -29.375,-16.105 -3.192,0.09 -6.528,0.73 -10.028,2.016 -13.281,4.863 -19.793,16.242 -25.761,27.996 -10.301,20.277 -18.993,41.687 -58.078,32.73 11.113,-11.062 22,-25.476 24.335,-39.75 1.911,-11.664 -1.921,-23.23 -16.007,-32.804 -0.282,0.296 -0.571,0.585 -0.844,0.89 -8.449,9.363 -15.078,13.938 -18.656,22.442 -2.703,-0.821 -5.422,-1.633 -8.051,-2.473 -11.203,23.488 -17.641,60.808 -30.016,85.973 -2.875,5.85 -6.074,11.04 -9.722,15.25 14.64,16.96 -2.922,15.1 -25.122,14.12 -26.246,-1.15 -32.324,-18.55 -55.421,9.99 -28.481001,-46.364 -44.704001,-76.005 -104.055001,-92.396 -19.7069996,-5.441 -30.199,-5.847 -40.715001,-10.636 -1.605,5.746 -1.633,13.015 0.305,22.093 2.094001,9.829 8.113001,15.922 15.9720014,20.114 20.7539996,11.054 54.4539996,8.769 63.4969996,26.345 3.128,6.09 4.769,10.75 5.273,14.29 2.277,16.1 -19.629,8.49 -38.438,1.27 -11.246,-4.31 -21.37799959,-8.48 -24.5429996,-7.33 -0.476,2.19 -0.878,4.35 -1.242,6.47 -2.488,14.51 -3.117,27.47 -11.9840004,39.04 -13.320001,-11.25 -16.738001,-26.4 -23.293001,-40.28 -4.664,-9.88 -10.906,-19.12 -23.484,-25.844 -27.153,-14.528 -39.847998,-7.774 -39.621998,-21 0.094,-5.43 2.356,-14.2 6.699998,-29.219 -12.085998,-2.785 -24.593998,-1.074 -36.863998,3.031 -7.296,6.027 -13.175,8.293 -17.582,7.418 -16.906,8.57 -32.648,20.145 -45.308,29.09 -0.172,0.121 -0.356,0.25 -0.528,0.371 -16.46,11.609 -24.113,32.943 -37.628,41.973 -16.872,11.27 -35.543,0.37 -45.614,20.83 -2.152,0.45 -4.371,0.76 -6.605,1 4.113,8.71 9.047,16.3 15.433,21.9 28.657,25.15 134.762,43.69 138.211,-13.72 0.071,-1.2 0.168,-2.39 0.149,-3.65 19.594,-1.84 25.922,20.28 31.402,36.38 4.507998,13.23 8.456998,22.33 18.702998,10.71 1.289,-1.47 2.653,-3.18 4.156,-5.33 21.657,-6.03 38.266,3.56 34.629,22.1 -0.402,2.06 -0.984,4.19 -1.902,6.46 -11.852,29.15 -31.297,11.55 -53.359,7.09 -43.925998,-8.89 -73.472998,-13.99 -97.159998,30.29 14.585,14 47.89,5.92 70.105,17.7 12.832,6.8 22.621,12.6 32.311998,17.51 12.606,6.38 25.051,11.24 43.817,14.79 0.531,0.1 1.141,0.22 1.797,0.37 9.5,2.04 31.043001,7.96 36.629001,7.03 8.9450004,-1.48 29.828,-16.89 31.172,-16.97 3.89,-0.23 7.835,0.01 11.644,0.61 23.613,3.76 41.957,22.14 10.539,38.21 -18.808,9.62 -70.933001,-15.99 -28.453,28.25 1.324,1.38 56.496,32.74 61.688,34.15 1.3,0.36 2.558,0.55 3.82,0.75 26.183001,4.24 43.969001,-22.18 70.234001,-12.18 35.645,13.58 29.11,53.29 -11.14,45.61 3.371,2.59 7.461,5.23 11.859,8.01 l -152.8360006,0 c 0.797,-4.4 2.09400001,-8.66 3.75800001,-12.29 5.86299999,-2.31 12.30099959,-7.27 16.56599959,-9.04 -27.1639996,-15.06 -47.441001,-15.2 -72.476001,7.29 -3.442,3.09 -8.008,8.42 -13.032,14.04 l -40.045998,0 c -0.016,-0.18 -0.04,-0.33 -0.055,-0.51 -2.688,-31.93 52.714998,-37.62 44.968998,-70 -3.325,-13.91 -54.023998,-35.01 -65.820998,-38.32 -24.09,-6.75 -42.898,-5.07 -62.695,-1.29 -6.973,1.33 -14.07,2.92 -21.566,4.5 -7.289,1.54 -15.446,3.72 -23.262,5.46 -22.692,5.08 -42.5,6.51 -30.137,-21.72 0.387,-0.88 0.766,-1.75 1.215,-2.68 13.074,-27.34 54.113,-18.52 7.297,-55.1 -9.875,-7.71 -25.723,-8.3 -34.36,-15.66 -13.753,-11.72 -10.125,-22.19 -20.738,-34.35 -12.519,-14.36 -27.222,-18.43 -39.711,-30.21 -23.3474,-22.02 -16.593,-19.56 -22.6794,-53.18 -7.9453,-43.879 1.8164,-57.524 20.9254,-93.586 3.395,-0.52 6.789,-1 10.188,-1.551 z m 346.6369994,-99.606 c -1.94199999,11.465 5.222,22.399 16.4569996,32.274 -0.082,0.086 -0.176,0.156 -0.254,0.242 -10.5279996,11.352 -8.9179996,19.395 -1.996,25.586 2.937,-0.047 5.89,-0.262 8.863,-0.809 7.773,-1.425 14.644,-3.574 21.043,-6.164 18.547,-7.504 33.121,-18.738 53.957001,-27.168 7.582,-3.066 14.652,-5.039 21.492,-6.312 -54.754001,-29.238 -113.6050006,-52.852 -119.5620006,-17.649 z m 109.1090006,8.754 c 7.453,2.77 15.293,5.157 23.352,7.239 5.757,-0.438 11.472,-0.52 17.289,-0.465 l -40.641,-6.774 z m 4.066,128.348 c 16.485,10.976 45.004,16.859 63.832,26.671 4.547,-1.21 9.129,-2.69 13.227,-5.253 2.57,-1.602 4.961,-3.594 6.988,-6.305 3.789,-5.058 3.414,-54.383 0.434,-61.574 6.305,-6.117 10.363,-13.258 12.019,-21.191 -6.828,-3.512 -18.828,-10.754 -33.773,-19.649 -28.723,-2.422 -62.27,-1.758 -74.082,15.84 2.785,5.488 5.512,10.766 8.137,15.992 6.785,13.524 12.804,26.653 16.765,41.797 -6.465,-3.805 -23.679,-12.43 -44.402001,-20.691 9.109,12.441 18.164001,25.91 30.855001,34.363"
       class="color4" />
    <path
       d="m -471.40452,2072.2308 0,-21.78 c 11,-2.91 21.3867,-5.46 23.1953,-5.52 2.0977,24.65 -11.1133,19.6 -23.1953,27.3"
       class="color4" />
    <path
       d="m -463.85374,1939.7538 c -2.39062,1.239 -4.92187,2.332 -7.55078,3.332 l 0,-11.574 c 6.92969,-0.843 13.8516,-1.668 20.7695,-2.472 -3.4843,4.609 -8.0078,8.031 -13.21872,10.714"
       class="color4" />
    <path
       d="m -471.40452,1336.7348 0,-10.988 c 4.76953,6.324 4.07813,9.496 0,10.988"
       class="color4" />
    <path
       d="m -82.681522,991.4261 c -9.028,7.6602 -17.534998,10.8516 -22.183998,-0.0547 -1.305,-3.0586 -2.293,-7.25388 -2.91,-12.74997 -0.082,-0.70313 -0.168,-1.39063 -0.234,-2.14063 l 40.049998,0 c -4.695,5.25781 -9.781,10.7578 -14.722,14.9453"
       class="color4" />
    <path
       d="m 125.25148,1004.7386 c -18.863,11.2305 -16.801,27.5938 -13.504,44.6875 2.387,12.3594 5.399,25.086 1.633,36.5387 -0.867,2.641 -2.074,5.215 -3.754,7.7 -6.312,9.316 -21.554001,14.515 -36.051001,13.812 -14.933,-0.726 -29.078,-7.715 -31.828,-22.969 -0.289,-1.609 -0.347,-3.152 -0.25,-4.656 1.012,-15.6366 21.567,-26.0819 33.336,-40.6054 7.356,-9.0781 11.282,-19.75 4.805,-34.3086 -13.984,-31.3945 -59.816,-19.06247 -82.6909996,-12.7109 -0.137,-0.75 -0.215,-1.5313 -0.305,-2.3047 -0.492,-4.30468 -0.242,-8.93359 0.578,-13.4414 l 152.8320006,0.004 c 4.055,2.56251 8.371,5.24219 12.641,8.10548 19.672,13.19142 38.172,30.18752 24.132,57.10942 -26.89,51.5622 -41.402,-24.8907 -61.574,-36.961"
       class="color4" />
    <path
       d="m -77.439522,1128.6798 c -11.777,-0.758 -24.644998,3.176 -34.316998,8.778 -15.835,9.171 -23.089,22.828 -3.015,27.781 3.172,0.781 7.004,1.359 11.621,1.652 0.363,2.301 0.922,4.481 1.601,6.59 18.628998,58.004 152.863999,46.035 202.844,47.695 -11.738001,16.692 -25.101001,31.348 -42.281001,44.391 -17.508,-2.633 -39.422,-11.078 -57.3829996,-12.004 -16.9300004,-0.879 -40.1830014,7.988 -57.2970014,3.344 -10.445,-2.836 -31.082,-22.383 -42.836,-27.996 -15.917998,-7.61 -32.323998,-11.098 -49.057998,-17.625 0,-36.293 -54.414,-33.535 -79.93,-9.848 -6.758,6.27 -11.512,13.988 -12.664,22.859 -2.73,21.016 20.375,36.481 16.867,54.399 -7.644,39.062 -21.496,13.137 -33.219,-0.016 -5.929,-6.648 -11.91,-17.375 -18.57,-28.351 -4.937,-8.149 -10.254,-16.426 -16.187,-23.282 -8.332,-9.621 -17.883,-16.433 -29.375,-16.105 -3.192,0.09 -6.528,0.73 -10.028,2.016 -13.281,4.863 -19.793,16.242 -25.761,27.996 -10.297,20.281 -18.9926,41.687 -58.0786,32.73 11.1133,-11.062 22,-25.476 24.336,-39.75 1.9101,-11.664 -1.9219,-23.23 -16.0078,-32.805 -0.2813,0.297 -0.5703,0.59 -0.8438,0.891 -8.4492,9.367 -15.0781,13.938 -18.6523,22.441 -2.7071,-0.816 -5.4258,-1.632 -8.0547,-2.472 -11.2031,23.488 -17.6406,60.808 -30.01564,85.972 -2.31641,4.719 -4.85157,9.004 -7.66016,12.696 l 0,-51.211 c 0.0547,-3.43 0.0547,-6.953 0,-10.41 l 0,-28.641 c 4.98047,-5.551 8.29688,-11.824 9.73828,-18.73 -2.5625,-1.317 -5.84375,-3.153 -9.73828,-5.411 l 0,-50.195 c 52.0586,-10.387 84.8906,-60.742 143.551,-51.535 -7.957,17.152 -21.899,27.785 -36.801,36.066 3.441,9.606 2.918,17.047 -0.043,23.274 24.863,14.027 62.398,16.621 84.102,3.324 9.097,-5.574 21.093,-32.109 33.613,-46.269 10.164,-11.493 20.676,-14.836 30.269,7.875 -3.382,2.07 -6.187,4.242 -8.515,6.546 -7.082,7 -9.672,15.266 -9.914,26.043 22.133,1.047 33.679,1.907 44.578,-3.699 5.234,-2.695 10.324,-6.863 16.363,-13.265 4.293,-4.547 6.871,-10.118 9.242,-15.911 -5.136,-9.984 -11.043,-19.562 -14.297,-29.679 -2.507,-7.805 -3.441,-15.934 -1.191,-24.8285 24.09,11.5075 26.477,-2.3125 31.219,-16.1797 11.347,1.3829 23.211,2.8399 35.457,4.3438 -3.629,1.7969 -7.07,3.8555 -10.141,6.3398 -1.504,1.2188 -2.949,2.5039 -4.238,3.9532 -7.391,8.2934 -11.641,16.6564 -13.574,25.1324 0.89,-0.441 1.75,-0.902 2.726,-1.3 6.102,-2.512 13.203,-3.379 20.664,-3.332 18.554998,0.113 39.433998,6.019 53.394998,7.484 17.695,1.852 45.344001,2.301 66.1330014,8.133 -10.172,41.082 -51.9140014,21.824 -78.6330014,20.105"
       class="color4" />
  </g>
</svg>
